G04 #@! TF.GenerationSoftware,KiCad,Pcbnew,5.0.2-bee76a0~70~ubuntu18.04.1*
G04 #@! TF.CreationDate,2020-01-07T12:16:07+05:00*
G04 #@! TF.ProjectId,headamp,68656164-616d-4702-9e6b-696361645f70,rev?*
G04 #@! TF.SameCoordinates,Original*
G04 #@! TF.FileFunction,Soldermask,Bot*
G04 #@! TF.FilePolarity,Negative*
%FSLAX46Y46*%
G04 Gerber Fmt 4.6, Leading zero omitted, Abs format (unit mm)*
G04 Created by KiCad (PCBNEW 5.0.2-bee76a0~70~ubuntu18.04.1) date Вт 07 янв 2020 12:16:07*
%MOMM*%
%LPD*%
G01*
G04 APERTURE LIST*
%ADD10C,0.100000*%
G04 APERTURE END LIST*
D10*
G36*
X-228810607Y150250696D02*
X-228573898Y150152648D01*
X-228360862Y150010302D01*
X-228179698Y149829138D01*
X-228037352Y149616102D01*
X-227939304Y149379393D01*
X-227889320Y149128107D01*
X-227889320Y148871893D01*
X-227939304Y148620607D01*
X-228037352Y148383898D01*
X-228179698Y148170862D01*
X-228360862Y147989698D01*
X-228573898Y147847352D01*
X-228810607Y147749304D01*
X-229061893Y147699320D01*
X-229318107Y147699320D01*
X-229569393Y147749304D01*
X-229806102Y147847352D01*
X-230019138Y147989698D01*
X-230200302Y148170862D01*
X-230342648Y148383898D01*
X-230440696Y148620607D01*
X-230490680Y148871893D01*
X-230490680Y149128107D01*
X-230440696Y149379393D01*
X-230342648Y149616102D01*
X-230200302Y149829138D01*
X-230019138Y150010302D01*
X-229806102Y150152648D01*
X-229569393Y150250696D01*
X-229318107Y150300680D01*
X-229061893Y150300680D01*
X-228810607Y150250696D01*
X-228810607Y150250696D01*
G37*
G36*
X-231699320Y147699320D02*
X-234300680Y147699320D01*
X-234300680Y150300680D01*
X-231699320Y150300680D01*
X-231699320Y147699320D01*
X-231699320Y147699320D01*
G37*
G36*
X-232711134Y157436029D02*
X-232676219Y157425437D01*
X-232644031Y157408232D01*
X-232615823Y157385083D01*
X-232592674Y157356875D01*
X-232575469Y157324687D01*
X-232564877Y157289772D01*
X-232560696Y157247315D01*
X-232560696Y156106105D01*
X-232564877Y156063648D01*
X-232575469Y156028733D01*
X-232592674Y155996545D01*
X-232615823Y155968337D01*
X-232644031Y155945188D01*
X-232676219Y155927983D01*
X-232711134Y155917391D01*
X-232753591Y155913210D01*
X-234219801Y155913210D01*
X-234262258Y155917391D01*
X-234297173Y155927983D01*
X-234329361Y155945188D01*
X-234357569Y155968337D01*
X-234380718Y155996545D01*
X-234397923Y156028733D01*
X-234408515Y156063648D01*
X-234412696Y156106105D01*
X-234412696Y157247315D01*
X-234408515Y157289772D01*
X-234397923Y157324687D01*
X-234380718Y157356875D01*
X-234357569Y157385083D01*
X-234329361Y157408232D01*
X-234297173Y157425437D01*
X-234262258Y157436029D01*
X-234219801Y157440210D01*
X-232753591Y157440210D01*
X-232711134Y157436029D01*
X-232711134Y157436029D01*
G37*
G36*
X-227711134Y157436029D02*
X-227676219Y157425437D01*
X-227644031Y157408232D01*
X-227615823Y157385083D01*
X-227592674Y157356875D01*
X-227575469Y157324687D01*
X-227564877Y157289772D01*
X-227560696Y157247315D01*
X-227560696Y156106105D01*
X-227564877Y156063648D01*
X-227575469Y156028733D01*
X-227592674Y155996545D01*
X-227615823Y155968337D01*
X-227644031Y155945188D01*
X-227676219Y155927983D01*
X-227711134Y155917391D01*
X-227753591Y155913210D01*
X-229219801Y155913210D01*
X-229262258Y155917391D01*
X-229297173Y155927983D01*
X-229329361Y155945188D01*
X-229357569Y155968337D01*
X-229380718Y155996545D01*
X-229397923Y156028733D01*
X-229408515Y156063648D01*
X-229412696Y156106105D01*
X-229412696Y157247315D01*
X-229408515Y157289772D01*
X-229397923Y157324687D01*
X-229380718Y157356875D01*
X-229357569Y157385083D01*
X-229329361Y157408232D01*
X-229297173Y157425437D01*
X-229262258Y157436029D01*
X-229219801Y157440210D01*
X-227753591Y157440210D01*
X-227711134Y157436029D01*
X-227711134Y157436029D01*
G37*
G36*
X-227711134Y160411029D02*
X-227676219Y160400437D01*
X-227644031Y160383232D01*
X-227615823Y160360083D01*
X-227592674Y160331875D01*
X-227575469Y160299687D01*
X-227564877Y160264772D01*
X-227560696Y160222315D01*
X-227560696Y159081105D01*
X-227564877Y159038648D01*
X-227575469Y159003733D01*
X-227592674Y158971545D01*
X-227615823Y158943337D01*
X-227644031Y158920188D01*
X-227676219Y158902983D01*
X-227711134Y158892391D01*
X-227753591Y158888210D01*
X-229219801Y158888210D01*
X-229262258Y158892391D01*
X-229297173Y158902983D01*
X-229329361Y158920188D01*
X-229357569Y158943337D01*
X-229380718Y158971545D01*
X-229397923Y159003733D01*
X-229408515Y159038648D01*
X-229412696Y159081105D01*
X-229412696Y160222315D01*
X-229408515Y160264772D01*
X-229397923Y160299687D01*
X-229380718Y160331875D01*
X-229357569Y160360083D01*
X-229329361Y160383232D01*
X-229297173Y160400437D01*
X-229262258Y160411029D01*
X-229219801Y160415210D01*
X-227753591Y160415210D01*
X-227711134Y160411029D01*
X-227711134Y160411029D01*
G37*
G36*
X-232711134Y160411029D02*
X-232676219Y160400437D01*
X-232644031Y160383232D01*
X-232615823Y160360083D01*
X-232592674Y160331875D01*
X-232575469Y160299687D01*
X-232564877Y160264772D01*
X-232560696Y160222315D01*
X-232560696Y159081105D01*
X-232564877Y159038648D01*
X-232575469Y159003733D01*
X-232592674Y158971545D01*
X-232615823Y158943337D01*
X-232644031Y158920188D01*
X-232676219Y158902983D01*
X-232711134Y158892391D01*
X-232753591Y158888210D01*
X-234219801Y158888210D01*
X-234262258Y158892391D01*
X-234297173Y158902983D01*
X-234329361Y158920188D01*
X-234357569Y158943337D01*
X-234380718Y158971545D01*
X-234397923Y159003733D01*
X-234408515Y159038648D01*
X-234412696Y159081105D01*
X-234412696Y160222315D01*
X-234408515Y160264772D01*
X-234397923Y160299687D01*
X-234380718Y160331875D01*
X-234357569Y160360083D01*
X-234329361Y160383232D01*
X-234297173Y160400437D01*
X-234262258Y160411029D01*
X-234219801Y160415210D01*
X-232753591Y160415210D01*
X-232711134Y160411029D01*
X-232711134Y160411029D01*
G37*
G36*
X-227711134Y167013529D02*
X-227676219Y167002937D01*
X-227644031Y166985732D01*
X-227615823Y166962583D01*
X-227592674Y166934375D01*
X-227575469Y166902187D01*
X-227564877Y166867272D01*
X-227560696Y166824815D01*
X-227560696Y165683605D01*
X-227564877Y165641148D01*
X-227575469Y165606233D01*
X-227592674Y165574045D01*
X-227615823Y165545837D01*
X-227644031Y165522688D01*
X-227676219Y165505483D01*
X-227711134Y165494891D01*
X-227753591Y165490710D01*
X-229219801Y165490710D01*
X-229262258Y165494891D01*
X-229297173Y165505483D01*
X-229329361Y165522688D01*
X-229357569Y165545837D01*
X-229380718Y165574045D01*
X-229397923Y165606233D01*
X-229408515Y165641148D01*
X-229412696Y165683605D01*
X-229412696Y166824815D01*
X-229408515Y166867272D01*
X-229397923Y166902187D01*
X-229380718Y166934375D01*
X-229357569Y166962583D01*
X-229329361Y166985732D01*
X-229297173Y167002937D01*
X-229262258Y167013529D01*
X-229219801Y167017710D01*
X-227753591Y167017710D01*
X-227711134Y167013529D01*
X-227711134Y167013529D01*
G37*
G36*
X-232711134Y167013529D02*
X-232676219Y167002937D01*
X-232644031Y166985732D01*
X-232615823Y166962583D01*
X-232592674Y166934375D01*
X-232575469Y166902187D01*
X-232564877Y166867272D01*
X-232560696Y166824815D01*
X-232560696Y165683605D01*
X-232564877Y165641148D01*
X-232575469Y165606233D01*
X-232592674Y165574045D01*
X-232615823Y165545837D01*
X-232644031Y165522688D01*
X-232676219Y165505483D01*
X-232711134Y165494891D01*
X-232753591Y165490710D01*
X-234219801Y165490710D01*
X-234262258Y165494891D01*
X-234297173Y165505483D01*
X-234329361Y165522688D01*
X-234357569Y165545837D01*
X-234380718Y165574045D01*
X-234397923Y165606233D01*
X-234408515Y165641148D01*
X-234412696Y165683605D01*
X-234412696Y166824815D01*
X-234408515Y166867272D01*
X-234397923Y166902187D01*
X-234380718Y166934375D01*
X-234357569Y166962583D01*
X-234329361Y166985732D01*
X-234297173Y167002937D01*
X-234262258Y167013529D01*
X-234219801Y167017710D01*
X-232753591Y167017710D01*
X-232711134Y167013529D01*
X-232711134Y167013529D01*
G37*
G36*
X-227711134Y169988529D02*
X-227676219Y169977937D01*
X-227644031Y169960732D01*
X-227615823Y169937583D01*
X-227592674Y169909375D01*
X-227575469Y169877187D01*
X-227564877Y169842272D01*
X-227560696Y169799815D01*
X-227560696Y168658605D01*
X-227564877Y168616148D01*
X-227575469Y168581233D01*
X-227592674Y168549045D01*
X-227615823Y168520837D01*
X-227644031Y168497688D01*
X-227676219Y168480483D01*
X-227711134Y168469891D01*
X-227753591Y168465710D01*
X-229219801Y168465710D01*
X-229262258Y168469891D01*
X-229297173Y168480483D01*
X-229329361Y168497688D01*
X-229357569Y168520837D01*
X-229380718Y168549045D01*
X-229397923Y168581233D01*
X-229408515Y168616148D01*
X-229412696Y168658605D01*
X-229412696Y169799815D01*
X-229408515Y169842272D01*
X-229397923Y169877187D01*
X-229380718Y169909375D01*
X-229357569Y169937583D01*
X-229329361Y169960732D01*
X-229297173Y169977937D01*
X-229262258Y169988529D01*
X-229219801Y169992710D01*
X-227753591Y169992710D01*
X-227711134Y169988529D01*
X-227711134Y169988529D01*
G37*
G36*
X-232711134Y169988529D02*
X-232676219Y169977937D01*
X-232644031Y169960732D01*
X-232615823Y169937583D01*
X-232592674Y169909375D01*
X-232575469Y169877187D01*
X-232564877Y169842272D01*
X-232560696Y169799815D01*
X-232560696Y168658605D01*
X-232564877Y168616148D01*
X-232575469Y168581233D01*
X-232592674Y168549045D01*
X-232615823Y168520837D01*
X-232644031Y168497688D01*
X-232676219Y168480483D01*
X-232711134Y168469891D01*
X-232753591Y168465710D01*
X-234219801Y168465710D01*
X-234262258Y168469891D01*
X-234297173Y168480483D01*
X-234329361Y168497688D01*
X-234357569Y168520837D01*
X-234380718Y168549045D01*
X-234397923Y168581233D01*
X-234408515Y168616148D01*
X-234412696Y168658605D01*
X-234412696Y169799815D01*
X-234408515Y169842272D01*
X-234397923Y169877187D01*
X-234380718Y169909375D01*
X-234357569Y169937583D01*
X-234329361Y169960732D01*
X-234297173Y169977937D01*
X-234262258Y169988529D01*
X-234219801Y169992710D01*
X-232753591Y169992710D01*
X-232711134Y169988529D01*
X-232711134Y169988529D01*
G37*
G36*
X-244698940Y176858940D02*
X-248301060Y176858940D01*
X-248301060Y180461060D01*
X-244698940Y180461060D01*
X-244698940Y176858940D01*
X-244698940Y176858940D01*
G37*
G36*
X-273199320Y177359320D02*
X-275800680Y177359320D01*
X-275800680Y179960680D01*
X-273199320Y179960680D01*
X-273199320Y177359320D01*
X-273199320Y177359320D01*
G37*
G36*
X-270310607Y179910696D02*
X-270073898Y179812648D01*
X-269860862Y179670302D01*
X-269679698Y179489138D01*
X-269537352Y179276102D01*
X-269439304Y179039393D01*
X-269389320Y178788107D01*
X-269389320Y178531893D01*
X-269439304Y178280607D01*
X-269537352Y178043898D01*
X-269679698Y177830862D01*
X-269860862Y177649698D01*
X-270073898Y177507352D01*
X-270310607Y177409304D01*
X-270561893Y177359320D01*
X-270818107Y177359320D01*
X-271069393Y177409304D01*
X-271306102Y177507352D01*
X-271519138Y177649698D01*
X-271700302Y177830862D01*
X-271842648Y178043898D01*
X-271940696Y178280607D01*
X-271990680Y178531893D01*
X-271990680Y178788107D01*
X-271940696Y179039393D01*
X-271842648Y179276102D01*
X-271700302Y179489138D01*
X-271519138Y179670302D01*
X-271306102Y179812648D01*
X-271069393Y179910696D01*
X-270818107Y179960680D01*
X-270561893Y179960680D01*
X-270310607Y179910696D01*
X-270310607Y179910696D01*
G37*
G36*
X-258943435Y180420611D02*
X-258752166Y180341385D01*
X-258580024Y180226363D01*
X-258433637Y180079976D01*
X-258318615Y179907834D01*
X-258239389Y179716565D01*
X-258199000Y179513516D01*
X-258199000Y179306484D01*
X-258239389Y179103435D01*
X-258318615Y178912166D01*
X-258433637Y178740024D01*
X-258580024Y178593637D01*
X-258752166Y178478615D01*
X-258943435Y178399389D01*
X-259146484Y178359000D01*
X-259353516Y178359000D01*
X-259556565Y178399389D01*
X-259747834Y178478615D01*
X-259919976Y178593637D01*
X-260066363Y178740024D01*
X-260181385Y178912166D01*
X-260260611Y179103435D01*
X-260301000Y179306484D01*
X-260301000Y179513516D01*
X-260260611Y179716565D01*
X-260181385Y179907834D01*
X-260066363Y180079976D01*
X-259919976Y180226363D01*
X-259747834Y180341385D01*
X-259556565Y180420611D01*
X-259353516Y180461000D01*
X-259146484Y180461000D01*
X-258943435Y180420611D01*
X-258943435Y180420611D01*
G37*
G36*
X-229943435Y183920611D02*
X-229752166Y183841385D01*
X-229580024Y183726363D01*
X-229433637Y183579976D01*
X-229318615Y183407834D01*
X-229239389Y183216565D01*
X-229199000Y183013516D01*
X-229199000Y182806484D01*
X-229239389Y182603435D01*
X-229318615Y182412166D01*
X-229433637Y182240024D01*
X-229580024Y182093637D01*
X-229752166Y181978615D01*
X-229943435Y181899389D01*
X-230146484Y181859000D01*
X-230353516Y181859000D01*
X-230556565Y181899389D01*
X-230747834Y181978615D01*
X-230919976Y182093637D01*
X-231066363Y182240024D01*
X-231181385Y182412166D01*
X-231260611Y182603435D01*
X-231301000Y182806484D01*
X-231301000Y183013516D01*
X-231260611Y183216565D01*
X-231181385Y183407834D01*
X-231066363Y183579976D01*
X-230919976Y183726363D01*
X-230747834Y183841385D01*
X-230556565Y183920611D01*
X-230353516Y183961000D01*
X-230146484Y183961000D01*
X-229943435Y183920611D01*
X-229943435Y183920611D01*
G37*
G36*
X-237443435Y183920611D02*
X-237252166Y183841385D01*
X-237080024Y183726363D01*
X-236933637Y183579976D01*
X-236818615Y183407834D01*
X-236739389Y183216565D01*
X-236699000Y183013516D01*
X-236699000Y182806484D01*
X-236739389Y182603435D01*
X-236818615Y182412166D01*
X-236933637Y182240024D01*
X-237080024Y182093637D01*
X-237252166Y181978615D01*
X-237443435Y181899389D01*
X-237646484Y181859000D01*
X-237853516Y181859000D01*
X-238056565Y181899389D01*
X-238247834Y181978615D01*
X-238419976Y182093637D01*
X-238566363Y182240024D01*
X-238681385Y182412166D01*
X-238760611Y182603435D01*
X-238801000Y182806484D01*
X-238801000Y183013516D01*
X-238760611Y183216565D01*
X-238681385Y183407834D01*
X-238566363Y183579976D01*
X-238419976Y183726363D01*
X-238247834Y183841385D01*
X-238056565Y183920611D01*
X-237853516Y183961000D01*
X-237646484Y183961000D01*
X-237443435Y183920611D01*
X-237443435Y183920611D01*
G37*
G36*
X-246273095Y185531211D02*
X-245974650Y185471847D01*
X-245646878Y185336079D01*
X-245351891Y185138975D01*
X-245101025Y184888109D01*
X-244903921Y184593122D01*
X-244768153Y184265350D01*
X-244698940Y183917389D01*
X-244698940Y183562611D01*
X-244768153Y183214650D01*
X-244903921Y182886878D01*
X-245101025Y182591891D01*
X-245351891Y182341025D01*
X-245646878Y182143921D01*
X-245974650Y182008153D01*
X-246273095Y181948789D01*
X-246322610Y181938940D01*
X-246677390Y181938940D01*
X-246726905Y181948789D01*
X-247025350Y182008153D01*
X-247353122Y182143921D01*
X-247648109Y182341025D01*
X-247898975Y182591891D01*
X-248096079Y182886878D01*
X-248231847Y183214650D01*
X-248301060Y183562611D01*
X-248301060Y183917389D01*
X-248231847Y184265350D01*
X-248096079Y184593122D01*
X-247898975Y184888109D01*
X-247648109Y185138975D01*
X-247353122Y185336079D01*
X-247025350Y185471847D01*
X-246726905Y185531211D01*
X-246677390Y185541060D01*
X-246322610Y185541060D01*
X-246273095Y185531211D01*
X-246273095Y185531211D01*
G37*
G36*
X-281693435Y184420611D02*
X-281502166Y184341385D01*
X-281330024Y184226363D01*
X-281183637Y184079976D01*
X-281068615Y183907834D01*
X-280989389Y183716565D01*
X-280949000Y183513516D01*
X-280949000Y183306484D01*
X-280989389Y183103435D01*
X-281068615Y182912166D01*
X-281183637Y182740024D01*
X-281330024Y182593637D01*
X-281502166Y182478615D01*
X-281693435Y182399389D01*
X-281896484Y182359000D01*
X-282103516Y182359000D01*
X-282306565Y182399389D01*
X-282497834Y182478615D01*
X-282669976Y182593637D01*
X-282816363Y182740024D01*
X-282931385Y182912166D01*
X-283010611Y183103435D01*
X-283051000Y183306484D01*
X-283051000Y183513516D01*
X-283010611Y183716565D01*
X-282931385Y183907834D01*
X-282816363Y184079976D01*
X-282669976Y184226363D01*
X-282497834Y184341385D01*
X-282306565Y184420611D01*
X-282103516Y184461000D01*
X-281896484Y184461000D01*
X-281693435Y184420611D01*
X-281693435Y184420611D01*
G37*
G36*
X-289193435Y184420611D02*
X-289002166Y184341385D01*
X-288830024Y184226363D01*
X-288683637Y184079976D01*
X-288568615Y183907834D01*
X-288489389Y183716565D01*
X-288449000Y183513516D01*
X-288449000Y183306484D01*
X-288489389Y183103435D01*
X-288568615Y182912166D01*
X-288683637Y182740024D01*
X-288830024Y182593637D01*
X-289002166Y182478615D01*
X-289193435Y182399389D01*
X-289396484Y182359000D01*
X-289603516Y182359000D01*
X-289806565Y182399389D01*
X-289997834Y182478615D01*
X-290169976Y182593637D01*
X-290316363Y182740024D01*
X-290431385Y182912166D01*
X-290510611Y183103435D01*
X-290551000Y183306484D01*
X-290551000Y183513516D01*
X-290510611Y183716565D01*
X-290431385Y183907834D01*
X-290316363Y184079976D01*
X-290169976Y184226363D01*
X-289997834Y184341385D01*
X-289806565Y184420611D01*
X-289603516Y184461000D01*
X-289396484Y184461000D01*
X-289193435Y184420611D01*
X-289193435Y184420611D01*
G37*
G36*
X-276819000Y182559000D02*
X-278921000Y182559000D01*
X-278921000Y184161000D01*
X-276819000Y184161000D01*
X-276819000Y182559000D01*
X-276819000Y182559000D01*
G37*
G36*
X-268079000Y182559000D02*
X-270181000Y182559000D01*
X-270181000Y184161000D01*
X-268079000Y184161000D01*
X-268079000Y182559000D01*
X-268079000Y182559000D01*
G37*
G36*
X-258943435Y187920611D02*
X-258752166Y187841385D01*
X-258580024Y187726363D01*
X-258433637Y187579976D01*
X-258318615Y187407834D01*
X-258239389Y187216565D01*
X-258199000Y187013516D01*
X-258199000Y186806484D01*
X-258239389Y186603435D01*
X-258318615Y186412166D01*
X-258433637Y186240024D01*
X-258580024Y186093637D01*
X-258752166Y185978615D01*
X-258943435Y185899389D01*
X-259146484Y185859000D01*
X-259353516Y185859000D01*
X-259556565Y185899389D01*
X-259747834Y185978615D01*
X-259919976Y186093637D01*
X-260066363Y186240024D01*
X-260181385Y186412166D01*
X-260260611Y186603435D01*
X-260301000Y186806484D01*
X-260301000Y187013516D01*
X-260260611Y187216565D01*
X-260181385Y187407834D01*
X-260066363Y187579976D01*
X-259919976Y187726363D01*
X-259747834Y187841385D01*
X-259556565Y187920611D01*
X-259353516Y187961000D01*
X-259146484Y187961000D01*
X-258943435Y187920611D01*
X-258943435Y187920611D01*
G37*
G36*
X-276819000Y187659000D02*
X-278921000Y187659000D01*
X-278921000Y189261000D01*
X-276819000Y189261000D01*
X-276819000Y187659000D01*
X-276819000Y187659000D01*
G37*
G36*
X-268079000Y187659000D02*
X-270181000Y187659000D01*
X-270181000Y189261000D01*
X-268079000Y189261000D01*
X-268079000Y187659000D01*
X-268079000Y187659000D01*
G37*
G36*
X-258514761Y195232899D02*
X-258278947Y195161366D01*
X-258061619Y195045201D01*
X-257871129Y194888871D01*
X-257714799Y194698381D01*
X-257598634Y194481053D01*
X-257527101Y194245239D01*
X-257502947Y194000000D01*
X-257527101Y193754761D01*
X-257598634Y193518947D01*
X-257714799Y193301619D01*
X-257871129Y193111129D01*
X-258061619Y192954799D01*
X-258278947Y192838634D01*
X-258514761Y192767101D01*
X-258698543Y192749000D01*
X-258821457Y192749000D01*
X-259005239Y192767101D01*
X-259241053Y192838634D01*
X-259458381Y192954799D01*
X-259648871Y193111129D01*
X-259805201Y193301619D01*
X-259921366Y193518947D01*
X-259992899Y193754761D01*
X-260017053Y194000000D01*
X-259992899Y194245239D01*
X-259921366Y194481053D01*
X-259805201Y194698381D01*
X-259648871Y194888871D01*
X-259458381Y195045201D01*
X-259241053Y195161366D01*
X-259005239Y195232899D01*
X-258821457Y195251000D01*
X-258698543Y195251000D01*
X-258514761Y195232899D01*
X-258514761Y195232899D01*
G37*
G36*
X-273816365Y195238981D02*
X-273635097Y195202925D01*
X-273407429Y195108622D01*
X-273312512Y195045200D01*
X-273202531Y194971713D01*
X-273028287Y194797469D01*
X-273028285Y194797466D01*
X-272891378Y194592571D01*
X-272797075Y194364903D01*
X-272749000Y194123213D01*
X-272749000Y193876787D01*
X-272797075Y193635097D01*
X-272891378Y193407429D01*
X-272962079Y193301618D01*
X-273028287Y193202531D01*
X-273202531Y193028287D01*
X-273202534Y193028285D01*
X-273407429Y192891378D01*
X-273635097Y192797075D01*
X-273785787Y192767101D01*
X-273876786Y192749000D01*
X-274123214Y192749000D01*
X-274214213Y192767101D01*
X-274364903Y192797075D01*
X-274592571Y192891378D01*
X-274797466Y193028285D01*
X-274797469Y193028287D01*
X-274971713Y193202531D01*
X-275037921Y193301618D01*
X-275108622Y193407429D01*
X-275202925Y193635097D01*
X-275251000Y193876787D01*
X-275251000Y194123213D01*
X-275202925Y194364903D01*
X-275108622Y194592571D01*
X-274971715Y194797466D01*
X-274971713Y194797469D01*
X-274797469Y194971713D01*
X-274687488Y195045200D01*
X-274592571Y195108622D01*
X-274364903Y195202925D01*
X-274183635Y195238981D01*
X-274123214Y195251000D01*
X-273876786Y195251000D01*
X-273816365Y195238981D01*
X-273816365Y195238981D01*
G37*
G36*
X-291816365Y195238981D02*
X-291635097Y195202925D01*
X-291407429Y195108622D01*
X-291312512Y195045200D01*
X-291202531Y194971713D01*
X-291028287Y194797469D01*
X-291028285Y194797466D01*
X-290891378Y194592571D01*
X-290797075Y194364903D01*
X-290749000Y194123213D01*
X-290749000Y193876787D01*
X-290797075Y193635097D01*
X-290891378Y193407429D01*
X-290962079Y193301618D01*
X-291028287Y193202531D01*
X-291202531Y193028287D01*
X-291202534Y193028285D01*
X-291407429Y192891378D01*
X-291635097Y192797075D01*
X-291785787Y192767101D01*
X-291876786Y192749000D01*
X-292123214Y192749000D01*
X-292214213Y192767101D01*
X-292364903Y192797075D01*
X-292592571Y192891378D01*
X-292797466Y193028285D01*
X-292797469Y193028287D01*
X-292971713Y193202531D01*
X-293037921Y193301618D01*
X-293108622Y193407429D01*
X-293202925Y193635097D01*
X-293251000Y193876787D01*
X-293251000Y194123213D01*
X-293202925Y194364903D01*
X-293108622Y194592571D01*
X-292971715Y194797466D01*
X-292971713Y194797469D01*
X-292797469Y194971713D01*
X-292687488Y195045200D01*
X-292592571Y195108622D01*
X-292364903Y195202925D01*
X-292183635Y195238981D01*
X-292123214Y195251000D01*
X-291876786Y195251000D01*
X-291816365Y195238981D01*
X-291816365Y195238981D01*
G37*
G36*
X-276514761Y195232899D02*
X-276278947Y195161366D01*
X-276061619Y195045201D01*
X-275871129Y194888871D01*
X-275714799Y194698381D01*
X-275598634Y194481053D01*
X-275527101Y194245239D01*
X-275502947Y194000000D01*
X-275527101Y193754761D01*
X-275598634Y193518947D01*
X-275714799Y193301619D01*
X-275871129Y193111129D01*
X-276061619Y192954799D01*
X-276278947Y192838634D01*
X-276514761Y192767101D01*
X-276698543Y192749000D01*
X-276821457Y192749000D01*
X-277005239Y192767101D01*
X-277241053Y192838634D01*
X-277458381Y192954799D01*
X-277648871Y193111129D01*
X-277805201Y193301619D01*
X-277921366Y193518947D01*
X-277992899Y193754761D01*
X-278017053Y194000000D01*
X-277992899Y194245239D01*
X-277921366Y194481053D01*
X-277805201Y194698381D01*
X-277648871Y194888871D01*
X-277458381Y195045201D01*
X-277241053Y195161366D01*
X-277005239Y195232899D01*
X-276821457Y195251000D01*
X-276698543Y195251000D01*
X-276514761Y195232899D01*
X-276514761Y195232899D01*
G37*
G36*
X-243401748Y203882182D02*
X-243401746Y203882181D01*
X-243401745Y203882181D01*
X-243028487Y203727573D01*
X-243028486Y203727572D01*
X-242692561Y203503114D01*
X-242406886Y203217439D01*
X-242406884Y203217436D01*
X-242182427Y202881513D01*
X-242027819Y202508255D01*
X-242027818Y202508252D01*
X-241949000Y202112007D01*
X-241949000Y201707993D01*
X-241987684Y201513514D01*
X-242027819Y201311745D01*
X-242182427Y200938487D01*
X-242235539Y200859000D01*
X-242406886Y200602561D01*
X-242692561Y200316886D01*
X-242692564Y200316884D01*
X-243028487Y200092427D01*
X-243401745Y199937819D01*
X-243401746Y199937819D01*
X-243401748Y199937818D01*
X-243797993Y199859000D01*
X-244202007Y199859000D01*
X-244598252Y199937818D01*
X-244598254Y199937819D01*
X-244598255Y199937819D01*
X-244971513Y200092427D01*
X-245307436Y200316884D01*
X-245307439Y200316886D01*
X-245593114Y200602561D01*
X-245764461Y200859000D01*
X-245817573Y200938487D01*
X-245972181Y201311745D01*
X-246012315Y201513514D01*
X-246051000Y201707993D01*
X-246051000Y202112007D01*
X-245972182Y202508252D01*
X-245972181Y202508255D01*
X-245817573Y202881513D01*
X-245593116Y203217436D01*
X-245593114Y203217439D01*
X-245307439Y203503114D01*
X-244971514Y203727572D01*
X-244971513Y203727573D01*
X-244598255Y203882181D01*
X-244598254Y203882181D01*
X-244598252Y203882182D01*
X-244202007Y203961000D01*
X-243797993Y203961000D01*
X-243401748Y203882182D01*
X-243401748Y203882182D01*
G37*
G36*
X-278693435Y202420611D02*
X-278502166Y202341385D01*
X-278330024Y202226363D01*
X-278183637Y202079976D01*
X-278068615Y201907834D01*
X-277989389Y201716565D01*
X-277949000Y201513516D01*
X-277949000Y201306484D01*
X-277989389Y201103435D01*
X-278068615Y200912166D01*
X-278183637Y200740024D01*
X-278330024Y200593637D01*
X-278502166Y200478615D01*
X-278693435Y200399389D01*
X-278896484Y200359000D01*
X-279103516Y200359000D01*
X-279306565Y200399389D01*
X-279497834Y200478615D01*
X-279669976Y200593637D01*
X-279816363Y200740024D01*
X-279931385Y200912166D01*
X-280010611Y201103435D01*
X-280051000Y201306484D01*
X-280051000Y201513516D01*
X-280010611Y201716565D01*
X-279931385Y201907834D01*
X-279816363Y202079976D01*
X-279669976Y202226363D01*
X-279497834Y202341385D01*
X-279306565Y202420611D01*
X-279103516Y202461000D01*
X-278896484Y202461000D01*
X-278693435Y202420611D01*
X-278693435Y202420611D01*
G37*
G36*
X-267694438Y202291819D02*
X-267659523Y202281227D01*
X-267627335Y202264022D01*
X-267599127Y202240873D01*
X-267575978Y202212665D01*
X-267558773Y202180477D01*
X-267548181Y202145562D01*
X-267544000Y202103105D01*
X-267544000Y200636895D01*
X-267548181Y200594438D01*
X-267558773Y200559523D01*
X-267575978Y200527335D01*
X-267599127Y200499127D01*
X-267627335Y200475978D01*
X-267659523Y200458773D01*
X-267694438Y200448181D01*
X-267736895Y200444000D01*
X-268878105Y200444000D01*
X-268920562Y200448181D01*
X-268955477Y200458773D01*
X-268987665Y200475978D01*
X-269015873Y200499127D01*
X-269039022Y200527335D01*
X-269056227Y200559523D01*
X-269066819Y200594438D01*
X-269071000Y200636895D01*
X-269071000Y202103105D01*
X-269066819Y202145562D01*
X-269056227Y202180477D01*
X-269039022Y202212665D01*
X-269015873Y202240873D01*
X-268987665Y202264022D01*
X-268955477Y202281227D01*
X-268920562Y202291819D01*
X-268878105Y202296000D01*
X-267736895Y202296000D01*
X-267694438Y202291819D01*
X-267694438Y202291819D01*
G37*
G36*
X-264719438Y202291819D02*
X-264684523Y202281227D01*
X-264652335Y202264022D01*
X-264624127Y202240873D01*
X-264600978Y202212665D01*
X-264583773Y202180477D01*
X-264573181Y202145562D01*
X-264569000Y202103105D01*
X-264569000Y200636895D01*
X-264573181Y200594438D01*
X-264583773Y200559523D01*
X-264600978Y200527335D01*
X-264624127Y200499127D01*
X-264652335Y200475978D01*
X-264684523Y200458773D01*
X-264719438Y200448181D01*
X-264761895Y200444000D01*
X-265903105Y200444000D01*
X-265945562Y200448181D01*
X-265980477Y200458773D01*
X-266012665Y200475978D01*
X-266040873Y200499127D01*
X-266064022Y200527335D01*
X-266081227Y200559523D01*
X-266091819Y200594438D01*
X-266096000Y200636895D01*
X-266096000Y202103105D01*
X-266091819Y202145562D01*
X-266081227Y202180477D01*
X-266064022Y202212665D01*
X-266040873Y202240873D01*
X-266012665Y202264022D01*
X-265980477Y202281227D01*
X-265945562Y202291819D01*
X-265903105Y202296000D01*
X-264761895Y202296000D01*
X-264719438Y202291819D01*
X-264719438Y202291819D01*
G37*
G36*
X-289693435Y202920611D02*
X-289502166Y202841385D01*
X-289330024Y202726363D01*
X-289183637Y202579976D01*
X-289068615Y202407834D01*
X-288989389Y202216565D01*
X-288949000Y202013516D01*
X-288949000Y201806484D01*
X-288989389Y201603435D01*
X-289068615Y201412166D01*
X-289183637Y201240024D01*
X-289330024Y201093637D01*
X-289502166Y200978615D01*
X-289693435Y200899389D01*
X-289896484Y200859000D01*
X-290103516Y200859000D01*
X-290306565Y200899389D01*
X-290497834Y200978615D01*
X-290669976Y201093637D01*
X-290816363Y201240024D01*
X-290931385Y201412166D01*
X-291010611Y201603435D01*
X-291051000Y201806484D01*
X-291051000Y202013516D01*
X-291010611Y202216565D01*
X-290931385Y202407834D01*
X-290816363Y202579976D01*
X-290669976Y202726363D01*
X-290497834Y202841385D01*
X-290306565Y202920611D01*
X-290103516Y202961000D01*
X-289896484Y202961000D01*
X-289693435Y202920611D01*
X-289693435Y202920611D01*
G37*
G36*
X-310867996Y207739456D02*
X-310780941Y207722140D01*
X-310644268Y207665528D01*
X-310522921Y207584446D01*
X-310521262Y207583338D01*
X-310416662Y207478738D01*
X-310416660Y207478735D01*
X-310334472Y207355732D01*
X-310277860Y207219059D01*
X-310260544Y207132004D01*
X-310253026Y207094211D01*
X-310249000Y207073967D01*
X-310249000Y206926033D01*
X-310277860Y206780941D01*
X-310334472Y206644268D01*
X-310334473Y206644267D01*
X-310416662Y206521262D01*
X-310521262Y206416662D01*
X-310521265Y206416660D01*
X-310644268Y206334472D01*
X-310780941Y206277860D01*
X-310867996Y206260544D01*
X-310926031Y206249000D01*
X-311073969Y206249000D01*
X-311132004Y206260544D01*
X-311219059Y206277860D01*
X-311355732Y206334472D01*
X-311478735Y206416660D01*
X-311478738Y206416662D01*
X-311583338Y206521262D01*
X-311665527Y206644267D01*
X-311665528Y206644268D01*
X-311722140Y206780941D01*
X-311751000Y206926033D01*
X-311751000Y207073967D01*
X-311746973Y207094211D01*
X-311739456Y207132004D01*
X-311722140Y207219059D01*
X-311665528Y207355732D01*
X-311583340Y207478735D01*
X-311583338Y207478738D01*
X-311478738Y207583338D01*
X-311477079Y207584446D01*
X-311355732Y207665528D01*
X-311219059Y207722140D01*
X-311132004Y207739456D01*
X-311073969Y207751000D01*
X-310926031Y207751000D01*
X-310867996Y207739456D01*
X-310867996Y207739456D01*
G37*
G36*
X-309117118Y208314887D02*
X-309017585Y208295089D01*
X-308880912Y208238477D01*
X-308797273Y208182591D01*
X-308757906Y208156287D01*
X-308653306Y208051687D01*
X-308653304Y208051684D01*
X-308571116Y207928681D01*
X-308514504Y207792008D01*
X-308506347Y207751000D01*
X-308485644Y207646918D01*
X-308485644Y207498980D01*
X-308489671Y207478735D01*
X-308514504Y207353890D01*
X-308571116Y207217217D01*
X-308571117Y207217216D01*
X-308653306Y207094211D01*
X-308757906Y206989611D01*
X-308757909Y206989609D01*
X-308880912Y206907421D01*
X-309017585Y206850809D01*
X-309104640Y206833493D01*
X-309162675Y206821949D01*
X-309310613Y206821949D01*
X-309368648Y206833493D01*
X-309455703Y206850809D01*
X-309592376Y206907421D01*
X-309715379Y206989609D01*
X-309715382Y206989611D01*
X-309819982Y207094211D01*
X-309902171Y207217216D01*
X-309902172Y207217217D01*
X-309958784Y207353890D01*
X-309983617Y207478735D01*
X-309987644Y207498980D01*
X-309987644Y207646918D01*
X-309966941Y207751000D01*
X-309958784Y207792008D01*
X-309902172Y207928681D01*
X-309819984Y208051684D01*
X-309819982Y208051687D01*
X-309715382Y208156287D01*
X-309676015Y208182591D01*
X-309592376Y208238477D01*
X-309455703Y208295089D01*
X-309356170Y208314887D01*
X-309310613Y208323949D01*
X-309162675Y208323949D01*
X-309117118Y208314887D01*
X-309117118Y208314887D01*
G37*
G36*
X-312643830Y208314887D02*
X-312544297Y208295089D01*
X-312407624Y208238477D01*
X-312323985Y208182591D01*
X-312284618Y208156287D01*
X-312180018Y208051687D01*
X-312180016Y208051684D01*
X-312097828Y207928681D01*
X-312041216Y207792008D01*
X-312033059Y207751000D01*
X-312012356Y207646918D01*
X-312012356Y207498980D01*
X-312016383Y207478735D01*
X-312041216Y207353890D01*
X-312097828Y207217217D01*
X-312097829Y207217216D01*
X-312180018Y207094211D01*
X-312284618Y206989611D01*
X-312284621Y206989609D01*
X-312407624Y206907421D01*
X-312544297Y206850809D01*
X-312631352Y206833493D01*
X-312689387Y206821949D01*
X-312837325Y206821949D01*
X-312895360Y206833493D01*
X-312982415Y206850809D01*
X-313119088Y206907421D01*
X-313242091Y206989609D01*
X-313242094Y206989611D01*
X-313346694Y207094211D01*
X-313428883Y207217216D01*
X-313428884Y207217217D01*
X-313485496Y207353890D01*
X-313510329Y207478735D01*
X-313514356Y207498980D01*
X-313514356Y207646918D01*
X-313493653Y207751000D01*
X-313485496Y207792008D01*
X-313428884Y207928681D01*
X-313346696Y208051684D01*
X-313346694Y208051687D01*
X-313242094Y208156287D01*
X-313202727Y208182591D01*
X-313119088Y208238477D01*
X-312982415Y208295089D01*
X-312882882Y208314887D01*
X-312837325Y208323949D01*
X-312689387Y208323949D01*
X-312643830Y208314887D01*
X-312643830Y208314887D01*
G37*
G36*
X-278693435Y209920611D02*
X-278502166Y209841385D01*
X-278330024Y209726363D01*
X-278183637Y209579976D01*
X-278068615Y209407834D01*
X-277989389Y209216565D01*
X-277949000Y209013516D01*
X-277949000Y208806484D01*
X-277989389Y208603435D01*
X-278068615Y208412166D01*
X-278183637Y208240024D01*
X-278330024Y208093637D01*
X-278502166Y207978615D01*
X-278693435Y207899389D01*
X-278896484Y207859000D01*
X-279103516Y207859000D01*
X-279306565Y207899389D01*
X-279497834Y207978615D01*
X-279669976Y208093637D01*
X-279816363Y208240024D01*
X-279931385Y208412166D01*
X-280010611Y208603435D01*
X-280051000Y208806484D01*
X-280051000Y209013516D01*
X-280010611Y209216565D01*
X-279931385Y209407834D01*
X-279816363Y209579976D01*
X-279669976Y209726363D01*
X-279497834Y209841385D01*
X-279306565Y209920611D01*
X-279103516Y209961000D01*
X-278896484Y209961000D01*
X-278693435Y209920611D01*
X-278693435Y209920611D01*
G37*
G36*
X-266429678Y209622075D02*
X-266394763Y209611483D01*
X-266362575Y209594278D01*
X-266334367Y209571129D01*
X-266305477Y209535926D01*
X-266301865Y209530521D01*
X-266284537Y209513194D01*
X-266264162Y209499581D01*
X-266241523Y209490204D01*
X-266217490Y209485424D01*
X-266192985Y209485424D01*
X-266168952Y209490205D01*
X-266146313Y209499583D01*
X-266125939Y209513197D01*
X-266108612Y209530525D01*
X-266105002Y209535928D01*
X-266076113Y209571129D01*
X-266047905Y209594278D01*
X-266015717Y209611483D01*
X-265980802Y209622075D01*
X-265938345Y209626256D01*
X-264472135Y209626256D01*
X-264429678Y209622075D01*
X-264394763Y209611483D01*
X-264362575Y209594278D01*
X-264334367Y209571129D01*
X-264311218Y209542921D01*
X-264294013Y209510733D01*
X-264283421Y209475818D01*
X-264279240Y209433361D01*
X-264279240Y208292151D01*
X-264283421Y208249694D01*
X-264294013Y208214779D01*
X-264311218Y208182591D01*
X-264334367Y208154383D01*
X-264362575Y208131234D01*
X-264394763Y208114029D01*
X-264429678Y208103437D01*
X-264472135Y208099256D01*
X-265938345Y208099256D01*
X-265980802Y208103437D01*
X-266015717Y208114029D01*
X-266047905Y208131234D01*
X-266076113Y208154383D01*
X-266105003Y208189586D01*
X-266108615Y208194991D01*
X-266125943Y208212318D01*
X-266146318Y208225931D01*
X-266168957Y208235308D01*
X-266192990Y208240088D01*
X-266217495Y208240088D01*
X-266241528Y208235307D01*
X-266264167Y208225929D01*
X-266284541Y208212315D01*
X-266301868Y208194987D01*
X-266305478Y208189584D01*
X-266334367Y208154383D01*
X-266362575Y208131234D01*
X-266394763Y208114029D01*
X-266429678Y208103437D01*
X-266472135Y208099256D01*
X-267938345Y208099256D01*
X-267980802Y208103437D01*
X-268015717Y208114029D01*
X-268047905Y208131234D01*
X-268076113Y208154383D01*
X-268099262Y208182591D01*
X-268116467Y208214779D01*
X-268127059Y208249694D01*
X-268131240Y208292151D01*
X-268131240Y209433361D01*
X-268127059Y209475818D01*
X-268116467Y209510733D01*
X-268099262Y209542921D01*
X-268076113Y209571129D01*
X-268047905Y209594278D01*
X-268015717Y209611483D01*
X-267980802Y209622075D01*
X-267938345Y209626256D01*
X-266472135Y209626256D01*
X-266429678Y209622075D01*
X-266429678Y209622075D01*
G37*
G36*
X-308014826Y209812405D02*
X-307927771Y209795089D01*
X-307791098Y209738477D01*
X-307669751Y209657395D01*
X-307668092Y209656287D01*
X-307563492Y209551687D01*
X-307563490Y209551684D01*
X-307481302Y209428681D01*
X-307424690Y209292008D01*
X-307395830Y209146916D01*
X-307395830Y208998982D01*
X-307424690Y208853890D01*
X-307481302Y208717217D01*
X-307481303Y208717216D01*
X-307563492Y208594211D01*
X-307668092Y208489611D01*
X-307668095Y208489609D01*
X-307791098Y208407421D01*
X-307927771Y208350809D01*
X-308014826Y208333493D01*
X-308072861Y208321949D01*
X-308220799Y208321949D01*
X-308278834Y208333493D01*
X-308365889Y208350809D01*
X-308502562Y208407421D01*
X-308625565Y208489609D01*
X-308625568Y208489611D01*
X-308730168Y208594211D01*
X-308812357Y208717216D01*
X-308812358Y208717217D01*
X-308868970Y208853890D01*
X-308897830Y208998982D01*
X-308897830Y209146916D01*
X-308868970Y209292008D01*
X-308812358Y209428681D01*
X-308730170Y209551684D01*
X-308730168Y209551687D01*
X-308625568Y209656287D01*
X-308623909Y209657395D01*
X-308502562Y209738477D01*
X-308365889Y209795089D01*
X-308278834Y209812405D01*
X-308220799Y209823949D01*
X-308072861Y209823949D01*
X-308014826Y209812405D01*
X-308014826Y209812405D01*
G37*
G36*
X-313721166Y209812405D02*
X-313634111Y209795089D01*
X-313497438Y209738477D01*
X-313376091Y209657395D01*
X-313374432Y209656287D01*
X-313269832Y209551687D01*
X-313269830Y209551684D01*
X-313187642Y209428681D01*
X-313131030Y209292008D01*
X-313102170Y209146916D01*
X-313102170Y208998982D01*
X-313131030Y208853890D01*
X-313187642Y208717217D01*
X-313187643Y208717216D01*
X-313269832Y208594211D01*
X-313374432Y208489611D01*
X-313374435Y208489609D01*
X-313497438Y208407421D01*
X-313634111Y208350809D01*
X-313721166Y208333493D01*
X-313779201Y208321949D01*
X-313927139Y208321949D01*
X-313985174Y208333493D01*
X-314072229Y208350809D01*
X-314208902Y208407421D01*
X-314331905Y208489609D01*
X-314331908Y208489611D01*
X-314436508Y208594211D01*
X-314518697Y208717216D01*
X-314518698Y208717217D01*
X-314575310Y208853890D01*
X-314604170Y208998982D01*
X-314604170Y209146916D01*
X-314575310Y209292008D01*
X-314518698Y209428681D01*
X-314436510Y209551684D01*
X-314436508Y209551687D01*
X-314331908Y209656287D01*
X-314330249Y209657395D01*
X-314208902Y209738477D01*
X-314072229Y209795089D01*
X-313985174Y209812405D01*
X-313927139Y209823949D01*
X-313779201Y209823949D01*
X-313721166Y209812405D01*
X-313721166Y209812405D01*
G37*
G36*
X-241949000Y209859000D02*
X-246051000Y209859000D01*
X-246051000Y213961000D01*
X-241949000Y213961000D01*
X-241949000Y209859000D01*
X-241949000Y209859000D01*
G37*
G36*
X-307923396Y211663614D02*
X-307783994Y211605872D01*
X-307658531Y211522040D01*
X-307551841Y211415350D01*
X-307468009Y211289887D01*
X-307410267Y211150485D01*
X-307380830Y211002496D01*
X-307380830Y210851606D01*
X-307410267Y210703617D01*
X-307468009Y210564215D01*
X-307551841Y210438752D01*
X-307658531Y210332062D01*
X-307783994Y210248230D01*
X-307923396Y210190488D01*
X-308071385Y210161051D01*
X-308222275Y210161051D01*
X-308370264Y210190488D01*
X-308509666Y210248230D01*
X-308635129Y210332062D01*
X-308741819Y210438752D01*
X-308825651Y210564215D01*
X-308883393Y210703617D01*
X-308912830Y210851606D01*
X-308912830Y211002496D01*
X-308883393Y211150485D01*
X-308825651Y211289887D01*
X-308741819Y211415350D01*
X-308635129Y211522040D01*
X-308509666Y211605872D01*
X-308370264Y211663614D01*
X-308222275Y211693051D01*
X-308071385Y211693051D01*
X-307923396Y211663614D01*
X-307923396Y211663614D01*
G37*
G36*
X-313721166Y211666507D02*
X-313634111Y211649191D01*
X-313497438Y211592579D01*
X-313497437Y211592578D01*
X-313374432Y211510389D01*
X-313269832Y211405789D01*
X-313269830Y211405786D01*
X-313187642Y211282783D01*
X-313131030Y211146110D01*
X-313119676Y211089029D01*
X-313102170Y211001020D01*
X-313102170Y210853082D01*
X-313102464Y210851606D01*
X-313131030Y210707992D01*
X-313187642Y210571319D01*
X-313268723Y210449972D01*
X-313269832Y210448313D01*
X-313374432Y210343713D01*
X-313374435Y210343711D01*
X-313497438Y210261523D01*
X-313634111Y210204911D01*
X-313706622Y210190488D01*
X-313779201Y210176051D01*
X-313927139Y210176051D01*
X-313999718Y210190488D01*
X-314072229Y210204911D01*
X-314208902Y210261523D01*
X-314331905Y210343711D01*
X-314331908Y210343713D01*
X-314436508Y210448313D01*
X-314437616Y210449972D01*
X-314518698Y210571319D01*
X-314575310Y210707992D01*
X-314603876Y210851606D01*
X-314604170Y210853082D01*
X-314604170Y211001020D01*
X-314586664Y211089029D01*
X-314575310Y211146110D01*
X-314518698Y211282783D01*
X-314436510Y211405786D01*
X-314436508Y211405789D01*
X-314331908Y211510389D01*
X-314208903Y211592578D01*
X-314208902Y211592579D01*
X-314072229Y211649191D01*
X-313985174Y211666507D01*
X-313927139Y211678051D01*
X-313779201Y211678051D01*
X-313721166Y211666507D01*
X-313721166Y211666507D01*
G37*
G36*
X-289693435Y212920611D02*
X-289502166Y212841385D01*
X-289330024Y212726363D01*
X-289183637Y212579976D01*
X-289068615Y212407834D01*
X-288989389Y212216565D01*
X-288949000Y212013516D01*
X-288949000Y211806484D01*
X-288989389Y211603435D01*
X-289068615Y211412166D01*
X-289183637Y211240024D01*
X-289330024Y211093637D01*
X-289502166Y210978615D01*
X-289693435Y210899389D01*
X-289896484Y210859000D01*
X-290103516Y210859000D01*
X-290306565Y210899389D01*
X-290497834Y210978615D01*
X-290669976Y211093637D01*
X-290816363Y211240024D01*
X-290931385Y211412166D01*
X-291010611Y211603435D01*
X-291051000Y211806484D01*
X-291051000Y212013516D01*
X-291010611Y212216565D01*
X-290931385Y212407834D01*
X-290816363Y212579976D01*
X-290669976Y212726363D01*
X-290497834Y212841385D01*
X-290306565Y212920611D01*
X-290103516Y212961000D01*
X-289896484Y212961000D01*
X-289693435Y212920611D01*
X-289693435Y212920611D01*
G37*
G36*
X-266429678Y212597075D02*
X-266394763Y212586483D01*
X-266362575Y212569278D01*
X-266334367Y212546129D01*
X-266305477Y212510926D01*
X-266301865Y212505521D01*
X-266284537Y212488194D01*
X-266264162Y212474581D01*
X-266241523Y212465204D01*
X-266217490Y212460424D01*
X-266192985Y212460424D01*
X-266168952Y212465205D01*
X-266146313Y212474583D01*
X-266125939Y212488197D01*
X-266108612Y212505525D01*
X-266105002Y212510928D01*
X-266076113Y212546129D01*
X-266047905Y212569278D01*
X-266015717Y212586483D01*
X-265980802Y212597075D01*
X-265938345Y212601256D01*
X-264472135Y212601256D01*
X-264429678Y212597075D01*
X-264394763Y212586483D01*
X-264362575Y212569278D01*
X-264334367Y212546129D01*
X-264311218Y212517921D01*
X-264294013Y212485733D01*
X-264283421Y212450818D01*
X-264279240Y212408361D01*
X-264279240Y211267151D01*
X-264283421Y211224694D01*
X-264294013Y211189779D01*
X-264311218Y211157591D01*
X-264334367Y211129383D01*
X-264362575Y211106234D01*
X-264394763Y211089029D01*
X-264429678Y211078437D01*
X-264472135Y211074256D01*
X-265938345Y211074256D01*
X-265980802Y211078437D01*
X-266015717Y211089029D01*
X-266047905Y211106234D01*
X-266076113Y211129383D01*
X-266105003Y211164586D01*
X-266108615Y211169991D01*
X-266125943Y211187318D01*
X-266146318Y211200931D01*
X-266168957Y211210308D01*
X-266192990Y211215088D01*
X-266217495Y211215088D01*
X-266241528Y211210307D01*
X-266264167Y211200929D01*
X-266284541Y211187315D01*
X-266301868Y211169987D01*
X-266305478Y211164584D01*
X-266334367Y211129383D01*
X-266362575Y211106234D01*
X-266394763Y211089029D01*
X-266429678Y211078437D01*
X-266472135Y211074256D01*
X-267938345Y211074256D01*
X-267980802Y211078437D01*
X-268015717Y211089029D01*
X-268047905Y211106234D01*
X-268076113Y211129383D01*
X-268099262Y211157591D01*
X-268116467Y211189779D01*
X-268127059Y211224694D01*
X-268131240Y211267151D01*
X-268131240Y212408361D01*
X-268127059Y212450818D01*
X-268116467Y212485733D01*
X-268099262Y212517921D01*
X-268076113Y212546129D01*
X-268047905Y212569278D01*
X-268015717Y212586483D01*
X-267980802Y212597075D01*
X-267938345Y212601256D01*
X-266472135Y212601256D01*
X-266429678Y212597075D01*
X-266429678Y212597075D01*
G37*
G36*
X-309104640Y213166507D02*
X-309017585Y213149191D01*
X-308880912Y213092579D01*
X-308759565Y213011497D01*
X-308757906Y213010389D01*
X-308653306Y212905789D01*
X-308653304Y212905786D01*
X-308571116Y212782783D01*
X-308514504Y212646110D01*
X-308497188Y212559055D01*
X-308486539Y212505521D01*
X-308485644Y212501018D01*
X-308485644Y212353084D01*
X-308514504Y212207992D01*
X-308571116Y212071319D01*
X-308571117Y212071318D01*
X-308653306Y211948313D01*
X-308757906Y211843713D01*
X-308757909Y211843711D01*
X-308880912Y211761523D01*
X-309017585Y211704911D01*
X-309104640Y211687595D01*
X-309162675Y211676051D01*
X-309310613Y211676051D01*
X-309368648Y211687595D01*
X-309455703Y211704911D01*
X-309592376Y211761523D01*
X-309715379Y211843711D01*
X-309715382Y211843713D01*
X-309819982Y211948313D01*
X-309902171Y212071318D01*
X-309902172Y212071319D01*
X-309958784Y212207992D01*
X-309987644Y212353084D01*
X-309987644Y212501018D01*
X-309986748Y212505521D01*
X-309976100Y212559055D01*
X-309958784Y212646110D01*
X-309902172Y212782783D01*
X-309819984Y212905786D01*
X-309819982Y212905789D01*
X-309715382Y213010389D01*
X-309713723Y213011497D01*
X-309592376Y213092579D01*
X-309455703Y213149191D01*
X-309368648Y213166507D01*
X-309310613Y213178051D01*
X-309162675Y213178051D01*
X-309104640Y213166507D01*
X-309104640Y213166507D01*
G37*
G36*
X-310867996Y213739456D02*
X-310780941Y213722140D01*
X-310644268Y213665528D01*
X-310644267Y213665527D01*
X-310521262Y213583338D01*
X-310416662Y213478738D01*
X-310416660Y213478735D01*
X-310334472Y213355732D01*
X-310277860Y213219059D01*
X-310269703Y213178051D01*
X-310249000Y213073969D01*
X-310249000Y212926031D01*
X-310253027Y212905786D01*
X-310277860Y212780941D01*
X-310334472Y212644268D01*
X-310373083Y212586483D01*
X-310416662Y212521262D01*
X-310521262Y212416662D01*
X-310521265Y212416660D01*
X-310644268Y212334472D01*
X-310780941Y212277860D01*
X-310867996Y212260544D01*
X-310926031Y212249000D01*
X-311073969Y212249000D01*
X-311132004Y212260544D01*
X-311219059Y212277860D01*
X-311355732Y212334472D01*
X-311478735Y212416660D01*
X-311478738Y212416662D01*
X-311583338Y212521262D01*
X-311626917Y212586483D01*
X-311665528Y212644268D01*
X-311722140Y212780941D01*
X-311746973Y212905786D01*
X-311751000Y212926031D01*
X-311751000Y213073969D01*
X-311730297Y213178051D01*
X-311722140Y213219059D01*
X-311665528Y213355732D01*
X-311583340Y213478735D01*
X-311583338Y213478738D01*
X-311478738Y213583338D01*
X-311355733Y213665527D01*
X-311355732Y213665528D01*
X-311219059Y213722140D01*
X-311132004Y213739456D01*
X-311073969Y213751000D01*
X-310926031Y213751000D01*
X-310867996Y213739456D01*
X-310867996Y213739456D01*
G37*
G36*
X-270401748Y219472182D02*
X-270401746Y219472181D01*
X-270401745Y219472181D01*
X-270028487Y219317573D01*
X-270028486Y219317572D01*
X-269692561Y219093114D01*
X-269406886Y218807439D01*
X-269406884Y218807436D01*
X-269182427Y218471513D01*
X-269027819Y218098255D01*
X-269027818Y218098252D01*
X-268949000Y217702007D01*
X-268949000Y217297993D01*
X-268987684Y217103514D01*
X-269027819Y216901745D01*
X-269182427Y216528487D01*
X-269182428Y216528486D01*
X-269406886Y216192561D01*
X-269692561Y215906886D01*
X-269692564Y215906884D01*
X-270028487Y215682427D01*
X-270401745Y215527819D01*
X-270401746Y215527819D01*
X-270401748Y215527818D01*
X-270797993Y215449000D01*
X-271202007Y215449000D01*
X-271598252Y215527818D01*
X-271598254Y215527819D01*
X-271598255Y215527819D01*
X-271971513Y215682427D01*
X-272307436Y215906884D01*
X-272307439Y215906886D01*
X-272593114Y216192561D01*
X-272817572Y216528486D01*
X-272817573Y216528487D01*
X-272972181Y216901745D01*
X-273012315Y217103514D01*
X-273051000Y217297993D01*
X-273051000Y217702007D01*
X-272972182Y218098252D01*
X-272972181Y218098255D01*
X-272817573Y218471513D01*
X-272593116Y218807436D01*
X-272593114Y218807439D01*
X-272307439Y219093114D01*
X-271971514Y219317572D01*
X-271971513Y219317573D01*
X-271598255Y219472181D01*
X-271598254Y219472181D01*
X-271598252Y219472182D01*
X-271202007Y219551000D01*
X-270797993Y219551000D01*
X-270401748Y219472182D01*
X-270401748Y219472182D01*
G37*
G36*
X-265401748Y219472182D02*
X-265401746Y219472181D01*
X-265401745Y219472181D01*
X-265028487Y219317573D01*
X-265028486Y219317572D01*
X-264692561Y219093114D01*
X-264406886Y218807439D01*
X-264406884Y218807436D01*
X-264182427Y218471513D01*
X-264027819Y218098255D01*
X-264027818Y218098252D01*
X-263949000Y217702007D01*
X-263949000Y217297993D01*
X-263987684Y217103514D01*
X-264027819Y216901745D01*
X-264182427Y216528487D01*
X-264182428Y216528486D01*
X-264406886Y216192561D01*
X-264692561Y215906886D01*
X-264692564Y215906884D01*
X-265028487Y215682427D01*
X-265401745Y215527819D01*
X-265401746Y215527819D01*
X-265401748Y215527818D01*
X-265797993Y215449000D01*
X-266202007Y215449000D01*
X-266598252Y215527818D01*
X-266598254Y215527819D01*
X-266598255Y215527819D01*
X-266971513Y215682427D01*
X-267307436Y215906884D01*
X-267307439Y215906886D01*
X-267593114Y216192561D01*
X-267817572Y216528486D01*
X-267817573Y216528487D01*
X-267972181Y216901745D01*
X-268012315Y217103514D01*
X-268051000Y217297993D01*
X-268051000Y217702007D01*
X-267972182Y218098252D01*
X-267972181Y218098255D01*
X-267817573Y218471513D01*
X-267593116Y218807436D01*
X-267593114Y218807439D01*
X-267307439Y219093114D01*
X-266971514Y219317572D01*
X-266971513Y219317573D01*
X-266598255Y219472181D01*
X-266598254Y219472181D01*
X-266598252Y219472182D01*
X-266202007Y219551000D01*
X-265797993Y219551000D01*
X-265401748Y219472182D01*
X-265401748Y219472182D01*
G37*
G36*
X-325693435Y218010611D02*
X-325502166Y217931385D01*
X-325330024Y217816363D01*
X-325183637Y217669976D01*
X-325068615Y217497834D01*
X-324989389Y217306565D01*
X-324949000Y217103516D01*
X-324949000Y216896484D01*
X-324989389Y216693435D01*
X-325068615Y216502166D01*
X-325183637Y216330024D01*
X-325330024Y216183637D01*
X-325502166Y216068615D01*
X-325693435Y215989389D01*
X-325896484Y215949000D01*
X-326103516Y215949000D01*
X-326306565Y215989389D01*
X-326497834Y216068615D01*
X-326669976Y216183637D01*
X-326816363Y216330024D01*
X-326931385Y216502166D01*
X-327010611Y216693435D01*
X-327051000Y216896484D01*
X-327051000Y217103516D01*
X-327010611Y217306565D01*
X-326931385Y217497834D01*
X-326816363Y217669976D01*
X-326669976Y217816363D01*
X-326497834Y217931385D01*
X-326306565Y218010611D01*
X-326103516Y218051000D01*
X-325896484Y218051000D01*
X-325693435Y218010611D01*
X-325693435Y218010611D01*
G37*
G36*
X-300693435Y218010611D02*
X-300502166Y217931385D01*
X-300330024Y217816363D01*
X-300183637Y217669976D01*
X-300068615Y217497834D01*
X-299989389Y217306565D01*
X-299949000Y217103516D01*
X-299949000Y216896484D01*
X-299989389Y216693435D01*
X-300068615Y216502166D01*
X-300183637Y216330024D01*
X-300330024Y216183637D01*
X-300502166Y216068615D01*
X-300693435Y215989389D01*
X-300896484Y215949000D01*
X-301103516Y215949000D01*
X-301306565Y215989389D01*
X-301497834Y216068615D01*
X-301669976Y216183637D01*
X-301816363Y216330024D01*
X-301931385Y216502166D01*
X-302010611Y216693435D01*
X-302051000Y216896484D01*
X-302051000Y217103516D01*
X-302010611Y217306565D01*
X-301931385Y217497834D01*
X-301816363Y217669976D01*
X-301669976Y217816363D01*
X-301497834Y217931385D01*
X-301306565Y218010611D01*
X-301103516Y218051000D01*
X-300896484Y218051000D01*
X-300693435Y218010611D01*
X-300693435Y218010611D01*
G37*
G36*
X-270224438Y223271819D02*
X-270189523Y223261227D01*
X-270157335Y223244022D01*
X-270129127Y223220873D01*
X-270105978Y223192665D01*
X-270088773Y223160477D01*
X-270078181Y223125562D01*
X-270074000Y223083105D01*
X-270074000Y221941895D01*
X-270078181Y221899438D01*
X-270088773Y221864523D01*
X-270105978Y221832335D01*
X-270129127Y221804127D01*
X-270157335Y221780978D01*
X-270189523Y221763773D01*
X-270224438Y221753181D01*
X-270266895Y221749000D01*
X-271733105Y221749000D01*
X-271775562Y221753181D01*
X-271810477Y221763773D01*
X-271842665Y221780978D01*
X-271870873Y221804127D01*
X-271894022Y221832335D01*
X-271911227Y221864523D01*
X-271921819Y221899438D01*
X-271926000Y221941895D01*
X-271926000Y223083105D01*
X-271921819Y223125562D01*
X-271911227Y223160477D01*
X-271894022Y223192665D01*
X-271870873Y223220873D01*
X-271842665Y223244022D01*
X-271810477Y223261227D01*
X-271775562Y223271819D01*
X-271733105Y223276000D01*
X-270266895Y223276000D01*
X-270224438Y223271819D01*
X-270224438Y223271819D01*
G37*
G36*
X-265224438Y223271819D02*
X-265189523Y223261227D01*
X-265157335Y223244022D01*
X-265129127Y223220873D01*
X-265105978Y223192665D01*
X-265088773Y223160477D01*
X-265078181Y223125562D01*
X-265074000Y223083105D01*
X-265074000Y221941895D01*
X-265078181Y221899438D01*
X-265088773Y221864523D01*
X-265105978Y221832335D01*
X-265129127Y221804127D01*
X-265157335Y221780978D01*
X-265189523Y221763773D01*
X-265224438Y221753181D01*
X-265266895Y221749000D01*
X-266733105Y221749000D01*
X-266775562Y221753181D01*
X-266810477Y221763773D01*
X-266842665Y221780978D01*
X-266870873Y221804127D01*
X-266894022Y221832335D01*
X-266911227Y221864523D01*
X-266921819Y221899438D01*
X-266926000Y221941895D01*
X-266926000Y223083105D01*
X-266921819Y223125562D01*
X-266911227Y223160477D01*
X-266894022Y223192665D01*
X-266870873Y223220873D01*
X-266842665Y223244022D01*
X-266810477Y223261227D01*
X-266775562Y223271819D01*
X-266733105Y223276000D01*
X-265266895Y223276000D01*
X-265224438Y223271819D01*
X-265224438Y223271819D01*
G37*
G36*
X-318761795Y225197539D02*
X-318643847Y225174078D01*
X-318551806Y225135953D01*
X-318421641Y225082037D01*
X-318221655Y224948411D01*
X-318051589Y224778345D01*
X-317917963Y224578359D01*
X-317825922Y224356152D01*
X-317779000Y224120259D01*
X-317779000Y223879741D01*
X-317825922Y223643848D01*
X-317917963Y223421641D01*
X-318051589Y223221655D01*
X-318221655Y223051589D01*
X-318421641Y222917963D01*
X-318551806Y222864047D01*
X-318643847Y222825922D01*
X-318879741Y222779000D01*
X-319120259Y222779000D01*
X-319356153Y222825922D01*
X-319448194Y222864047D01*
X-319578359Y222917963D01*
X-319778345Y223051589D01*
X-319948411Y223221655D01*
X-320082037Y223421641D01*
X-320174078Y223643848D01*
X-320221000Y223879741D01*
X-320221000Y224120259D01*
X-320174078Y224356152D01*
X-320082037Y224578359D01*
X-319948411Y224778345D01*
X-319778345Y224948411D01*
X-319578359Y225082037D01*
X-319448194Y225135953D01*
X-319356153Y225174078D01*
X-319238205Y225197539D01*
X-319120259Y225221000D01*
X-318879741Y225221000D01*
X-318761795Y225197539D01*
X-318761795Y225197539D01*
G37*
G36*
X-308761795Y225197539D02*
X-308643847Y225174078D01*
X-308551806Y225135953D01*
X-308421641Y225082037D01*
X-308221655Y224948411D01*
X-308051589Y224778345D01*
X-307917963Y224578359D01*
X-307825922Y224356152D01*
X-307779000Y224120259D01*
X-307779000Y223879741D01*
X-307825922Y223643848D01*
X-307917963Y223421641D01*
X-308051589Y223221655D01*
X-308221655Y223051589D01*
X-308421641Y222917963D01*
X-308551806Y222864047D01*
X-308643847Y222825922D01*
X-308879741Y222779000D01*
X-309120259Y222779000D01*
X-309356153Y222825922D01*
X-309448194Y222864047D01*
X-309578359Y222917963D01*
X-309778345Y223051589D01*
X-309948411Y223221655D01*
X-310082037Y223421641D01*
X-310174078Y223643848D01*
X-310221000Y223879741D01*
X-310221000Y224120259D01*
X-310174078Y224356152D01*
X-310082037Y224578359D01*
X-309948411Y224778345D01*
X-309778345Y224948411D01*
X-309578359Y225082037D01*
X-309448194Y225135953D01*
X-309356153Y225174078D01*
X-309238205Y225197539D01*
X-309120259Y225221000D01*
X-308879741Y225221000D01*
X-308761795Y225197539D01*
X-308761795Y225197539D01*
G37*
G36*
X-313761795Y225197539D02*
X-313643847Y225174078D01*
X-313551806Y225135953D01*
X-313421641Y225082037D01*
X-313221655Y224948411D01*
X-313051589Y224778345D01*
X-312917963Y224578359D01*
X-312825922Y224356152D01*
X-312779000Y224120259D01*
X-312779000Y223879741D01*
X-312825922Y223643848D01*
X-312917963Y223421641D01*
X-313051589Y223221655D01*
X-313221655Y223051589D01*
X-313421641Y222917963D01*
X-313551806Y222864047D01*
X-313643847Y222825922D01*
X-313879741Y222779000D01*
X-314120259Y222779000D01*
X-314356153Y222825922D01*
X-314448194Y222864047D01*
X-314578359Y222917963D01*
X-314778345Y223051589D01*
X-314948411Y223221655D01*
X-315082037Y223421641D01*
X-315174078Y223643848D01*
X-315221000Y223879741D01*
X-315221000Y224120259D01*
X-315174078Y224356152D01*
X-315082037Y224578359D01*
X-314948411Y224778345D01*
X-314778345Y224948411D01*
X-314578359Y225082037D01*
X-314448194Y225135953D01*
X-314356153Y225174078D01*
X-314238205Y225197539D01*
X-314120259Y225221000D01*
X-313879741Y225221000D01*
X-313761795Y225197539D01*
X-313761795Y225197539D01*
G37*
G36*
X-265224438Y226246819D02*
X-265189523Y226236227D01*
X-265157335Y226219022D01*
X-265129127Y226195873D01*
X-265105978Y226167665D01*
X-265088773Y226135477D01*
X-265078181Y226100562D01*
X-265074000Y226058105D01*
X-265074000Y224916895D01*
X-265078181Y224874438D01*
X-265088773Y224839523D01*
X-265105978Y224807335D01*
X-265129127Y224779127D01*
X-265157335Y224755978D01*
X-265189523Y224738773D01*
X-265224438Y224728181D01*
X-265266895Y224724000D01*
X-266733105Y224724000D01*
X-266775562Y224728181D01*
X-266810477Y224738773D01*
X-266842665Y224755978D01*
X-266870873Y224779127D01*
X-266894022Y224807335D01*
X-266911227Y224839523D01*
X-266921819Y224874438D01*
X-266926000Y224916895D01*
X-266926000Y226058105D01*
X-266921819Y226100562D01*
X-266911227Y226135477D01*
X-266894022Y226167665D01*
X-266870873Y226195873D01*
X-266842665Y226219022D01*
X-266810477Y226236227D01*
X-266775562Y226246819D01*
X-266733105Y226251000D01*
X-265266895Y226251000D01*
X-265224438Y226246819D01*
X-265224438Y226246819D01*
G37*
G36*
X-270224438Y226246819D02*
X-270189523Y226236227D01*
X-270157335Y226219022D01*
X-270129127Y226195873D01*
X-270105978Y226167665D01*
X-270088773Y226135477D01*
X-270078181Y226100562D01*
X-270074000Y226058105D01*
X-270074000Y224916895D01*
X-270078181Y224874438D01*
X-270088773Y224839523D01*
X-270105978Y224807335D01*
X-270129127Y224779127D01*
X-270157335Y224755978D01*
X-270189523Y224738773D01*
X-270224438Y224728181D01*
X-270266895Y224724000D01*
X-271733105Y224724000D01*
X-271775562Y224728181D01*
X-271810477Y224738773D01*
X-271842665Y224755978D01*
X-271870873Y224779127D01*
X-271894022Y224807335D01*
X-271911227Y224839523D01*
X-271921819Y224874438D01*
X-271926000Y224916895D01*
X-271926000Y226058105D01*
X-271921819Y226100562D01*
X-271911227Y226135477D01*
X-271894022Y226167665D01*
X-271870873Y226195873D01*
X-271842665Y226219022D01*
X-271810477Y226236227D01*
X-271775562Y226246819D01*
X-271733105Y226251000D01*
X-270266895Y226251000D01*
X-270224438Y226246819D01*
X-270224438Y226246819D01*
G37*
G36*
X-325693435Y228010611D02*
X-325502166Y227931385D01*
X-325330024Y227816363D01*
X-325183637Y227669976D01*
X-325068615Y227497834D01*
X-324989389Y227306565D01*
X-324949000Y227103516D01*
X-324949000Y226896484D01*
X-324989389Y226693435D01*
X-325068615Y226502166D01*
X-325183637Y226330024D01*
X-325330024Y226183637D01*
X-325502166Y226068615D01*
X-325693435Y225989389D01*
X-325896484Y225949000D01*
X-326103516Y225949000D01*
X-326306565Y225989389D01*
X-326497834Y226068615D01*
X-326669976Y226183637D01*
X-326816363Y226330024D01*
X-326931385Y226502166D01*
X-327010611Y226693435D01*
X-327051000Y226896484D01*
X-327051000Y227103516D01*
X-327010611Y227306565D01*
X-326931385Y227497834D01*
X-326816363Y227669976D01*
X-326669976Y227816363D01*
X-326497834Y227931385D01*
X-326306565Y228010611D01*
X-326103516Y228051000D01*
X-325896484Y228051000D01*
X-325693435Y228010611D01*
X-325693435Y228010611D01*
G37*
G36*
X-300693435Y228010611D02*
X-300502166Y227931385D01*
X-300330024Y227816363D01*
X-300183637Y227669976D01*
X-300068615Y227497834D01*
X-299989389Y227306565D01*
X-299949000Y227103516D01*
X-299949000Y226896484D01*
X-299989389Y226693435D01*
X-300068615Y226502166D01*
X-300183637Y226330024D01*
X-300330024Y226183637D01*
X-300502166Y226068615D01*
X-300693435Y225989389D01*
X-300896484Y225949000D01*
X-301103516Y225949000D01*
X-301306565Y225989389D01*
X-301497834Y226068615D01*
X-301669976Y226183637D01*
X-301816363Y226330024D01*
X-301931385Y226502166D01*
X-302010611Y226693435D01*
X-302051000Y226896484D01*
X-302051000Y227103516D01*
X-302010611Y227306565D01*
X-301931385Y227497834D01*
X-301816363Y227669976D01*
X-301669976Y227816363D01*
X-301497834Y227931385D01*
X-301306565Y228010611D01*
X-301103516Y228051000D01*
X-300896484Y228051000D01*
X-300693435Y228010611D01*
X-300693435Y228010611D01*
G37*
G36*
X-253013435Y228870611D02*
X-252822166Y228791385D01*
X-252650024Y228676363D01*
X-252503637Y228529976D01*
X-252388615Y228357834D01*
X-252309389Y228166565D01*
X-252269000Y227963516D01*
X-252269000Y227756484D01*
X-252309389Y227553435D01*
X-252388615Y227362166D01*
X-252503637Y227190024D01*
X-252650024Y227043637D01*
X-252822166Y226928615D01*
X-253013435Y226849389D01*
X-253216484Y226809000D01*
X-253423516Y226809000D01*
X-253626565Y226849389D01*
X-253817834Y226928615D01*
X-253989976Y227043637D01*
X-254136363Y227190024D01*
X-254251385Y227362166D01*
X-254330611Y227553435D01*
X-254371000Y227756484D01*
X-254371000Y227963516D01*
X-254330611Y228166565D01*
X-254251385Y228357834D01*
X-254136363Y228529976D01*
X-253989976Y228676363D01*
X-253817834Y228791385D01*
X-253626565Y228870611D01*
X-253423516Y228911000D01*
X-253216484Y228911000D01*
X-253013435Y228870611D01*
X-253013435Y228870611D01*
G37*
G36*
X-313643847Y230174078D02*
X-313551806Y230135953D01*
X-313421641Y230082037D01*
X-313221655Y229948411D01*
X-313051589Y229778345D01*
X-312917963Y229578359D01*
X-312825922Y229356152D01*
X-312779000Y229120259D01*
X-312779000Y228879741D01*
X-312825922Y228643848D01*
X-312917963Y228421641D01*
X-313051589Y228221655D01*
X-313221655Y228051589D01*
X-313421641Y227917963D01*
X-313551806Y227864047D01*
X-313643847Y227825922D01*
X-313691894Y227816365D01*
X-313879741Y227779000D01*
X-314120259Y227779000D01*
X-314308106Y227816365D01*
X-314356153Y227825922D01*
X-314448194Y227864047D01*
X-314578359Y227917963D01*
X-314778345Y228051589D01*
X-314948411Y228221655D01*
X-315082037Y228421641D01*
X-315174078Y228643848D01*
X-315221000Y228879741D01*
X-315221000Y229120259D01*
X-315174078Y229356152D01*
X-315082037Y229578359D01*
X-314948411Y229778345D01*
X-314778345Y229948411D01*
X-314578359Y230082037D01*
X-314448194Y230135953D01*
X-314356153Y230174078D01*
X-314120259Y230221000D01*
X-313879741Y230221000D01*
X-313643847Y230174078D01*
X-313643847Y230174078D01*
G37*
G36*
X-318643847Y230174078D02*
X-318551806Y230135953D01*
X-318421641Y230082037D01*
X-318221655Y229948411D01*
X-318051589Y229778345D01*
X-317917963Y229578359D01*
X-317825922Y229356152D01*
X-317779000Y229120259D01*
X-317779000Y228879741D01*
X-317825922Y228643848D01*
X-317917963Y228421641D01*
X-318051589Y228221655D01*
X-318221655Y228051589D01*
X-318421641Y227917963D01*
X-318551806Y227864047D01*
X-318643847Y227825922D01*
X-318691894Y227816365D01*
X-318879741Y227779000D01*
X-319120259Y227779000D01*
X-319308106Y227816365D01*
X-319356153Y227825922D01*
X-319448194Y227864047D01*
X-319578359Y227917963D01*
X-319778345Y228051589D01*
X-319948411Y228221655D01*
X-320082037Y228421641D01*
X-320174078Y228643848D01*
X-320221000Y228879741D01*
X-320221000Y229120259D01*
X-320174078Y229356152D01*
X-320082037Y229578359D01*
X-319948411Y229778345D01*
X-319778345Y229948411D01*
X-319578359Y230082037D01*
X-319448194Y230135953D01*
X-319356153Y230174078D01*
X-319120259Y230221000D01*
X-318879741Y230221000D01*
X-318643847Y230174078D01*
X-318643847Y230174078D01*
G37*
G36*
X-308643847Y230174078D02*
X-308551806Y230135953D01*
X-308421641Y230082037D01*
X-308221655Y229948411D01*
X-308051589Y229778345D01*
X-307917963Y229578359D01*
X-307825922Y229356152D01*
X-307779000Y229120259D01*
X-307779000Y228879741D01*
X-307825922Y228643848D01*
X-307917963Y228421641D01*
X-308051589Y228221655D01*
X-308221655Y228051589D01*
X-308421641Y227917963D01*
X-308551806Y227864047D01*
X-308643847Y227825922D01*
X-308691894Y227816365D01*
X-308879741Y227779000D01*
X-309120259Y227779000D01*
X-309308106Y227816365D01*
X-309356153Y227825922D01*
X-309448194Y227864047D01*
X-309578359Y227917963D01*
X-309778345Y228051589D01*
X-309948411Y228221655D01*
X-310082037Y228421641D01*
X-310174078Y228643848D01*
X-310221000Y228879741D01*
X-310221000Y229120259D01*
X-310174078Y229356152D01*
X-310082037Y229578359D01*
X-309948411Y229778345D01*
X-309778345Y229948411D01*
X-309578359Y230082037D01*
X-309448194Y230135953D01*
X-309356153Y230174078D01*
X-309120259Y230221000D01*
X-308879741Y230221000D01*
X-308643847Y230174078D01*
X-308643847Y230174078D01*
G37*
G36*
X-300773095Y232711211D02*
X-300474650Y232651847D01*
X-300146878Y232516079D01*
X-299851891Y232318975D01*
X-299601025Y232068109D01*
X-299403921Y231773122D01*
X-299268153Y231445350D01*
X-299217871Y231192564D01*
X-299198940Y231097390D01*
X-299198940Y230742610D01*
X-299208789Y230693095D01*
X-299268153Y230394650D01*
X-299403921Y230066878D01*
X-299601025Y229771891D01*
X-299851891Y229521025D01*
X-300146878Y229323921D01*
X-300474650Y229188153D01*
X-300773095Y229128789D01*
X-300822610Y229118940D01*
X-301177390Y229118940D01*
X-301226905Y229128789D01*
X-301525350Y229188153D01*
X-301853122Y229323921D01*
X-302148109Y229521025D01*
X-302398975Y229771891D01*
X-302596079Y230066878D01*
X-302731847Y230394650D01*
X-302791211Y230693095D01*
X-302801060Y230742610D01*
X-302801060Y231097390D01*
X-302782129Y231192564D01*
X-302731847Y231445350D01*
X-302596079Y231773122D01*
X-302398975Y232068109D01*
X-302148109Y232318975D01*
X-301853122Y232516079D01*
X-301525350Y232651847D01*
X-301226905Y232711211D01*
X-301177390Y232721060D01*
X-300822610Y232721060D01*
X-300773095Y232711211D01*
X-300773095Y232711211D01*
G37*
G36*
X-325773095Y232711211D02*
X-325474650Y232651847D01*
X-325146878Y232516079D01*
X-324851891Y232318975D01*
X-324601025Y232068109D01*
X-324403921Y231773122D01*
X-324268153Y231445350D01*
X-324217871Y231192564D01*
X-324198940Y231097390D01*
X-324198940Y230742610D01*
X-324208789Y230693095D01*
X-324268153Y230394650D01*
X-324403921Y230066878D01*
X-324601025Y229771891D01*
X-324851891Y229521025D01*
X-325146878Y229323921D01*
X-325474650Y229188153D01*
X-325773095Y229128789D01*
X-325822610Y229118940D01*
X-326177390Y229118940D01*
X-326226905Y229128789D01*
X-326525350Y229188153D01*
X-326853122Y229323921D01*
X-327148109Y229521025D01*
X-327398975Y229771891D01*
X-327596079Y230066878D01*
X-327731847Y230394650D01*
X-327791211Y230693095D01*
X-327801060Y230742610D01*
X-327801060Y231097390D01*
X-327782129Y231192564D01*
X-327731847Y231445350D01*
X-327596079Y231773122D01*
X-327398975Y232068109D01*
X-327148109Y232318975D01*
X-326853122Y232516079D01*
X-326525350Y232651847D01*
X-326226905Y232711211D01*
X-326177390Y232721060D01*
X-325822610Y232721060D01*
X-325773095Y232711211D01*
X-325773095Y232711211D01*
G37*
G36*
X-280193435Y232420611D02*
X-280002166Y232341385D01*
X-279830024Y232226363D01*
X-279683637Y232079976D01*
X-279568615Y231907834D01*
X-279489389Y231716565D01*
X-279449000Y231513516D01*
X-279449000Y231306484D01*
X-279489389Y231103435D01*
X-279568615Y230912166D01*
X-279683637Y230740024D01*
X-279830024Y230593637D01*
X-280002166Y230478615D01*
X-280193435Y230399389D01*
X-280396484Y230359000D01*
X-280603516Y230359000D01*
X-280806565Y230399389D01*
X-280997834Y230478615D01*
X-281169976Y230593637D01*
X-281316363Y230740024D01*
X-281431385Y230912166D01*
X-281510611Y231103435D01*
X-281551000Y231306484D01*
X-281551000Y231513516D01*
X-281510611Y231716565D01*
X-281431385Y231907834D01*
X-281316363Y232079976D01*
X-281169976Y232226363D01*
X-280997834Y232341385D01*
X-280806565Y232420611D01*
X-280603516Y232461000D01*
X-280396484Y232461000D01*
X-280193435Y232420611D01*
X-280193435Y232420611D01*
G37*
G36*
X-287693435Y232420611D02*
X-287502166Y232341385D01*
X-287330024Y232226363D01*
X-287183637Y232079976D01*
X-287068615Y231907834D01*
X-286989389Y231716565D01*
X-286949000Y231513516D01*
X-286949000Y231306484D01*
X-286989389Y231103435D01*
X-287068615Y230912166D01*
X-287183637Y230740024D01*
X-287330024Y230593637D01*
X-287502166Y230478615D01*
X-287693435Y230399389D01*
X-287896484Y230359000D01*
X-288103516Y230359000D01*
X-288306565Y230399389D01*
X-288497834Y230478615D01*
X-288669976Y230593637D01*
X-288816363Y230740024D01*
X-288931385Y230912166D01*
X-289010611Y231103435D01*
X-289051000Y231306484D01*
X-289051000Y231513516D01*
X-289010611Y231716565D01*
X-288931385Y231907834D01*
X-288816363Y232079976D01*
X-288669976Y232226363D01*
X-288497834Y232341385D01*
X-288306565Y232420611D01*
X-288103516Y232461000D01*
X-287896484Y232461000D01*
X-287693435Y232420611D01*
X-287693435Y232420611D01*
G37*
G36*
X-267901748Y234472182D02*
X-267901746Y234472181D01*
X-267901745Y234472181D01*
X-267528487Y234317573D01*
X-267454525Y234268153D01*
X-267192561Y234093114D01*
X-266906886Y233807439D01*
X-266906884Y233807436D01*
X-266682427Y233471513D01*
X-266527819Y233098255D01*
X-266527818Y233098252D01*
X-266449000Y232702007D01*
X-266449000Y232297993D01*
X-266526607Y231907834D01*
X-266527819Y231901745D01*
X-266682427Y231528487D01*
X-266737978Y231445349D01*
X-266906886Y231192561D01*
X-267192561Y230906886D01*
X-267192564Y230906884D01*
X-267528487Y230682427D01*
X-267901745Y230527819D01*
X-267901746Y230527819D01*
X-267901748Y230527818D01*
X-268297993Y230449000D01*
X-268702007Y230449000D01*
X-269098252Y230527818D01*
X-269098254Y230527819D01*
X-269098255Y230527819D01*
X-269471513Y230682427D01*
X-269807436Y230906884D01*
X-269807439Y230906886D01*
X-270093114Y231192561D01*
X-270262022Y231445349D01*
X-270317573Y231528487D01*
X-270472181Y231901745D01*
X-270473392Y231907834D01*
X-270551000Y232297993D01*
X-270551000Y232702007D01*
X-270472182Y233098252D01*
X-270472181Y233098255D01*
X-270317573Y233471513D01*
X-270093116Y233807436D01*
X-270093114Y233807439D01*
X-269807439Y234093114D01*
X-269545475Y234268153D01*
X-269471513Y234317573D01*
X-269098255Y234472181D01*
X-269098254Y234472181D01*
X-269098252Y234472182D01*
X-268702007Y234551000D01*
X-268297993Y234551000D01*
X-267901748Y234472182D01*
X-267901748Y234472182D01*
G37*
G36*
X-299198940Y234198940D02*
X-302801060Y234198940D01*
X-302801060Y237801060D01*
X-299198940Y237801060D01*
X-299198940Y234198940D01*
X-299198940Y234198940D01*
G37*
G36*
X-324198940Y234198940D02*
X-327801060Y234198940D01*
X-327801060Y237801060D01*
X-324198940Y237801060D01*
X-324198940Y234198940D01*
X-324198940Y234198940D01*
G37*
G36*
X-238198940Y234198940D02*
X-241801060Y234198940D01*
X-241801060Y237801060D01*
X-238198940Y237801060D01*
X-238198940Y234198940D01*
X-238198940Y234198940D01*
G37*
G36*
X-234693095Y237791211D02*
X-234394650Y237731847D01*
X-234066878Y237596079D01*
X-233771891Y237398975D01*
X-233521025Y237148109D01*
X-233323921Y236853122D01*
X-233188153Y236525350D01*
X-233118940Y236177389D01*
X-233118940Y235822611D01*
X-233188153Y235474650D01*
X-233323921Y235146878D01*
X-233521025Y234851891D01*
X-233771891Y234601025D01*
X-234066878Y234403921D01*
X-234394650Y234268153D01*
X-234693095Y234208789D01*
X-234742610Y234198940D01*
X-235097390Y234198940D01*
X-235146905Y234208789D01*
X-235445350Y234268153D01*
X-235773122Y234403921D01*
X-236068109Y234601025D01*
X-236318975Y234851891D01*
X-236516079Y235146878D01*
X-236651847Y235474650D01*
X-236721060Y235822611D01*
X-236721060Y236177389D01*
X-236651847Y236525350D01*
X-236516079Y236853122D01*
X-236318975Y237148109D01*
X-236068109Y237398975D01*
X-235773122Y237596079D01*
X-235445350Y237731847D01*
X-235146905Y237791211D01*
X-235097390Y237801060D01*
X-234742610Y237801060D01*
X-234693095Y237791211D01*
X-234693095Y237791211D01*
G37*
G36*
X-253013435Y236370611D02*
X-252822166Y236291385D01*
X-252650024Y236176363D01*
X-252503637Y236029976D01*
X-252388615Y235857834D01*
X-252309389Y235666565D01*
X-252269000Y235463516D01*
X-252269000Y235256484D01*
X-252309389Y235053435D01*
X-252388615Y234862166D01*
X-252503637Y234690024D01*
X-252650024Y234543637D01*
X-252822166Y234428615D01*
X-253013435Y234349389D01*
X-253216484Y234309000D01*
X-253423516Y234309000D01*
X-253626565Y234349389D01*
X-253817834Y234428615D01*
X-253989976Y234543637D01*
X-254136363Y234690024D01*
X-254251385Y234862166D01*
X-254330611Y235053435D01*
X-254371000Y235256484D01*
X-254371000Y235463516D01*
X-254330611Y235666565D01*
X-254251385Y235857834D01*
X-254136363Y236029976D01*
X-253989976Y236176363D01*
X-253817834Y236291385D01*
X-253626565Y236370611D01*
X-253423516Y236411000D01*
X-253216484Y236411000D01*
X-253013435Y236370611D01*
X-253013435Y236370611D01*
G37*
M02*
