G04 #@! TF.GenerationSoftware,KiCad,Pcbnew,5.0.2-bee76a0~70~ubuntu18.04.1*
G04 #@! TF.CreationDate,2020-01-07T12:16:07+05:00*
G04 #@! TF.ProjectId,headamp,68656164-616d-4702-9e6b-696361645f70,rev?*
G04 #@! TF.SameCoordinates,Original*
G04 #@! TF.FileFunction,Legend,Top*
G04 #@! TF.FilePolarity,Positive*
%FSLAX46Y46*%
G04 Gerber Fmt 4.6, Leading zero omitted, Abs format (unit mm)*
G04 Created by KiCad (PCBNEW 5.0.2-bee76a0~70~ubuntu18.04.1) date Вт 07 янв 2020 12:16:07*
%MOMM*%
%LPD*%
G01*
G04 APERTURE LIST*
%ADD10C,0.200000*%
%ADD11C,0.120000*%
%ADD12C,0.150000*%
G04 APERTURE END LIST*
D10*
X-238000000Y144000000D02*
X-224000000Y144000000D01*
X-238000000Y174910000D02*
X-238000000Y144000000D01*
X-243000000Y240000000D02*
X-231000000Y240000000D01*
X-295000000Y197910000D02*
X-332000000Y197910000D01*
X-295000000Y174910000D02*
X-295000000Y197910000D01*
X-238000000Y174910000D02*
X-295000000Y174910000D01*
X-332000000Y240000000D02*
X-332000000Y197910000D01*
X-224000000Y240000000D02*
X-224000000Y143910000D01*
X-332000000Y240000000D02*
X-224000000Y240000000D01*
D11*
G04 #@! TO.C,RV1*
X-317120000Y239920000D02*
X-310879000Y239920000D01*
X-317620000Y239920000D02*
X-310380000Y239920000D01*
X-317620000Y232920000D02*
X-310380000Y232920000D01*
X-310380000Y232920000D02*
X-310380000Y239920000D01*
X-317620000Y232920000D02*
X-317620000Y239920000D01*
X-323070000Y232920000D02*
X-304930000Y232920000D01*
X-323070000Y220580000D02*
X-304930000Y220580000D01*
X-304930000Y220580000D02*
X-304930000Y232920000D01*
X-323070000Y220580000D02*
X-323070000Y232920000D01*
D12*
G04 #@! TO.C,XS5*
X-262500000Y213000000D02*
X-262500000Y230000000D01*
X-274500000Y213000000D02*
X-262500000Y213000000D01*
X-274500000Y230000000D02*
X-274500000Y213000000D01*
X-262500000Y233000000D02*
X-262500000Y230000000D01*
X-274500000Y233000000D02*
X-274500000Y230000000D01*
X-262500000Y238000000D02*
X-262500000Y233000000D01*
X-274500000Y238000000D02*
X-274500000Y233000000D01*
X-275500000Y238000000D02*
X-275500000Y240000000D01*
X-261500000Y238000000D02*
X-275500000Y238000000D01*
X-261500000Y240000000D02*
X-261500000Y238000000D01*
X-275500000Y240000000D02*
X-261500000Y240000000D01*
D11*
G04 #@! TO.C,C5*
X-251130000Y183160000D02*
G75*
G03X-251130000Y183160000I-8120000J0D01*
G01*
G04 #@! TO.C,C6*
X-225880000Y182910000D02*
G75*
G03X-225880000Y182910000I-8120000J0D01*
G01*
G04 #@! TO.C,C7*
X-232375000Y224014002D02*
X-235875000Y224014002D01*
X-234125000Y225764002D02*
X-234125000Y222264002D01*
X-243200000Y189310000D02*
X-244800000Y189310000D01*
X-242587000Y189350000D02*
X-245413000Y189350000D01*
X-242165000Y189390000D02*
X-245835000Y189390000D01*
X-241823000Y189430000D02*
X-246177000Y189430000D01*
X-241527000Y189470000D02*
X-246473000Y189470000D01*
X-241264000Y189510000D02*
X-246736000Y189510000D01*
X-241024000Y189550000D02*
X-246976000Y189550000D01*
X-240802000Y189590000D02*
X-247198000Y189590000D01*
X-240595000Y189630000D02*
X-247405000Y189630000D01*
X-240400000Y189670000D02*
X-247600000Y189670000D01*
X-240215000Y189710000D02*
X-247785000Y189710000D01*
X-240040000Y189750000D02*
X-247960000Y189750000D01*
X-239872000Y189790000D02*
X-248128000Y189790000D01*
X-239711000Y189830000D02*
X-248289000Y189830000D01*
X-239556000Y189870000D02*
X-248444000Y189870000D01*
X-239407000Y189910000D02*
X-248593000Y189910000D01*
X-239262000Y189950000D02*
X-248738000Y189950000D01*
X-239122000Y189990000D02*
X-248878000Y189990000D01*
X-238987000Y190030000D02*
X-249013000Y190030000D01*
X-238855000Y190070000D02*
X-249145000Y190070000D01*
X-238727000Y190110000D02*
X-249273000Y190110000D01*
X-238602000Y190150000D02*
X-249398000Y190150000D01*
X-238480000Y190190000D02*
X-249520000Y190190000D01*
X-238361000Y190230000D02*
X-249639000Y190230000D01*
X-238245000Y190270000D02*
X-249755000Y190270000D01*
X-238132000Y190310000D02*
X-249868000Y190310000D01*
X-238020000Y190350000D02*
X-249980000Y190350000D01*
X-237911000Y190390000D02*
X-250089000Y190390000D01*
X-237805000Y190430000D02*
X-250195000Y190430000D01*
X-237700000Y190470000D02*
X-250300000Y190470000D01*
X-237597000Y190510000D02*
X-250403000Y190510000D01*
X-237496000Y190550000D02*
X-250504000Y190550000D01*
X-237397000Y190590000D02*
X-250603000Y190590000D01*
X-237300000Y190630000D02*
X-250700000Y190630000D01*
X-237204000Y190670000D02*
X-250796000Y190670000D01*
X-237110000Y190710000D02*
X-250890000Y190710000D01*
X-237017000Y190750000D02*
X-250983000Y190750000D01*
X-236925000Y190790000D02*
X-251075000Y190790000D01*
X-236835000Y190830000D02*
X-251165000Y190830000D01*
X-236747000Y190870000D02*
X-251253000Y190870000D01*
X-236659000Y190910000D02*
X-251341000Y190910000D01*
X-236573000Y190950000D02*
X-251427000Y190950000D01*
X-236488000Y190990000D02*
X-251512000Y190990000D01*
X-236405000Y191030000D02*
X-251595000Y191030000D01*
X-236322000Y191070000D02*
X-251678000Y191070000D01*
X-236241000Y191110000D02*
X-251759000Y191110000D01*
X-236160000Y191150000D02*
X-251840000Y191150000D01*
X-236080000Y191190000D02*
X-251920000Y191190000D01*
X-236002000Y191230000D02*
X-251998000Y191230000D01*
X-235924000Y191270000D02*
X-252076000Y191270000D01*
X-235848000Y191310000D02*
X-252152000Y191310000D01*
X-235772000Y191350000D02*
X-252228000Y191350000D01*
X-235697000Y191390000D02*
X-252303000Y191390000D01*
X-235623000Y191430000D02*
X-252377000Y191430000D01*
X-235550000Y191470000D02*
X-252450000Y191470000D01*
X-235478000Y191510000D02*
X-252522000Y191510000D01*
X-235406000Y191550000D02*
X-252594000Y191550000D01*
X-235335000Y191590000D02*
X-252665000Y191590000D01*
X-235265000Y191630000D02*
X-252735000Y191630000D01*
X-235196000Y191670000D02*
X-252804000Y191670000D01*
X-235127000Y191710000D02*
X-252873000Y191710000D01*
X-235060000Y191750000D02*
X-252940000Y191750000D01*
X-234992000Y191790000D02*
X-253008000Y191790000D01*
X-234926000Y191830000D02*
X-253074000Y191830000D01*
X-234860000Y191870000D02*
X-253140000Y191870000D01*
X-234795000Y191910000D02*
X-253205000Y191910000D01*
X-234730000Y191950000D02*
X-253270000Y191950000D01*
X-234666000Y191990000D02*
X-253334000Y191990000D01*
X-234603000Y192030000D02*
X-253397000Y192030000D01*
X-234540000Y192070000D02*
X-253460000Y192070000D01*
X-234478000Y192110000D02*
X-253522000Y192110000D01*
X-234416000Y192150000D02*
X-253584000Y192150000D01*
X-234355000Y192190000D02*
X-253645000Y192190000D01*
X-234295000Y192230000D02*
X-253705000Y192230000D01*
X-234235000Y192270000D02*
X-253765000Y192270000D01*
X-234175000Y192310000D02*
X-253825000Y192310000D01*
X-234116000Y192350000D02*
X-253884000Y192350000D01*
X-234058000Y192390000D02*
X-253942000Y192390000D01*
X-234000000Y192430000D02*
X-254000000Y192430000D01*
X-233942000Y192470000D02*
X-254058000Y192470000D01*
X-233885000Y192510000D02*
X-254115000Y192510000D01*
X-233829000Y192550000D02*
X-254171000Y192550000D01*
X-233773000Y192590000D02*
X-254227000Y192590000D01*
X-233717000Y192630000D02*
X-254283000Y192630000D01*
X-233662000Y192670000D02*
X-254338000Y192670000D01*
X-233608000Y192710000D02*
X-254392000Y192710000D01*
X-233553000Y192750000D02*
X-254447000Y192750000D01*
X-233500000Y192790000D02*
X-254500000Y192790000D01*
X-233446000Y192830000D02*
X-254554000Y192830000D01*
X-233393000Y192870000D02*
X-254607000Y192870000D01*
X-233341000Y192910000D02*
X-254659000Y192910000D01*
X-233289000Y192950000D02*
X-254711000Y192950000D01*
X-233237000Y192990000D02*
X-254763000Y192990000D01*
X-233185000Y193030000D02*
X-254815000Y193030000D01*
X-233135000Y193070000D02*
X-254865000Y193070000D01*
X-233084000Y193110000D02*
X-254916000Y193110000D01*
X-233034000Y193150000D02*
X-254966000Y193150000D01*
X-232984000Y193190000D02*
X-255016000Y193190000D01*
X-232934000Y193230000D02*
X-255066000Y193230000D01*
X-232885000Y193270000D02*
X-255115000Y193270000D01*
X-232837000Y193310000D02*
X-255163000Y193310000D01*
X-232788000Y193350000D02*
X-255212000Y193350000D01*
X-232740000Y193390000D02*
X-255260000Y193390000D01*
X-232693000Y193430000D02*
X-255307000Y193430000D01*
X-232645000Y193470000D02*
X-255355000Y193470000D01*
X-232598000Y193510000D02*
X-255402000Y193510000D01*
X-232551000Y193550000D02*
X-255449000Y193550000D01*
X-232505000Y193590000D02*
X-255495000Y193590000D01*
X-232459000Y193630000D02*
X-255541000Y193630000D01*
X-232413000Y193670000D02*
X-255587000Y193670000D01*
X-232368000Y193710000D02*
X-255632000Y193710000D01*
X-232323000Y193750000D02*
X-255677000Y193750000D01*
X-232278000Y193790000D02*
X-255722000Y193790000D01*
X-232234000Y193830000D02*
X-255766000Y193830000D01*
X-232189000Y193870000D02*
X-255811000Y193870000D01*
X-232146000Y193910000D02*
X-255854000Y193910000D01*
X-232102000Y193950000D02*
X-255898000Y193950000D01*
X-232059000Y193990000D02*
X-255941000Y193990000D01*
X-232016000Y194030000D02*
X-255984000Y194030000D01*
X-231973000Y194070000D02*
X-256027000Y194070000D01*
X-231931000Y194110000D02*
X-256069000Y194110000D01*
X-231889000Y194150000D02*
X-256111000Y194150000D01*
X-231847000Y194190000D02*
X-256153000Y194190000D01*
X-231805000Y194230000D02*
X-256195000Y194230000D01*
X-231764000Y194270000D02*
X-256236000Y194270000D01*
X-231723000Y194310000D02*
X-256277000Y194310000D01*
X-231682000Y194350000D02*
X-256318000Y194350000D01*
X-231641000Y194390000D02*
X-256359000Y194390000D01*
X-231601000Y194430000D02*
X-256399000Y194430000D01*
X-231561000Y194470000D02*
X-256439000Y194470000D01*
X-231521000Y194510000D02*
X-256479000Y194510000D01*
X-231482000Y194550000D02*
X-256518000Y194550000D01*
X-231443000Y194590000D02*
X-256557000Y194590000D01*
X-231404000Y194630000D02*
X-256596000Y194630000D01*
X-231365000Y194670000D02*
X-256635000Y194670000D01*
X-231326000Y194710000D02*
X-256674000Y194710000D01*
X-231288000Y194750000D02*
X-256712000Y194750000D01*
X-231250000Y194790000D02*
X-256750000Y194790000D01*
X-231212000Y194830000D02*
X-256788000Y194830000D01*
X-231175000Y194870000D02*
X-256825000Y194870000D01*
X-231137000Y194910000D02*
X-256863000Y194910000D01*
X-231100000Y194950000D02*
X-256900000Y194950000D01*
X-231063000Y194990000D02*
X-256937000Y194990000D01*
X-231027000Y195030000D02*
X-256973000Y195030000D01*
X-230990000Y195070000D02*
X-257010000Y195070000D01*
X-230954000Y195110000D02*
X-257046000Y195110000D01*
X-230918000Y195150000D02*
X-257082000Y195150000D01*
X-230883000Y195190000D02*
X-257117000Y195190000D01*
X-230847000Y195230000D02*
X-257153000Y195230000D01*
X-230812000Y195270000D02*
X-257188000Y195270000D01*
X-230777000Y195310000D02*
X-257223000Y195310000D01*
X-230742000Y195350000D02*
X-257258000Y195350000D01*
X-230707000Y195390000D02*
X-257293000Y195390000D01*
X-230673000Y195430000D02*
X-257327000Y195430000D01*
X-230638000Y195470000D02*
X-257362000Y195470000D01*
X-230604000Y195510000D02*
X-257396000Y195510000D01*
X-230570000Y195550000D02*
X-257430000Y195550000D01*
X-230537000Y195590000D02*
X-257463000Y195590000D01*
X-230503000Y195630000D02*
X-257497000Y195630000D01*
X-230470000Y195670000D02*
X-257530000Y195670000D01*
X-230437000Y195710000D02*
X-257563000Y195710000D01*
X-230404000Y195750000D02*
X-257596000Y195750000D01*
X-230372000Y195790000D02*
X-257628000Y195790000D01*
X-230339000Y195830000D02*
X-257661000Y195830000D01*
X-230307000Y195870000D02*
X-257693000Y195870000D01*
X-230275000Y195910000D02*
X-257725000Y195910000D01*
X-230243000Y195950000D02*
X-257757000Y195950000D01*
X-230211000Y195990000D02*
X-257789000Y195990000D01*
X-230180000Y196030000D02*
X-257820000Y196030000D01*
X-230149000Y196070000D02*
X-257851000Y196070000D01*
X-230117000Y196110000D02*
X-257883000Y196110000D01*
X-230086000Y196150000D02*
X-257914000Y196150000D01*
X-230056000Y196190000D02*
X-257944000Y196190000D01*
X-230025000Y196230000D02*
X-257975000Y196230000D01*
X-229995000Y196270000D02*
X-258005000Y196270000D01*
X-229965000Y196310000D02*
X-258035000Y196310000D01*
X-229935000Y196350000D02*
X-258065000Y196350000D01*
X-229905000Y196390000D02*
X-258095000Y196390000D01*
X-229875000Y196430000D02*
X-258125000Y196430000D01*
X-229845000Y196470000D02*
X-258155000Y196470000D01*
X-229816000Y196510000D02*
X-258184000Y196510000D01*
X-229787000Y196550000D02*
X-258213000Y196550000D01*
X-229758000Y196590000D02*
X-258242000Y196590000D01*
X-229729000Y196630000D02*
X-258271000Y196630000D01*
X-229701000Y196670000D02*
X-258299000Y196670000D01*
X-229672000Y196710000D02*
X-258328000Y196710000D01*
X-229644000Y196750000D02*
X-258356000Y196750000D01*
X-229616000Y196790000D02*
X-258384000Y196790000D01*
X-229588000Y196830000D02*
X-258412000Y196830000D01*
X-229560000Y196870000D02*
X-258440000Y196870000D01*
X-229532000Y196910000D02*
X-258468000Y196910000D01*
X-229505000Y196950000D02*
X-258495000Y196950000D01*
X-229477000Y196990000D02*
X-258523000Y196990000D01*
X-229450000Y197030000D02*
X-258550000Y197030000D01*
X-229423000Y197070000D02*
X-258577000Y197070000D01*
X-229396000Y197110000D02*
X-258604000Y197110000D01*
X-229370000Y197150000D02*
X-258630000Y197150000D01*
X-229343000Y197190000D02*
X-258657000Y197190000D01*
X-229317000Y197230000D02*
X-258683000Y197230000D01*
X-229290000Y197270000D02*
X-258710000Y197270000D01*
X-229264000Y197310000D02*
X-258736000Y197310000D01*
X-229238000Y197350000D02*
X-258762000Y197350000D01*
X-229213000Y197390000D02*
X-258787000Y197390000D01*
X-229187000Y197430000D02*
X-258813000Y197430000D01*
X-229162000Y197470000D02*
X-258838000Y197470000D01*
X-229136000Y197510000D02*
X-258864000Y197510000D01*
X-229111000Y197550000D02*
X-258889000Y197550000D01*
X-229086000Y197590000D02*
X-258914000Y197590000D01*
X-229061000Y197630000D02*
X-258939000Y197630000D01*
X-229037000Y197670000D02*
X-258963000Y197670000D01*
X-229012000Y197710000D02*
X-258988000Y197710000D01*
X-228988000Y197750000D02*
X-259012000Y197750000D01*
X-228963000Y197790000D02*
X-259037000Y197790000D01*
X-228939000Y197830000D02*
X-259061000Y197830000D01*
X-228915000Y197870000D02*
X-259085000Y197870000D01*
X-228891000Y197910000D02*
X-259109000Y197910000D01*
X-228868000Y197950000D02*
X-259132000Y197950000D01*
X-228844000Y197990000D02*
X-259156000Y197990000D01*
X-228821000Y198030000D02*
X-259179000Y198030000D01*
X-228797000Y198070000D02*
X-259203000Y198070000D01*
X-228774000Y198110000D02*
X-259226000Y198110000D01*
X-228751000Y198150000D02*
X-259249000Y198150000D01*
X-228729000Y198190000D02*
X-259271000Y198190000D01*
X-228706000Y198230000D02*
X-259294000Y198230000D01*
X-228683000Y198270000D02*
X-259317000Y198270000D01*
X-228661000Y198310000D02*
X-259339000Y198310000D01*
X-228639000Y198350000D02*
X-259361000Y198350000D01*
X-228616000Y198390000D02*
X-259384000Y198390000D01*
X-228594000Y198430000D02*
X-259406000Y198430000D01*
X-228572000Y198470000D02*
X-259428000Y198470000D01*
X-228551000Y198510000D02*
X-259449000Y198510000D01*
X-228529000Y198550000D02*
X-259471000Y198550000D01*
X-228508000Y198590000D02*
X-259492000Y198590000D01*
X-228486000Y198630000D02*
X-259514000Y198630000D01*
X-228465000Y198670000D02*
X-259535000Y198670000D01*
X-228444000Y198710000D02*
X-259556000Y198710000D01*
X-228423000Y198749000D02*
X-259577000Y198749000D01*
X-228402000Y198789000D02*
X-259598000Y198789000D01*
X-228381000Y198829000D02*
X-259619000Y198829000D01*
X-228361000Y198869000D02*
X-259639000Y198869000D01*
X-228340000Y198909000D02*
X-259660000Y198909000D01*
X-228320000Y198949000D02*
X-259680000Y198949000D01*
X-228300000Y198989000D02*
X-259700000Y198989000D01*
X-228280000Y199029000D02*
X-259720000Y199029000D01*
X-228260000Y199069000D02*
X-259740000Y199069000D01*
X-228240000Y199109000D02*
X-259760000Y199109000D01*
X-228220000Y199149000D02*
X-259780000Y199149000D01*
X-228201000Y199189000D02*
X-259799000Y199189000D01*
X-228181000Y199229000D02*
X-259819000Y199229000D01*
X-228162000Y199269000D02*
X-259838000Y199269000D01*
X-228143000Y199309000D02*
X-259857000Y199309000D01*
X-228124000Y199349000D02*
X-259876000Y199349000D01*
X-228105000Y199389000D02*
X-259895000Y199389000D01*
X-228086000Y199429000D02*
X-259914000Y199429000D01*
X-228067000Y199469000D02*
X-259933000Y199469000D01*
X-228049000Y199509000D02*
X-259951000Y199509000D01*
X-228030000Y199549000D02*
X-259970000Y199549000D01*
X-228012000Y199589000D02*
X-259988000Y199589000D01*
X-227994000Y199629000D02*
X-260006000Y199629000D01*
X-227976000Y199669000D02*
X-260024000Y199669000D01*
X-246240000Y199709000D02*
X-260042000Y199709000D01*
X-227958000Y199709000D02*
X-241760000Y199709000D01*
X-246240000Y199749000D02*
X-260060000Y199749000D01*
X-227940000Y199749000D02*
X-241760000Y199749000D01*
X-246240000Y199789000D02*
X-260078000Y199789000D01*
X-227922000Y199789000D02*
X-241760000Y199789000D01*
X-246240000Y199829000D02*
X-260095000Y199829000D01*
X-227905000Y199829000D02*
X-241760000Y199829000D01*
X-246240000Y199869000D02*
X-260113000Y199869000D01*
X-227887000Y199869000D02*
X-241760000Y199869000D01*
X-246240000Y199909000D02*
X-260130000Y199909000D01*
X-227870000Y199909000D02*
X-241760000Y199909000D01*
X-246240000Y199949000D02*
X-260148000Y199949000D01*
X-227852000Y199949000D02*
X-241760000Y199949000D01*
X-246240000Y199989000D02*
X-260165000Y199989000D01*
X-227835000Y199989000D02*
X-241760000Y199989000D01*
X-246240000Y200029000D02*
X-260182000Y200029000D01*
X-227818000Y200029000D02*
X-241760000Y200029000D01*
X-246240000Y200069000D02*
X-260199000Y200069000D01*
X-227801000Y200069000D02*
X-241760000Y200069000D01*
X-246240000Y200109000D02*
X-260215000Y200109000D01*
X-227785000Y200109000D02*
X-241760000Y200109000D01*
X-246240000Y200149000D02*
X-260232000Y200149000D01*
X-227768000Y200149000D02*
X-241760000Y200149000D01*
X-246240000Y200189000D02*
X-260249000Y200189000D01*
X-227751000Y200189000D02*
X-241760000Y200189000D01*
X-246240000Y200229000D02*
X-260265000Y200229000D01*
X-227735000Y200229000D02*
X-241760000Y200229000D01*
X-246240000Y200269000D02*
X-260281000Y200269000D01*
X-227719000Y200269000D02*
X-241760000Y200269000D01*
X-246240000Y200309000D02*
X-260298000Y200309000D01*
X-227702000Y200309000D02*
X-241760000Y200309000D01*
X-246240000Y200349000D02*
X-260314000Y200349000D01*
X-227686000Y200349000D02*
X-241760000Y200349000D01*
X-246240000Y200389000D02*
X-260330000Y200389000D01*
X-227670000Y200389000D02*
X-241760000Y200389000D01*
X-246240000Y200429000D02*
X-260346000Y200429000D01*
X-227654000Y200429000D02*
X-241760000Y200429000D01*
X-246240000Y200469000D02*
X-260361000Y200469000D01*
X-227639000Y200469000D02*
X-241760000Y200469000D01*
X-246240000Y200509000D02*
X-260377000Y200509000D01*
X-227623000Y200509000D02*
X-241760000Y200509000D01*
X-246240000Y200549000D02*
X-260393000Y200549000D01*
X-227607000Y200549000D02*
X-241760000Y200549000D01*
X-246240000Y200589000D02*
X-260408000Y200589000D01*
X-227592000Y200589000D02*
X-241760000Y200589000D01*
X-246240000Y200629000D02*
X-260423000Y200629000D01*
X-227577000Y200629000D02*
X-241760000Y200629000D01*
X-246240000Y200669000D02*
X-260439000Y200669000D01*
X-227561000Y200669000D02*
X-241760000Y200669000D01*
X-246240000Y200709000D02*
X-260454000Y200709000D01*
X-227546000Y200709000D02*
X-241760000Y200709000D01*
X-246240000Y200749000D02*
X-260469000Y200749000D01*
X-227531000Y200749000D02*
X-241760000Y200749000D01*
X-246240000Y200789000D02*
X-260484000Y200789000D01*
X-227516000Y200789000D02*
X-241760000Y200789000D01*
X-246240000Y200829000D02*
X-260498000Y200829000D01*
X-227502000Y200829000D02*
X-241760000Y200829000D01*
X-246240000Y200869000D02*
X-260513000Y200869000D01*
X-227487000Y200869000D02*
X-241760000Y200869000D01*
X-246240000Y200909000D02*
X-260527000Y200909000D01*
X-227473000Y200909000D02*
X-241760000Y200909000D01*
X-246240000Y200949000D02*
X-260542000Y200949000D01*
X-227458000Y200949000D02*
X-241760000Y200949000D01*
X-246240000Y200989000D02*
X-260556000Y200989000D01*
X-227444000Y200989000D02*
X-241760000Y200989000D01*
X-246240000Y201029000D02*
X-260570000Y201029000D01*
X-227430000Y201029000D02*
X-241760000Y201029000D01*
X-246240000Y201069000D02*
X-260585000Y201069000D01*
X-227415000Y201069000D02*
X-241760000Y201069000D01*
X-246240000Y201109000D02*
X-260599000Y201109000D01*
X-227401000Y201109000D02*
X-241760000Y201109000D01*
X-246240000Y201149000D02*
X-260612000Y201149000D01*
X-227388000Y201149000D02*
X-241760000Y201149000D01*
X-246240000Y201189000D02*
X-260626000Y201189000D01*
X-227374000Y201189000D02*
X-241760000Y201189000D01*
X-246240000Y201229000D02*
X-260640000Y201229000D01*
X-227360000Y201229000D02*
X-241760000Y201229000D01*
X-246240000Y201269000D02*
X-260653000Y201269000D01*
X-227347000Y201269000D02*
X-241760000Y201269000D01*
X-246240000Y201309000D02*
X-260667000Y201309000D01*
X-227333000Y201309000D02*
X-241760000Y201309000D01*
X-246240000Y201349000D02*
X-260680000Y201349000D01*
X-227320000Y201349000D02*
X-241760000Y201349000D01*
X-246240000Y201389000D02*
X-260694000Y201389000D01*
X-227306000Y201389000D02*
X-241760000Y201389000D01*
X-246240000Y201429000D02*
X-260707000Y201429000D01*
X-227293000Y201429000D02*
X-241760000Y201429000D01*
X-246240000Y201469000D02*
X-260720000Y201469000D01*
X-227280000Y201469000D02*
X-241760000Y201469000D01*
X-246240000Y201509000D02*
X-260733000Y201509000D01*
X-227267000Y201509000D02*
X-241760000Y201509000D01*
X-246240000Y201549000D02*
X-260745000Y201549000D01*
X-227255000Y201549000D02*
X-241760000Y201549000D01*
X-246240000Y201589000D02*
X-260758000Y201589000D01*
X-227242000Y201589000D02*
X-241760000Y201589000D01*
X-246240000Y201629000D02*
X-260771000Y201629000D01*
X-227229000Y201629000D02*
X-241760000Y201629000D01*
X-246240000Y201669000D02*
X-260783000Y201669000D01*
X-227217000Y201669000D02*
X-241760000Y201669000D01*
X-246240000Y201709000D02*
X-260796000Y201709000D01*
X-227204000Y201709000D02*
X-241760000Y201709000D01*
X-246240000Y201749000D02*
X-260808000Y201749000D01*
X-227192000Y201749000D02*
X-241760000Y201749000D01*
X-246240000Y201789000D02*
X-260820000Y201789000D01*
X-227180000Y201789000D02*
X-241760000Y201789000D01*
X-246240000Y201829000D02*
X-260832000Y201829000D01*
X-227168000Y201829000D02*
X-241760000Y201829000D01*
X-246240000Y201869000D02*
X-260844000Y201869000D01*
X-227156000Y201869000D02*
X-241760000Y201869000D01*
X-246240000Y201909000D02*
X-260856000Y201909000D01*
X-227144000Y201909000D02*
X-241760000Y201909000D01*
X-246240000Y201949000D02*
X-260868000Y201949000D01*
X-227132000Y201949000D02*
X-241760000Y201949000D01*
X-246240000Y201989000D02*
X-260880000Y201989000D01*
X-227120000Y201989000D02*
X-241760000Y201989000D01*
X-246240000Y202029000D02*
X-260891000Y202029000D01*
X-227109000Y202029000D02*
X-241760000Y202029000D01*
X-246240000Y202069000D02*
X-260903000Y202069000D01*
X-227097000Y202069000D02*
X-241760000Y202069000D01*
X-246240000Y202109000D02*
X-260914000Y202109000D01*
X-227086000Y202109000D02*
X-241760000Y202109000D01*
X-246240000Y202149000D02*
X-260925000Y202149000D01*
X-227075000Y202149000D02*
X-241760000Y202149000D01*
X-246240000Y202189000D02*
X-260937000Y202189000D01*
X-227063000Y202189000D02*
X-241760000Y202189000D01*
X-246240000Y202229000D02*
X-260948000Y202229000D01*
X-227052000Y202229000D02*
X-241760000Y202229000D01*
X-246240000Y202269000D02*
X-260959000Y202269000D01*
X-227041000Y202269000D02*
X-241760000Y202269000D01*
X-246240000Y202309000D02*
X-260969000Y202309000D01*
X-227031000Y202309000D02*
X-241760000Y202309000D01*
X-246240000Y202349000D02*
X-260980000Y202349000D01*
X-227020000Y202349000D02*
X-241760000Y202349000D01*
X-246240000Y202389000D02*
X-260991000Y202389000D01*
X-227009000Y202389000D02*
X-241760000Y202389000D01*
X-246240000Y202429000D02*
X-261001000Y202429000D01*
X-226999000Y202429000D02*
X-241760000Y202429000D01*
X-246240000Y202469000D02*
X-261012000Y202469000D01*
X-226988000Y202469000D02*
X-241760000Y202469000D01*
X-246240000Y202509000D02*
X-261022000Y202509000D01*
X-226978000Y202509000D02*
X-241760000Y202509000D01*
X-246240000Y202549000D02*
X-261033000Y202549000D01*
X-226967000Y202549000D02*
X-241760000Y202549000D01*
X-246240000Y202589000D02*
X-261043000Y202589000D01*
X-226957000Y202589000D02*
X-241760000Y202589000D01*
X-246240000Y202629000D02*
X-261053000Y202629000D01*
X-226947000Y202629000D02*
X-241760000Y202629000D01*
X-246240000Y202669000D02*
X-261063000Y202669000D01*
X-226937000Y202669000D02*
X-241760000Y202669000D01*
X-246240000Y202709000D02*
X-261073000Y202709000D01*
X-226927000Y202709000D02*
X-241760000Y202709000D01*
X-246240000Y202749000D02*
X-261082000Y202749000D01*
X-226918000Y202749000D02*
X-241760000Y202749000D01*
X-246240000Y202789000D02*
X-261092000Y202789000D01*
X-226908000Y202789000D02*
X-241760000Y202789000D01*
X-246240000Y202829000D02*
X-261102000Y202829000D01*
X-226898000Y202829000D02*
X-241760000Y202829000D01*
X-246240000Y202869000D02*
X-261111000Y202869000D01*
X-226889000Y202869000D02*
X-241760000Y202869000D01*
X-246240000Y202909000D02*
X-261120000Y202909000D01*
X-226880000Y202909000D02*
X-241760000Y202909000D01*
X-246240000Y202949000D02*
X-261130000Y202949000D01*
X-226870000Y202949000D02*
X-241760000Y202949000D01*
X-246240000Y202989000D02*
X-261139000Y202989000D01*
X-226861000Y202989000D02*
X-241760000Y202989000D01*
X-246240000Y203029000D02*
X-261148000Y203029000D01*
X-226852000Y203029000D02*
X-241760000Y203029000D01*
X-246240000Y203069000D02*
X-261157000Y203069000D01*
X-226843000Y203069000D02*
X-241760000Y203069000D01*
X-246240000Y203109000D02*
X-261166000Y203109000D01*
X-226834000Y203109000D02*
X-241760000Y203109000D01*
X-246240000Y203149000D02*
X-261175000Y203149000D01*
X-226825000Y203149000D02*
X-241760000Y203149000D01*
X-246240000Y203189000D02*
X-261183000Y203189000D01*
X-226817000Y203189000D02*
X-241760000Y203189000D01*
X-246240000Y203229000D02*
X-261192000Y203229000D01*
X-226808000Y203229000D02*
X-241760000Y203229000D01*
X-246240000Y203269000D02*
X-261200000Y203269000D01*
X-226800000Y203269000D02*
X-241760000Y203269000D01*
X-246240000Y203309000D02*
X-261209000Y203309000D01*
X-226791000Y203309000D02*
X-241760000Y203309000D01*
X-246240000Y203349000D02*
X-261217000Y203349000D01*
X-226783000Y203349000D02*
X-241760000Y203349000D01*
X-246240000Y203389000D02*
X-261225000Y203389000D01*
X-226775000Y203389000D02*
X-241760000Y203389000D01*
X-246240000Y203429000D02*
X-261233000Y203429000D01*
X-226767000Y203429000D02*
X-241760000Y203429000D01*
X-246240000Y203469000D02*
X-261241000Y203469000D01*
X-226759000Y203469000D02*
X-241760000Y203469000D01*
X-246240000Y203509000D02*
X-261249000Y203509000D01*
X-226751000Y203509000D02*
X-241760000Y203509000D01*
X-246240000Y203549000D02*
X-261257000Y203549000D01*
X-226743000Y203549000D02*
X-241760000Y203549000D01*
X-246240000Y203589000D02*
X-261265000Y203589000D01*
X-226735000Y203589000D02*
X-241760000Y203589000D01*
X-246240000Y203629000D02*
X-261273000Y203629000D01*
X-226727000Y203629000D02*
X-241760000Y203629000D01*
X-246240000Y203669000D02*
X-261280000Y203669000D01*
X-226720000Y203669000D02*
X-241760000Y203669000D01*
X-246240000Y203709000D02*
X-261287000Y203709000D01*
X-226713000Y203709000D02*
X-241760000Y203709000D01*
X-246240000Y203749000D02*
X-261295000Y203749000D01*
X-226705000Y203749000D02*
X-241760000Y203749000D01*
X-246240000Y203789000D02*
X-261302000Y203789000D01*
X-226698000Y203789000D02*
X-241760000Y203789000D01*
X-246240000Y203829000D02*
X-261309000Y203829000D01*
X-226691000Y203829000D02*
X-241760000Y203829000D01*
X-246240000Y203869000D02*
X-261316000Y203869000D01*
X-226684000Y203869000D02*
X-241760000Y203869000D01*
X-246240000Y203909000D02*
X-261323000Y203909000D01*
X-226677000Y203909000D02*
X-241760000Y203909000D01*
X-246240000Y203949000D02*
X-261330000Y203949000D01*
X-226670000Y203949000D02*
X-241760000Y203949000D01*
X-246240000Y203989000D02*
X-261337000Y203989000D01*
X-226663000Y203989000D02*
X-241760000Y203989000D01*
X-246240000Y204029000D02*
X-261344000Y204029000D01*
X-226656000Y204029000D02*
X-241760000Y204029000D01*
X-246240000Y204069000D02*
X-261350000Y204069000D01*
X-226650000Y204069000D02*
X-241760000Y204069000D01*
X-246240000Y204109000D02*
X-261357000Y204109000D01*
X-226643000Y204109000D02*
X-241760000Y204109000D01*
X-246240000Y204149000D02*
X-261363000Y204149000D01*
X-226637000Y204149000D02*
X-241760000Y204149000D01*
X-226631000Y204189000D02*
X-261369000Y204189000D01*
X-226625000Y204229000D02*
X-261375000Y204229000D01*
X-226618000Y204269000D02*
X-261382000Y204269000D01*
X-226612000Y204309000D02*
X-261388000Y204309000D01*
X-226606000Y204349000D02*
X-261394000Y204349000D01*
X-226601000Y204389000D02*
X-261399000Y204389000D01*
X-226595000Y204429000D02*
X-261405000Y204429000D01*
X-226589000Y204469000D02*
X-261411000Y204469000D01*
X-226584000Y204509000D02*
X-261416000Y204509000D01*
X-226578000Y204549000D02*
X-261422000Y204549000D01*
X-226573000Y204589000D02*
X-261427000Y204589000D01*
X-226568000Y204629000D02*
X-261432000Y204629000D01*
X-226562000Y204669000D02*
X-261438000Y204669000D01*
X-226557000Y204709000D02*
X-261443000Y204709000D01*
X-226552000Y204749000D02*
X-261448000Y204749000D01*
X-226548000Y204789000D02*
X-261452000Y204789000D01*
X-226543000Y204829000D02*
X-261457000Y204829000D01*
X-226538000Y204869000D02*
X-261462000Y204869000D01*
X-226533000Y204909000D02*
X-261467000Y204909000D01*
X-226529000Y204949000D02*
X-261471000Y204949000D01*
X-226524000Y204989000D02*
X-261476000Y204989000D01*
X-226520000Y205029000D02*
X-261480000Y205029000D01*
X-226516000Y205069000D02*
X-261484000Y205069000D01*
X-226512000Y205109000D02*
X-261488000Y205109000D01*
X-226508000Y205149000D02*
X-261492000Y205149000D01*
X-226504000Y205189000D02*
X-261496000Y205189000D01*
X-226500000Y205229000D02*
X-261500000Y205229000D01*
X-226496000Y205269000D02*
X-261504000Y205269000D01*
X-226492000Y205309000D02*
X-261508000Y205309000D01*
X-226489000Y205349000D02*
X-261511000Y205349000D01*
X-226485000Y205389000D02*
X-261515000Y205389000D01*
X-226482000Y205429000D02*
X-261518000Y205429000D01*
X-226478000Y205469000D02*
X-261522000Y205469000D01*
X-226475000Y205509000D02*
X-261525000Y205509000D01*
X-226472000Y205549000D02*
X-261528000Y205549000D01*
X-226469000Y205589000D02*
X-261531000Y205589000D01*
X-226466000Y205629000D02*
X-261534000Y205629000D01*
X-226463000Y205669000D02*
X-261537000Y205669000D01*
X-226460000Y205709000D02*
X-261540000Y205709000D01*
X-226458000Y205749000D02*
X-261542000Y205749000D01*
X-226455000Y205789000D02*
X-261545000Y205789000D01*
X-226453000Y205829000D02*
X-261547000Y205829000D01*
X-226450000Y205869000D02*
X-261550000Y205869000D01*
X-226448000Y205909000D02*
X-261552000Y205909000D01*
X-226446000Y205949000D02*
X-261554000Y205949000D01*
X-226444000Y205989000D02*
X-261556000Y205989000D01*
X-226441000Y206029000D02*
X-261559000Y206029000D01*
X-226440000Y206069000D02*
X-261560000Y206069000D01*
X-226438000Y206109000D02*
X-261562000Y206109000D01*
X-226436000Y206149000D02*
X-261564000Y206149000D01*
X-226434000Y206189000D02*
X-261566000Y206189000D01*
X-226433000Y206230000D02*
X-261567000Y206230000D01*
X-226431000Y206270000D02*
X-261569000Y206270000D01*
X-226430000Y206310000D02*
X-261570000Y206310000D01*
X-226428000Y206350000D02*
X-261572000Y206350000D01*
X-226427000Y206390000D02*
X-261573000Y206390000D01*
X-226426000Y206430000D02*
X-261574000Y206430000D01*
X-226425000Y206470000D02*
X-261575000Y206470000D01*
X-226424000Y206510000D02*
X-261576000Y206510000D01*
X-226423000Y206550000D02*
X-261577000Y206550000D01*
X-226422000Y206590000D02*
X-261578000Y206590000D01*
X-226422000Y206630000D02*
X-261578000Y206630000D01*
X-226421000Y206670000D02*
X-261579000Y206670000D01*
X-226421000Y206710000D02*
X-261579000Y206710000D01*
X-226420000Y206750000D02*
X-261580000Y206750000D01*
X-226420000Y206790000D02*
X-261580000Y206790000D01*
X-226420000Y206830000D02*
X-261580000Y206830000D01*
X-226420000Y206870000D02*
X-261580000Y206870000D01*
X-226420000Y206910000D02*
X-261580000Y206910000D01*
X-226380000Y206910000D02*
G75*
G03X-226380000Y206910000I-17620000J0D01*
G01*
G04 #@! TO.C,C8*
X-277630000Y183410000D02*
G75*
G03X-277630000Y183410000I-8120000J0D01*
G01*
G04 #@! TO.C,C9*
X-301636000Y218130000D02*
X-303620000Y218130000D01*
X-298380000Y218130000D02*
X-300364000Y218130000D01*
X-301636000Y225870000D02*
X-303620000Y225870000D01*
X-298380000Y225870000D02*
X-300364000Y225870000D01*
X-303620000Y225870000D02*
X-303620000Y218130000D01*
X-298380000Y225870000D02*
X-298380000Y218130000D01*
G04 #@! TO.C,C10*
X-326636000Y218130000D02*
X-328620000Y218130000D01*
X-323380000Y218130000D02*
X-325364000Y218130000D01*
X-326636000Y225870000D02*
X-328620000Y225870000D01*
X-323380000Y225870000D02*
X-325364000Y225870000D01*
X-328620000Y225870000D02*
X-328620000Y218130000D01*
X-323380000Y225870000D02*
X-323380000Y218130000D01*
G04 #@! TO.C,C11*
X-270880000Y205160000D02*
G75*
G03X-270880000Y205160000I-8120000J0D01*
G01*
G04 #@! TO.C,C12*
X-290636000Y203040000D02*
X-292620000Y203040000D01*
X-287380000Y203040000D02*
X-289364000Y203040000D01*
X-290636000Y210780000D02*
X-292620000Y210780000D01*
X-287380000Y210780000D02*
X-289364000Y210780000D01*
X-292620000Y210780000D02*
X-292620000Y203040000D01*
X-287380000Y210780000D02*
X-287380000Y203040000D01*
G04 #@! TO.C,C13*
X-294990000Y211100000D02*
X-295990000Y211100000D01*
X-295490000Y211600000D02*
X-295490000Y210600000D01*
X-301295563Y210360000D02*
X-302360000Y209295563D01*
X-294704437Y210360000D02*
X-293640000Y209295563D01*
X-294704437Y210360000D02*
X-296490000Y210360000D01*
X-301295563Y210360000D02*
X-299510000Y210360000D01*
X-302360000Y209295563D02*
X-302360000Y201640000D01*
X-293640000Y209295563D02*
X-293640000Y201640000D01*
X-293640000Y201640000D02*
X-296490000Y201640000D01*
X-302360000Y201640000D02*
X-299510000Y201640000D01*
G04 #@! TO.C,C14*
X-321990000Y211100000D02*
X-322990000Y211100000D01*
X-322490000Y211600000D02*
X-322490000Y210600000D01*
X-328295563Y210360000D02*
X-329360000Y209295563D01*
X-321704437Y210360000D02*
X-320640000Y209295563D01*
X-321704437Y210360000D02*
X-323490000Y210360000D01*
X-328295563Y210360000D02*
X-326510000Y210360000D01*
X-329360000Y209295563D02*
X-329360000Y201640000D01*
X-320640000Y209295563D02*
X-320640000Y201640000D01*
X-320640000Y201640000D02*
X-323490000Y201640000D01*
X-329360000Y201640000D02*
X-326510000Y201640000D01*
G04 #@! TO.C,C15*
X-276130000Y231410000D02*
G75*
G03X-276130000Y231410000I-8120000J0D01*
G01*
G04 #@! TO.C,C16*
X-245200000Y231610000D02*
G75*
G03X-245200000Y231610000I-8120000J0D01*
G01*
G04 #@! TO.C,C17*
X-286682810Y215820369D02*
X-287886938Y215820369D01*
X-286682810Y214000369D02*
X-287886938Y214000369D01*
G04 #@! TO.C,C18*
X-291897936Y215820000D02*
X-293102064Y215820000D01*
X-291897936Y214000000D02*
X-293102064Y214000000D01*
G04 #@! TO.C,C19*
X-275507936Y215780000D02*
X-276712064Y215780000D01*
X-275507936Y213960000D02*
X-276712064Y213960000D01*
G04 #@! TO.C,C20*
X-280737936Y215780000D02*
X-281942064Y215780000D01*
X-280737936Y213960000D02*
X-281942064Y213960000D01*
G04 #@! TO.C,D2*
X-235636696Y153654210D02*
X-235636696Y160954210D01*
X-231336696Y153654210D02*
X-231336696Y160954210D01*
X-235636696Y153654210D02*
X-231336696Y153654210D01*
G04 #@! TO.C,D3*
X-231336696Y172554210D02*
X-231336696Y165254210D01*
X-235636696Y172554210D02*
X-235636696Y165254210D01*
X-231336696Y172554210D02*
X-235636696Y172554210D01*
G04 #@! TO.C,D4*
X-226336696Y162764210D02*
X-226336696Y155464210D01*
X-230636696Y162764210D02*
X-230636696Y155464210D01*
X-226336696Y162764210D02*
X-230636696Y162764210D01*
G04 #@! TO.C,D5*
X-230636696Y163404210D02*
X-230636696Y170704210D01*
X-226336696Y163404210D02*
X-226336696Y170704210D01*
X-230636696Y163404210D02*
X-226336696Y163404210D01*
G04 #@! TO.C,R1*
X-260200000Y194000000D02*
X-260310000Y194000000D01*
X-272560000Y194000000D02*
X-272450000Y194000000D01*
X-260310000Y196370000D02*
X-272450000Y196370000D01*
X-260310000Y191630000D02*
X-260310000Y196370000D01*
X-272450000Y191630000D02*
X-260310000Y191630000D01*
X-272450000Y196370000D02*
X-272450000Y191630000D01*
G04 #@! TO.C,R2*
X-278200000Y194000000D02*
X-278310000Y194000000D01*
X-290560000Y194000000D02*
X-290450000Y194000000D01*
X-278310000Y196370000D02*
X-290450000Y196370000D01*
X-278310000Y191630000D02*
X-278310000Y196370000D01*
X-290450000Y191630000D02*
X-278310000Y191630000D01*
X-290450000Y196370000D02*
X-290450000Y191630000D01*
G04 #@! TO.C,R4*
X-307090000Y235397936D02*
X-307090000Y236602064D01*
X-308910000Y235397936D02*
X-308910000Y236602064D01*
G04 #@! TO.C,R5*
X-319090000Y235397936D02*
X-319090000Y236602064D01*
X-320910000Y235397936D02*
X-320910000Y236602064D01*
G04 #@! TO.C,R8*
X-300885436Y214820000D02*
X-302089564Y214820000D01*
X-300885436Y213000000D02*
X-302089564Y213000000D01*
G04 #@! TO.C,R9*
X-326602064Y213090000D02*
X-325397936Y213090000D01*
X-326602064Y214910000D02*
X-325397936Y214910000D01*
G04 #@! TO.C,R10*
X-319953722Y216820436D02*
X-319953722Y218024564D01*
X-321773722Y216820436D02*
X-321773722Y218024564D01*
G04 #@! TO.C,R11*
X-305584782Y216869419D02*
X-305584782Y218073547D01*
X-307404782Y216869419D02*
X-307404782Y218073547D01*
G04 #@! TO.C,R12*
X-317890000Y216820436D02*
X-317890000Y218024564D01*
X-319710000Y216820436D02*
X-319710000Y218024564D01*
G04 #@! TO.C,R13*
X-314090000Y217397936D02*
X-314090000Y218602064D01*
X-315910000Y217397936D02*
X-315910000Y218602064D01*
G04 #@! TO.C,R14*
X-307584782Y216869419D02*
X-307584782Y218073547D01*
X-309404782Y216869419D02*
X-309404782Y218073547D01*
G04 #@! TO.C,R15*
X-311090000Y217397936D02*
X-311090000Y218602064D01*
X-312910000Y217397936D02*
X-312910000Y218602064D01*
G04 #@! TO.C,R16*
X-239160000Y231602064D02*
X-239160000Y230397936D01*
X-237340000Y231602064D02*
X-237340000Y230397936D01*
G04 #@! TO.C,R17*
X-317839344Y204307936D02*
X-317839344Y205512064D01*
X-319659344Y204307936D02*
X-319659344Y205512064D01*
G04 #@! TO.C,R18*
X-304702427Y204179926D02*
X-304702427Y205384054D01*
X-306522427Y204179926D02*
X-306522427Y205384054D01*
G04 #@! TO.C,R19*
X-315839344Y204307936D02*
X-315839344Y205512064D01*
X-317659344Y204307936D02*
X-317659344Y205512064D01*
G04 #@! TO.C,R20*
X-302702427Y204179926D02*
X-302702427Y205384054D01*
X-304522427Y204179926D02*
X-304522427Y205384054D01*
G04 #@! TO.C,R21*
X-292602064Y222500000D02*
X-291397936Y222500000D01*
X-292602064Y224320000D02*
X-291397936Y224320000D01*
G04 #@! TO.C,R22*
X-278602064Y222000000D02*
X-277397936Y222000000D01*
X-278602064Y223820000D02*
X-277397936Y223820000D01*
D12*
G04 #@! TO.C,U1*
X-292775000Y222070000D02*
X-294175000Y222070000D01*
X-292775000Y216970000D02*
X-288625000Y216970000D01*
X-292775000Y222120000D02*
X-288625000Y222120000D01*
X-292775000Y216970000D02*
X-292775000Y217115000D01*
X-288625000Y216970000D02*
X-288625000Y217115000D01*
X-288625000Y222120000D02*
X-288625000Y221975000D01*
X-292775000Y222120000D02*
X-292775000Y222070000D01*
G04 #@! TO.C,U2*
X-281775000Y221800000D02*
X-283175000Y221800000D01*
X-281775000Y216700000D02*
X-277625000Y216700000D01*
X-281775000Y221850000D02*
X-277625000Y221850000D01*
X-281775000Y216700000D02*
X-281775000Y216845000D01*
X-277625000Y216700000D02*
X-277625000Y216845000D01*
X-277625000Y221850000D02*
X-277625000Y221705000D01*
X-281775000Y221850000D02*
X-281775000Y221800000D01*
G04 #@! TO.C,VL1*
X-306000000Y210000000D02*
G75*
G03X-306000000Y210000000I-5000000J0D01*
G01*
G04 #@! TO.C,RV1*
X-323747619Y228404761D02*
X-324223809Y228071428D01*
X-323747619Y227833333D02*
X-324747619Y227833333D01*
X-324747619Y228214285D01*
X-324700000Y228309523D01*
X-324652380Y228357142D01*
X-324557142Y228404761D01*
X-324414285Y228404761D01*
X-324319047Y228357142D01*
X-324271428Y228309523D01*
X-324223809Y228214285D01*
X-324223809Y227833333D01*
X-324747619Y228690476D02*
X-323747619Y229023809D01*
X-324747619Y229357142D01*
X-323747619Y230214285D02*
X-323747619Y229642857D01*
X-323747619Y229928571D02*
X-324747619Y229928571D01*
X-324604761Y229833333D01*
X-324509523Y229738095D01*
X-324461904Y229642857D01*
G04 #@! TO.C,XS5*
X-269785714Y226547619D02*
X-269119047Y225547619D01*
X-269119047Y226547619D02*
X-269785714Y225547619D01*
X-268785714Y225595238D02*
X-268642857Y225547619D01*
X-268404761Y225547619D01*
X-268309523Y225595238D01*
X-268261904Y225642857D01*
X-268214285Y225738095D01*
X-268214285Y225833333D01*
X-268261904Y225928571D01*
X-268309523Y225976190D01*
X-268404761Y226023809D01*
X-268595238Y226071428D01*
X-268690476Y226119047D01*
X-268738095Y226166666D01*
X-268785714Y226261904D01*
X-268785714Y226357142D01*
X-268738095Y226452380D01*
X-268690476Y226500000D01*
X-268595238Y226547619D01*
X-268357142Y226547619D01*
X-268214285Y226500000D01*
X-267309523Y226547619D02*
X-267785714Y226547619D01*
X-267833333Y226071428D01*
X-267785714Y226119047D01*
X-267690476Y226166666D01*
X-267452380Y226166666D01*
X-267357142Y226119047D01*
X-267309523Y226071428D01*
X-267261904Y225976190D01*
X-267261904Y225738095D01*
X-267309523Y225642857D01*
X-267357142Y225595238D01*
X-267452380Y225547619D01*
X-267690476Y225547619D01*
X-267785714Y225595238D01*
X-267833333Y225642857D01*
G04 #@! TO.C,C5*
X-249642857Y182993333D02*
X-249595238Y182945714D01*
X-249547619Y182802857D01*
X-249547619Y182707619D01*
X-249595238Y182564761D01*
X-249690476Y182469523D01*
X-249785714Y182421904D01*
X-249976190Y182374285D01*
X-250119047Y182374285D01*
X-250309523Y182421904D01*
X-250404761Y182469523D01*
X-250500000Y182564761D01*
X-250547619Y182707619D01*
X-250547619Y182802857D01*
X-250500000Y182945714D01*
X-250452380Y182993333D01*
X-250547619Y183898095D02*
X-250547619Y183421904D01*
X-250071428Y183374285D01*
X-250119047Y183421904D01*
X-250166666Y183517142D01*
X-250166666Y183755238D01*
X-250119047Y183850476D01*
X-250071428Y183898095D01*
X-249976190Y183945714D01*
X-249738095Y183945714D01*
X-249642857Y183898095D01*
X-249595238Y183850476D01*
X-249547619Y183755238D01*
X-249547619Y183517142D01*
X-249595238Y183421904D01*
X-249642857Y183374285D01*
G04 #@! TO.C,C6*
X-234166666Y173302857D02*
X-234214285Y173255238D01*
X-234357142Y173207619D01*
X-234452380Y173207619D01*
X-234595238Y173255238D01*
X-234690476Y173350476D01*
X-234738095Y173445714D01*
X-234785714Y173636190D01*
X-234785714Y173779047D01*
X-234738095Y173969523D01*
X-234690476Y174064761D01*
X-234595238Y174160000D01*
X-234452380Y174207619D01*
X-234357142Y174207619D01*
X-234214285Y174160000D01*
X-234166666Y174112380D01*
X-233309523Y174207619D02*
X-233500000Y174207619D01*
X-233595238Y174160000D01*
X-233642857Y174112380D01*
X-233738095Y173969523D01*
X-233785714Y173779047D01*
X-233785714Y173398095D01*
X-233738095Y173302857D01*
X-233690476Y173255238D01*
X-233595238Y173207619D01*
X-233404761Y173207619D01*
X-233309523Y173255238D01*
X-233261904Y173302857D01*
X-233214285Y173398095D01*
X-233214285Y173636190D01*
X-233261904Y173731428D01*
X-233309523Y173779047D01*
X-233404761Y173826666D01*
X-233595238Y173826666D01*
X-233690476Y173779047D01*
X-233738095Y173731428D01*
X-233785714Y173636190D01*
G04 #@! TO.C,C7*
X-224892857Y206743333D02*
X-224845238Y206695714D01*
X-224797619Y206552857D01*
X-224797619Y206457619D01*
X-224845238Y206314761D01*
X-224940476Y206219523D01*
X-225035714Y206171904D01*
X-225226190Y206124285D01*
X-225369047Y206124285D01*
X-225559523Y206171904D01*
X-225654761Y206219523D01*
X-225750000Y206314761D01*
X-225797619Y206457619D01*
X-225797619Y206552857D01*
X-225750000Y206695714D01*
X-225702380Y206743333D01*
X-225797619Y207076666D02*
X-225797619Y207743333D01*
X-224797619Y207314761D01*
G04 #@! TO.C,C8*
X-285916666Y192302857D02*
X-285964285Y192255238D01*
X-286107142Y192207619D01*
X-286202380Y192207619D01*
X-286345238Y192255238D01*
X-286440476Y192350476D01*
X-286488095Y192445714D01*
X-286535714Y192636190D01*
X-286535714Y192779047D01*
X-286488095Y192969523D01*
X-286440476Y193064761D01*
X-286345238Y193160000D01*
X-286202380Y193207619D01*
X-286107142Y193207619D01*
X-285964285Y193160000D01*
X-285916666Y193112380D01*
X-285345238Y192779047D02*
X-285440476Y192826666D01*
X-285488095Y192874285D01*
X-285535714Y192969523D01*
X-285535714Y193017142D01*
X-285488095Y193112380D01*
X-285440476Y193160000D01*
X-285345238Y193207619D01*
X-285154761Y193207619D01*
X-285059523Y193160000D01*
X-285011904Y193112380D01*
X-284964285Y193017142D01*
X-284964285Y192969523D01*
X-285011904Y192874285D01*
X-285059523Y192826666D01*
X-285154761Y192779047D01*
X-285345238Y192779047D01*
X-285440476Y192731428D01*
X-285488095Y192683809D01*
X-285535714Y192588571D01*
X-285535714Y192398095D01*
X-285488095Y192302857D01*
X-285440476Y192255238D01*
X-285345238Y192207619D01*
X-285154761Y192207619D01*
X-285059523Y192255238D01*
X-285011904Y192302857D01*
X-284964285Y192398095D01*
X-284964285Y192588571D01*
X-285011904Y192683809D01*
X-285059523Y192731428D01*
X-285154761Y192779047D01*
G04 #@! TO.C,C9*
X-296892857Y221833333D02*
X-296845238Y221785714D01*
X-296797619Y221642857D01*
X-296797619Y221547619D01*
X-296845238Y221404761D01*
X-296940476Y221309523D01*
X-297035714Y221261904D01*
X-297226190Y221214285D01*
X-297369047Y221214285D01*
X-297559523Y221261904D01*
X-297654761Y221309523D01*
X-297750000Y221404761D01*
X-297797619Y221547619D01*
X-297797619Y221642857D01*
X-297750000Y221785714D01*
X-297702380Y221833333D01*
X-296797619Y222309523D02*
X-296797619Y222500000D01*
X-296845238Y222595238D01*
X-296892857Y222642857D01*
X-297035714Y222738095D01*
X-297226190Y222785714D01*
X-297607142Y222785714D01*
X-297702380Y222738095D01*
X-297750000Y222690476D01*
X-297797619Y222595238D01*
X-297797619Y222404761D01*
X-297750000Y222309523D01*
X-297702380Y222261904D01*
X-297607142Y222214285D01*
X-297369047Y222214285D01*
X-297273809Y222261904D01*
X-297226190Y222309523D01*
X-297178571Y222404761D01*
X-297178571Y222595238D01*
X-297226190Y222690476D01*
X-297273809Y222738095D01*
X-297369047Y222785714D01*
G04 #@! TO.C,C10*
X-321892857Y221357142D02*
X-321845238Y221309523D01*
X-321797619Y221166666D01*
X-321797619Y221071428D01*
X-321845238Y220928571D01*
X-321940476Y220833333D01*
X-322035714Y220785714D01*
X-322226190Y220738095D01*
X-322369047Y220738095D01*
X-322559523Y220785714D01*
X-322654761Y220833333D01*
X-322750000Y220928571D01*
X-322797619Y221071428D01*
X-322797619Y221166666D01*
X-322750000Y221309523D01*
X-322702380Y221357142D01*
X-321797619Y222309523D02*
X-321797619Y221738095D01*
X-321797619Y222023809D02*
X-322797619Y222023809D01*
X-322654761Y221928571D01*
X-322559523Y221833333D01*
X-322511904Y221738095D01*
X-322797619Y222928571D02*
X-322797619Y223023809D01*
X-322750000Y223119047D01*
X-322702380Y223166666D01*
X-322607142Y223214285D01*
X-322416666Y223261904D01*
X-322178571Y223261904D01*
X-321988095Y223214285D01*
X-321892857Y223166666D01*
X-321845238Y223119047D01*
X-321797619Y223023809D01*
X-321797619Y222928571D01*
X-321845238Y222833333D01*
X-321892857Y222785714D01*
X-321988095Y222738095D01*
X-322178571Y222690476D01*
X-322416666Y222690476D01*
X-322607142Y222738095D01*
X-322702380Y222785714D01*
X-322750000Y222833333D01*
X-322797619Y222928571D01*
G04 #@! TO.C,C11*
X-269392857Y204517142D02*
X-269345238Y204469523D01*
X-269297619Y204326666D01*
X-269297619Y204231428D01*
X-269345238Y204088571D01*
X-269440476Y203993333D01*
X-269535714Y203945714D01*
X-269726190Y203898095D01*
X-269869047Y203898095D01*
X-270059523Y203945714D01*
X-270154761Y203993333D01*
X-270250000Y204088571D01*
X-270297619Y204231428D01*
X-270297619Y204326666D01*
X-270250000Y204469523D01*
X-270202380Y204517142D01*
X-269297619Y205469523D02*
X-269297619Y204898095D01*
X-269297619Y205183809D02*
X-270297619Y205183809D01*
X-270154761Y205088571D01*
X-270059523Y204993333D01*
X-270011904Y204898095D01*
X-269297619Y206421904D02*
X-269297619Y205850476D01*
X-269297619Y206136190D02*
X-270297619Y206136190D01*
X-270154761Y206040952D01*
X-270059523Y205945714D01*
X-270011904Y205850476D01*
G04 #@! TO.C,C12*
X-285892857Y206267142D02*
X-285845238Y206219523D01*
X-285797619Y206076666D01*
X-285797619Y205981428D01*
X-285845238Y205838571D01*
X-285940476Y205743333D01*
X-286035714Y205695714D01*
X-286226190Y205648095D01*
X-286369047Y205648095D01*
X-286559523Y205695714D01*
X-286654761Y205743333D01*
X-286750000Y205838571D01*
X-286797619Y205981428D01*
X-286797619Y206076666D01*
X-286750000Y206219523D01*
X-286702380Y206267142D01*
X-285797619Y207219523D02*
X-285797619Y206648095D01*
X-285797619Y206933809D02*
X-286797619Y206933809D01*
X-286654761Y206838571D01*
X-286559523Y206743333D01*
X-286511904Y206648095D01*
X-286702380Y207600476D02*
X-286750000Y207648095D01*
X-286797619Y207743333D01*
X-286797619Y207981428D01*
X-286750000Y208076666D01*
X-286702380Y208124285D01*
X-286607142Y208171904D01*
X-286511904Y208171904D01*
X-286369047Y208124285D01*
X-285797619Y207552857D01*
X-285797619Y208171904D01*
G04 #@! TO.C,C13*
X-292342857Y205357142D02*
X-292295238Y205309523D01*
X-292247619Y205166666D01*
X-292247619Y205071428D01*
X-292295238Y204928571D01*
X-292390476Y204833333D01*
X-292485714Y204785714D01*
X-292676190Y204738095D01*
X-292819047Y204738095D01*
X-293009523Y204785714D01*
X-293104761Y204833333D01*
X-293200000Y204928571D01*
X-293247619Y205071428D01*
X-293247619Y205166666D01*
X-293200000Y205309523D01*
X-293152380Y205357142D01*
X-292247619Y206309523D02*
X-292247619Y205738095D01*
X-292247619Y206023809D02*
X-293247619Y206023809D01*
X-293104761Y205928571D01*
X-293009523Y205833333D01*
X-292961904Y205738095D01*
X-293247619Y206642857D02*
X-293247619Y207261904D01*
X-292866666Y206928571D01*
X-292866666Y207071428D01*
X-292819047Y207166666D01*
X-292771428Y207214285D01*
X-292676190Y207261904D01*
X-292438095Y207261904D01*
X-292342857Y207214285D01*
X-292295238Y207166666D01*
X-292247619Y207071428D01*
X-292247619Y206785714D01*
X-292295238Y206690476D01*
X-292342857Y206642857D01*
G04 #@! TO.C,C14*
X-319342857Y205357142D02*
X-319295238Y205309523D01*
X-319247619Y205166666D01*
X-319247619Y205071428D01*
X-319295238Y204928571D01*
X-319390476Y204833333D01*
X-319485714Y204785714D01*
X-319676190Y204738095D01*
X-319819047Y204738095D01*
X-320009523Y204785714D01*
X-320104761Y204833333D01*
X-320200000Y204928571D01*
X-320247619Y205071428D01*
X-320247619Y205166666D01*
X-320200000Y205309523D01*
X-320152380Y205357142D01*
X-319247619Y206309523D02*
X-319247619Y205738095D01*
X-319247619Y206023809D02*
X-320247619Y206023809D01*
X-320104761Y205928571D01*
X-320009523Y205833333D01*
X-319961904Y205738095D01*
X-319914285Y207166666D02*
X-319247619Y207166666D01*
X-320295238Y206928571D02*
X-319580952Y206690476D01*
X-319580952Y207309523D01*
G04 #@! TO.C,C15*
X-284842857Y233152857D02*
X-284890476Y233105238D01*
X-285033333Y233057619D01*
X-285128571Y233057619D01*
X-285271428Y233105238D01*
X-285366666Y233200476D01*
X-285414285Y233295714D01*
X-285461904Y233486190D01*
X-285461904Y233629047D01*
X-285414285Y233819523D01*
X-285366666Y233914761D01*
X-285271428Y234010000D01*
X-285128571Y234057619D01*
X-285033333Y234057619D01*
X-284890476Y234010000D01*
X-284842857Y233962380D01*
X-283890476Y233057619D02*
X-284461904Y233057619D01*
X-284176190Y233057619D02*
X-284176190Y234057619D01*
X-284271428Y233914761D01*
X-284366666Y233819523D01*
X-284461904Y233771904D01*
X-282985714Y234057619D02*
X-283461904Y234057619D01*
X-283509523Y233581428D01*
X-283461904Y233629047D01*
X-283366666Y233676666D01*
X-283128571Y233676666D01*
X-283033333Y233629047D01*
X-282985714Y233581428D01*
X-282938095Y233486190D01*
X-282938095Y233248095D01*
X-282985714Y233152857D01*
X-283033333Y233105238D01*
X-283128571Y233057619D01*
X-283366666Y233057619D01*
X-283461904Y233105238D01*
X-283509523Y233152857D01*
G04 #@! TO.C,C16*
X-243712857Y230967142D02*
X-243665238Y230919523D01*
X-243617619Y230776666D01*
X-243617619Y230681428D01*
X-243665238Y230538571D01*
X-243760476Y230443333D01*
X-243855714Y230395714D01*
X-244046190Y230348095D01*
X-244189047Y230348095D01*
X-244379523Y230395714D01*
X-244474761Y230443333D01*
X-244570000Y230538571D01*
X-244617619Y230681428D01*
X-244617619Y230776666D01*
X-244570000Y230919523D01*
X-244522380Y230967142D01*
X-243617619Y231919523D02*
X-243617619Y231348095D01*
X-243617619Y231633809D02*
X-244617619Y231633809D01*
X-244474761Y231538571D01*
X-244379523Y231443333D01*
X-244331904Y231348095D01*
X-244617619Y232776666D02*
X-244617619Y232586190D01*
X-244570000Y232490952D01*
X-244522380Y232443333D01*
X-244379523Y232348095D01*
X-244189047Y232300476D01*
X-243808095Y232300476D01*
X-243712857Y232348095D01*
X-243665238Y232395714D01*
X-243617619Y232490952D01*
X-243617619Y232681428D01*
X-243665238Y232776666D01*
X-243712857Y232824285D01*
X-243808095Y232871904D01*
X-244046190Y232871904D01*
X-244141428Y232824285D01*
X-244189047Y232776666D01*
X-244236666Y232681428D01*
X-244236666Y232490952D01*
X-244189047Y232395714D01*
X-244141428Y232348095D01*
X-244046190Y232300476D01*
G04 #@! TO.C,C17*
X-287927731Y212733226D02*
X-287975350Y212685607D01*
X-288118207Y212637988D01*
X-288213445Y212637988D01*
X-288356302Y212685607D01*
X-288451540Y212780845D01*
X-288499159Y212876083D01*
X-288546778Y213066559D01*
X-288546778Y213209416D01*
X-288499159Y213399892D01*
X-288451540Y213495130D01*
X-288356302Y213590369D01*
X-288213445Y213637988D01*
X-288118207Y213637988D01*
X-287975350Y213590369D01*
X-287927731Y213542749D01*
X-286975350Y212637988D02*
X-287546778Y212637988D01*
X-287261064Y212637988D02*
X-287261064Y213637988D01*
X-287356302Y213495130D01*
X-287451540Y213399892D01*
X-287546778Y213352273D01*
X-286642016Y213637988D02*
X-285975350Y213637988D01*
X-286403921Y212637988D01*
G04 #@! TO.C,C18*
X-293142857Y212732857D02*
X-293190476Y212685238D01*
X-293333333Y212637619D01*
X-293428571Y212637619D01*
X-293571428Y212685238D01*
X-293666666Y212780476D01*
X-293714285Y212875714D01*
X-293761904Y213066190D01*
X-293761904Y213209047D01*
X-293714285Y213399523D01*
X-293666666Y213494761D01*
X-293571428Y213590000D01*
X-293428571Y213637619D01*
X-293333333Y213637619D01*
X-293190476Y213590000D01*
X-293142857Y213542380D01*
X-292190476Y212637619D02*
X-292761904Y212637619D01*
X-292476190Y212637619D02*
X-292476190Y213637619D01*
X-292571428Y213494761D01*
X-292666666Y213399523D01*
X-292761904Y213351904D01*
X-291619047Y213209047D02*
X-291714285Y213256666D01*
X-291761904Y213304285D01*
X-291809523Y213399523D01*
X-291809523Y213447142D01*
X-291761904Y213542380D01*
X-291714285Y213590000D01*
X-291619047Y213637619D01*
X-291428571Y213637619D01*
X-291333333Y213590000D01*
X-291285714Y213542380D01*
X-291238095Y213447142D01*
X-291238095Y213399523D01*
X-291285714Y213304285D01*
X-291333333Y213256666D01*
X-291428571Y213209047D01*
X-291619047Y213209047D01*
X-291714285Y213161428D01*
X-291761904Y213113809D01*
X-291809523Y213018571D01*
X-291809523Y212828095D01*
X-291761904Y212732857D01*
X-291714285Y212685238D01*
X-291619047Y212637619D01*
X-291428571Y212637619D01*
X-291333333Y212685238D01*
X-291285714Y212732857D01*
X-291238095Y212828095D01*
X-291238095Y213018571D01*
X-291285714Y213113809D01*
X-291333333Y213161428D01*
X-291428571Y213209047D01*
G04 #@! TO.C,C19*
X-276752857Y212692857D02*
X-276800476Y212645238D01*
X-276943333Y212597619D01*
X-277038571Y212597619D01*
X-277181428Y212645238D01*
X-277276666Y212740476D01*
X-277324285Y212835714D01*
X-277371904Y213026190D01*
X-277371904Y213169047D01*
X-277324285Y213359523D01*
X-277276666Y213454761D01*
X-277181428Y213550000D01*
X-277038571Y213597619D01*
X-276943333Y213597619D01*
X-276800476Y213550000D01*
X-276752857Y213502380D01*
X-275800476Y212597619D02*
X-276371904Y212597619D01*
X-276086190Y212597619D02*
X-276086190Y213597619D01*
X-276181428Y213454761D01*
X-276276666Y213359523D01*
X-276371904Y213311904D01*
X-275324285Y212597619D02*
X-275133809Y212597619D01*
X-275038571Y212645238D01*
X-274990952Y212692857D01*
X-274895714Y212835714D01*
X-274848095Y213026190D01*
X-274848095Y213407142D01*
X-274895714Y213502380D01*
X-274943333Y213550000D01*
X-275038571Y213597619D01*
X-275229047Y213597619D01*
X-275324285Y213550000D01*
X-275371904Y213502380D01*
X-275419523Y213407142D01*
X-275419523Y213169047D01*
X-275371904Y213073809D01*
X-275324285Y213026190D01*
X-275229047Y212978571D01*
X-275038571Y212978571D01*
X-274943333Y213026190D01*
X-274895714Y213073809D01*
X-274848095Y213169047D01*
G04 #@! TO.C,C20*
X-281982857Y212692857D02*
X-282030476Y212645238D01*
X-282173333Y212597619D01*
X-282268571Y212597619D01*
X-282411428Y212645238D01*
X-282506666Y212740476D01*
X-282554285Y212835714D01*
X-282601904Y213026190D01*
X-282601904Y213169047D01*
X-282554285Y213359523D01*
X-282506666Y213454761D01*
X-282411428Y213550000D01*
X-282268571Y213597619D01*
X-282173333Y213597619D01*
X-282030476Y213550000D01*
X-281982857Y213502380D01*
X-281601904Y213502380D02*
X-281554285Y213550000D01*
X-281459047Y213597619D01*
X-281220952Y213597619D01*
X-281125714Y213550000D01*
X-281078095Y213502380D01*
X-281030476Y213407142D01*
X-281030476Y213311904D01*
X-281078095Y213169047D01*
X-281649523Y212597619D01*
X-281030476Y212597619D01*
X-280411428Y213597619D02*
X-280316190Y213597619D01*
X-280220952Y213550000D01*
X-280173333Y213502380D01*
X-280125714Y213407142D01*
X-280078095Y213216666D01*
X-280078095Y212978571D01*
X-280125714Y212788095D01*
X-280173333Y212692857D01*
X-280220952Y212645238D01*
X-280316190Y212597619D01*
X-280411428Y212597619D01*
X-280506666Y212645238D01*
X-280554285Y212692857D01*
X-280601904Y212788095D01*
X-280649523Y212978571D01*
X-280649523Y213216666D01*
X-280601904Y213407142D01*
X-280554285Y213502380D01*
X-280506666Y213550000D01*
X-280411428Y213597619D01*
G04 #@! TO.C,D2*
X-236034315Y157516114D02*
X-237034315Y157516114D01*
X-237034315Y157754210D01*
X-236986696Y157897067D01*
X-236891457Y157992305D01*
X-236796219Y158039924D01*
X-236605743Y158087543D01*
X-236462886Y158087543D01*
X-236272410Y158039924D01*
X-236177172Y157992305D01*
X-236081934Y157897067D01*
X-236034315Y157754210D01*
X-236034315Y157516114D01*
X-236939076Y158468495D02*
X-236986696Y158516114D01*
X-237034315Y158611352D01*
X-237034315Y158849448D01*
X-236986696Y158944686D01*
X-236939076Y158992305D01*
X-236843838Y159039924D01*
X-236748600Y159039924D01*
X-236605743Y158992305D01*
X-236034315Y158420876D01*
X-236034315Y159039924D01*
G04 #@! TO.C,D3*
X-230034315Y167216114D02*
X-231034315Y167216114D01*
X-231034315Y167454210D01*
X-230986696Y167597067D01*
X-230891457Y167692305D01*
X-230796219Y167739924D01*
X-230605743Y167787543D01*
X-230462886Y167787543D01*
X-230272410Y167739924D01*
X-230177172Y167692305D01*
X-230081934Y167597067D01*
X-230034315Y167454210D01*
X-230034315Y167216114D01*
X-231034315Y168120876D02*
X-231034315Y168739924D01*
X-230653362Y168406590D01*
X-230653362Y168549448D01*
X-230605743Y168644686D01*
X-230558124Y168692305D01*
X-230462886Y168739924D01*
X-230224791Y168739924D01*
X-230129553Y168692305D01*
X-230081934Y168644686D01*
X-230034315Y168549448D01*
X-230034315Y168263733D01*
X-230081934Y168168495D01*
X-230129553Y168120876D01*
G04 #@! TO.C,D4*
X-225034315Y157426114D02*
X-226034315Y157426114D01*
X-226034315Y157664210D01*
X-225986696Y157807067D01*
X-225891457Y157902305D01*
X-225796219Y157949924D01*
X-225605743Y157997543D01*
X-225462886Y157997543D01*
X-225272410Y157949924D01*
X-225177172Y157902305D01*
X-225081934Y157807067D01*
X-225034315Y157664210D01*
X-225034315Y157426114D01*
X-225700981Y158854686D02*
X-225034315Y158854686D01*
X-226081934Y158616590D02*
X-225367648Y158378495D01*
X-225367648Y158997543D01*
G04 #@! TO.C,D5*
X-231034315Y167266114D02*
X-232034315Y167266114D01*
X-232034315Y167504210D01*
X-231986696Y167647067D01*
X-231891457Y167742305D01*
X-231796219Y167789924D01*
X-231605743Y167837543D01*
X-231462886Y167837543D01*
X-231272410Y167789924D01*
X-231177172Y167742305D01*
X-231081934Y167647067D01*
X-231034315Y167504210D01*
X-231034315Y167266114D01*
X-232034315Y168742305D02*
X-232034315Y168266114D01*
X-231558124Y168218495D01*
X-231605743Y168266114D01*
X-231653362Y168361352D01*
X-231653362Y168599448D01*
X-231605743Y168694686D01*
X-231558124Y168742305D01*
X-231462886Y168789924D01*
X-231224791Y168789924D01*
X-231129553Y168742305D01*
X-231081934Y168694686D01*
X-231034315Y168599448D01*
X-231034315Y168361352D01*
X-231081934Y168266114D01*
X-231129553Y168218495D01*
G04 #@! TO.C,D6*
X-241668095Y231367619D02*
X-241668095Y232367619D01*
X-241430000Y232367619D01*
X-241287142Y232320000D01*
X-241191904Y232224761D01*
X-241144285Y232129523D01*
X-241096666Y231939047D01*
X-241096666Y231796190D01*
X-241144285Y231605714D01*
X-241191904Y231510476D01*
X-241287142Y231415238D01*
X-241430000Y231367619D01*
X-241668095Y231367619D01*
X-240239523Y232367619D02*
X-240430000Y232367619D01*
X-240525238Y232320000D01*
X-240572857Y232272380D01*
X-240668095Y232129523D01*
X-240715714Y231939047D01*
X-240715714Y231558095D01*
X-240668095Y231462857D01*
X-240620476Y231415238D01*
X-240525238Y231367619D01*
X-240334761Y231367619D01*
X-240239523Y231415238D01*
X-240191904Y231462857D01*
X-240144285Y231558095D01*
X-240144285Y231796190D01*
X-240191904Y231891428D01*
X-240239523Y231939047D01*
X-240334761Y231986666D01*
X-240525238Y231986666D01*
X-240620476Y231939047D01*
X-240668095Y231891428D01*
X-240715714Y231796190D01*
G04 #@! TO.C,L1*
X-249857619Y181033333D02*
X-249857619Y180557142D01*
X-250857619Y180557142D01*
X-249857619Y181890476D02*
X-249857619Y181319047D01*
X-249857619Y181604761D02*
X-250857619Y181604761D01*
X-250714761Y181509523D01*
X-250619523Y181414285D01*
X-250571904Y181319047D01*
G04 #@! TO.C,R1*
X-266546666Y196917619D02*
X-266880000Y197393809D01*
X-267118095Y196917619D02*
X-267118095Y197917619D01*
X-266737142Y197917619D01*
X-266641904Y197870000D01*
X-266594285Y197822380D01*
X-266546666Y197727142D01*
X-266546666Y197584285D01*
X-266594285Y197489047D01*
X-266641904Y197441428D01*
X-266737142Y197393809D01*
X-267118095Y197393809D01*
X-265594285Y196917619D02*
X-266165714Y196917619D01*
X-265880000Y196917619D02*
X-265880000Y197917619D01*
X-265975238Y197774761D01*
X-266070476Y197679523D01*
X-266165714Y197631904D01*
G04 #@! TO.C,R2*
X-284546666Y196917619D02*
X-284880000Y197393809D01*
X-285118095Y196917619D02*
X-285118095Y197917619D01*
X-284737142Y197917619D01*
X-284641904Y197870000D01*
X-284594285Y197822380D01*
X-284546666Y197727142D01*
X-284546666Y197584285D01*
X-284594285Y197489047D01*
X-284641904Y197441428D01*
X-284737142Y197393809D01*
X-285118095Y197393809D01*
X-284165714Y197822380D02*
X-284118095Y197870000D01*
X-284022857Y197917619D01*
X-283784761Y197917619D01*
X-283689523Y197870000D01*
X-283641904Y197822380D01*
X-283594285Y197727142D01*
X-283594285Y197631904D01*
X-283641904Y197489047D01*
X-284213333Y196917619D01*
X-283594285Y196917619D01*
G04 #@! TO.C,R4*
X-309367619Y235833333D02*
X-309843809Y235500000D01*
X-309367619Y235261904D02*
X-310367619Y235261904D01*
X-310367619Y235642857D01*
X-310320000Y235738095D01*
X-310272380Y235785714D01*
X-310177142Y235833333D01*
X-310034285Y235833333D01*
X-309939047Y235785714D01*
X-309891428Y235738095D01*
X-309843809Y235642857D01*
X-309843809Y235261904D01*
X-310034285Y236690476D02*
X-309367619Y236690476D01*
X-310415238Y236452380D02*
X-309700952Y236214285D01*
X-309700952Y236833333D01*
G04 #@! TO.C,R5*
X-321367619Y235833333D02*
X-321843809Y235500000D01*
X-321367619Y235261904D02*
X-322367619Y235261904D01*
X-322367619Y235642857D01*
X-322320000Y235738095D01*
X-322272380Y235785714D01*
X-322177142Y235833333D01*
X-322034285Y235833333D01*
X-321939047Y235785714D01*
X-321891428Y235738095D01*
X-321843809Y235642857D01*
X-321843809Y235261904D01*
X-322367619Y236738095D02*
X-322367619Y236261904D01*
X-321891428Y236214285D01*
X-321939047Y236261904D01*
X-321986666Y236357142D01*
X-321986666Y236595238D01*
X-321939047Y236690476D01*
X-321891428Y236738095D01*
X-321796190Y236785714D01*
X-321558095Y236785714D01*
X-321462857Y236738095D01*
X-321415238Y236690476D01*
X-321367619Y236595238D01*
X-321367619Y236357142D01*
X-321415238Y236261904D01*
X-321462857Y236214285D01*
G04 #@! TO.C,R8*
X-301654166Y211637619D02*
X-301987500Y212113809D01*
X-302225595Y211637619D02*
X-302225595Y212637619D01*
X-301844642Y212637619D01*
X-301749404Y212590000D01*
X-301701785Y212542380D01*
X-301654166Y212447142D01*
X-301654166Y212304285D01*
X-301701785Y212209047D01*
X-301749404Y212161428D01*
X-301844642Y212113809D01*
X-302225595Y212113809D01*
X-301082738Y212209047D02*
X-301177976Y212256666D01*
X-301225595Y212304285D01*
X-301273214Y212399523D01*
X-301273214Y212447142D01*
X-301225595Y212542380D01*
X-301177976Y212590000D01*
X-301082738Y212637619D01*
X-300892261Y212637619D01*
X-300797023Y212590000D01*
X-300749404Y212542380D01*
X-300701785Y212447142D01*
X-300701785Y212399523D01*
X-300749404Y212304285D01*
X-300797023Y212256666D01*
X-300892261Y212209047D01*
X-301082738Y212209047D01*
X-301177976Y212161428D01*
X-301225595Y212113809D01*
X-301273214Y212018571D01*
X-301273214Y211828095D01*
X-301225595Y211732857D01*
X-301177976Y211685238D01*
X-301082738Y211637619D01*
X-300892261Y211637619D01*
X-300797023Y211685238D01*
X-300749404Y211732857D01*
X-300701785Y211828095D01*
X-300701785Y212018571D01*
X-300749404Y212113809D01*
X-300797023Y212161428D01*
X-300892261Y212209047D01*
G04 #@! TO.C,R9*
X-326166666Y215367619D02*
X-326500000Y215843809D01*
X-326738095Y215367619D02*
X-326738095Y216367619D01*
X-326357142Y216367619D01*
X-326261904Y216320000D01*
X-326214285Y216272380D01*
X-326166666Y216177142D01*
X-326166666Y216034285D01*
X-326214285Y215939047D01*
X-326261904Y215891428D01*
X-326357142Y215843809D01*
X-326738095Y215843809D01*
X-325690476Y215367619D02*
X-325500000Y215367619D01*
X-325404761Y215415238D01*
X-325357142Y215462857D01*
X-325261904Y215605714D01*
X-325214285Y215796190D01*
X-325214285Y216177142D01*
X-325261904Y216272380D01*
X-325309523Y216320000D01*
X-325404761Y216367619D01*
X-325595238Y216367619D01*
X-325690476Y216320000D01*
X-325738095Y216272380D01*
X-325785714Y216177142D01*
X-325785714Y215939047D01*
X-325738095Y215843809D01*
X-325690476Y215796190D01*
X-325595238Y215748571D01*
X-325404761Y215748571D01*
X-325309523Y215796190D01*
X-325261904Y215843809D01*
X-325214285Y215939047D01*
G04 #@! TO.C,R10*
X-322231341Y216779642D02*
X-322707531Y216446309D01*
X-322231341Y216208214D02*
X-323231341Y216208214D01*
X-323231341Y216589166D01*
X-323183722Y216684404D01*
X-323136102Y216732023D01*
X-323040864Y216779642D01*
X-322898007Y216779642D01*
X-322802769Y216732023D01*
X-322755150Y216684404D01*
X-322707531Y216589166D01*
X-322707531Y216208214D01*
X-322231341Y217732023D02*
X-322231341Y217160595D01*
X-322231341Y217446309D02*
X-323231341Y217446309D01*
X-323088483Y217351071D01*
X-322993245Y217255833D01*
X-322945626Y217160595D01*
X-323231341Y218351071D02*
X-323231341Y218446309D01*
X-323183722Y218541547D01*
X-323136102Y218589166D01*
X-323040864Y218636785D01*
X-322850388Y218684404D01*
X-322612293Y218684404D01*
X-322421817Y218636785D01*
X-322326579Y218589166D01*
X-322278960Y218541547D01*
X-322231341Y218446309D01*
X-322231341Y218351071D01*
X-322278960Y218255833D01*
X-322326579Y218208214D01*
X-322421817Y218160595D01*
X-322612293Y218112976D01*
X-322850388Y218112976D01*
X-323040864Y218160595D01*
X-323136102Y218208214D01*
X-323183722Y218255833D01*
X-323231341Y218351071D01*
G04 #@! TO.C,R11*
X-307862401Y216828625D02*
X-308338591Y216495292D01*
X-307862401Y216257197D02*
X-308862401Y216257197D01*
X-308862401Y216638149D01*
X-308814782Y216733387D01*
X-308767162Y216781006D01*
X-308671924Y216828625D01*
X-308529067Y216828625D01*
X-308433829Y216781006D01*
X-308386210Y216733387D01*
X-308338591Y216638149D01*
X-308338591Y216257197D01*
X-307862401Y217781006D02*
X-307862401Y217209578D01*
X-307862401Y217495292D02*
X-308862401Y217495292D01*
X-308719543Y217400054D01*
X-308624305Y217304816D01*
X-308576686Y217209578D01*
X-307862401Y218733387D02*
X-307862401Y218161959D01*
X-307862401Y218447673D02*
X-308862401Y218447673D01*
X-308719543Y218352435D01*
X-308624305Y218257197D01*
X-308576686Y218161959D01*
G04 #@! TO.C,R12*
X-320167619Y216779642D02*
X-320643809Y216446309D01*
X-320167619Y216208214D02*
X-321167619Y216208214D01*
X-321167619Y216589166D01*
X-321120000Y216684404D01*
X-321072380Y216732023D01*
X-320977142Y216779642D01*
X-320834285Y216779642D01*
X-320739047Y216732023D01*
X-320691428Y216684404D01*
X-320643809Y216589166D01*
X-320643809Y216208214D01*
X-320167619Y217732023D02*
X-320167619Y217160595D01*
X-320167619Y217446309D02*
X-321167619Y217446309D01*
X-321024761Y217351071D01*
X-320929523Y217255833D01*
X-320881904Y217160595D01*
X-321072380Y218112976D02*
X-321120000Y218160595D01*
X-321167619Y218255833D01*
X-321167619Y218493928D01*
X-321120000Y218589166D01*
X-321072380Y218636785D01*
X-320977142Y218684404D01*
X-320881904Y218684404D01*
X-320739047Y218636785D01*
X-320167619Y218065357D01*
X-320167619Y218684404D01*
G04 #@! TO.C,R13*
X-316367619Y217357142D02*
X-316843809Y217023809D01*
X-316367619Y216785714D02*
X-317367619Y216785714D01*
X-317367619Y217166666D01*
X-317320000Y217261904D01*
X-317272380Y217309523D01*
X-317177142Y217357142D01*
X-317034285Y217357142D01*
X-316939047Y217309523D01*
X-316891428Y217261904D01*
X-316843809Y217166666D01*
X-316843809Y216785714D01*
X-316367619Y218309523D02*
X-316367619Y217738095D01*
X-316367619Y218023809D02*
X-317367619Y218023809D01*
X-317224761Y217928571D01*
X-317129523Y217833333D01*
X-317081904Y217738095D01*
X-317367619Y218642857D02*
X-317367619Y219261904D01*
X-316986666Y218928571D01*
X-316986666Y219071428D01*
X-316939047Y219166666D01*
X-316891428Y219214285D01*
X-316796190Y219261904D01*
X-316558095Y219261904D01*
X-316462857Y219214285D01*
X-316415238Y219166666D01*
X-316367619Y219071428D01*
X-316367619Y218785714D01*
X-316415238Y218690476D01*
X-316462857Y218642857D01*
G04 #@! TO.C,R14*
X-309862401Y216828625D02*
X-310338591Y216495292D01*
X-309862401Y216257197D02*
X-310862401Y216257197D01*
X-310862401Y216638149D01*
X-310814782Y216733387D01*
X-310767162Y216781006D01*
X-310671924Y216828625D01*
X-310529067Y216828625D01*
X-310433829Y216781006D01*
X-310386210Y216733387D01*
X-310338591Y216638149D01*
X-310338591Y216257197D01*
X-309862401Y217781006D02*
X-309862401Y217209578D01*
X-309862401Y217495292D02*
X-310862401Y217495292D01*
X-310719543Y217400054D01*
X-310624305Y217304816D01*
X-310576686Y217209578D01*
X-310529067Y218638149D02*
X-309862401Y218638149D01*
X-310910020Y218400054D02*
X-310195734Y218161959D01*
X-310195734Y218781006D01*
G04 #@! TO.C,R15*
X-313367619Y217357142D02*
X-313843809Y217023809D01*
X-313367619Y216785714D02*
X-314367619Y216785714D01*
X-314367619Y217166666D01*
X-314320000Y217261904D01*
X-314272380Y217309523D01*
X-314177142Y217357142D01*
X-314034285Y217357142D01*
X-313939047Y217309523D01*
X-313891428Y217261904D01*
X-313843809Y217166666D01*
X-313843809Y216785714D01*
X-313367619Y218309523D02*
X-313367619Y217738095D01*
X-313367619Y218023809D02*
X-314367619Y218023809D01*
X-314224761Y217928571D01*
X-314129523Y217833333D01*
X-314081904Y217738095D01*
X-314367619Y219214285D02*
X-314367619Y218738095D01*
X-313891428Y218690476D01*
X-313939047Y218738095D01*
X-313986666Y218833333D01*
X-313986666Y219071428D01*
X-313939047Y219166666D01*
X-313891428Y219214285D01*
X-313796190Y219261904D01*
X-313558095Y219261904D01*
X-313462857Y219214285D01*
X-313415238Y219166666D01*
X-313367619Y219071428D01*
X-313367619Y218833333D01*
X-313415238Y218738095D01*
X-313462857Y218690476D01*
G04 #@! TO.C,R16*
X-235977619Y230357142D02*
X-236453809Y230023809D01*
X-235977619Y229785714D02*
X-236977619Y229785714D01*
X-236977619Y230166666D01*
X-236930000Y230261904D01*
X-236882380Y230309523D01*
X-236787142Y230357142D01*
X-236644285Y230357142D01*
X-236549047Y230309523D01*
X-236501428Y230261904D01*
X-236453809Y230166666D01*
X-236453809Y229785714D01*
X-235977619Y231309523D02*
X-235977619Y230738095D01*
X-235977619Y231023809D02*
X-236977619Y231023809D01*
X-236834761Y230928571D01*
X-236739523Y230833333D01*
X-236691904Y230738095D01*
X-236977619Y232166666D02*
X-236977619Y231976190D01*
X-236930000Y231880952D01*
X-236882380Y231833333D01*
X-236739523Y231738095D01*
X-236549047Y231690476D01*
X-236168095Y231690476D01*
X-236072857Y231738095D01*
X-236025238Y231785714D01*
X-235977619Y231880952D01*
X-235977619Y232071428D01*
X-236025238Y232166666D01*
X-236072857Y232214285D01*
X-236168095Y232261904D01*
X-236406190Y232261904D01*
X-236501428Y232214285D01*
X-236549047Y232166666D01*
X-236596666Y232071428D01*
X-236596666Y231880952D01*
X-236549047Y231785714D01*
X-236501428Y231738095D01*
X-236406190Y231690476D01*
G04 #@! TO.C,R17*
X-320116963Y204267142D02*
X-320593153Y203933809D01*
X-320116963Y203695714D02*
X-321116963Y203695714D01*
X-321116963Y204076666D01*
X-321069344Y204171904D01*
X-321021724Y204219523D01*
X-320926486Y204267142D01*
X-320783629Y204267142D01*
X-320688391Y204219523D01*
X-320640772Y204171904D01*
X-320593153Y204076666D01*
X-320593153Y203695714D01*
X-320116963Y205219523D02*
X-320116963Y204648095D01*
X-320116963Y204933809D02*
X-321116963Y204933809D01*
X-320974105Y204838571D01*
X-320878867Y204743333D01*
X-320831248Y204648095D01*
X-321116963Y205552857D02*
X-321116963Y206219523D01*
X-320116963Y205790952D01*
G04 #@! TO.C,R18*
X-306980046Y204139132D02*
X-307456236Y203805799D01*
X-306980046Y203567704D02*
X-307980046Y203567704D01*
X-307980046Y203948656D01*
X-307932427Y204043894D01*
X-307884807Y204091513D01*
X-307789569Y204139132D01*
X-307646712Y204139132D01*
X-307551474Y204091513D01*
X-307503855Y204043894D01*
X-307456236Y203948656D01*
X-307456236Y203567704D01*
X-306980046Y205091513D02*
X-306980046Y204520085D01*
X-306980046Y204805799D02*
X-307980046Y204805799D01*
X-307837188Y204710561D01*
X-307741950Y204615323D01*
X-307694331Y204520085D01*
X-307551474Y205662942D02*
X-307599093Y205567704D01*
X-307646712Y205520085D01*
X-307741950Y205472466D01*
X-307789569Y205472466D01*
X-307884807Y205520085D01*
X-307932427Y205567704D01*
X-307980046Y205662942D01*
X-307980046Y205853418D01*
X-307932427Y205948656D01*
X-307884807Y205996275D01*
X-307789569Y206043894D01*
X-307741950Y206043894D01*
X-307646712Y205996275D01*
X-307599093Y205948656D01*
X-307551474Y205853418D01*
X-307551474Y205662942D01*
X-307503855Y205567704D01*
X-307456236Y205520085D01*
X-307360998Y205472466D01*
X-307170522Y205472466D01*
X-307075284Y205520085D01*
X-307027665Y205567704D01*
X-306980046Y205662942D01*
X-306980046Y205853418D01*
X-307027665Y205948656D01*
X-307075284Y205996275D01*
X-307170522Y206043894D01*
X-307360998Y206043894D01*
X-307456236Y205996275D01*
X-307503855Y205948656D01*
X-307551474Y205853418D01*
G04 #@! TO.C,R19*
X-318116963Y204267142D02*
X-318593153Y203933809D01*
X-318116963Y203695714D02*
X-319116963Y203695714D01*
X-319116963Y204076666D01*
X-319069344Y204171904D01*
X-319021724Y204219523D01*
X-318926486Y204267142D01*
X-318783629Y204267142D01*
X-318688391Y204219523D01*
X-318640772Y204171904D01*
X-318593153Y204076666D01*
X-318593153Y203695714D01*
X-318116963Y205219523D02*
X-318116963Y204648095D01*
X-318116963Y204933809D02*
X-319116963Y204933809D01*
X-318974105Y204838571D01*
X-318878867Y204743333D01*
X-318831248Y204648095D01*
X-318116963Y205695714D02*
X-318116963Y205886190D01*
X-318164582Y205981428D01*
X-318212201Y206029047D01*
X-318355058Y206124285D01*
X-318545534Y206171904D01*
X-318926486Y206171904D01*
X-319021724Y206124285D01*
X-319069344Y206076666D01*
X-319116963Y205981428D01*
X-319116963Y205790952D01*
X-319069344Y205695714D01*
X-319021724Y205648095D01*
X-318926486Y205600476D01*
X-318688391Y205600476D01*
X-318593153Y205648095D01*
X-318545534Y205695714D01*
X-318497915Y205790952D01*
X-318497915Y205981428D01*
X-318545534Y206076666D01*
X-318593153Y206124285D01*
X-318688391Y206171904D01*
G04 #@! TO.C,R20*
X-304980046Y204139132D02*
X-305456236Y203805799D01*
X-304980046Y203567704D02*
X-305980046Y203567704D01*
X-305980046Y203948656D01*
X-305932427Y204043894D01*
X-305884807Y204091513D01*
X-305789569Y204139132D01*
X-305646712Y204139132D01*
X-305551474Y204091513D01*
X-305503855Y204043894D01*
X-305456236Y203948656D01*
X-305456236Y203567704D01*
X-305884807Y204520085D02*
X-305932427Y204567704D01*
X-305980046Y204662942D01*
X-305980046Y204901037D01*
X-305932427Y204996275D01*
X-305884807Y205043894D01*
X-305789569Y205091513D01*
X-305694331Y205091513D01*
X-305551474Y205043894D01*
X-304980046Y204472466D01*
X-304980046Y205091513D01*
X-305980046Y205710561D02*
X-305980046Y205805799D01*
X-305932427Y205901037D01*
X-305884807Y205948656D01*
X-305789569Y205996275D01*
X-305599093Y206043894D01*
X-305360998Y206043894D01*
X-305170522Y205996275D01*
X-305075284Y205948656D01*
X-305027665Y205901037D01*
X-304980046Y205805799D01*
X-304980046Y205710561D01*
X-305027665Y205615323D01*
X-305075284Y205567704D01*
X-305170522Y205520085D01*
X-305360998Y205472466D01*
X-305599093Y205472466D01*
X-305789569Y205520085D01*
X-305884807Y205567704D01*
X-305932427Y205615323D01*
X-305980046Y205710561D01*
G04 #@! TO.C,R21*
X-292642857Y224777619D02*
X-292976190Y225253809D01*
X-293214285Y224777619D02*
X-293214285Y225777619D01*
X-292833333Y225777619D01*
X-292738095Y225730000D01*
X-292690476Y225682380D01*
X-292642857Y225587142D01*
X-292642857Y225444285D01*
X-292690476Y225349047D01*
X-292738095Y225301428D01*
X-292833333Y225253809D01*
X-293214285Y225253809D01*
X-292261904Y225682380D02*
X-292214285Y225730000D01*
X-292119047Y225777619D01*
X-291880952Y225777619D01*
X-291785714Y225730000D01*
X-291738095Y225682380D01*
X-291690476Y225587142D01*
X-291690476Y225491904D01*
X-291738095Y225349047D01*
X-292309523Y224777619D01*
X-291690476Y224777619D01*
X-290738095Y224777619D02*
X-291309523Y224777619D01*
X-291023809Y224777619D02*
X-291023809Y225777619D01*
X-291119047Y225634761D01*
X-291214285Y225539523D01*
X-291309523Y225491904D01*
G04 #@! TO.C,R22*
X-278642857Y224277619D02*
X-278976190Y224753809D01*
X-279214285Y224277619D02*
X-279214285Y225277619D01*
X-278833333Y225277619D01*
X-278738095Y225230000D01*
X-278690476Y225182380D01*
X-278642857Y225087142D01*
X-278642857Y224944285D01*
X-278690476Y224849047D01*
X-278738095Y224801428D01*
X-278833333Y224753809D01*
X-279214285Y224753809D01*
X-278261904Y225182380D02*
X-278214285Y225230000D01*
X-278119047Y225277619D01*
X-277880952Y225277619D01*
X-277785714Y225230000D01*
X-277738095Y225182380D01*
X-277690476Y225087142D01*
X-277690476Y224991904D01*
X-277738095Y224849047D01*
X-278309523Y224277619D01*
X-277690476Y224277619D01*
X-277309523Y225182380D02*
X-277261904Y225230000D01*
X-277166666Y225277619D01*
X-276928571Y225277619D01*
X-276833333Y225230000D01*
X-276785714Y225182380D01*
X-276738095Y225087142D01*
X-276738095Y224991904D01*
X-276785714Y224849047D01*
X-277357142Y224277619D01*
X-276738095Y224277619D01*
G04 #@! TO.C,U1*
X-291461904Y223592619D02*
X-291461904Y222783095D01*
X-291414285Y222687857D01*
X-291366666Y222640238D01*
X-291271428Y222592619D01*
X-291080952Y222592619D01*
X-290985714Y222640238D01*
X-290938095Y222687857D01*
X-290890476Y222783095D01*
X-290890476Y223592619D01*
X-289890476Y222592619D02*
X-290461904Y222592619D01*
X-290176190Y222592619D02*
X-290176190Y223592619D01*
X-290271428Y223449761D01*
X-290366666Y223354523D01*
X-290461904Y223306904D01*
G04 #@! TO.C,U2*
X-280461904Y223322619D02*
X-280461904Y222513095D01*
X-280414285Y222417857D01*
X-280366666Y222370238D01*
X-280271428Y222322619D01*
X-280080952Y222322619D01*
X-279985714Y222370238D01*
X-279938095Y222417857D01*
X-279890476Y222513095D01*
X-279890476Y223322619D01*
X-279461904Y223227380D02*
X-279414285Y223275000D01*
X-279319047Y223322619D01*
X-279080952Y223322619D01*
X-278985714Y223275000D01*
X-278938095Y223227380D01*
X-278890476Y223132142D01*
X-278890476Y223036904D01*
X-278938095Y222894047D01*
X-279509523Y222322619D01*
X-278890476Y222322619D01*
G04 #@! TO.C,VL1*
X-312214285Y203547619D02*
X-311880952Y202547619D01*
X-311547619Y203547619D01*
X-310738095Y202547619D02*
X-311214285Y202547619D01*
X-311214285Y203547619D01*
X-309880952Y202547619D02*
X-310452380Y202547619D01*
X-310166666Y202547619D02*
X-310166666Y203547619D01*
X-310261904Y203404761D01*
X-310357142Y203309523D01*
X-310452380Y203261904D01*
G04 #@! TO.C,XS1*
X-232380714Y153357619D02*
X-231714047Y152357619D01*
X-231714047Y153357619D02*
X-232380714Y152357619D01*
X-231380714Y152405238D02*
X-231237857Y152357619D01*
X-230999761Y152357619D01*
X-230904523Y152405238D01*
X-230856904Y152452857D01*
X-230809285Y152548095D01*
X-230809285Y152643333D01*
X-230856904Y152738571D01*
X-230904523Y152786190D01*
X-230999761Y152833809D01*
X-231190238Y152881428D01*
X-231285476Y152929047D01*
X-231333095Y152976666D01*
X-231380714Y153071904D01*
X-231380714Y153167142D01*
X-231333095Y153262380D01*
X-231285476Y153310000D01*
X-231190238Y153357619D01*
X-230952142Y153357619D01*
X-230809285Y153310000D01*
X-229856904Y152357619D02*
X-230428333Y152357619D01*
X-230142619Y152357619D02*
X-230142619Y153357619D01*
X-230237857Y153214761D01*
X-230333095Y153119523D01*
X-230428333Y153071904D01*
G04 #@! TO.C,XS2*
X-273880714Y183017619D02*
X-273214047Y182017619D01*
X-273214047Y183017619D02*
X-273880714Y182017619D01*
X-272880714Y182065238D02*
X-272737857Y182017619D01*
X-272499761Y182017619D01*
X-272404523Y182065238D01*
X-272356904Y182112857D01*
X-272309285Y182208095D01*
X-272309285Y182303333D01*
X-272356904Y182398571D01*
X-272404523Y182446190D01*
X-272499761Y182493809D01*
X-272690238Y182541428D01*
X-272785476Y182589047D01*
X-272833095Y182636666D01*
X-272880714Y182731904D01*
X-272880714Y182827142D01*
X-272833095Y182922380D01*
X-272785476Y182970000D01*
X-272690238Y183017619D01*
X-272452142Y183017619D01*
X-272309285Y182970000D01*
X-271928333Y182922380D02*
X-271880714Y182970000D01*
X-271785476Y183017619D01*
X-271547380Y183017619D01*
X-271452142Y182970000D01*
X-271404523Y182922380D01*
X-271356904Y182827142D01*
X-271356904Y182731904D01*
X-271404523Y182589047D01*
X-271975952Y182017619D01*
X-271356904Y182017619D01*
G04 #@! TO.C,XS3*
X-322737619Y232174285D02*
X-321737619Y232840952D01*
X-322737619Y232840952D02*
X-321737619Y232174285D01*
X-321785238Y233174285D02*
X-321737619Y233317142D01*
X-321737619Y233555238D01*
X-321785238Y233650476D01*
X-321832857Y233698095D01*
X-321928095Y233745714D01*
X-322023333Y233745714D01*
X-322118571Y233698095D01*
X-322166190Y233650476D01*
X-322213809Y233555238D01*
X-322261428Y233364761D01*
X-322309047Y233269523D01*
X-322356666Y233221904D01*
X-322451904Y233174285D01*
X-322547142Y233174285D01*
X-322642380Y233221904D01*
X-322690000Y233269523D01*
X-322737619Y233364761D01*
X-322737619Y233602857D01*
X-322690000Y233745714D01*
X-322737619Y234079047D02*
X-322737619Y234698095D01*
X-322356666Y234364761D01*
X-322356666Y234507619D01*
X-322309047Y234602857D01*
X-322261428Y234650476D01*
X-322166190Y234698095D01*
X-321928095Y234698095D01*
X-321832857Y234650476D01*
X-321785238Y234602857D01*
X-321737619Y234507619D01*
X-321737619Y234221904D01*
X-321785238Y234126666D01*
X-321832857Y234079047D01*
G04 #@! TO.C,XS4*
X-297737619Y232174285D02*
X-296737619Y232840952D01*
X-297737619Y232840952D02*
X-296737619Y232174285D01*
X-296785238Y233174285D02*
X-296737619Y233317142D01*
X-296737619Y233555238D01*
X-296785238Y233650476D01*
X-296832857Y233698095D01*
X-296928095Y233745714D01*
X-297023333Y233745714D01*
X-297118571Y233698095D01*
X-297166190Y233650476D01*
X-297213809Y233555238D01*
X-297261428Y233364761D01*
X-297309047Y233269523D01*
X-297356666Y233221904D01*
X-297451904Y233174285D01*
X-297547142Y233174285D01*
X-297642380Y233221904D01*
X-297690000Y233269523D01*
X-297737619Y233364761D01*
X-297737619Y233602857D01*
X-297690000Y233745714D01*
X-297404285Y234602857D02*
X-296737619Y234602857D01*
X-297785238Y234364761D02*
X-297070952Y234126666D01*
X-297070952Y234745714D01*
G04 #@! TD*
M02*
