G04 #@! TF.GenerationSoftware,KiCad,Pcbnew,5.0.2-bee76a0~70~ubuntu18.04.1*
G04 #@! TF.CreationDate,2020-01-07T12:16:07+05:00*
G04 #@! TF.ProjectId,headamp,68656164-616d-4702-9e6b-696361645f70,rev?*
G04 #@! TF.SameCoordinates,Original*
G04 #@! TF.FileFunction,Soldermask,Top*
G04 #@! TF.FilePolarity,Negative*
%FSLAX46Y46*%
G04 Gerber Fmt 4.6, Leading zero omitted, Abs format (unit mm)*
G04 Created by KiCad (PCBNEW 5.0.2-bee76a0~70~ubuntu18.04.1) date Вт 07 янв 2020 12:16:07*
%MOMM*%
%LPD*%
G01*
G04 APERTURE LIST*
%ADD10C,0.100000*%
G04 APERTURE END LIST*
D10*
G36*
X-228810607Y150250696D02*
X-228573898Y150152648D01*
X-228360862Y150010302D01*
X-228179698Y149829138D01*
X-228037352Y149616102D01*
X-227939304Y149379393D01*
X-227889320Y149128107D01*
X-227889320Y148871893D01*
X-227939304Y148620607D01*
X-228037352Y148383898D01*
X-228179698Y148170862D01*
X-228360862Y147989698D01*
X-228573898Y147847352D01*
X-228810607Y147749304D01*
X-229061893Y147699320D01*
X-229318107Y147699320D01*
X-229569393Y147749304D01*
X-229806102Y147847352D01*
X-230019138Y147989698D01*
X-230200302Y148170862D01*
X-230342648Y148383898D01*
X-230440696Y148620607D01*
X-230490680Y148871893D01*
X-230490680Y149128107D01*
X-230440696Y149379393D01*
X-230342648Y149616102D01*
X-230200302Y149829138D01*
X-230019138Y150010302D01*
X-229806102Y150152648D01*
X-229569393Y150250696D01*
X-229318107Y150300680D01*
X-229061893Y150300680D01*
X-228810607Y150250696D01*
X-228810607Y150250696D01*
G37*
G36*
X-231699320Y147699320D02*
X-234300680Y147699320D01*
X-234300680Y150300680D01*
X-231699320Y150300680D01*
X-231699320Y147699320D01*
X-231699320Y147699320D01*
G37*
G36*
X-227285696Y153663210D02*
X-229687696Y153663210D01*
X-229687696Y157265210D01*
X-227285696Y157265210D01*
X-227285696Y153663210D01*
X-227285696Y153663210D01*
G37*
G36*
X-232285696Y153753210D02*
X-234687696Y153753210D01*
X-234687696Y157355210D01*
X-232285696Y157355210D01*
X-232285696Y153753210D01*
X-232285696Y153753210D01*
G37*
G36*
X-227285696Y159063210D02*
X-229687696Y159063210D01*
X-229687696Y162665210D01*
X-227285696Y162665210D01*
X-227285696Y159063210D01*
X-227285696Y159063210D01*
G37*
G36*
X-232285696Y159153210D02*
X-234687696Y159153210D01*
X-234687696Y162755210D01*
X-232285696Y162755210D01*
X-232285696Y159153210D01*
X-232285696Y159153210D01*
G37*
G36*
X-232285696Y163453210D02*
X-234687696Y163453210D01*
X-234687696Y167055210D01*
X-232285696Y167055210D01*
X-232285696Y163453210D01*
X-232285696Y163453210D01*
G37*
G36*
X-227285696Y163503210D02*
X-229687696Y163503210D01*
X-229687696Y167105210D01*
X-227285696Y167105210D01*
X-227285696Y163503210D01*
X-227285696Y163503210D01*
G37*
G36*
X-232285696Y168853210D02*
X-234687696Y168853210D01*
X-234687696Y172455210D01*
X-232285696Y172455210D01*
X-232285696Y168853210D01*
X-232285696Y168853210D01*
G37*
G36*
X-227285696Y168903210D02*
X-229687696Y168903210D01*
X-229687696Y172505210D01*
X-227285696Y172505210D01*
X-227285696Y168903210D01*
X-227285696Y168903210D01*
G37*
G36*
X-244698940Y176858940D02*
X-248301060Y176858940D01*
X-248301060Y180461060D01*
X-244698940Y180461060D01*
X-244698940Y176858940D01*
X-244698940Y176858940D01*
G37*
G36*
X-273199320Y177359320D02*
X-275800680Y177359320D01*
X-275800680Y179960680D01*
X-273199320Y179960680D01*
X-273199320Y177359320D01*
X-273199320Y177359320D01*
G37*
G36*
X-270310607Y179910696D02*
X-270073898Y179812648D01*
X-269860862Y179670302D01*
X-269679698Y179489138D01*
X-269537352Y179276102D01*
X-269439304Y179039393D01*
X-269389320Y178788107D01*
X-269389320Y178531893D01*
X-269439304Y178280607D01*
X-269537352Y178043898D01*
X-269679698Y177830862D01*
X-269860862Y177649698D01*
X-270073898Y177507352D01*
X-270310607Y177409304D01*
X-270561893Y177359320D01*
X-270818107Y177359320D01*
X-271069393Y177409304D01*
X-271306102Y177507352D01*
X-271519138Y177649698D01*
X-271700302Y177830862D01*
X-271842648Y178043898D01*
X-271940696Y178280607D01*
X-271990680Y178531893D01*
X-271990680Y178788107D01*
X-271940696Y179039393D01*
X-271842648Y179276102D01*
X-271700302Y179489138D01*
X-271519138Y179670302D01*
X-271306102Y179812648D01*
X-271069393Y179910696D01*
X-270818107Y179960680D01*
X-270561893Y179960680D01*
X-270310607Y179910696D01*
X-270310607Y179910696D01*
G37*
G36*
X-258943435Y180420611D02*
X-258752166Y180341385D01*
X-258580024Y180226363D01*
X-258433637Y180079976D01*
X-258318615Y179907834D01*
X-258239389Y179716565D01*
X-258199000Y179513516D01*
X-258199000Y179306484D01*
X-258239389Y179103435D01*
X-258318615Y178912166D01*
X-258433637Y178740024D01*
X-258580024Y178593637D01*
X-258752166Y178478615D01*
X-258943435Y178399389D01*
X-259146484Y178359000D01*
X-259353516Y178359000D01*
X-259556565Y178399389D01*
X-259747834Y178478615D01*
X-259919976Y178593637D01*
X-260066363Y178740024D01*
X-260181385Y178912166D01*
X-260260611Y179103435D01*
X-260301000Y179306484D01*
X-260301000Y179513516D01*
X-260260611Y179716565D01*
X-260181385Y179907834D01*
X-260066363Y180079976D01*
X-259919976Y180226363D01*
X-259747834Y180341385D01*
X-259556565Y180420611D01*
X-259353516Y180461000D01*
X-259146484Y180461000D01*
X-258943435Y180420611D01*
X-258943435Y180420611D01*
G37*
G36*
X-237443435Y183920611D02*
X-237252166Y183841385D01*
X-237080024Y183726363D01*
X-236933637Y183579976D01*
X-236818615Y183407834D01*
X-236739389Y183216565D01*
X-236699000Y183013516D01*
X-236699000Y182806484D01*
X-236739389Y182603435D01*
X-236818615Y182412166D01*
X-236933637Y182240024D01*
X-237080024Y182093637D01*
X-237252166Y181978615D01*
X-237443435Y181899389D01*
X-237646484Y181859000D01*
X-237853516Y181859000D01*
X-238056565Y181899389D01*
X-238247834Y181978615D01*
X-238419976Y182093637D01*
X-238566363Y182240024D01*
X-238681385Y182412166D01*
X-238760611Y182603435D01*
X-238801000Y182806484D01*
X-238801000Y183013516D01*
X-238760611Y183216565D01*
X-238681385Y183407834D01*
X-238566363Y183579976D01*
X-238419976Y183726363D01*
X-238247834Y183841385D01*
X-238056565Y183920611D01*
X-237853516Y183961000D01*
X-237646484Y183961000D01*
X-237443435Y183920611D01*
X-237443435Y183920611D01*
G37*
G36*
X-229943435Y183920611D02*
X-229752166Y183841385D01*
X-229580024Y183726363D01*
X-229433637Y183579976D01*
X-229318615Y183407834D01*
X-229239389Y183216565D01*
X-229199000Y183013516D01*
X-229199000Y182806484D01*
X-229239389Y182603435D01*
X-229318615Y182412166D01*
X-229433637Y182240024D01*
X-229580024Y182093637D01*
X-229752166Y181978615D01*
X-229943435Y181899389D01*
X-230146484Y181859000D01*
X-230353516Y181859000D01*
X-230556565Y181899389D01*
X-230747834Y181978615D01*
X-230919976Y182093637D01*
X-231066363Y182240024D01*
X-231181385Y182412166D01*
X-231260611Y182603435D01*
X-231301000Y182806484D01*
X-231301000Y183013516D01*
X-231260611Y183216565D01*
X-231181385Y183407834D01*
X-231066363Y183579976D01*
X-230919976Y183726363D01*
X-230747834Y183841385D01*
X-230556565Y183920611D01*
X-230353516Y183961000D01*
X-230146484Y183961000D01*
X-229943435Y183920611D01*
X-229943435Y183920611D01*
G37*
G36*
X-246273095Y185531211D02*
X-245974650Y185471847D01*
X-245646878Y185336079D01*
X-245351891Y185138975D01*
X-245101025Y184888109D01*
X-244903921Y184593122D01*
X-244768153Y184265350D01*
X-244698940Y183917389D01*
X-244698940Y183562611D01*
X-244768153Y183214650D01*
X-244903921Y182886878D01*
X-245101025Y182591891D01*
X-245351891Y182341025D01*
X-245646878Y182143921D01*
X-245974650Y182008153D01*
X-246273095Y181948789D01*
X-246322610Y181938940D01*
X-246677390Y181938940D01*
X-246726905Y181948789D01*
X-247025350Y182008153D01*
X-247353122Y182143921D01*
X-247648109Y182341025D01*
X-247898975Y182591891D01*
X-248096079Y182886878D01*
X-248231847Y183214650D01*
X-248301060Y183562611D01*
X-248301060Y183917389D01*
X-248231847Y184265350D01*
X-248096079Y184593122D01*
X-247898975Y184888109D01*
X-247648109Y185138975D01*
X-247353122Y185336079D01*
X-247025350Y185471847D01*
X-246726905Y185531211D01*
X-246677390Y185541060D01*
X-246322610Y185541060D01*
X-246273095Y185531211D01*
X-246273095Y185531211D01*
G37*
G36*
X-281693435Y184420611D02*
X-281502166Y184341385D01*
X-281330024Y184226363D01*
X-281183637Y184079976D01*
X-281068615Y183907834D01*
X-280989389Y183716565D01*
X-280949000Y183513516D01*
X-280949000Y183306484D01*
X-280989389Y183103435D01*
X-281068615Y182912166D01*
X-281183637Y182740024D01*
X-281330024Y182593637D01*
X-281502166Y182478615D01*
X-281693435Y182399389D01*
X-281896484Y182359000D01*
X-282103516Y182359000D01*
X-282306565Y182399389D01*
X-282497834Y182478615D01*
X-282669976Y182593637D01*
X-282816363Y182740024D01*
X-282931385Y182912166D01*
X-283010611Y183103435D01*
X-283051000Y183306484D01*
X-283051000Y183513516D01*
X-283010611Y183716565D01*
X-282931385Y183907834D01*
X-282816363Y184079976D01*
X-282669976Y184226363D01*
X-282497834Y184341385D01*
X-282306565Y184420611D01*
X-282103516Y184461000D01*
X-281896484Y184461000D01*
X-281693435Y184420611D01*
X-281693435Y184420611D01*
G37*
G36*
X-289193435Y184420611D02*
X-289002166Y184341385D01*
X-288830024Y184226363D01*
X-288683637Y184079976D01*
X-288568615Y183907834D01*
X-288489389Y183716565D01*
X-288449000Y183513516D01*
X-288449000Y183306484D01*
X-288489389Y183103435D01*
X-288568615Y182912166D01*
X-288683637Y182740024D01*
X-288830024Y182593637D01*
X-289002166Y182478615D01*
X-289193435Y182399389D01*
X-289396484Y182359000D01*
X-289603516Y182359000D01*
X-289806565Y182399389D01*
X-289997834Y182478615D01*
X-290169976Y182593637D01*
X-290316363Y182740024D01*
X-290431385Y182912166D01*
X-290510611Y183103435D01*
X-290551000Y183306484D01*
X-290551000Y183513516D01*
X-290510611Y183716565D01*
X-290431385Y183907834D01*
X-290316363Y184079976D01*
X-290169976Y184226363D01*
X-289997834Y184341385D01*
X-289806565Y184420611D01*
X-289603516Y184461000D01*
X-289396484Y184461000D01*
X-289193435Y184420611D01*
X-289193435Y184420611D01*
G37*
G36*
X-258943435Y187920611D02*
X-258752166Y187841385D01*
X-258580024Y187726363D01*
X-258433637Y187579976D01*
X-258318615Y187407834D01*
X-258239389Y187216565D01*
X-258199000Y187013516D01*
X-258199000Y186806484D01*
X-258239389Y186603435D01*
X-258318615Y186412166D01*
X-258433637Y186240024D01*
X-258580024Y186093637D01*
X-258752166Y185978615D01*
X-258943435Y185899389D01*
X-259146484Y185859000D01*
X-259353516Y185859000D01*
X-259556565Y185899389D01*
X-259747834Y185978615D01*
X-259919976Y186093637D01*
X-260066363Y186240024D01*
X-260181385Y186412166D01*
X-260260611Y186603435D01*
X-260301000Y186806484D01*
X-260301000Y187013516D01*
X-260260611Y187216565D01*
X-260181385Y187407834D01*
X-260066363Y187579976D01*
X-259919976Y187726363D01*
X-259747834Y187841385D01*
X-259556565Y187920611D01*
X-259353516Y187961000D01*
X-259146484Y187961000D01*
X-258943435Y187920611D01*
X-258943435Y187920611D01*
G37*
G36*
X-258514761Y195232899D02*
X-258278947Y195161366D01*
X-258061619Y195045201D01*
X-257871129Y194888871D01*
X-257714799Y194698381D01*
X-257598634Y194481053D01*
X-257527101Y194245239D01*
X-257502947Y194000000D01*
X-257527101Y193754761D01*
X-257598634Y193518947D01*
X-257714799Y193301619D01*
X-257871129Y193111129D01*
X-258061619Y192954799D01*
X-258278947Y192838634D01*
X-258514761Y192767101D01*
X-258698543Y192749000D01*
X-258821457Y192749000D01*
X-259005239Y192767101D01*
X-259241053Y192838634D01*
X-259458381Y192954799D01*
X-259648871Y193111129D01*
X-259805201Y193301619D01*
X-259921366Y193518947D01*
X-259992899Y193754761D01*
X-260017053Y194000000D01*
X-259992899Y194245239D01*
X-259921366Y194481053D01*
X-259805201Y194698381D01*
X-259648871Y194888871D01*
X-259458381Y195045201D01*
X-259241053Y195161366D01*
X-259005239Y195232899D01*
X-258821457Y195251000D01*
X-258698543Y195251000D01*
X-258514761Y195232899D01*
X-258514761Y195232899D01*
G37*
G36*
X-273816365Y195238981D02*
X-273635097Y195202925D01*
X-273407429Y195108622D01*
X-273312512Y195045200D01*
X-273202531Y194971713D01*
X-273028287Y194797469D01*
X-273028285Y194797466D01*
X-272891378Y194592571D01*
X-272797075Y194364903D01*
X-272749000Y194123213D01*
X-272749000Y193876787D01*
X-272797075Y193635097D01*
X-272891378Y193407429D01*
X-272962079Y193301618D01*
X-273028287Y193202531D01*
X-273202531Y193028287D01*
X-273202534Y193028285D01*
X-273407429Y192891378D01*
X-273635097Y192797075D01*
X-273785787Y192767101D01*
X-273876786Y192749000D01*
X-274123214Y192749000D01*
X-274214213Y192767101D01*
X-274364903Y192797075D01*
X-274592571Y192891378D01*
X-274797466Y193028285D01*
X-274797469Y193028287D01*
X-274971713Y193202531D01*
X-275037921Y193301618D01*
X-275108622Y193407429D01*
X-275202925Y193635097D01*
X-275251000Y193876787D01*
X-275251000Y194123213D01*
X-275202925Y194364903D01*
X-275108622Y194592571D01*
X-274971715Y194797466D01*
X-274971713Y194797469D01*
X-274797469Y194971713D01*
X-274687488Y195045200D01*
X-274592571Y195108622D01*
X-274364903Y195202925D01*
X-274183635Y195238981D01*
X-274123214Y195251000D01*
X-273876786Y195251000D01*
X-273816365Y195238981D01*
X-273816365Y195238981D01*
G37*
G36*
X-276514761Y195232899D02*
X-276278947Y195161366D01*
X-276061619Y195045201D01*
X-275871129Y194888871D01*
X-275714799Y194698381D01*
X-275598634Y194481053D01*
X-275527101Y194245239D01*
X-275502947Y194000000D01*
X-275527101Y193754761D01*
X-275598634Y193518947D01*
X-275714799Y193301619D01*
X-275871129Y193111129D01*
X-276061619Y192954799D01*
X-276278947Y192838634D01*
X-276514761Y192767101D01*
X-276698543Y192749000D01*
X-276821457Y192749000D01*
X-277005239Y192767101D01*
X-277241053Y192838634D01*
X-277458381Y192954799D01*
X-277648871Y193111129D01*
X-277805201Y193301619D01*
X-277921366Y193518947D01*
X-277992899Y193754761D01*
X-278017053Y194000000D01*
X-277992899Y194245239D01*
X-277921366Y194481053D01*
X-277805201Y194698381D01*
X-277648871Y194888871D01*
X-277458381Y195045201D01*
X-277241053Y195161366D01*
X-277005239Y195232899D01*
X-276821457Y195251000D01*
X-276698543Y195251000D01*
X-276514761Y195232899D01*
X-276514761Y195232899D01*
G37*
G36*
X-291816365Y195238981D02*
X-291635097Y195202925D01*
X-291407429Y195108622D01*
X-291312512Y195045200D01*
X-291202531Y194971713D01*
X-291028287Y194797469D01*
X-291028285Y194797466D01*
X-290891378Y194592571D01*
X-290797075Y194364903D01*
X-290749000Y194123213D01*
X-290749000Y193876787D01*
X-290797075Y193635097D01*
X-290891378Y193407429D01*
X-290962079Y193301618D01*
X-291028287Y193202531D01*
X-291202531Y193028287D01*
X-291202534Y193028285D01*
X-291407429Y192891378D01*
X-291635097Y192797075D01*
X-291785787Y192767101D01*
X-291876786Y192749000D01*
X-292123214Y192749000D01*
X-292214213Y192767101D01*
X-292364903Y192797075D01*
X-292592571Y192891378D01*
X-292797466Y193028285D01*
X-292797469Y193028287D01*
X-292971713Y193202531D01*
X-293037921Y193301618D01*
X-293108622Y193407429D01*
X-293202925Y193635097D01*
X-293251000Y193876787D01*
X-293251000Y194123213D01*
X-293202925Y194364903D01*
X-293108622Y194592571D01*
X-292971715Y194797466D01*
X-292971713Y194797469D01*
X-292797469Y194971713D01*
X-292687488Y195045200D01*
X-292592571Y195108622D01*
X-292364903Y195202925D01*
X-292183635Y195238981D01*
X-292123214Y195251000D01*
X-291876786Y195251000D01*
X-291816365Y195238981D01*
X-291816365Y195238981D01*
G37*
G36*
X-243401748Y203882182D02*
X-243401746Y203882181D01*
X-243401745Y203882181D01*
X-243028487Y203727573D01*
X-243028486Y203727572D01*
X-242692561Y203503114D01*
X-242406886Y203217439D01*
X-242406884Y203217436D01*
X-242182427Y202881513D01*
X-242038968Y202535171D01*
X-242027818Y202508252D01*
X-241949000Y202112007D01*
X-241949000Y201707993D01*
X-241987684Y201513514D01*
X-242027819Y201311745D01*
X-242182427Y200938487D01*
X-242235539Y200859000D01*
X-242406886Y200602561D01*
X-242692561Y200316886D01*
X-242692564Y200316884D01*
X-243028487Y200092427D01*
X-243401745Y199937819D01*
X-243401746Y199937819D01*
X-243401748Y199937818D01*
X-243797993Y199859000D01*
X-244202007Y199859000D01*
X-244598252Y199937818D01*
X-244598254Y199937819D01*
X-244598255Y199937819D01*
X-244971513Y200092427D01*
X-245307436Y200316884D01*
X-245307439Y200316886D01*
X-245593114Y200602561D01*
X-245764461Y200859000D01*
X-245817573Y200938487D01*
X-245972181Y201311745D01*
X-246012315Y201513514D01*
X-246051000Y201707993D01*
X-246051000Y202112007D01*
X-245972182Y202508252D01*
X-245961032Y202535171D01*
X-245817573Y202881513D01*
X-245593116Y203217436D01*
X-245593114Y203217439D01*
X-245307439Y203503114D01*
X-244971514Y203727572D01*
X-244971513Y203727573D01*
X-244598255Y203882181D01*
X-244598254Y203882181D01*
X-244598252Y203882182D01*
X-244202007Y203961000D01*
X-243797993Y203961000D01*
X-243401748Y203882182D01*
X-243401748Y203882182D01*
G37*
G36*
X-296828065Y204547329D02*
X-296798126Y204538247D01*
X-296770531Y204523497D01*
X-296746349Y204503651D01*
X-296726503Y204479469D01*
X-296711753Y204451874D01*
X-296702671Y204421935D01*
X-296699000Y204384660D01*
X-296699000Y200215340D01*
X-296702671Y200178065D01*
X-296711753Y200148126D01*
X-296726503Y200120531D01*
X-296746349Y200096349D01*
X-296770531Y200076503D01*
X-296798126Y200061753D01*
X-296828065Y200052671D01*
X-296865340Y200049000D01*
X-299134660Y200049000D01*
X-299171935Y200052671D01*
X-299201874Y200061753D01*
X-299229469Y200076503D01*
X-299253651Y200096349D01*
X-299273497Y200120531D01*
X-299288247Y200148126D01*
X-299297329Y200178065D01*
X-299301000Y200215340D01*
X-299301000Y204384660D01*
X-299297329Y204421935D01*
X-299288247Y204451874D01*
X-299273497Y204479469D01*
X-299253651Y204503651D01*
X-299229469Y204523497D01*
X-299201874Y204538247D01*
X-299171935Y204547329D01*
X-299134660Y204551000D01*
X-296865340Y204551000D01*
X-296828065Y204547329D01*
X-296828065Y204547329D01*
G37*
G36*
X-323828065Y204547329D02*
X-323798126Y204538247D01*
X-323770531Y204523497D01*
X-323746349Y204503651D01*
X-323726503Y204479469D01*
X-323711753Y204451874D01*
X-323702671Y204421935D01*
X-323699000Y204384660D01*
X-323699000Y200215340D01*
X-323702671Y200178065D01*
X-323711753Y200148126D01*
X-323726503Y200120531D01*
X-323746349Y200096349D01*
X-323770531Y200076503D01*
X-323798126Y200061753D01*
X-323828065Y200052671D01*
X-323865340Y200049000D01*
X-326134660Y200049000D01*
X-326171935Y200052671D01*
X-326201874Y200061753D01*
X-326229469Y200076503D01*
X-326253651Y200096349D01*
X-326273497Y200120531D01*
X-326288247Y200148126D01*
X-326297329Y200178065D01*
X-326301000Y200215340D01*
X-326301000Y204384660D01*
X-326297329Y204421935D01*
X-326288247Y204451874D01*
X-326273497Y204479469D01*
X-326253651Y204503651D01*
X-326229469Y204523497D01*
X-326201874Y204538247D01*
X-326171935Y204547329D01*
X-326134660Y204551000D01*
X-323865340Y204551000D01*
X-323828065Y204547329D01*
X-323828065Y204547329D01*
G37*
G36*
X-278693435Y202420611D02*
X-278502166Y202341385D01*
X-278330024Y202226363D01*
X-278183637Y202079976D01*
X-278068615Y201907834D01*
X-277989389Y201716565D01*
X-277949000Y201513516D01*
X-277949000Y201306484D01*
X-277989389Y201103435D01*
X-278068615Y200912166D01*
X-278183637Y200740024D01*
X-278330024Y200593637D01*
X-278502166Y200478615D01*
X-278693435Y200399389D01*
X-278896484Y200359000D01*
X-279103516Y200359000D01*
X-279306565Y200399389D01*
X-279497834Y200478615D01*
X-279669976Y200593637D01*
X-279816363Y200740024D01*
X-279931385Y200912166D01*
X-280010611Y201103435D01*
X-280051000Y201306484D01*
X-280051000Y201513516D01*
X-280010611Y201716565D01*
X-279931385Y201907834D01*
X-279816363Y202079976D01*
X-279669976Y202226363D01*
X-279497834Y202341385D01*
X-279306565Y202420611D01*
X-279103516Y202461000D01*
X-278896484Y202461000D01*
X-278693435Y202420611D01*
X-278693435Y202420611D01*
G37*
G36*
X-289693435Y202920611D02*
X-289502166Y202841385D01*
X-289330024Y202726363D01*
X-289183637Y202579976D01*
X-289068615Y202407834D01*
X-288989389Y202216565D01*
X-288949000Y202013516D01*
X-288949000Y201806484D01*
X-288989389Y201603435D01*
X-289068615Y201412166D01*
X-289183637Y201240024D01*
X-289330024Y201093637D01*
X-289502166Y200978615D01*
X-289693435Y200899389D01*
X-289896484Y200859000D01*
X-290103516Y200859000D01*
X-290306565Y200899389D01*
X-290497834Y200978615D01*
X-290669976Y201093637D01*
X-290816363Y201240024D01*
X-290931385Y201412166D01*
X-291010611Y201603435D01*
X-291051000Y201806484D01*
X-291051000Y202013516D01*
X-291010611Y202216565D01*
X-290931385Y202407834D01*
X-290816363Y202579976D01*
X-290669976Y202726363D01*
X-290497834Y202841385D01*
X-290306565Y202920611D01*
X-290103516Y202961000D01*
X-289896484Y202961000D01*
X-289693435Y202920611D01*
X-289693435Y202920611D01*
G37*
G36*
X-304836865Y204053809D02*
X-304801950Y204043217D01*
X-304769762Y204026012D01*
X-304741554Y204002863D01*
X-304712664Y203967660D01*
X-304709052Y203962255D01*
X-304691724Y203944928D01*
X-304671349Y203931315D01*
X-304648710Y203921938D01*
X-304624677Y203917158D01*
X-304600172Y203917158D01*
X-304576139Y203921939D01*
X-304553500Y203931317D01*
X-304533126Y203944931D01*
X-304515799Y203962259D01*
X-304512189Y203967662D01*
X-304483300Y204002863D01*
X-304455092Y204026012D01*
X-304422904Y204043217D01*
X-304387989Y204053809D01*
X-304345532Y204057990D01*
X-302879322Y204057990D01*
X-302836865Y204053809D01*
X-302801950Y204043217D01*
X-302769762Y204026012D01*
X-302741554Y204002863D01*
X-302718405Y203974655D01*
X-302701200Y203942467D01*
X-302690608Y203907552D01*
X-302686427Y203865095D01*
X-302686427Y202723885D01*
X-302690608Y202681428D01*
X-302701200Y202646513D01*
X-302718405Y202614325D01*
X-302741554Y202586117D01*
X-302769762Y202562968D01*
X-302801950Y202545763D01*
X-302836865Y202535171D01*
X-302879322Y202530990D01*
X-304345532Y202530990D01*
X-304387989Y202535171D01*
X-304422904Y202545763D01*
X-304455092Y202562968D01*
X-304483300Y202586117D01*
X-304512190Y202621320D01*
X-304515802Y202626725D01*
X-304533130Y202644052D01*
X-304553505Y202657665D01*
X-304576144Y202667042D01*
X-304600177Y202671822D01*
X-304624682Y202671822D01*
X-304648715Y202667041D01*
X-304671354Y202657663D01*
X-304691728Y202644049D01*
X-304709055Y202626721D01*
X-304712665Y202621318D01*
X-304741554Y202586117D01*
X-304769762Y202562968D01*
X-304801950Y202545763D01*
X-304836865Y202535171D01*
X-304879322Y202530990D01*
X-306345532Y202530990D01*
X-306387989Y202535171D01*
X-306422904Y202545763D01*
X-306455092Y202562968D01*
X-306483300Y202586117D01*
X-306506449Y202614325D01*
X-306523654Y202646513D01*
X-306534246Y202681428D01*
X-306538427Y202723885D01*
X-306538427Y203865095D01*
X-306534246Y203907552D01*
X-306523654Y203942467D01*
X-306506449Y203974655D01*
X-306483300Y204002863D01*
X-306455092Y204026012D01*
X-306422904Y204043217D01*
X-306387989Y204053809D01*
X-306345532Y204057990D01*
X-304879322Y204057990D01*
X-304836865Y204053809D01*
X-304836865Y204053809D01*
G37*
G36*
X-317973782Y204181819D02*
X-317938867Y204171227D01*
X-317906679Y204154022D01*
X-317878471Y204130873D01*
X-317849581Y204095670D01*
X-317845969Y204090265D01*
X-317828641Y204072938D01*
X-317808266Y204059325D01*
X-317785627Y204049948D01*
X-317761594Y204045168D01*
X-317737089Y204045168D01*
X-317713056Y204049949D01*
X-317690417Y204059327D01*
X-317670043Y204072941D01*
X-317652716Y204090269D01*
X-317649106Y204095672D01*
X-317620217Y204130873D01*
X-317592009Y204154022D01*
X-317559821Y204171227D01*
X-317524906Y204181819D01*
X-317482449Y204186000D01*
X-316016239Y204186000D01*
X-315973782Y204181819D01*
X-315938867Y204171227D01*
X-315906679Y204154022D01*
X-315878471Y204130873D01*
X-315855322Y204102665D01*
X-315838117Y204070477D01*
X-315827525Y204035562D01*
X-315823344Y203993105D01*
X-315823344Y202851895D01*
X-315827525Y202809438D01*
X-315838117Y202774523D01*
X-315855322Y202742335D01*
X-315878471Y202714127D01*
X-315906679Y202690978D01*
X-315938867Y202673773D01*
X-315973782Y202663181D01*
X-316016239Y202659000D01*
X-317482449Y202659000D01*
X-317524906Y202663181D01*
X-317559821Y202673773D01*
X-317592009Y202690978D01*
X-317620217Y202714127D01*
X-317649107Y202749330D01*
X-317652719Y202754735D01*
X-317670047Y202772062D01*
X-317690422Y202785675D01*
X-317713061Y202795052D01*
X-317737094Y202799832D01*
X-317761599Y202799832D01*
X-317785632Y202795051D01*
X-317808271Y202785673D01*
X-317828645Y202772059D01*
X-317845972Y202754731D01*
X-317849582Y202749328D01*
X-317878471Y202714127D01*
X-317906679Y202690978D01*
X-317938867Y202673773D01*
X-317973782Y202663181D01*
X-318016239Y202659000D01*
X-319482449Y202659000D01*
X-319524906Y202663181D01*
X-319559821Y202673773D01*
X-319592009Y202690978D01*
X-319620217Y202714127D01*
X-319643366Y202742335D01*
X-319660571Y202774523D01*
X-319671163Y202809438D01*
X-319675344Y202851895D01*
X-319675344Y203993105D01*
X-319671163Y204035562D01*
X-319660571Y204070477D01*
X-319643366Y204102665D01*
X-319620217Y204130873D01*
X-319592009Y204154022D01*
X-319559821Y204171227D01*
X-319524906Y204181819D01*
X-319482449Y204186000D01*
X-318016239Y204186000D01*
X-317973782Y204181819D01*
X-317973782Y204181819D01*
G37*
G36*
X-304836865Y207028809D02*
X-304801950Y207018217D01*
X-304769762Y207001012D01*
X-304741554Y206977863D01*
X-304712664Y206942660D01*
X-304709052Y206937255D01*
X-304691724Y206919928D01*
X-304671349Y206906315D01*
X-304648710Y206896938D01*
X-304624677Y206892158D01*
X-304600172Y206892158D01*
X-304576139Y206896939D01*
X-304553500Y206906317D01*
X-304533126Y206919931D01*
X-304515799Y206937259D01*
X-304512189Y206942662D01*
X-304483300Y206977863D01*
X-304455092Y207001012D01*
X-304422904Y207018217D01*
X-304387989Y207028809D01*
X-304345532Y207032990D01*
X-302879322Y207032990D01*
X-302836865Y207028809D01*
X-302801950Y207018217D01*
X-302769762Y207001012D01*
X-302741554Y206977863D01*
X-302718405Y206949655D01*
X-302701200Y206917467D01*
X-302690608Y206882552D01*
X-302686427Y206840095D01*
X-302686427Y205698885D01*
X-302690608Y205656428D01*
X-302701200Y205621513D01*
X-302718405Y205589325D01*
X-302741554Y205561117D01*
X-302769762Y205537968D01*
X-302801950Y205520763D01*
X-302836865Y205510171D01*
X-302879322Y205505990D01*
X-304345532Y205505990D01*
X-304387989Y205510171D01*
X-304422904Y205520763D01*
X-304455092Y205537968D01*
X-304483300Y205561117D01*
X-304512190Y205596320D01*
X-304515802Y205601725D01*
X-304533130Y205619052D01*
X-304553505Y205632665D01*
X-304576144Y205642042D01*
X-304600177Y205646822D01*
X-304624682Y205646822D01*
X-304648715Y205642041D01*
X-304671354Y205632663D01*
X-304691728Y205619049D01*
X-304709055Y205601721D01*
X-304712665Y205596318D01*
X-304741554Y205561117D01*
X-304769762Y205537968D01*
X-304801950Y205520763D01*
X-304836865Y205510171D01*
X-304879322Y205505990D01*
X-306345532Y205505990D01*
X-306387989Y205510171D01*
X-306422904Y205520763D01*
X-306455092Y205537968D01*
X-306483300Y205561117D01*
X-306506449Y205589325D01*
X-306523654Y205621513D01*
X-306534246Y205656428D01*
X-306538427Y205698885D01*
X-306538427Y206840095D01*
X-306534246Y206882552D01*
X-306523654Y206917467D01*
X-306506449Y206949655D01*
X-306483300Y206977863D01*
X-306455092Y207001012D01*
X-306422904Y207018217D01*
X-306387989Y207028809D01*
X-306345532Y207032990D01*
X-304879322Y207032990D01*
X-304836865Y207028809D01*
X-304836865Y207028809D01*
G37*
G36*
X-317973782Y207156819D02*
X-317938867Y207146227D01*
X-317906679Y207129022D01*
X-317878471Y207105873D01*
X-317849581Y207070670D01*
X-317845969Y207065265D01*
X-317828641Y207047938D01*
X-317808266Y207034325D01*
X-317785627Y207024948D01*
X-317761594Y207020168D01*
X-317737089Y207020168D01*
X-317713056Y207024949D01*
X-317690417Y207034327D01*
X-317670043Y207047941D01*
X-317652716Y207065269D01*
X-317649106Y207070672D01*
X-317620217Y207105873D01*
X-317592009Y207129022D01*
X-317559821Y207146227D01*
X-317524906Y207156819D01*
X-317482449Y207161000D01*
X-316016239Y207161000D01*
X-315973782Y207156819D01*
X-315938867Y207146227D01*
X-315906679Y207129022D01*
X-315878471Y207105873D01*
X-315855322Y207077665D01*
X-315838117Y207045477D01*
X-315827525Y207010562D01*
X-315823344Y206968105D01*
X-315823344Y205826895D01*
X-315827525Y205784438D01*
X-315838117Y205749523D01*
X-315855322Y205717335D01*
X-315878471Y205689127D01*
X-315906679Y205665978D01*
X-315938867Y205648773D01*
X-315973782Y205638181D01*
X-316016239Y205634000D01*
X-317482449Y205634000D01*
X-317524906Y205638181D01*
X-317559821Y205648773D01*
X-317592009Y205665978D01*
X-317620217Y205689127D01*
X-317649107Y205724330D01*
X-317652719Y205729735D01*
X-317670047Y205747062D01*
X-317690422Y205760675D01*
X-317713061Y205770052D01*
X-317737094Y205774832D01*
X-317761599Y205774832D01*
X-317785632Y205770051D01*
X-317808271Y205760673D01*
X-317828645Y205747059D01*
X-317845972Y205729731D01*
X-317849582Y205724328D01*
X-317878471Y205689127D01*
X-317906679Y205665978D01*
X-317938867Y205648773D01*
X-317973782Y205638181D01*
X-318016239Y205634000D01*
X-319482449Y205634000D01*
X-319524906Y205638181D01*
X-319559821Y205648773D01*
X-319592009Y205665978D01*
X-319620217Y205689127D01*
X-319643366Y205717335D01*
X-319660571Y205749523D01*
X-319671163Y205784438D01*
X-319675344Y205826895D01*
X-319675344Y206968105D01*
X-319671163Y207010562D01*
X-319660571Y207045477D01*
X-319643366Y207077665D01*
X-319620217Y207105873D01*
X-319592009Y207129022D01*
X-319559821Y207146227D01*
X-319524906Y207156819D01*
X-319482449Y207161000D01*
X-318016239Y207161000D01*
X-317973782Y207156819D01*
X-317973782Y207156819D01*
G37*
G36*
X-310867996Y207739456D02*
X-310780941Y207722140D01*
X-310644268Y207665528D01*
X-310560605Y207609626D01*
X-310521262Y207583338D01*
X-310416662Y207478738D01*
X-310416660Y207478735D01*
X-310334472Y207355732D01*
X-310277860Y207219059D01*
X-310260544Y207132004D01*
X-310249000Y207073969D01*
X-310249000Y206926031D01*
X-310255738Y206892158D01*
X-310277860Y206780941D01*
X-310334472Y206644268D01*
X-310334473Y206644267D01*
X-310416662Y206521262D01*
X-310521262Y206416662D01*
X-310521265Y206416660D01*
X-310644268Y206334472D01*
X-310780941Y206277860D01*
X-310867996Y206260544D01*
X-310926031Y206249000D01*
X-311073969Y206249000D01*
X-311132004Y206260544D01*
X-311219059Y206277860D01*
X-311355732Y206334472D01*
X-311478735Y206416660D01*
X-311478738Y206416662D01*
X-311583338Y206521262D01*
X-311665527Y206644267D01*
X-311665528Y206644268D01*
X-311722140Y206780941D01*
X-311744262Y206892158D01*
X-311751000Y206926031D01*
X-311751000Y207073969D01*
X-311739456Y207132004D01*
X-311722140Y207219059D01*
X-311665528Y207355732D01*
X-311583340Y207478735D01*
X-311583338Y207478738D01*
X-311478738Y207583338D01*
X-311439395Y207609626D01*
X-311355732Y207665528D01*
X-311219059Y207722140D01*
X-311132004Y207739456D01*
X-311073969Y207751000D01*
X-310926031Y207751000D01*
X-310867996Y207739456D01*
X-310867996Y207739456D01*
G37*
G36*
X-309104640Y208312405D02*
X-309017585Y208295089D01*
X-308880912Y208238477D01*
X-308880911Y208238476D01*
X-308757906Y208156287D01*
X-308653306Y208051687D01*
X-308653304Y208051684D01*
X-308571116Y207928681D01*
X-308514504Y207792008D01*
X-308506347Y207751000D01*
X-308485644Y207646918D01*
X-308485644Y207498980D01*
X-308489671Y207478735D01*
X-308514504Y207353890D01*
X-308571116Y207217217D01*
X-308571117Y207217216D01*
X-308653306Y207094211D01*
X-308757906Y206989611D01*
X-308757909Y206989609D01*
X-308880912Y206907421D01*
X-309017585Y206850809D01*
X-309104640Y206833493D01*
X-309162675Y206821949D01*
X-309310613Y206821949D01*
X-309368648Y206833493D01*
X-309455703Y206850809D01*
X-309592376Y206907421D01*
X-309715379Y206989609D01*
X-309715382Y206989611D01*
X-309819982Y207094211D01*
X-309902171Y207217216D01*
X-309902172Y207217217D01*
X-309958784Y207353890D01*
X-309983617Y207478735D01*
X-309987644Y207498980D01*
X-309987644Y207646918D01*
X-309966941Y207751000D01*
X-309958784Y207792008D01*
X-309902172Y207928681D01*
X-309819984Y208051684D01*
X-309819982Y208051687D01*
X-309715382Y208156287D01*
X-309592377Y208238476D01*
X-309592376Y208238477D01*
X-309455703Y208295089D01*
X-309368648Y208312405D01*
X-309310613Y208323949D01*
X-309162675Y208323949D01*
X-309104640Y208312405D01*
X-309104640Y208312405D01*
G37*
G36*
X-312631352Y208312405D02*
X-312544297Y208295089D01*
X-312407624Y208238477D01*
X-312407623Y208238476D01*
X-312284618Y208156287D01*
X-312180018Y208051687D01*
X-312180016Y208051684D01*
X-312097828Y207928681D01*
X-312041216Y207792008D01*
X-312033059Y207751000D01*
X-312012356Y207646918D01*
X-312012356Y207498980D01*
X-312016383Y207478735D01*
X-312041216Y207353890D01*
X-312097828Y207217217D01*
X-312097829Y207217216D01*
X-312180018Y207094211D01*
X-312284618Y206989611D01*
X-312284621Y206989609D01*
X-312407624Y206907421D01*
X-312544297Y206850809D01*
X-312631352Y206833493D01*
X-312689387Y206821949D01*
X-312837325Y206821949D01*
X-312895360Y206833493D01*
X-312982415Y206850809D01*
X-313119088Y206907421D01*
X-313242091Y206989609D01*
X-313242094Y206989611D01*
X-313346694Y207094211D01*
X-313428883Y207217216D01*
X-313428884Y207217217D01*
X-313485496Y207353890D01*
X-313510329Y207478735D01*
X-313514356Y207498980D01*
X-313514356Y207646918D01*
X-313493653Y207751000D01*
X-313485496Y207792008D01*
X-313428884Y207928681D01*
X-313346696Y208051684D01*
X-313346694Y208051687D01*
X-313242094Y208156287D01*
X-313119089Y208238476D01*
X-313119088Y208238477D01*
X-312982415Y208295089D01*
X-312895360Y208312405D01*
X-312837325Y208323949D01*
X-312689387Y208323949D01*
X-312631352Y208312405D01*
X-312631352Y208312405D01*
G37*
G36*
X-323828065Y211947329D02*
X-323798126Y211938247D01*
X-323770531Y211923497D01*
X-323746349Y211903651D01*
X-323726503Y211879469D01*
X-323711753Y211851874D01*
X-323702671Y211821935D01*
X-323699000Y211784660D01*
X-323699000Y207615340D01*
X-323702671Y207578065D01*
X-323711753Y207548126D01*
X-323726503Y207520531D01*
X-323746349Y207496349D01*
X-323770531Y207476503D01*
X-323798126Y207461753D01*
X-323828065Y207452671D01*
X-323865340Y207449000D01*
X-326134660Y207449000D01*
X-326171935Y207452671D01*
X-326201874Y207461753D01*
X-326229469Y207476503D01*
X-326253651Y207496349D01*
X-326273497Y207520531D01*
X-326288247Y207548126D01*
X-326297329Y207578065D01*
X-326301000Y207615340D01*
X-326301000Y211784660D01*
X-326297329Y211821935D01*
X-326288247Y211851874D01*
X-326273497Y211879469D01*
X-326253651Y211903651D01*
X-326229469Y211923497D01*
X-326201874Y211938247D01*
X-326171935Y211947329D01*
X-326134660Y211951000D01*
X-323865340Y211951000D01*
X-323828065Y211947329D01*
X-323828065Y211947329D01*
G37*
G36*
X-296828065Y211947329D02*
X-296798126Y211938247D01*
X-296770531Y211923497D01*
X-296746349Y211903651D01*
X-296726503Y211879469D01*
X-296711753Y211851874D01*
X-296702671Y211821935D01*
X-296699000Y211784660D01*
X-296699000Y207615340D01*
X-296702671Y207578065D01*
X-296711753Y207548126D01*
X-296726503Y207520531D01*
X-296746349Y207496349D01*
X-296770531Y207476503D01*
X-296798126Y207461753D01*
X-296828065Y207452671D01*
X-296865340Y207449000D01*
X-299134660Y207449000D01*
X-299171935Y207452671D01*
X-299201874Y207461753D01*
X-299229469Y207476503D01*
X-299253651Y207496349D01*
X-299273497Y207520531D01*
X-299288247Y207548126D01*
X-299297329Y207578065D01*
X-299301000Y207615340D01*
X-299301000Y211784660D01*
X-299297329Y211821935D01*
X-299288247Y211851874D01*
X-299273497Y211879469D01*
X-299253651Y211903651D01*
X-299229469Y211923497D01*
X-299201874Y211938247D01*
X-299171935Y211947329D01*
X-299134660Y211951000D01*
X-296865340Y211951000D01*
X-296828065Y211947329D01*
X-296828065Y211947329D01*
G37*
G36*
X-278693435Y209920611D02*
X-278502166Y209841385D01*
X-278330024Y209726363D01*
X-278183637Y209579976D01*
X-278068615Y209407834D01*
X-277989389Y209216565D01*
X-277949000Y209013516D01*
X-277949000Y208806484D01*
X-277989389Y208603435D01*
X-278068615Y208412166D01*
X-278183637Y208240024D01*
X-278330024Y208093637D01*
X-278502166Y207978615D01*
X-278693435Y207899389D01*
X-278896484Y207859000D01*
X-279103516Y207859000D01*
X-279306565Y207899389D01*
X-279497834Y207978615D01*
X-279669976Y208093637D01*
X-279816363Y208240024D01*
X-279931385Y208412166D01*
X-280010611Y208603435D01*
X-280051000Y208806484D01*
X-280051000Y209013516D01*
X-280010611Y209216565D01*
X-279931385Y209407834D01*
X-279816363Y209579976D01*
X-279669976Y209726363D01*
X-279497834Y209841385D01*
X-279306565Y209920611D01*
X-279103516Y209961000D01*
X-278896484Y209961000D01*
X-278693435Y209920611D01*
X-278693435Y209920611D01*
G37*
G36*
X-308014826Y209812405D02*
X-307927771Y209795089D01*
X-307791098Y209738477D01*
X-307669751Y209657395D01*
X-307668092Y209656287D01*
X-307563492Y209551687D01*
X-307563490Y209551684D01*
X-307481302Y209428681D01*
X-307424690Y209292008D01*
X-307395830Y209146916D01*
X-307395830Y208998982D01*
X-307424690Y208853890D01*
X-307481302Y208717217D01*
X-307481303Y208717216D01*
X-307563492Y208594211D01*
X-307668092Y208489611D01*
X-307668095Y208489609D01*
X-307791098Y208407421D01*
X-307927771Y208350809D01*
X-308014826Y208333493D01*
X-308072861Y208321949D01*
X-308220799Y208321949D01*
X-308278834Y208333493D01*
X-308365889Y208350809D01*
X-308502562Y208407421D01*
X-308625565Y208489609D01*
X-308625568Y208489611D01*
X-308730168Y208594211D01*
X-308812357Y208717216D01*
X-308812358Y208717217D01*
X-308868970Y208853890D01*
X-308897830Y208998982D01*
X-308897830Y209146916D01*
X-308868970Y209292008D01*
X-308812358Y209428681D01*
X-308730170Y209551684D01*
X-308730168Y209551687D01*
X-308625568Y209656287D01*
X-308623909Y209657395D01*
X-308502562Y209738477D01*
X-308365889Y209795089D01*
X-308278834Y209812405D01*
X-308220799Y209823949D01*
X-308072861Y209823949D01*
X-308014826Y209812405D01*
X-308014826Y209812405D01*
G37*
G36*
X-313721166Y209812405D02*
X-313634111Y209795089D01*
X-313497438Y209738477D01*
X-313376091Y209657395D01*
X-313374432Y209656287D01*
X-313269832Y209551687D01*
X-313269830Y209551684D01*
X-313187642Y209428681D01*
X-313131030Y209292008D01*
X-313102170Y209146916D01*
X-313102170Y208998982D01*
X-313131030Y208853890D01*
X-313187642Y208717217D01*
X-313187643Y208717216D01*
X-313269832Y208594211D01*
X-313374432Y208489611D01*
X-313374435Y208489609D01*
X-313497438Y208407421D01*
X-313634111Y208350809D01*
X-313721166Y208333493D01*
X-313779201Y208321949D01*
X-313927139Y208321949D01*
X-313985174Y208333493D01*
X-314072229Y208350809D01*
X-314208902Y208407421D01*
X-314331905Y208489609D01*
X-314331908Y208489611D01*
X-314436508Y208594211D01*
X-314518697Y208717216D01*
X-314518698Y208717217D01*
X-314575310Y208853890D01*
X-314604170Y208998982D01*
X-314604170Y209146916D01*
X-314575310Y209292008D01*
X-314518698Y209428681D01*
X-314436510Y209551684D01*
X-314436508Y209551687D01*
X-314331908Y209656287D01*
X-314330249Y209657395D01*
X-314208902Y209738477D01*
X-314072229Y209795089D01*
X-313985174Y209812405D01*
X-313927139Y209823949D01*
X-313779201Y209823949D01*
X-313721166Y209812405D01*
X-313721166Y209812405D01*
G37*
G36*
X-241949000Y209859000D02*
X-246051000Y209859000D01*
X-246051000Y213961000D01*
X-241949000Y213961000D01*
X-241949000Y209859000D01*
X-241949000Y209859000D01*
G37*
G36*
X-307923396Y211663614D02*
X-307783994Y211605872D01*
X-307658531Y211522040D01*
X-307551841Y211415350D01*
X-307468009Y211289887D01*
X-307410267Y211150485D01*
X-307380830Y211002496D01*
X-307380830Y210851606D01*
X-307410267Y210703617D01*
X-307468009Y210564215D01*
X-307551841Y210438752D01*
X-307658531Y210332062D01*
X-307783994Y210248230D01*
X-307923396Y210190488D01*
X-308071385Y210161051D01*
X-308222275Y210161051D01*
X-308370264Y210190488D01*
X-308509666Y210248230D01*
X-308635129Y210332062D01*
X-308741819Y210438752D01*
X-308825651Y210564215D01*
X-308883393Y210703617D01*
X-308912830Y210851606D01*
X-308912830Y211002496D01*
X-308883393Y211150485D01*
X-308825651Y211289887D01*
X-308741819Y211415350D01*
X-308635129Y211522040D01*
X-308509666Y211605872D01*
X-308370264Y211663614D01*
X-308222275Y211693051D01*
X-308071385Y211693051D01*
X-307923396Y211663614D01*
X-307923396Y211663614D01*
G37*
G36*
X-313721166Y211666507D02*
X-313634111Y211649191D01*
X-313497438Y211592579D01*
X-313497437Y211592578D01*
X-313374432Y211510389D01*
X-313269832Y211405789D01*
X-313269830Y211405786D01*
X-313187642Y211282783D01*
X-313131030Y211146110D01*
X-313113714Y211059055D01*
X-313102170Y211001020D01*
X-313102170Y210853082D01*
X-313102464Y210851606D01*
X-313131030Y210707992D01*
X-313187642Y210571319D01*
X-313268723Y210449972D01*
X-313269832Y210448313D01*
X-313374432Y210343713D01*
X-313374435Y210343711D01*
X-313497438Y210261523D01*
X-313634111Y210204911D01*
X-313706622Y210190488D01*
X-313779201Y210176051D01*
X-313927139Y210176051D01*
X-313999718Y210190488D01*
X-314072229Y210204911D01*
X-314208902Y210261523D01*
X-314331905Y210343711D01*
X-314331908Y210343713D01*
X-314436508Y210448313D01*
X-314437616Y210449972D01*
X-314518698Y210571319D01*
X-314575310Y210707992D01*
X-314603876Y210851606D01*
X-314604170Y210853082D01*
X-314604170Y211001020D01*
X-314592626Y211059055D01*
X-314575310Y211146110D01*
X-314518698Y211282783D01*
X-314436510Y211405786D01*
X-314436508Y211405789D01*
X-314331908Y211510389D01*
X-314208903Y211592578D01*
X-314208902Y211592579D01*
X-314072229Y211649191D01*
X-313985174Y211666507D01*
X-313927139Y211678051D01*
X-313779201Y211678051D01*
X-313721166Y211666507D01*
X-313721166Y211666507D01*
G37*
G36*
X-289693435Y212920611D02*
X-289502166Y212841385D01*
X-289330024Y212726363D01*
X-289183637Y212579976D01*
X-289068615Y212407834D01*
X-288989389Y212216565D01*
X-288949000Y212013516D01*
X-288949000Y211806484D01*
X-288989389Y211603435D01*
X-289068615Y211412166D01*
X-289183637Y211240024D01*
X-289330024Y211093637D01*
X-289502166Y210978615D01*
X-289693435Y210899389D01*
X-289896484Y210859000D01*
X-290103516Y210859000D01*
X-290306565Y210899389D01*
X-290497834Y210978615D01*
X-290669976Y211093637D01*
X-290816363Y211240024D01*
X-290931385Y211412166D01*
X-291010611Y211603435D01*
X-291051000Y211806484D01*
X-291051000Y212013516D01*
X-291010611Y212216565D01*
X-290931385Y212407834D01*
X-290816363Y212579976D01*
X-290669976Y212726363D01*
X-290497834Y212841385D01*
X-290306565Y212920611D01*
X-290103516Y212961000D01*
X-289896484Y212961000D01*
X-289693435Y212920611D01*
X-289693435Y212920611D01*
G37*
G36*
X-309104640Y213166507D02*
X-309017585Y213149191D01*
X-308880912Y213092579D01*
X-308785981Y213029148D01*
X-308757906Y213010389D01*
X-308653306Y212905789D01*
X-308653304Y212905786D01*
X-308571116Y212782783D01*
X-308514504Y212646110D01*
X-308501349Y212579973D01*
X-308489670Y212521262D01*
X-308485644Y212501018D01*
X-308485644Y212353084D01*
X-308514504Y212207992D01*
X-308571116Y212071319D01*
X-308571117Y212071318D01*
X-308653306Y211948313D01*
X-308757906Y211843713D01*
X-308757909Y211843711D01*
X-308880912Y211761523D01*
X-309017585Y211704911D01*
X-309104640Y211687595D01*
X-309162675Y211676051D01*
X-309310613Y211676051D01*
X-309368648Y211687595D01*
X-309455703Y211704911D01*
X-309592376Y211761523D01*
X-309715379Y211843711D01*
X-309715382Y211843713D01*
X-309819982Y211948313D01*
X-309902171Y212071318D01*
X-309902172Y212071319D01*
X-309958784Y212207992D01*
X-309987644Y212353084D01*
X-309987644Y212501018D01*
X-309983617Y212521262D01*
X-309971939Y212579973D01*
X-309958784Y212646110D01*
X-309902172Y212782783D01*
X-309819984Y212905786D01*
X-309819982Y212905789D01*
X-309715382Y213010389D01*
X-309687307Y213029148D01*
X-309592376Y213092579D01*
X-309455703Y213149191D01*
X-309368648Y213166507D01*
X-309310613Y213178051D01*
X-309162675Y213178051D01*
X-309104640Y213166507D01*
X-309104640Y213166507D01*
G37*
G36*
X-310867996Y213739456D02*
X-310780941Y213722140D01*
X-310644268Y213665528D01*
X-310644267Y213665527D01*
X-310521262Y213583338D01*
X-310416662Y213478738D01*
X-310416660Y213478735D01*
X-310334472Y213355732D01*
X-310277860Y213219059D01*
X-310263963Y213149191D01*
X-310249000Y213073969D01*
X-310249000Y212926031D01*
X-310253027Y212905786D01*
X-310277860Y212780941D01*
X-310334472Y212644268D01*
X-310334473Y212644267D01*
X-310416662Y212521262D01*
X-310521262Y212416662D01*
X-310521265Y212416660D01*
X-310644268Y212334472D01*
X-310780941Y212277860D01*
X-310867996Y212260544D01*
X-310926031Y212249000D01*
X-311073969Y212249000D01*
X-311132004Y212260544D01*
X-311219059Y212277860D01*
X-311355732Y212334472D01*
X-311478735Y212416660D01*
X-311478738Y212416662D01*
X-311583338Y212521262D01*
X-311665527Y212644267D01*
X-311665528Y212644268D01*
X-311722140Y212780941D01*
X-311746973Y212905786D01*
X-311751000Y212926031D01*
X-311751000Y213073969D01*
X-311736037Y213149191D01*
X-311722140Y213219059D01*
X-311665528Y213355732D01*
X-311583340Y213478735D01*
X-311583338Y213478738D01*
X-311478738Y213583338D01*
X-311355733Y213665527D01*
X-311355732Y213665528D01*
X-311219059Y213722140D01*
X-311132004Y213739456D01*
X-311073969Y213751000D01*
X-310926031Y213751000D01*
X-310867996Y213739456D01*
X-310867996Y213739456D01*
G37*
G36*
X-299386938Y214831819D02*
X-299352023Y214821227D01*
X-299319835Y214804022D01*
X-299291627Y214780873D01*
X-299268478Y214752665D01*
X-299251273Y214720477D01*
X-299240681Y214685562D01*
X-299236500Y214643105D01*
X-299236500Y213176895D01*
X-299240681Y213134438D01*
X-299251273Y213099523D01*
X-299268478Y213067335D01*
X-299291627Y213039127D01*
X-299319835Y213015978D01*
X-299352023Y212998773D01*
X-299386938Y212988181D01*
X-299429395Y212984000D01*
X-300570605Y212984000D01*
X-300613062Y212988181D01*
X-300647977Y212998773D01*
X-300680165Y213015978D01*
X-300708373Y213039127D01*
X-300731522Y213067335D01*
X-300748727Y213099523D01*
X-300759319Y213134438D01*
X-300763500Y213176895D01*
X-300763500Y214643105D01*
X-300759319Y214685562D01*
X-300748727Y214720477D01*
X-300731522Y214752665D01*
X-300708373Y214780873D01*
X-300680165Y214804022D01*
X-300647977Y214821227D01*
X-300613062Y214831819D01*
X-300570605Y214836000D01*
X-299429395Y214836000D01*
X-299386938Y214831819D01*
X-299386938Y214831819D01*
G37*
G36*
X-302361938Y214831819D02*
X-302327023Y214821227D01*
X-302294835Y214804022D01*
X-302266627Y214780873D01*
X-302243478Y214752665D01*
X-302226273Y214720477D01*
X-302215681Y214685562D01*
X-302211500Y214643105D01*
X-302211500Y213176895D01*
X-302215681Y213134438D01*
X-302226273Y213099523D01*
X-302243478Y213067335D01*
X-302266627Y213039127D01*
X-302294835Y213015978D01*
X-302327023Y212998773D01*
X-302361938Y212988181D01*
X-302404395Y212984000D01*
X-303545605Y212984000D01*
X-303588062Y212988181D01*
X-303622977Y212998773D01*
X-303655165Y213015978D01*
X-303683373Y213039127D01*
X-303706522Y213067335D01*
X-303723727Y213099523D01*
X-303734319Y213134438D01*
X-303738500Y213176895D01*
X-303738500Y214643105D01*
X-303734319Y214685562D01*
X-303723727Y214720477D01*
X-303706522Y214752665D01*
X-303683373Y214780873D01*
X-303655165Y214804022D01*
X-303622977Y214821227D01*
X-303588062Y214831819D01*
X-303545605Y214836000D01*
X-302404395Y214836000D01*
X-302361938Y214831819D01*
X-302361938Y214831819D01*
G37*
G36*
X-323899438Y214921819D02*
X-323864523Y214911227D01*
X-323832335Y214894022D01*
X-323804127Y214870873D01*
X-323780978Y214842665D01*
X-323763773Y214810477D01*
X-323753181Y214775562D01*
X-323749000Y214733105D01*
X-323749000Y213266895D01*
X-323753181Y213224438D01*
X-323763773Y213189523D01*
X-323780978Y213157335D01*
X-323804127Y213129127D01*
X-323832335Y213105978D01*
X-323864523Y213088773D01*
X-323899438Y213078181D01*
X-323941895Y213074000D01*
X-325083105Y213074000D01*
X-325125562Y213078181D01*
X-325160477Y213088773D01*
X-325192665Y213105978D01*
X-325220873Y213129127D01*
X-325244022Y213157335D01*
X-325261227Y213189523D01*
X-325271819Y213224438D01*
X-325276000Y213266895D01*
X-325276000Y214733105D01*
X-325271819Y214775562D01*
X-325261227Y214810477D01*
X-325244022Y214842665D01*
X-325220873Y214870873D01*
X-325192665Y214894022D01*
X-325160477Y214911227D01*
X-325125562Y214921819D01*
X-325083105Y214926000D01*
X-323941895Y214926000D01*
X-323899438Y214921819D01*
X-323899438Y214921819D01*
G37*
G36*
X-326874438Y214921819D02*
X-326839523Y214911227D01*
X-326807335Y214894022D01*
X-326779127Y214870873D01*
X-326755978Y214842665D01*
X-326738773Y214810477D01*
X-326728181Y214775562D01*
X-326724000Y214733105D01*
X-326724000Y213266895D01*
X-326728181Y213224438D01*
X-326738773Y213189523D01*
X-326755978Y213157335D01*
X-326779127Y213129127D01*
X-326807335Y213105978D01*
X-326839523Y213088773D01*
X-326874438Y213078181D01*
X-326916895Y213074000D01*
X-328058105Y213074000D01*
X-328100562Y213078181D01*
X-328135477Y213088773D01*
X-328167665Y213105978D01*
X-328195873Y213129127D01*
X-328219022Y213157335D01*
X-328236227Y213189523D01*
X-328246819Y213224438D01*
X-328251000Y213266895D01*
X-328251000Y214733105D01*
X-328246819Y214775562D01*
X-328236227Y214810477D01*
X-328219022Y214842665D01*
X-328195873Y214870873D01*
X-328167665Y214894022D01*
X-328135477Y214911227D01*
X-328100562Y214921819D01*
X-328058105Y214926000D01*
X-326916895Y214926000D01*
X-326874438Y214921819D01*
X-326874438Y214921819D01*
G37*
G36*
X-279239438Y215791819D02*
X-279204523Y215781227D01*
X-279172335Y215764022D01*
X-279144127Y215740873D01*
X-279120978Y215712665D01*
X-279103773Y215680477D01*
X-279093181Y215645562D01*
X-279089000Y215603105D01*
X-279089000Y214136895D01*
X-279093181Y214094438D01*
X-279103773Y214059523D01*
X-279120978Y214027335D01*
X-279144127Y213999127D01*
X-279172335Y213975978D01*
X-279204523Y213958773D01*
X-279239438Y213948181D01*
X-279281895Y213944000D01*
X-280423105Y213944000D01*
X-280465562Y213948181D01*
X-280500477Y213958773D01*
X-280532665Y213975978D01*
X-280560873Y213999127D01*
X-280584022Y214027335D01*
X-280601227Y214059523D01*
X-280611819Y214094438D01*
X-280616000Y214136895D01*
X-280616000Y215603105D01*
X-280611819Y215645562D01*
X-280601227Y215680477D01*
X-280584022Y215712665D01*
X-280560873Y215740873D01*
X-280532665Y215764022D01*
X-280500477Y215781227D01*
X-280465562Y215791819D01*
X-280423105Y215796000D01*
X-279281895Y215796000D01*
X-279239438Y215791819D01*
X-279239438Y215791819D01*
G37*
G36*
X-282214438Y215791819D02*
X-282179523Y215781227D01*
X-282147335Y215764022D01*
X-282119127Y215740873D01*
X-282095978Y215712665D01*
X-282078773Y215680477D01*
X-282068181Y215645562D01*
X-282064000Y215603105D01*
X-282064000Y214136895D01*
X-282068181Y214094438D01*
X-282078773Y214059523D01*
X-282095978Y214027335D01*
X-282119127Y213999127D01*
X-282147335Y213975978D01*
X-282179523Y213958773D01*
X-282214438Y213948181D01*
X-282256895Y213944000D01*
X-283398105Y213944000D01*
X-283440562Y213948181D01*
X-283475477Y213958773D01*
X-283507665Y213975978D01*
X-283535873Y213999127D01*
X-283559022Y214027335D01*
X-283576227Y214059523D01*
X-283586819Y214094438D01*
X-283591000Y214136895D01*
X-283591000Y215603105D01*
X-283586819Y215645562D01*
X-283576227Y215680477D01*
X-283559022Y215712665D01*
X-283535873Y215740873D01*
X-283507665Y215764022D01*
X-283475477Y215781227D01*
X-283440562Y215791819D01*
X-283398105Y215796000D01*
X-282256895Y215796000D01*
X-282214438Y215791819D01*
X-282214438Y215791819D01*
G37*
G36*
X-276984438Y215791819D02*
X-276949523Y215781227D01*
X-276917335Y215764022D01*
X-276889127Y215740873D01*
X-276865978Y215712665D01*
X-276848773Y215680477D01*
X-276838181Y215645562D01*
X-276834000Y215603105D01*
X-276834000Y214136895D01*
X-276838181Y214094438D01*
X-276848773Y214059523D01*
X-276865978Y214027335D01*
X-276889127Y213999127D01*
X-276917335Y213975978D01*
X-276949523Y213958773D01*
X-276984438Y213948181D01*
X-277026895Y213944000D01*
X-278168105Y213944000D01*
X-278210562Y213948181D01*
X-278245477Y213958773D01*
X-278277665Y213975978D01*
X-278305873Y213999127D01*
X-278329022Y214027335D01*
X-278346227Y214059523D01*
X-278356819Y214094438D01*
X-278361000Y214136895D01*
X-278361000Y215603105D01*
X-278356819Y215645562D01*
X-278346227Y215680477D01*
X-278329022Y215712665D01*
X-278305873Y215740873D01*
X-278277665Y215764022D01*
X-278245477Y215781227D01*
X-278210562Y215791819D01*
X-278168105Y215796000D01*
X-277026895Y215796000D01*
X-276984438Y215791819D01*
X-276984438Y215791819D01*
G37*
G36*
X-274009438Y215791819D02*
X-273974523Y215781227D01*
X-273942335Y215764022D01*
X-273914127Y215740873D01*
X-273890978Y215712665D01*
X-273873773Y215680477D01*
X-273863181Y215645562D01*
X-273859000Y215603105D01*
X-273859000Y214136895D01*
X-273863181Y214094438D01*
X-273873773Y214059523D01*
X-273890978Y214027335D01*
X-273914127Y213999127D01*
X-273942335Y213975978D01*
X-273974523Y213958773D01*
X-274009438Y213948181D01*
X-274051895Y213944000D01*
X-275193105Y213944000D01*
X-275235562Y213948181D01*
X-275270477Y213958773D01*
X-275302665Y213975978D01*
X-275330873Y213999127D01*
X-275354022Y214027335D01*
X-275371227Y214059523D01*
X-275381819Y214094438D01*
X-275386000Y214136895D01*
X-275386000Y215603105D01*
X-275381819Y215645562D01*
X-275371227Y215680477D01*
X-275354022Y215712665D01*
X-275330873Y215740873D01*
X-275302665Y215764022D01*
X-275270477Y215781227D01*
X-275235562Y215791819D01*
X-275193105Y215796000D01*
X-274051895Y215796000D01*
X-274009438Y215791819D01*
X-274009438Y215791819D01*
G37*
G36*
X-290399438Y215831819D02*
X-290364523Y215821227D01*
X-290332335Y215804022D01*
X-290304127Y215780873D01*
X-290280978Y215752665D01*
X-290263773Y215720477D01*
X-290253181Y215685562D01*
X-290249000Y215643105D01*
X-290249000Y214176895D01*
X-290253181Y214134438D01*
X-290263773Y214099523D01*
X-290280978Y214067335D01*
X-290304127Y214039127D01*
X-290332335Y214015978D01*
X-290364523Y213998773D01*
X-290399438Y213988181D01*
X-290441895Y213984000D01*
X-291583105Y213984000D01*
X-291625562Y213988181D01*
X-291660477Y213998773D01*
X-291692665Y214015978D01*
X-291720873Y214039127D01*
X-291744022Y214067335D01*
X-291761227Y214099523D01*
X-291771819Y214134438D01*
X-291776000Y214176895D01*
X-291776000Y215643105D01*
X-291771819Y215685562D01*
X-291761227Y215720477D01*
X-291744022Y215752665D01*
X-291720873Y215780873D01*
X-291692665Y215804022D01*
X-291660477Y215821227D01*
X-291625562Y215831819D01*
X-291583105Y215836000D01*
X-290441895Y215836000D01*
X-290399438Y215831819D01*
X-290399438Y215831819D01*
G37*
G36*
X-293374438Y215831819D02*
X-293339523Y215821227D01*
X-293307335Y215804022D01*
X-293279127Y215780873D01*
X-293255978Y215752665D01*
X-293238773Y215720477D01*
X-293228181Y215685562D01*
X-293224000Y215643105D01*
X-293224000Y214176895D01*
X-293228181Y214134438D01*
X-293238773Y214099523D01*
X-293255978Y214067335D01*
X-293279127Y214039127D01*
X-293307335Y214015978D01*
X-293339523Y213998773D01*
X-293374438Y213988181D01*
X-293416895Y213984000D01*
X-294558105Y213984000D01*
X-294600562Y213988181D01*
X-294635477Y213998773D01*
X-294667665Y214015978D01*
X-294695873Y214039127D01*
X-294719022Y214067335D01*
X-294736227Y214099523D01*
X-294746819Y214134438D01*
X-294751000Y214176895D01*
X-294751000Y215643105D01*
X-294746819Y215685562D01*
X-294736227Y215720477D01*
X-294719022Y215752665D01*
X-294695873Y215780873D01*
X-294667665Y215804022D01*
X-294635477Y215821227D01*
X-294600562Y215831819D01*
X-294558105Y215836000D01*
X-293416895Y215836000D01*
X-293374438Y215831819D01*
X-293374438Y215831819D01*
G37*
G36*
X-288159312Y215832188D02*
X-288124397Y215821596D01*
X-288092209Y215804391D01*
X-288064001Y215781242D01*
X-288040852Y215753034D01*
X-288023647Y215720846D01*
X-288013055Y215685931D01*
X-288008874Y215643474D01*
X-288008874Y214177264D01*
X-288013055Y214134807D01*
X-288023647Y214099892D01*
X-288040852Y214067704D01*
X-288064001Y214039496D01*
X-288092209Y214016347D01*
X-288124397Y213999142D01*
X-288159312Y213988550D01*
X-288201769Y213984369D01*
X-289342979Y213984369D01*
X-289385436Y213988550D01*
X-289420351Y213999142D01*
X-289452539Y214016347D01*
X-289480747Y214039496D01*
X-289503896Y214067704D01*
X-289521101Y214099892D01*
X-289531693Y214134807D01*
X-289535874Y214177264D01*
X-289535874Y215643474D01*
X-289531693Y215685931D01*
X-289521101Y215720846D01*
X-289503896Y215753034D01*
X-289480747Y215781242D01*
X-289452539Y215804391D01*
X-289420351Y215821596D01*
X-289385436Y215832188D01*
X-289342979Y215836369D01*
X-288201769Y215836369D01*
X-288159312Y215832188D01*
X-288159312Y215832188D01*
G37*
G36*
X-285184312Y215832188D02*
X-285149397Y215821596D01*
X-285117209Y215804391D01*
X-285089001Y215781242D01*
X-285065852Y215753034D01*
X-285048647Y215720846D01*
X-285038055Y215685931D01*
X-285033874Y215643474D01*
X-285033874Y214177264D01*
X-285038055Y214134807D01*
X-285048647Y214099892D01*
X-285065852Y214067704D01*
X-285089001Y214039496D01*
X-285117209Y214016347D01*
X-285149397Y213999142D01*
X-285184312Y213988550D01*
X-285226769Y213984369D01*
X-286367979Y213984369D01*
X-286410436Y213988550D01*
X-286445351Y213999142D01*
X-286477539Y214016347D01*
X-286505747Y214039496D01*
X-286528896Y214067704D01*
X-286546101Y214099892D01*
X-286556693Y214134807D01*
X-286560874Y214177264D01*
X-286560874Y215643474D01*
X-286556693Y215685931D01*
X-286546101Y215720846D01*
X-286528896Y215753034D01*
X-286505747Y215781242D01*
X-286477539Y215804391D01*
X-286445351Y215821596D01*
X-286410436Y215832188D01*
X-286367979Y215836369D01*
X-285226769Y215836369D01*
X-285184312Y215832188D01*
X-285184312Y215832188D01*
G37*
G36*
X-320088160Y216694319D02*
X-320053245Y216683727D01*
X-320021057Y216666522D01*
X-319992849Y216643373D01*
X-319969700Y216615165D01*
X-319952496Y216582978D01*
X-319951478Y216579624D01*
X-319942100Y216556985D01*
X-319928486Y216536610D01*
X-319911159Y216519284D01*
X-319890784Y216505670D01*
X-319868145Y216496293D01*
X-319844111Y216491513D01*
X-319819607Y216491513D01*
X-319795574Y216496294D01*
X-319772935Y216505672D01*
X-319752560Y216519286D01*
X-319735234Y216536613D01*
X-319721620Y216556988D01*
X-319712244Y216579624D01*
X-319711226Y216582978D01*
X-319694022Y216615165D01*
X-319670873Y216643373D01*
X-319642665Y216666522D01*
X-319610477Y216683727D01*
X-319575562Y216694319D01*
X-319533105Y216698500D01*
X-318066895Y216698500D01*
X-318024438Y216694319D01*
X-317989523Y216683727D01*
X-317957335Y216666522D01*
X-317929127Y216643373D01*
X-317905978Y216615165D01*
X-317888773Y216582977D01*
X-317878181Y216548062D01*
X-317874000Y216505605D01*
X-317874000Y215364395D01*
X-317878181Y215321938D01*
X-317888773Y215287023D01*
X-317905978Y215254835D01*
X-317929127Y215226627D01*
X-317957335Y215203478D01*
X-317989523Y215186273D01*
X-318024438Y215175681D01*
X-318066895Y215171500D01*
X-319533105Y215171500D01*
X-319575562Y215175681D01*
X-319610477Y215186273D01*
X-319642665Y215203478D01*
X-319670873Y215226627D01*
X-319694022Y215254835D01*
X-319711226Y215287022D01*
X-319712244Y215290376D01*
X-319721622Y215313015D01*
X-319735236Y215333390D01*
X-319752563Y215350716D01*
X-319772938Y215364330D01*
X-319795577Y215373707D01*
X-319819611Y215378487D01*
X-319844115Y215378487D01*
X-319868148Y215373706D01*
X-319890787Y215364328D01*
X-319911162Y215350714D01*
X-319928488Y215333387D01*
X-319942102Y215313012D01*
X-319951478Y215290376D01*
X-319952496Y215287022D01*
X-319969700Y215254835D01*
X-319992849Y215226627D01*
X-320021057Y215203478D01*
X-320053245Y215186273D01*
X-320088160Y215175681D01*
X-320130617Y215171500D01*
X-321596827Y215171500D01*
X-321639284Y215175681D01*
X-321674199Y215186273D01*
X-321706387Y215203478D01*
X-321734595Y215226627D01*
X-321757744Y215254835D01*
X-321774949Y215287023D01*
X-321785541Y215321938D01*
X-321789722Y215364395D01*
X-321789722Y216505605D01*
X-321785541Y216548062D01*
X-321774949Y216582977D01*
X-321757744Y216615165D01*
X-321734595Y216643373D01*
X-321706387Y216666522D01*
X-321674199Y216683727D01*
X-321639284Y216694319D01*
X-321596827Y216698500D01*
X-320130617Y216698500D01*
X-320088160Y216694319D01*
X-320088160Y216694319D01*
G37*
G36*
X-307719220Y216743302D02*
X-307684305Y216732710D01*
X-307652117Y216715505D01*
X-307623909Y216692356D01*
X-307595019Y216657153D01*
X-307591407Y216651748D01*
X-307574079Y216634421D01*
X-307553704Y216620808D01*
X-307531065Y216611431D01*
X-307507032Y216606651D01*
X-307482527Y216606651D01*
X-307458494Y216611432D01*
X-307435855Y216620810D01*
X-307415481Y216634424D01*
X-307398154Y216651752D01*
X-307394544Y216657155D01*
X-307365655Y216692356D01*
X-307337447Y216715505D01*
X-307305259Y216732710D01*
X-307270344Y216743302D01*
X-307227887Y216747483D01*
X-305761677Y216747483D01*
X-305719220Y216743302D01*
X-305684305Y216732710D01*
X-305652117Y216715505D01*
X-305623909Y216692356D01*
X-305600760Y216664148D01*
X-305583555Y216631960D01*
X-305572963Y216597045D01*
X-305568782Y216554588D01*
X-305568782Y215413378D01*
X-305572963Y215370921D01*
X-305583555Y215336006D01*
X-305600760Y215303818D01*
X-305623909Y215275610D01*
X-305652117Y215252461D01*
X-305684305Y215235256D01*
X-305719220Y215224664D01*
X-305761677Y215220483D01*
X-307227887Y215220483D01*
X-307270344Y215224664D01*
X-307305259Y215235256D01*
X-307337447Y215252461D01*
X-307365655Y215275610D01*
X-307394545Y215310813D01*
X-307398157Y215316218D01*
X-307415485Y215333545D01*
X-307435860Y215347158D01*
X-307458499Y215356535D01*
X-307482532Y215361315D01*
X-307507037Y215361315D01*
X-307531070Y215356534D01*
X-307553709Y215347156D01*
X-307574083Y215333542D01*
X-307591410Y215316214D01*
X-307595020Y215310811D01*
X-307623909Y215275610D01*
X-307652117Y215252461D01*
X-307684305Y215235256D01*
X-307719220Y215224664D01*
X-307761677Y215220483D01*
X-309227887Y215220483D01*
X-309270344Y215224664D01*
X-309305259Y215235256D01*
X-309337447Y215252461D01*
X-309365655Y215275610D01*
X-309388804Y215303818D01*
X-309406009Y215336006D01*
X-309416601Y215370921D01*
X-309420782Y215413378D01*
X-309420782Y216554588D01*
X-309416601Y216597045D01*
X-309406009Y216631960D01*
X-309388804Y216664148D01*
X-309365655Y216692356D01*
X-309337447Y216715505D01*
X-309305259Y216732710D01*
X-309270344Y216743302D01*
X-309227887Y216747483D01*
X-307761677Y216747483D01*
X-307719220Y216743302D01*
X-307719220Y216743302D01*
G37*
G36*
X-265401748Y219472182D02*
X-265401746Y219472181D01*
X-265401745Y219472181D01*
X-265028487Y219317573D01*
X-265028486Y219317572D01*
X-264692561Y219093114D01*
X-264406886Y218807439D01*
X-264406884Y218807436D01*
X-264182427Y218471513D01*
X-264047803Y218146500D01*
X-264027818Y218098252D01*
X-263949000Y217702007D01*
X-263949000Y217297993D01*
X-264006662Y217008105D01*
X-264027819Y216901745D01*
X-264182427Y216528487D01*
X-264247830Y216430605D01*
X-264406886Y216192561D01*
X-264692561Y215906886D01*
X-264692564Y215906884D01*
X-265028487Y215682427D01*
X-265401745Y215527819D01*
X-265401746Y215527819D01*
X-265401748Y215527818D01*
X-265797993Y215449000D01*
X-266202007Y215449000D01*
X-266598252Y215527818D01*
X-266598254Y215527819D01*
X-266598255Y215527819D01*
X-266971513Y215682427D01*
X-267307436Y215906884D01*
X-267307439Y215906886D01*
X-267593114Y216192561D01*
X-267752170Y216430605D01*
X-267817573Y216528487D01*
X-267972181Y216901745D01*
X-267993337Y217008105D01*
X-268051000Y217297993D01*
X-268051000Y217702007D01*
X-267972182Y218098252D01*
X-267952197Y218146500D01*
X-267817573Y218471513D01*
X-267593116Y218807436D01*
X-267593114Y218807439D01*
X-267307439Y219093114D01*
X-266971514Y219317572D01*
X-266971513Y219317573D01*
X-266598255Y219472181D01*
X-266598254Y219472181D01*
X-266598252Y219472182D01*
X-266202007Y219551000D01*
X-265797993Y219551000D01*
X-265401748Y219472182D01*
X-265401748Y219472182D01*
G37*
G36*
X-270401748Y219472182D02*
X-270401746Y219472181D01*
X-270401745Y219472181D01*
X-270028487Y219317573D01*
X-270028486Y219317572D01*
X-269692561Y219093114D01*
X-269406886Y218807439D01*
X-269406884Y218807436D01*
X-269182427Y218471513D01*
X-269047803Y218146500D01*
X-269027818Y218098252D01*
X-268949000Y217702007D01*
X-268949000Y217297993D01*
X-269006662Y217008105D01*
X-269027819Y216901745D01*
X-269182427Y216528487D01*
X-269247830Y216430605D01*
X-269406886Y216192561D01*
X-269692561Y215906886D01*
X-269692564Y215906884D01*
X-270028487Y215682427D01*
X-270401745Y215527819D01*
X-270401746Y215527819D01*
X-270401748Y215527818D01*
X-270797993Y215449000D01*
X-271202007Y215449000D01*
X-271598252Y215527818D01*
X-271598254Y215527819D01*
X-271598255Y215527819D01*
X-271971513Y215682427D01*
X-272307436Y215906884D01*
X-272307439Y215906886D01*
X-272593114Y216192561D01*
X-272752170Y216430605D01*
X-272817573Y216528487D01*
X-272972181Y216901745D01*
X-272993337Y217008105D01*
X-273051000Y217297993D01*
X-273051000Y217702007D01*
X-272972182Y218098252D01*
X-272952197Y218146500D01*
X-272817573Y218471513D01*
X-272593116Y218807436D01*
X-272593114Y218807439D01*
X-272307439Y219093114D01*
X-271971514Y219317572D01*
X-271971513Y219317573D01*
X-271598255Y219472181D01*
X-271598254Y219472181D01*
X-271598252Y219472182D01*
X-271202007Y219551000D01*
X-270797993Y219551000D01*
X-270401748Y219472182D01*
X-270401748Y219472182D01*
G37*
G36*
X-314224438Y217271819D02*
X-314189523Y217261227D01*
X-314157335Y217244022D01*
X-314129127Y217220873D01*
X-314105978Y217192665D01*
X-314088773Y217160477D01*
X-314078181Y217125562D01*
X-314074000Y217083105D01*
X-314074000Y215941895D01*
X-314078181Y215899438D01*
X-314088773Y215864523D01*
X-314105978Y215832335D01*
X-314129127Y215804127D01*
X-314157335Y215780978D01*
X-314189523Y215763773D01*
X-314224438Y215753181D01*
X-314266895Y215749000D01*
X-315733105Y215749000D01*
X-315775562Y215753181D01*
X-315810477Y215763773D01*
X-315842665Y215780978D01*
X-315870873Y215804127D01*
X-315894022Y215832335D01*
X-315911227Y215864523D01*
X-315921819Y215899438D01*
X-315926000Y215941895D01*
X-315926000Y217083105D01*
X-315921819Y217125562D01*
X-315911227Y217160477D01*
X-315894022Y217192665D01*
X-315870873Y217220873D01*
X-315842665Y217244022D01*
X-315810477Y217261227D01*
X-315775562Y217271819D01*
X-315733105Y217276000D01*
X-314266895Y217276000D01*
X-314224438Y217271819D01*
X-314224438Y217271819D01*
G37*
G36*
X-311224438Y217271819D02*
X-311189523Y217261227D01*
X-311157335Y217244022D01*
X-311129127Y217220873D01*
X-311105978Y217192665D01*
X-311088773Y217160477D01*
X-311078181Y217125562D01*
X-311074000Y217083105D01*
X-311074000Y215941895D01*
X-311078181Y215899438D01*
X-311088773Y215864523D01*
X-311105978Y215832335D01*
X-311129127Y215804127D01*
X-311157335Y215780978D01*
X-311189523Y215763773D01*
X-311224438Y215753181D01*
X-311266895Y215749000D01*
X-312733105Y215749000D01*
X-312775562Y215753181D01*
X-312810477Y215763773D01*
X-312842665Y215780978D01*
X-312870873Y215804127D01*
X-312894022Y215832335D01*
X-312911227Y215864523D01*
X-312921819Y215899438D01*
X-312926000Y215941895D01*
X-312926000Y217083105D01*
X-312921819Y217125562D01*
X-312911227Y217160477D01*
X-312894022Y217192665D01*
X-312870873Y217220873D01*
X-312842665Y217244022D01*
X-312810477Y217261227D01*
X-312775562Y217271819D01*
X-312733105Y217276000D01*
X-311266895Y217276000D01*
X-311224438Y217271819D01*
X-311224438Y217271819D01*
G37*
G36*
X-325693435Y218010611D02*
X-325502166Y217931385D01*
X-325330024Y217816363D01*
X-325183637Y217669976D01*
X-325068615Y217497834D01*
X-324989389Y217306565D01*
X-324949000Y217103516D01*
X-324949000Y216896484D01*
X-324989389Y216693435D01*
X-325068615Y216502166D01*
X-325183637Y216330024D01*
X-325330024Y216183637D01*
X-325502166Y216068615D01*
X-325693435Y215989389D01*
X-325896484Y215949000D01*
X-326103516Y215949000D01*
X-326306565Y215989389D01*
X-326497834Y216068615D01*
X-326669976Y216183637D01*
X-326816363Y216330024D01*
X-326931385Y216502166D01*
X-327010611Y216693435D01*
X-327051000Y216896484D01*
X-327051000Y217103516D01*
X-327010611Y217306565D01*
X-326931385Y217497834D01*
X-326816363Y217669976D01*
X-326669976Y217816363D01*
X-326497834Y217931385D01*
X-326306565Y218010611D01*
X-326103516Y218051000D01*
X-325896484Y218051000D01*
X-325693435Y218010611D01*
X-325693435Y218010611D01*
G37*
G36*
X-300693435Y218010611D02*
X-300502166Y217931385D01*
X-300330024Y217816363D01*
X-300183637Y217669976D01*
X-300068615Y217497834D01*
X-299989389Y217306565D01*
X-299949000Y217103516D01*
X-299949000Y216896484D01*
X-299989389Y216693435D01*
X-300068615Y216502166D01*
X-300183637Y216330024D01*
X-300330024Y216183637D01*
X-300502166Y216068615D01*
X-300693435Y215989389D01*
X-300896484Y215949000D01*
X-301103516Y215949000D01*
X-301306565Y215989389D01*
X-301497834Y216068615D01*
X-301669976Y216183637D01*
X-301816363Y216330024D01*
X-301931385Y216502166D01*
X-302010611Y216693435D01*
X-302051000Y216896484D01*
X-302051000Y217103516D01*
X-302010611Y217306565D01*
X-301931385Y217497834D01*
X-301816363Y217669976D01*
X-301669976Y217816363D01*
X-301497834Y217931385D01*
X-301306565Y218010611D01*
X-301103516Y218051000D01*
X-300896484Y218051000D01*
X-300693435Y218010611D01*
X-300693435Y218010611D01*
G37*
G36*
X-276174000Y217019000D02*
X-277826000Y217019000D01*
X-277826000Y217721000D01*
X-276174000Y217721000D01*
X-276174000Y217019000D01*
X-276174000Y217019000D01*
G37*
G36*
X-281574000Y217019000D02*
X-283226000Y217019000D01*
X-283226000Y217721000D01*
X-281574000Y217721000D01*
X-281574000Y217019000D01*
X-281574000Y217019000D01*
G37*
G36*
X-287174000Y217289000D02*
X-288826000Y217289000D01*
X-288826000Y217991000D01*
X-287174000Y217991000D01*
X-287174000Y217289000D01*
X-287174000Y217289000D01*
G37*
G36*
X-292574000Y217289000D02*
X-294226000Y217289000D01*
X-294226000Y217991000D01*
X-292574000Y217991000D01*
X-292574000Y217289000D01*
X-292574000Y217289000D01*
G37*
G36*
X-320088160Y219669319D02*
X-320053245Y219658727D01*
X-320021057Y219641522D01*
X-319992849Y219618373D01*
X-319969700Y219590165D01*
X-319952496Y219557978D01*
X-319951478Y219554624D01*
X-319942100Y219531985D01*
X-319928486Y219511610D01*
X-319911159Y219494284D01*
X-319890784Y219480670D01*
X-319868145Y219471293D01*
X-319844111Y219466513D01*
X-319819607Y219466513D01*
X-319795574Y219471294D01*
X-319772935Y219480672D01*
X-319752560Y219494286D01*
X-319735234Y219511613D01*
X-319721620Y219531988D01*
X-319712244Y219554624D01*
X-319711226Y219557978D01*
X-319694022Y219590165D01*
X-319670873Y219618373D01*
X-319642665Y219641522D01*
X-319610477Y219658727D01*
X-319575562Y219669319D01*
X-319533105Y219673500D01*
X-318066895Y219673500D01*
X-318024438Y219669319D01*
X-317989523Y219658727D01*
X-317957335Y219641522D01*
X-317929127Y219618373D01*
X-317905978Y219590165D01*
X-317888773Y219557977D01*
X-317878181Y219523062D01*
X-317874000Y219480605D01*
X-317874000Y218339395D01*
X-317878181Y218296938D01*
X-317888773Y218262023D01*
X-317905978Y218229835D01*
X-317929127Y218201627D01*
X-317957335Y218178478D01*
X-317989523Y218161273D01*
X-318024438Y218150681D01*
X-318066895Y218146500D01*
X-319533105Y218146500D01*
X-319575562Y218150681D01*
X-319610477Y218161273D01*
X-319642665Y218178478D01*
X-319670873Y218201627D01*
X-319694022Y218229835D01*
X-319711226Y218262022D01*
X-319712244Y218265376D01*
X-319721622Y218288015D01*
X-319735236Y218308390D01*
X-319752563Y218325716D01*
X-319772938Y218339330D01*
X-319795577Y218348707D01*
X-319819611Y218353487D01*
X-319844115Y218353487D01*
X-319868148Y218348706D01*
X-319890787Y218339328D01*
X-319911162Y218325714D01*
X-319928488Y218308387D01*
X-319942102Y218288012D01*
X-319951478Y218265376D01*
X-319952496Y218262022D01*
X-319969700Y218229835D01*
X-319992849Y218201627D01*
X-320021057Y218178478D01*
X-320053245Y218161273D01*
X-320088160Y218150681D01*
X-320130617Y218146500D01*
X-321596827Y218146500D01*
X-321639284Y218150681D01*
X-321674199Y218161273D01*
X-321706387Y218178478D01*
X-321734595Y218201627D01*
X-321757744Y218229835D01*
X-321774949Y218262023D01*
X-321785541Y218296938D01*
X-321789722Y218339395D01*
X-321789722Y219480605D01*
X-321785541Y219523062D01*
X-321774949Y219557977D01*
X-321757744Y219590165D01*
X-321734595Y219618373D01*
X-321706387Y219641522D01*
X-321674199Y219658727D01*
X-321639284Y219669319D01*
X-321596827Y219673500D01*
X-320130617Y219673500D01*
X-320088160Y219669319D01*
X-320088160Y219669319D01*
G37*
G36*
X-307719220Y219718302D02*
X-307684305Y219707710D01*
X-307652117Y219690505D01*
X-307623909Y219667356D01*
X-307595019Y219632153D01*
X-307591407Y219626748D01*
X-307574079Y219609421D01*
X-307553704Y219595808D01*
X-307531065Y219586431D01*
X-307507032Y219581651D01*
X-307482527Y219581651D01*
X-307458494Y219586432D01*
X-307435855Y219595810D01*
X-307415481Y219609424D01*
X-307398154Y219626752D01*
X-307394544Y219632155D01*
X-307365655Y219667356D01*
X-307337447Y219690505D01*
X-307305259Y219707710D01*
X-307270344Y219718302D01*
X-307227887Y219722483D01*
X-305761677Y219722483D01*
X-305719220Y219718302D01*
X-305684305Y219707710D01*
X-305652117Y219690505D01*
X-305623909Y219667356D01*
X-305600760Y219639148D01*
X-305583555Y219606960D01*
X-305572963Y219572045D01*
X-305568782Y219529588D01*
X-305568782Y218388378D01*
X-305572963Y218345921D01*
X-305583555Y218311006D01*
X-305600760Y218278818D01*
X-305623909Y218250610D01*
X-305652117Y218227461D01*
X-305684305Y218210256D01*
X-305719220Y218199664D01*
X-305761677Y218195483D01*
X-307227887Y218195483D01*
X-307270344Y218199664D01*
X-307305259Y218210256D01*
X-307337447Y218227461D01*
X-307365655Y218250610D01*
X-307394545Y218285813D01*
X-307398157Y218291218D01*
X-307415485Y218308545D01*
X-307435860Y218322158D01*
X-307458499Y218331535D01*
X-307482532Y218336315D01*
X-307507037Y218336315D01*
X-307531070Y218331534D01*
X-307553709Y218322156D01*
X-307574083Y218308542D01*
X-307591410Y218291214D01*
X-307595020Y218285811D01*
X-307623909Y218250610D01*
X-307652117Y218227461D01*
X-307684305Y218210256D01*
X-307719220Y218199664D01*
X-307761677Y218195483D01*
X-309227887Y218195483D01*
X-309270344Y218199664D01*
X-309305259Y218210256D01*
X-309337447Y218227461D01*
X-309365655Y218250610D01*
X-309388804Y218278818D01*
X-309406009Y218311006D01*
X-309416601Y218345921D01*
X-309420782Y218388378D01*
X-309420782Y219529588D01*
X-309416601Y219572045D01*
X-309406009Y219606960D01*
X-309388804Y219639148D01*
X-309365655Y219667356D01*
X-309337447Y219690505D01*
X-309305259Y219707710D01*
X-309270344Y219718302D01*
X-309227887Y219722483D01*
X-307761677Y219722483D01*
X-307719220Y219718302D01*
X-307719220Y219718302D01*
G37*
G36*
X-276174000Y218289000D02*
X-277826000Y218289000D01*
X-277826000Y218991000D01*
X-276174000Y218991000D01*
X-276174000Y218289000D01*
X-276174000Y218289000D01*
G37*
G36*
X-281574000Y218289000D02*
X-283226000Y218289000D01*
X-283226000Y218991000D01*
X-281574000Y218991000D01*
X-281574000Y218289000D01*
X-281574000Y218289000D01*
G37*
G36*
X-287174000Y218559000D02*
X-288826000Y218559000D01*
X-288826000Y219261000D01*
X-287174000Y219261000D01*
X-287174000Y218559000D01*
X-287174000Y218559000D01*
G37*
G36*
X-292574000Y218559000D02*
X-294226000Y218559000D01*
X-294226000Y219261000D01*
X-292574000Y219261000D01*
X-292574000Y218559000D01*
X-292574000Y218559000D01*
G37*
G36*
X-311224438Y220246819D02*
X-311189523Y220236227D01*
X-311157335Y220219022D01*
X-311129127Y220195873D01*
X-311105978Y220167665D01*
X-311088773Y220135477D01*
X-311078181Y220100562D01*
X-311074000Y220058105D01*
X-311074000Y218916895D01*
X-311078181Y218874438D01*
X-311088773Y218839523D01*
X-311105978Y218807335D01*
X-311129127Y218779127D01*
X-311157335Y218755978D01*
X-311189523Y218738773D01*
X-311224438Y218728181D01*
X-311266895Y218724000D01*
X-312733105Y218724000D01*
X-312775562Y218728181D01*
X-312810477Y218738773D01*
X-312842665Y218755978D01*
X-312870873Y218779127D01*
X-312894022Y218807335D01*
X-312911227Y218839523D01*
X-312921819Y218874438D01*
X-312926000Y218916895D01*
X-312926000Y220058105D01*
X-312921819Y220100562D01*
X-312911227Y220135477D01*
X-312894022Y220167665D01*
X-312870873Y220195873D01*
X-312842665Y220219022D01*
X-312810477Y220236227D01*
X-312775562Y220246819D01*
X-312733105Y220251000D01*
X-311266895Y220251000D01*
X-311224438Y220246819D01*
X-311224438Y220246819D01*
G37*
G36*
X-314224438Y220246819D02*
X-314189523Y220236227D01*
X-314157335Y220219022D01*
X-314129127Y220195873D01*
X-314105978Y220167665D01*
X-314088773Y220135477D01*
X-314078181Y220100562D01*
X-314074000Y220058105D01*
X-314074000Y218916895D01*
X-314078181Y218874438D01*
X-314088773Y218839523D01*
X-314105978Y218807335D01*
X-314129127Y218779127D01*
X-314157335Y218755978D01*
X-314189523Y218738773D01*
X-314224438Y218728181D01*
X-314266895Y218724000D01*
X-315733105Y218724000D01*
X-315775562Y218728181D01*
X-315810477Y218738773D01*
X-315842665Y218755978D01*
X-315870873Y218779127D01*
X-315894022Y218807335D01*
X-315911227Y218839523D01*
X-315921819Y218874438D01*
X-315926000Y218916895D01*
X-315926000Y220058105D01*
X-315921819Y220100562D01*
X-315911227Y220135477D01*
X-315894022Y220167665D01*
X-315870873Y220195873D01*
X-315842665Y220219022D01*
X-315810477Y220236227D01*
X-315775562Y220246819D01*
X-315733105Y220251000D01*
X-314266895Y220251000D01*
X-314224438Y220246819D01*
X-314224438Y220246819D01*
G37*
G36*
X-281574000Y219559000D02*
X-283226000Y219559000D01*
X-283226000Y220261000D01*
X-281574000Y220261000D01*
X-281574000Y219559000D01*
X-281574000Y219559000D01*
G37*
G36*
X-276174000Y219559000D02*
X-277826000Y219559000D01*
X-277826000Y220261000D01*
X-276174000Y220261000D01*
X-276174000Y219559000D01*
X-276174000Y219559000D01*
G37*
G36*
X-292574000Y219829000D02*
X-294226000Y219829000D01*
X-294226000Y220531000D01*
X-292574000Y220531000D01*
X-292574000Y219829000D01*
X-292574000Y219829000D01*
G37*
G36*
X-287174000Y219829000D02*
X-288826000Y219829000D01*
X-288826000Y220531000D01*
X-287174000Y220531000D01*
X-287174000Y219829000D01*
X-287174000Y219829000D01*
G37*
G36*
X-281574000Y220829000D02*
X-283226000Y220829000D01*
X-283226000Y221531000D01*
X-281574000Y221531000D01*
X-281574000Y220829000D01*
X-281574000Y220829000D01*
G37*
G36*
X-276174000Y220829000D02*
X-277826000Y220829000D01*
X-277826000Y221531000D01*
X-276174000Y221531000D01*
X-276174000Y220829000D01*
X-276174000Y220829000D01*
G37*
G36*
X-292574000Y221099000D02*
X-294226000Y221099000D01*
X-294226000Y221801000D01*
X-292574000Y221801000D01*
X-292574000Y221099000D01*
X-292574000Y221099000D01*
G37*
G36*
X-287174000Y221099000D02*
X-288826000Y221099000D01*
X-288826000Y221801000D01*
X-287174000Y221801000D01*
X-287174000Y221099000D01*
X-287174000Y221099000D01*
G37*
G36*
X-278874438Y223831819D02*
X-278839523Y223821227D01*
X-278807335Y223804022D01*
X-278779127Y223780873D01*
X-278755978Y223752665D01*
X-278738773Y223720477D01*
X-278728181Y223685562D01*
X-278724000Y223643105D01*
X-278724000Y222176895D01*
X-278728181Y222134438D01*
X-278738773Y222099523D01*
X-278755978Y222067335D01*
X-278779127Y222039127D01*
X-278807335Y222015978D01*
X-278839523Y221998773D01*
X-278874438Y221988181D01*
X-278916895Y221984000D01*
X-280058105Y221984000D01*
X-280100562Y221988181D01*
X-280135477Y221998773D01*
X-280167665Y222015978D01*
X-280195873Y222039127D01*
X-280219022Y222067335D01*
X-280236227Y222099523D01*
X-280246819Y222134438D01*
X-280251000Y222176895D01*
X-280251000Y223643105D01*
X-280246819Y223685562D01*
X-280236227Y223720477D01*
X-280219022Y223752665D01*
X-280195873Y223780873D01*
X-280167665Y223804022D01*
X-280135477Y223821227D01*
X-280100562Y223831819D01*
X-280058105Y223836000D01*
X-278916895Y223836000D01*
X-278874438Y223831819D01*
X-278874438Y223831819D01*
G37*
G36*
X-275899438Y223831819D02*
X-275864523Y223821227D01*
X-275832335Y223804022D01*
X-275804127Y223780873D01*
X-275780978Y223752665D01*
X-275763773Y223720477D01*
X-275753181Y223685562D01*
X-275749000Y223643105D01*
X-275749000Y222176895D01*
X-275753181Y222134438D01*
X-275763773Y222099523D01*
X-275780978Y222067335D01*
X-275804127Y222039127D01*
X-275832335Y222015978D01*
X-275864523Y221998773D01*
X-275899438Y221988181D01*
X-275941895Y221984000D01*
X-277083105Y221984000D01*
X-277125562Y221988181D01*
X-277160477Y221998773D01*
X-277192665Y222015978D01*
X-277220873Y222039127D01*
X-277244022Y222067335D01*
X-277261227Y222099523D01*
X-277271819Y222134438D01*
X-277276000Y222176895D01*
X-277276000Y223643105D01*
X-277271819Y223685562D01*
X-277261227Y223720477D01*
X-277244022Y223752665D01*
X-277220873Y223780873D01*
X-277192665Y223804022D01*
X-277160477Y223821227D01*
X-277125562Y223831819D01*
X-277083105Y223836000D01*
X-275941895Y223836000D01*
X-275899438Y223831819D01*
X-275899438Y223831819D01*
G37*
G36*
X-289899438Y224331819D02*
X-289864523Y224321227D01*
X-289832335Y224304022D01*
X-289804127Y224280873D01*
X-289780978Y224252665D01*
X-289763773Y224220477D01*
X-289753181Y224185562D01*
X-289749000Y224143105D01*
X-289749000Y222676895D01*
X-289753181Y222634438D01*
X-289763773Y222599523D01*
X-289780978Y222567335D01*
X-289804127Y222539127D01*
X-289832335Y222515978D01*
X-289864523Y222498773D01*
X-289899438Y222488181D01*
X-289941895Y222484000D01*
X-291083105Y222484000D01*
X-291125562Y222488181D01*
X-291160477Y222498773D01*
X-291192665Y222515978D01*
X-291220873Y222539127D01*
X-291244022Y222567335D01*
X-291261227Y222599523D01*
X-291271819Y222634438D01*
X-291276000Y222676895D01*
X-291276000Y224143105D01*
X-291271819Y224185562D01*
X-291261227Y224220477D01*
X-291244022Y224252665D01*
X-291220873Y224280873D01*
X-291192665Y224304022D01*
X-291160477Y224321227D01*
X-291125562Y224331819D01*
X-291083105Y224336000D01*
X-289941895Y224336000D01*
X-289899438Y224331819D01*
X-289899438Y224331819D01*
G37*
G36*
X-292874438Y224331819D02*
X-292839523Y224321227D01*
X-292807335Y224304022D01*
X-292779127Y224280873D01*
X-292755978Y224252665D01*
X-292738773Y224220477D01*
X-292728181Y224185562D01*
X-292724000Y224143105D01*
X-292724000Y222676895D01*
X-292728181Y222634438D01*
X-292738773Y222599523D01*
X-292755978Y222567335D01*
X-292779127Y222539127D01*
X-292807335Y222515978D01*
X-292839523Y222498773D01*
X-292874438Y222488181D01*
X-292916895Y222484000D01*
X-294058105Y222484000D01*
X-294100562Y222488181D01*
X-294135477Y222498773D01*
X-294167665Y222515978D01*
X-294195873Y222539127D01*
X-294219022Y222567335D01*
X-294236227Y222599523D01*
X-294246819Y222634438D01*
X-294251000Y222676895D01*
X-294251000Y224143105D01*
X-294246819Y224185562D01*
X-294236227Y224220477D01*
X-294219022Y224252665D01*
X-294195873Y224280873D01*
X-294167665Y224304022D01*
X-294135477Y224321227D01*
X-294100562Y224331819D01*
X-294058105Y224336000D01*
X-292916895Y224336000D01*
X-292874438Y224331819D01*
X-292874438Y224331819D01*
G37*
G36*
X-318761795Y225197539D02*
X-318643847Y225174078D01*
X-318551806Y225135953D01*
X-318421641Y225082037D01*
X-318221655Y224948411D01*
X-318051589Y224778345D01*
X-317917963Y224578359D01*
X-317864047Y224448194D01*
X-317825922Y224356153D01*
X-317818975Y224321227D01*
X-317779000Y224120259D01*
X-317779000Y223879741D01*
X-317796681Y223790852D01*
X-317825922Y223643847D01*
X-317835647Y223620369D01*
X-317917963Y223421641D01*
X-318051589Y223221655D01*
X-318221655Y223051589D01*
X-318421641Y222917963D01*
X-318551806Y222864047D01*
X-318643847Y222825922D01*
X-318879741Y222779000D01*
X-319120259Y222779000D01*
X-319356153Y222825922D01*
X-319448194Y222864047D01*
X-319578359Y222917963D01*
X-319778345Y223051589D01*
X-319948411Y223221655D01*
X-320082037Y223421641D01*
X-320164353Y223620369D01*
X-320174078Y223643847D01*
X-320203319Y223790852D01*
X-320221000Y223879741D01*
X-320221000Y224120259D01*
X-320181025Y224321227D01*
X-320174078Y224356153D01*
X-320135953Y224448194D01*
X-320082037Y224578359D01*
X-319948411Y224778345D01*
X-319778345Y224948411D01*
X-319578359Y225082037D01*
X-319448194Y225135953D01*
X-319356153Y225174078D01*
X-319238205Y225197539D01*
X-319120259Y225221000D01*
X-318879741Y225221000D01*
X-318761795Y225197539D01*
X-318761795Y225197539D01*
G37*
G36*
X-313761795Y225197539D02*
X-313643847Y225174078D01*
X-313551806Y225135953D01*
X-313421641Y225082037D01*
X-313221655Y224948411D01*
X-313051589Y224778345D01*
X-312917963Y224578359D01*
X-312864047Y224448194D01*
X-312825922Y224356153D01*
X-312818975Y224321227D01*
X-312779000Y224120259D01*
X-312779000Y223879741D01*
X-312796681Y223790852D01*
X-312825922Y223643847D01*
X-312835647Y223620369D01*
X-312917963Y223421641D01*
X-313051589Y223221655D01*
X-313221655Y223051589D01*
X-313421641Y222917963D01*
X-313551806Y222864047D01*
X-313643847Y222825922D01*
X-313879741Y222779000D01*
X-314120259Y222779000D01*
X-314356153Y222825922D01*
X-314448194Y222864047D01*
X-314578359Y222917963D01*
X-314778345Y223051589D01*
X-314948411Y223221655D01*
X-315082037Y223421641D01*
X-315164353Y223620369D01*
X-315174078Y223643847D01*
X-315203319Y223790852D01*
X-315221000Y223879741D01*
X-315221000Y224120259D01*
X-315181025Y224321227D01*
X-315174078Y224356153D01*
X-315135953Y224448194D01*
X-315082037Y224578359D01*
X-314948411Y224778345D01*
X-314778345Y224948411D01*
X-314578359Y225082037D01*
X-314448194Y225135953D01*
X-314356153Y225174078D01*
X-314238205Y225197539D01*
X-314120259Y225221000D01*
X-313879741Y225221000D01*
X-313761795Y225197539D01*
X-313761795Y225197539D01*
G37*
G36*
X-308761795Y225197539D02*
X-308643847Y225174078D01*
X-308551806Y225135953D01*
X-308421641Y225082037D01*
X-308221655Y224948411D01*
X-308051589Y224778345D01*
X-307917963Y224578359D01*
X-307864047Y224448194D01*
X-307825922Y224356153D01*
X-307818975Y224321227D01*
X-307779000Y224120259D01*
X-307779000Y223879741D01*
X-307796681Y223790852D01*
X-307825922Y223643847D01*
X-307835647Y223620369D01*
X-307917963Y223421641D01*
X-308051589Y223221655D01*
X-308221655Y223051589D01*
X-308421641Y222917963D01*
X-308551806Y222864047D01*
X-308643847Y222825922D01*
X-308879741Y222779000D01*
X-309120259Y222779000D01*
X-309356153Y222825922D01*
X-309448194Y222864047D01*
X-309578359Y222917963D01*
X-309778345Y223051589D01*
X-309948411Y223221655D01*
X-310082037Y223421641D01*
X-310164353Y223620369D01*
X-310174078Y223643847D01*
X-310203319Y223790852D01*
X-310221000Y223879741D01*
X-310221000Y224120259D01*
X-310181025Y224321227D01*
X-310174078Y224356153D01*
X-310135953Y224448194D01*
X-310082037Y224578359D01*
X-309948411Y224778345D01*
X-309778345Y224948411D01*
X-309578359Y225082037D01*
X-309448194Y225135953D01*
X-309356153Y225174078D01*
X-309238205Y225197539D01*
X-309120259Y225221000D01*
X-308879741Y225221000D01*
X-308761795Y225197539D01*
X-308761795Y225197539D01*
G37*
G36*
X-300693435Y228010611D02*
X-300502166Y227931385D01*
X-300330024Y227816363D01*
X-300183637Y227669976D01*
X-300068615Y227497834D01*
X-299989389Y227306565D01*
X-299949000Y227103516D01*
X-299949000Y226896484D01*
X-299989389Y226693435D01*
X-300068615Y226502166D01*
X-300183637Y226330024D01*
X-300330024Y226183637D01*
X-300502166Y226068615D01*
X-300693435Y225989389D01*
X-300896484Y225949000D01*
X-301103516Y225949000D01*
X-301306565Y225989389D01*
X-301497834Y226068615D01*
X-301669976Y226183637D01*
X-301816363Y226330024D01*
X-301931385Y226502166D01*
X-302010611Y226693435D01*
X-302051000Y226896484D01*
X-302051000Y227103516D01*
X-302010611Y227306565D01*
X-301931385Y227497834D01*
X-301816363Y227669976D01*
X-301669976Y227816363D01*
X-301497834Y227931385D01*
X-301306565Y228010611D01*
X-301103516Y228051000D01*
X-300896484Y228051000D01*
X-300693435Y228010611D01*
X-300693435Y228010611D01*
G37*
G36*
X-325693435Y228010611D02*
X-325502166Y227931385D01*
X-325330024Y227816363D01*
X-325183637Y227669976D01*
X-325068615Y227497834D01*
X-324989389Y227306565D01*
X-324949000Y227103516D01*
X-324949000Y226896484D01*
X-324989389Y226693435D01*
X-325068615Y226502166D01*
X-325183637Y226330024D01*
X-325330024Y226183637D01*
X-325502166Y226068615D01*
X-325693435Y225989389D01*
X-325896484Y225949000D01*
X-326103516Y225949000D01*
X-326306565Y225989389D01*
X-326497834Y226068615D01*
X-326669976Y226183637D01*
X-326816363Y226330024D01*
X-326931385Y226502166D01*
X-327010611Y226693435D01*
X-327051000Y226896484D01*
X-327051000Y227103516D01*
X-327010611Y227306565D01*
X-326931385Y227497834D01*
X-326816363Y227669976D01*
X-326669976Y227816363D01*
X-326497834Y227931385D01*
X-326306565Y228010611D01*
X-326103516Y228051000D01*
X-325896484Y228051000D01*
X-325693435Y228010611D01*
X-325693435Y228010611D01*
G37*
G36*
X-253013435Y228870611D02*
X-252822166Y228791385D01*
X-252650024Y228676363D01*
X-252503637Y228529976D01*
X-252388615Y228357834D01*
X-252309389Y228166565D01*
X-252269000Y227963516D01*
X-252269000Y227756484D01*
X-252309389Y227553435D01*
X-252388615Y227362166D01*
X-252503637Y227190024D01*
X-252650024Y227043637D01*
X-252822166Y226928615D01*
X-253013435Y226849389D01*
X-253216484Y226809000D01*
X-253423516Y226809000D01*
X-253626565Y226849389D01*
X-253817834Y226928615D01*
X-253989976Y227043637D01*
X-254136363Y227190024D01*
X-254251385Y227362166D01*
X-254330611Y227553435D01*
X-254371000Y227756484D01*
X-254371000Y227963516D01*
X-254330611Y228166565D01*
X-254251385Y228357834D01*
X-254136363Y228529976D01*
X-253989976Y228676363D01*
X-253817834Y228791385D01*
X-253626565Y228870611D01*
X-253423516Y228911000D01*
X-253216484Y228911000D01*
X-253013435Y228870611D01*
X-253013435Y228870611D01*
G37*
G36*
X-308643847Y230174078D02*
X-308551806Y230135953D01*
X-308421641Y230082037D01*
X-308221655Y229948411D01*
X-308051589Y229778345D01*
X-307917963Y229578359D01*
X-307825922Y229356152D01*
X-307779000Y229120259D01*
X-307779000Y228879741D01*
X-307825922Y228643848D01*
X-307917963Y228421641D01*
X-308051589Y228221655D01*
X-308221655Y228051589D01*
X-308421641Y227917963D01*
X-308551806Y227864047D01*
X-308643847Y227825922D01*
X-308691894Y227816365D01*
X-308879741Y227779000D01*
X-309120259Y227779000D01*
X-309308106Y227816365D01*
X-309356153Y227825922D01*
X-309448194Y227864047D01*
X-309578359Y227917963D01*
X-309778345Y228051589D01*
X-309948411Y228221655D01*
X-310082037Y228421641D01*
X-310174078Y228643848D01*
X-310221000Y228879741D01*
X-310221000Y229120259D01*
X-310174078Y229356152D01*
X-310082037Y229578359D01*
X-309948411Y229778345D01*
X-309778345Y229948411D01*
X-309578359Y230082037D01*
X-309448194Y230135953D01*
X-309356153Y230174078D01*
X-309120259Y230221000D01*
X-308879741Y230221000D01*
X-308643847Y230174078D01*
X-308643847Y230174078D01*
G37*
G36*
X-313643847Y230174078D02*
X-313551806Y230135953D01*
X-313421641Y230082037D01*
X-313221655Y229948411D01*
X-313051589Y229778345D01*
X-312917963Y229578359D01*
X-312825922Y229356152D01*
X-312779000Y229120259D01*
X-312779000Y228879741D01*
X-312825922Y228643848D01*
X-312917963Y228421641D01*
X-313051589Y228221655D01*
X-313221655Y228051589D01*
X-313421641Y227917963D01*
X-313551806Y227864047D01*
X-313643847Y227825922D01*
X-313691894Y227816365D01*
X-313879741Y227779000D01*
X-314120259Y227779000D01*
X-314308106Y227816365D01*
X-314356153Y227825922D01*
X-314448194Y227864047D01*
X-314578359Y227917963D01*
X-314778345Y228051589D01*
X-314948411Y228221655D01*
X-315082037Y228421641D01*
X-315174078Y228643848D01*
X-315221000Y228879741D01*
X-315221000Y229120259D01*
X-315174078Y229356152D01*
X-315082037Y229578359D01*
X-314948411Y229778345D01*
X-314778345Y229948411D01*
X-314578359Y230082037D01*
X-314448194Y230135953D01*
X-314356153Y230174078D01*
X-314120259Y230221000D01*
X-313879741Y230221000D01*
X-313643847Y230174078D01*
X-313643847Y230174078D01*
G37*
G36*
X-318643847Y230174078D02*
X-318551806Y230135953D01*
X-318421641Y230082037D01*
X-318221655Y229948411D01*
X-318051589Y229778345D01*
X-317917963Y229578359D01*
X-317825922Y229356152D01*
X-317779000Y229120259D01*
X-317779000Y228879741D01*
X-317825922Y228643848D01*
X-317917963Y228421641D01*
X-318051589Y228221655D01*
X-318221655Y228051589D01*
X-318421641Y227917963D01*
X-318551806Y227864047D01*
X-318643847Y227825922D01*
X-318691894Y227816365D01*
X-318879741Y227779000D01*
X-319120259Y227779000D01*
X-319308106Y227816365D01*
X-319356153Y227825922D01*
X-319448194Y227864047D01*
X-319578359Y227917963D01*
X-319778345Y228051589D01*
X-319948411Y228221655D01*
X-320082037Y228421641D01*
X-320174078Y228643848D01*
X-320221000Y228879741D01*
X-320221000Y229120259D01*
X-320174078Y229356152D01*
X-320082037Y229578359D01*
X-319948411Y229778345D01*
X-319778345Y229948411D01*
X-319578359Y230082037D01*
X-319448194Y230135953D01*
X-319356153Y230174078D01*
X-319120259Y230221000D01*
X-318879741Y230221000D01*
X-318643847Y230174078D01*
X-318643847Y230174078D01*
G37*
G36*
X-237474438Y230271819D02*
X-237439523Y230261227D01*
X-237407335Y230244022D01*
X-237379127Y230220873D01*
X-237355978Y230192665D01*
X-237338773Y230160477D01*
X-237328181Y230125562D01*
X-237324000Y230083105D01*
X-237324000Y228941895D01*
X-237328181Y228899438D01*
X-237338773Y228864523D01*
X-237355978Y228832335D01*
X-237379127Y228804127D01*
X-237407335Y228780978D01*
X-237439523Y228763773D01*
X-237474438Y228753181D01*
X-237516895Y228749000D01*
X-238983105Y228749000D01*
X-239025562Y228753181D01*
X-239060477Y228763773D01*
X-239092665Y228780978D01*
X-239120873Y228804127D01*
X-239144022Y228832335D01*
X-239161227Y228864523D01*
X-239171819Y228899438D01*
X-239176000Y228941895D01*
X-239176000Y230083105D01*
X-239171819Y230125562D01*
X-239161227Y230160477D01*
X-239144022Y230192665D01*
X-239120873Y230220873D01*
X-239092665Y230244022D01*
X-239060477Y230261227D01*
X-239025562Y230271819D01*
X-238983105Y230276000D01*
X-237516895Y230276000D01*
X-237474438Y230271819D01*
X-237474438Y230271819D01*
G37*
G36*
X-300773095Y232711211D02*
X-300474650Y232651847D01*
X-300146878Y232516079D01*
X-299851891Y232318975D01*
X-299601025Y232068109D01*
X-299403921Y231773122D01*
X-299268153Y231445350D01*
X-299217871Y231192564D01*
X-299198940Y231097390D01*
X-299198940Y230742610D01*
X-299208789Y230693095D01*
X-299268153Y230394650D01*
X-299403921Y230066878D01*
X-299601025Y229771891D01*
X-299851891Y229521025D01*
X-300146878Y229323921D01*
X-300474650Y229188153D01*
X-300773095Y229128789D01*
X-300822610Y229118940D01*
X-301177390Y229118940D01*
X-301226905Y229128789D01*
X-301525350Y229188153D01*
X-301853122Y229323921D01*
X-302148109Y229521025D01*
X-302398975Y229771891D01*
X-302596079Y230066878D01*
X-302731847Y230394650D01*
X-302791211Y230693095D01*
X-302801060Y230742610D01*
X-302801060Y231097390D01*
X-302782129Y231192564D01*
X-302731847Y231445350D01*
X-302596079Y231773122D01*
X-302398975Y232068109D01*
X-302148109Y232318975D01*
X-301853122Y232516079D01*
X-301525350Y232651847D01*
X-301226905Y232711211D01*
X-301177390Y232721060D01*
X-300822610Y232721060D01*
X-300773095Y232711211D01*
X-300773095Y232711211D01*
G37*
G36*
X-325773095Y232711211D02*
X-325474650Y232651847D01*
X-325146878Y232516079D01*
X-324851891Y232318975D01*
X-324601025Y232068109D01*
X-324403921Y231773122D01*
X-324268153Y231445350D01*
X-324217871Y231192564D01*
X-324198940Y231097390D01*
X-324198940Y230742610D01*
X-324208789Y230693095D01*
X-324268153Y230394650D01*
X-324403921Y230066878D01*
X-324601025Y229771891D01*
X-324851891Y229521025D01*
X-325146878Y229323921D01*
X-325474650Y229188153D01*
X-325773095Y229128789D01*
X-325822610Y229118940D01*
X-326177390Y229118940D01*
X-326226905Y229128789D01*
X-326525350Y229188153D01*
X-326853122Y229323921D01*
X-327148109Y229521025D01*
X-327398975Y229771891D01*
X-327596079Y230066878D01*
X-327731847Y230394650D01*
X-327791211Y230693095D01*
X-327801060Y230742610D01*
X-327801060Y231097390D01*
X-327782129Y231192564D01*
X-327731847Y231445350D01*
X-327596079Y231773122D01*
X-327398975Y232068109D01*
X-327148109Y232318975D01*
X-326853122Y232516079D01*
X-326525350Y232651847D01*
X-326226905Y232711211D01*
X-326177390Y232721060D01*
X-325822610Y232721060D01*
X-325773095Y232711211D01*
X-325773095Y232711211D01*
G37*
G36*
X-287693435Y232420611D02*
X-287502166Y232341385D01*
X-287330024Y232226363D01*
X-287183637Y232079976D01*
X-287068615Y231907834D01*
X-286989389Y231716565D01*
X-286949000Y231513516D01*
X-286949000Y231306484D01*
X-286989389Y231103435D01*
X-287068615Y230912166D01*
X-287183637Y230740024D01*
X-287330024Y230593637D01*
X-287502166Y230478615D01*
X-287693435Y230399389D01*
X-287896484Y230359000D01*
X-288103516Y230359000D01*
X-288306565Y230399389D01*
X-288497834Y230478615D01*
X-288669976Y230593637D01*
X-288816363Y230740024D01*
X-288931385Y230912166D01*
X-289010611Y231103435D01*
X-289051000Y231306484D01*
X-289051000Y231513516D01*
X-289010611Y231716565D01*
X-288931385Y231907834D01*
X-288816363Y232079976D01*
X-288669976Y232226363D01*
X-288497834Y232341385D01*
X-288306565Y232420611D01*
X-288103516Y232461000D01*
X-287896484Y232461000D01*
X-287693435Y232420611D01*
X-287693435Y232420611D01*
G37*
G36*
X-280193435Y232420611D02*
X-280002166Y232341385D01*
X-279830024Y232226363D01*
X-279683637Y232079976D01*
X-279568615Y231907834D01*
X-279489389Y231716565D01*
X-279449000Y231513516D01*
X-279449000Y231306484D01*
X-279489389Y231103435D01*
X-279568615Y230912166D01*
X-279683637Y230740024D01*
X-279830024Y230593637D01*
X-280002166Y230478615D01*
X-280193435Y230399389D01*
X-280396484Y230359000D01*
X-280603516Y230359000D01*
X-280806565Y230399389D01*
X-280997834Y230478615D01*
X-281169976Y230593637D01*
X-281316363Y230740024D01*
X-281431385Y230912166D01*
X-281510611Y231103435D01*
X-281551000Y231306484D01*
X-281551000Y231513516D01*
X-281510611Y231716565D01*
X-281431385Y231907834D01*
X-281316363Y232079976D01*
X-281169976Y232226363D01*
X-280997834Y232341385D01*
X-280806565Y232420611D01*
X-280603516Y232461000D01*
X-280396484Y232461000D01*
X-280193435Y232420611D01*
X-280193435Y232420611D01*
G37*
G36*
X-267901748Y234472182D02*
X-267901746Y234472181D01*
X-267901745Y234472181D01*
X-267528487Y234317573D01*
X-267454525Y234268153D01*
X-267192561Y234093114D01*
X-266906886Y233807439D01*
X-266906884Y233807436D01*
X-266682427Y233471513D01*
X-266528775Y233100562D01*
X-266527818Y233098252D01*
X-266449000Y232702007D01*
X-266449000Y232297993D01*
X-266526607Y231907834D01*
X-266527819Y231901745D01*
X-266682427Y231528487D01*
X-266737978Y231445349D01*
X-266906886Y231192561D01*
X-267192561Y230906886D01*
X-267192564Y230906884D01*
X-267528487Y230682427D01*
X-267901745Y230527819D01*
X-267901746Y230527819D01*
X-267901748Y230527818D01*
X-268297993Y230449000D01*
X-268702007Y230449000D01*
X-269098252Y230527818D01*
X-269098254Y230527819D01*
X-269098255Y230527819D01*
X-269471513Y230682427D01*
X-269807436Y230906884D01*
X-269807439Y230906886D01*
X-270093114Y231192561D01*
X-270262022Y231445349D01*
X-270317573Y231528487D01*
X-270472181Y231901745D01*
X-270473392Y231907834D01*
X-270551000Y232297993D01*
X-270551000Y232702007D01*
X-270472182Y233098252D01*
X-270471225Y233100562D01*
X-270317573Y233471513D01*
X-270093116Y233807436D01*
X-270093114Y233807439D01*
X-269807439Y234093114D01*
X-269545475Y234268153D01*
X-269471513Y234317573D01*
X-269098255Y234472181D01*
X-269098254Y234472181D01*
X-269098252Y234472182D01*
X-268702007Y234551000D01*
X-268297993Y234551000D01*
X-267901748Y234472182D01*
X-267901748Y234472182D01*
G37*
G36*
X-237474438Y233246819D02*
X-237439523Y233236227D01*
X-237407335Y233219022D01*
X-237379127Y233195873D01*
X-237355978Y233167665D01*
X-237338773Y233135477D01*
X-237328181Y233100562D01*
X-237324000Y233058105D01*
X-237324000Y231916895D01*
X-237328181Y231874438D01*
X-237338773Y231839523D01*
X-237355978Y231807335D01*
X-237379127Y231779127D01*
X-237407335Y231755978D01*
X-237439523Y231738773D01*
X-237474438Y231728181D01*
X-237516895Y231724000D01*
X-238983105Y231724000D01*
X-239025562Y231728181D01*
X-239060477Y231738773D01*
X-239092665Y231755978D01*
X-239120873Y231779127D01*
X-239144022Y231807335D01*
X-239161227Y231839523D01*
X-239171819Y231874438D01*
X-239176000Y231916895D01*
X-239176000Y233058105D01*
X-239171819Y233100562D01*
X-239161227Y233135477D01*
X-239144022Y233167665D01*
X-239120873Y233195873D01*
X-239092665Y233219022D01*
X-239060477Y233236227D01*
X-239025562Y233246819D01*
X-238983105Y233251000D01*
X-237516895Y233251000D01*
X-237474438Y233246819D01*
X-237474438Y233246819D01*
G37*
G36*
X-319224438Y235271819D02*
X-319189523Y235261227D01*
X-319157335Y235244022D01*
X-319129127Y235220873D01*
X-319105978Y235192665D01*
X-319088773Y235160477D01*
X-319078181Y235125562D01*
X-319074000Y235083105D01*
X-319074000Y233941895D01*
X-319078181Y233899438D01*
X-319088773Y233864523D01*
X-319105978Y233832335D01*
X-319129127Y233804127D01*
X-319157335Y233780978D01*
X-319189523Y233763773D01*
X-319224438Y233753181D01*
X-319266895Y233749000D01*
X-320733105Y233749000D01*
X-320775562Y233753181D01*
X-320810477Y233763773D01*
X-320842665Y233780978D01*
X-320870873Y233804127D01*
X-320894022Y233832335D01*
X-320911227Y233864523D01*
X-320921819Y233899438D01*
X-320926000Y233941895D01*
X-320926000Y235083105D01*
X-320921819Y235125562D01*
X-320911227Y235160477D01*
X-320894022Y235192665D01*
X-320870873Y235220873D01*
X-320842665Y235244022D01*
X-320810477Y235261227D01*
X-320775562Y235271819D01*
X-320733105Y235276000D01*
X-319266895Y235276000D01*
X-319224438Y235271819D01*
X-319224438Y235271819D01*
G37*
G36*
X-307224438Y235271819D02*
X-307189523Y235261227D01*
X-307157335Y235244022D01*
X-307129127Y235220873D01*
X-307105978Y235192665D01*
X-307088773Y235160477D01*
X-307078181Y235125562D01*
X-307074000Y235083105D01*
X-307074000Y233941895D01*
X-307078181Y233899438D01*
X-307088773Y233864523D01*
X-307105978Y233832335D01*
X-307129127Y233804127D01*
X-307157335Y233780978D01*
X-307189523Y233763773D01*
X-307224438Y233753181D01*
X-307266895Y233749000D01*
X-308733105Y233749000D01*
X-308775562Y233753181D01*
X-308810477Y233763773D01*
X-308842665Y233780978D01*
X-308870873Y233804127D01*
X-308894022Y233832335D01*
X-308911227Y233864523D01*
X-308921819Y233899438D01*
X-308926000Y233941895D01*
X-308926000Y235083105D01*
X-308921819Y235125562D01*
X-308911227Y235160477D01*
X-308894022Y235192665D01*
X-308870873Y235220873D01*
X-308842665Y235244022D01*
X-308810477Y235261227D01*
X-308775562Y235271819D01*
X-308733105Y235276000D01*
X-307266895Y235276000D01*
X-307224438Y235271819D01*
X-307224438Y235271819D01*
G37*
G36*
X-324198940Y234198940D02*
X-327801060Y234198940D01*
X-327801060Y237801060D01*
X-324198940Y237801060D01*
X-324198940Y234198940D01*
X-324198940Y234198940D01*
G37*
G36*
X-299198940Y234198940D02*
X-302801060Y234198940D01*
X-302801060Y237801060D01*
X-299198940Y237801060D01*
X-299198940Y234198940D01*
X-299198940Y234198940D01*
G37*
G36*
X-238198940Y234198940D02*
X-241801060Y234198940D01*
X-241801060Y237801060D01*
X-238198940Y237801060D01*
X-238198940Y234198940D01*
X-238198940Y234198940D01*
G37*
G36*
X-234693095Y237791211D02*
X-234394650Y237731847D01*
X-234066878Y237596079D01*
X-233771891Y237398975D01*
X-233521025Y237148109D01*
X-233323921Y236853122D01*
X-233188153Y236525350D01*
X-233118940Y236177389D01*
X-233118940Y235822611D01*
X-233188153Y235474650D01*
X-233323921Y235146878D01*
X-233521025Y234851891D01*
X-233771891Y234601025D01*
X-234066878Y234403921D01*
X-234394650Y234268153D01*
X-234693095Y234208789D01*
X-234742610Y234198940D01*
X-235097390Y234198940D01*
X-235146905Y234208789D01*
X-235445350Y234268153D01*
X-235773122Y234403921D01*
X-236068109Y234601025D01*
X-236318975Y234851891D01*
X-236516079Y235146878D01*
X-236651847Y235474650D01*
X-236721060Y235822611D01*
X-236721060Y236177389D01*
X-236651847Y236525350D01*
X-236516079Y236853122D01*
X-236318975Y237148109D01*
X-236068109Y237398975D01*
X-235773122Y237596079D01*
X-235445350Y237731847D01*
X-235146905Y237791211D01*
X-235097390Y237801060D01*
X-234742610Y237801060D01*
X-234693095Y237791211D01*
X-234693095Y237791211D01*
G37*
G36*
X-253013435Y236370611D02*
X-252822166Y236291385D01*
X-252650024Y236176363D01*
X-252503637Y236029976D01*
X-252388615Y235857834D01*
X-252309389Y235666565D01*
X-252269000Y235463516D01*
X-252269000Y235256484D01*
X-252309389Y235053435D01*
X-252388615Y234862166D01*
X-252503637Y234690024D01*
X-252650024Y234543637D01*
X-252822166Y234428615D01*
X-253013435Y234349389D01*
X-253216484Y234309000D01*
X-253423516Y234309000D01*
X-253626565Y234349389D01*
X-253817834Y234428615D01*
X-253989976Y234543637D01*
X-254136363Y234690024D01*
X-254251385Y234862166D01*
X-254330611Y235053435D01*
X-254371000Y235256484D01*
X-254371000Y235463516D01*
X-254330611Y235666565D01*
X-254251385Y235857834D01*
X-254136363Y236029976D01*
X-253989976Y236176363D01*
X-253817834Y236291385D01*
X-253626565Y236370611D01*
X-253423516Y236411000D01*
X-253216484Y236411000D01*
X-253013435Y236370611D01*
X-253013435Y236370611D01*
G37*
G36*
X-319224438Y238246819D02*
X-319189523Y238236227D01*
X-319157335Y238219022D01*
X-319129127Y238195873D01*
X-319105978Y238167665D01*
X-319088773Y238135477D01*
X-319078181Y238100562D01*
X-319074000Y238058105D01*
X-319074000Y236916895D01*
X-319078181Y236874438D01*
X-319088773Y236839523D01*
X-319105978Y236807335D01*
X-319129127Y236779127D01*
X-319157335Y236755978D01*
X-319189523Y236738773D01*
X-319224438Y236728181D01*
X-319266895Y236724000D01*
X-320733105Y236724000D01*
X-320775562Y236728181D01*
X-320810477Y236738773D01*
X-320842665Y236755978D01*
X-320870873Y236779127D01*
X-320894022Y236807335D01*
X-320911227Y236839523D01*
X-320921819Y236874438D01*
X-320926000Y236916895D01*
X-320926000Y238058105D01*
X-320921819Y238100562D01*
X-320911227Y238135477D01*
X-320894022Y238167665D01*
X-320870873Y238195873D01*
X-320842665Y238219022D01*
X-320810477Y238236227D01*
X-320775562Y238246819D01*
X-320733105Y238251000D01*
X-319266895Y238251000D01*
X-319224438Y238246819D01*
X-319224438Y238246819D01*
G37*
G36*
X-307224438Y238246819D02*
X-307189523Y238236227D01*
X-307157335Y238219022D01*
X-307129127Y238195873D01*
X-307105978Y238167665D01*
X-307088773Y238135477D01*
X-307078181Y238100562D01*
X-307074000Y238058105D01*
X-307074000Y236916895D01*
X-307078181Y236874438D01*
X-307088773Y236839523D01*
X-307105978Y236807335D01*
X-307129127Y236779127D01*
X-307157335Y236755978D01*
X-307189523Y236738773D01*
X-307224438Y236728181D01*
X-307266895Y236724000D01*
X-308733105Y236724000D01*
X-308775562Y236728181D01*
X-308810477Y236738773D01*
X-308842665Y236755978D01*
X-308870873Y236779127D01*
X-308894022Y236807335D01*
X-308911227Y236839523D01*
X-308921819Y236874438D01*
X-308926000Y236916895D01*
X-308926000Y238058105D01*
X-308921819Y238100562D01*
X-308911227Y238135477D01*
X-308894022Y238167665D01*
X-308870873Y238195873D01*
X-308842665Y238219022D01*
X-308810477Y238236227D01*
X-308775562Y238246819D01*
X-308733105Y238251000D01*
X-307266895Y238251000D01*
X-307224438Y238246819D01*
X-307224438Y238246819D01*
G37*
M02*
