G04 #@! TF.GenerationSoftware,KiCad,Pcbnew,5.0.2-bee76a0~70~ubuntu18.04.1*
G04 #@! TF.CreationDate,2020-01-07T12:16:07+05:00*
G04 #@! TF.ProjectId,headamp,68656164-616d-4702-9e6b-696361645f70,rev?*
G04 #@! TF.SameCoordinates,Original*
G04 #@! TF.FileFunction,Copper,L2,Bot*
G04 #@! TF.FilePolarity,Positive*
%FSLAX46Y46*%
G04 Gerber Fmt 4.6, Leading zero omitted, Abs format (unit mm)*
G04 Created by KiCad (PCBNEW 5.0.2-bee76a0~70~ubuntu18.04.1) date Вт 07 янв 2020 12:16:07*
%MOMM*%
%LPD*%
G01*
G04 APERTURE LIST*
G04 #@! TA.AperFunction,ComponentPad*
%ADD10C,2.340000*%
G04 #@! TD*
G04 #@! TA.AperFunction,ComponentPad*
%ADD11C,4.000000*%
G04 #@! TD*
G04 #@! TA.AperFunction,Conductor*
%ADD12C,0.100000*%
G04 #@! TD*
G04 #@! TA.AperFunction,SMDPad,CuDef*
%ADD13C,1.425000*%
G04 #@! TD*
G04 #@! TA.AperFunction,ComponentPad*
%ADD14C,2.000000*%
G04 #@! TD*
G04 #@! TA.AperFunction,ComponentPad*
%ADD15R,4.000000X4.000000*%
G04 #@! TD*
G04 #@! TA.AperFunction,SMDPad,CuDef*
%ADD16R,2.000000X1.500000*%
G04 #@! TD*
G04 #@! TA.AperFunction,ComponentPad*
%ADD17C,3.500120*%
G04 #@! TD*
G04 #@! TA.AperFunction,ComponentPad*
%ADD18R,3.500120X3.500120*%
G04 #@! TD*
G04 #@! TA.AperFunction,ComponentPad*
%ADD19O,2.400000X2.400000*%
G04 #@! TD*
G04 #@! TA.AperFunction,ComponentPad*
%ADD20C,2.400000*%
G04 #@! TD*
G04 #@! TA.AperFunction,ComponentPad*
%ADD21C,1.400000*%
G04 #@! TD*
G04 #@! TA.AperFunction,ComponentPad*
%ADD22C,1.430000*%
G04 #@! TD*
G04 #@! TA.AperFunction,ComponentPad*
%ADD23C,2.499360*%
G04 #@! TD*
G04 #@! TA.AperFunction,ComponentPad*
%ADD24R,2.499360X2.499360*%
G04 #@! TD*
G04 #@! TA.AperFunction,ViaPad*
%ADD25C,1.500000*%
G04 #@! TD*
G04 #@! TA.AperFunction,ViaPad*
%ADD26C,2.000000*%
G04 #@! TD*
G04 #@! TA.AperFunction,Conductor*
%ADD27C,0.500000*%
G04 #@! TD*
G04 #@! TA.AperFunction,Conductor*
%ADD28C,1.000000*%
G04 #@! TD*
G04 #@! TA.AperFunction,Conductor*
%ADD29C,2.000000*%
G04 #@! TD*
G04 #@! TA.AperFunction,Conductor*
%ADD30C,1.500000*%
G04 #@! TD*
G04 #@! TA.AperFunction,Conductor*
%ADD31C,0.254000*%
G04 #@! TD*
G04 APERTURE END LIST*
D10*
G04 #@! TO.P,RV1,4*
G04 #@! TO.N,GND*
X-309000000Y224000000D03*
G04 #@! TO.P,RV1,5*
G04 #@! TO.N,Net-(C10-Pad1)*
X-314000000Y224000000D03*
G04 #@! TO.P,RV1,6*
G04 #@! TO.N,Net-(R5-Pad1)*
X-319000000Y224000000D03*
G04 #@! TO.P,RV1,1*
G04 #@! TO.N,GND*
X-309000000Y229000000D03*
G04 #@! TO.P,RV1,2*
G04 #@! TO.N,Net-(C9-Pad1)*
X-314000000Y229000000D03*
G04 #@! TO.P,RV1,3*
G04 #@! TO.N,Net-(R4-Pad1)*
X-319000000Y229000000D03*
G04 #@! TD*
D11*
G04 #@! TO.P,XS5,3*
G04 #@! TO.N,Net-(C16-Pad2)*
X-266000000Y217500000D03*
G04 #@! TO.P,XS5,2*
G04 #@! TO.N,Net-(C15-Pad2)*
X-271000000Y217500000D03*
G04 #@! TO.P,XS5,1*
G04 #@! TO.N,GNDPWR*
X-268500000Y232500000D03*
G04 #@! TD*
D12*
G04 #@! TO.N,GNDPWR*
G04 #@! TO.C,C1*
G36*
X-232837192Y160363006D02*
X-232812923Y160359406D01*
X-232789125Y160353445D01*
X-232766025Y160345180D01*
X-232743847Y160334690D01*
X-232722803Y160322077D01*
X-232703098Y160307463D01*
X-232684919Y160290987D01*
X-232668443Y160272808D01*
X-232653829Y160253103D01*
X-232641216Y160232059D01*
X-232630726Y160209881D01*
X-232622461Y160186781D01*
X-232616500Y160162983D01*
X-232612900Y160138714D01*
X-232611696Y160114210D01*
X-232611696Y159189210D01*
X-232612900Y159164706D01*
X-232616500Y159140437D01*
X-232622461Y159116639D01*
X-232630726Y159093539D01*
X-232641216Y159071361D01*
X-232653829Y159050317D01*
X-232668443Y159030612D01*
X-232684919Y159012433D01*
X-232703098Y158995957D01*
X-232722803Y158981343D01*
X-232743847Y158968730D01*
X-232766025Y158958240D01*
X-232789125Y158949975D01*
X-232812923Y158944014D01*
X-232837192Y158940414D01*
X-232861696Y158939210D01*
X-234111696Y158939210D01*
X-234136200Y158940414D01*
X-234160469Y158944014D01*
X-234184267Y158949975D01*
X-234207367Y158958240D01*
X-234229545Y158968730D01*
X-234250589Y158981343D01*
X-234270294Y158995957D01*
X-234288473Y159012433D01*
X-234304949Y159030612D01*
X-234319563Y159050317D01*
X-234332176Y159071361D01*
X-234342666Y159093539D01*
X-234350931Y159116639D01*
X-234356892Y159140437D01*
X-234360492Y159164706D01*
X-234361696Y159189210D01*
X-234361696Y160114210D01*
X-234360492Y160138714D01*
X-234356892Y160162983D01*
X-234350931Y160186781D01*
X-234342666Y160209881D01*
X-234332176Y160232059D01*
X-234319563Y160253103D01*
X-234304949Y160272808D01*
X-234288473Y160290987D01*
X-234270294Y160307463D01*
X-234250589Y160322077D01*
X-234229545Y160334690D01*
X-234207367Y160345180D01*
X-234184267Y160353445D01*
X-234160469Y160359406D01*
X-234136200Y160363006D01*
X-234111696Y160364210D01*
X-232861696Y160364210D01*
X-232837192Y160363006D01*
X-232837192Y160363006D01*
G37*
D13*
G04 #@! TD*
G04 #@! TO.P,C1,2*
G04 #@! TO.N,GNDPWR*
X-233486696Y159651710D03*
D12*
G04 #@! TO.N,Net-(C1-Pad1)*
G04 #@! TO.C,C1*
G36*
X-232837192Y157388006D02*
X-232812923Y157384406D01*
X-232789125Y157378445D01*
X-232766025Y157370180D01*
X-232743847Y157359690D01*
X-232722803Y157347077D01*
X-232703098Y157332463D01*
X-232684919Y157315987D01*
X-232668443Y157297808D01*
X-232653829Y157278103D01*
X-232641216Y157257059D01*
X-232630726Y157234881D01*
X-232622461Y157211781D01*
X-232616500Y157187983D01*
X-232612900Y157163714D01*
X-232611696Y157139210D01*
X-232611696Y156214210D01*
X-232612900Y156189706D01*
X-232616500Y156165437D01*
X-232622461Y156141639D01*
X-232630726Y156118539D01*
X-232641216Y156096361D01*
X-232653829Y156075317D01*
X-232668443Y156055612D01*
X-232684919Y156037433D01*
X-232703098Y156020957D01*
X-232722803Y156006343D01*
X-232743847Y155993730D01*
X-232766025Y155983240D01*
X-232789125Y155974975D01*
X-232812923Y155969014D01*
X-232837192Y155965414D01*
X-232861696Y155964210D01*
X-234111696Y155964210D01*
X-234136200Y155965414D01*
X-234160469Y155969014D01*
X-234184267Y155974975D01*
X-234207367Y155983240D01*
X-234229545Y155993730D01*
X-234250589Y156006343D01*
X-234270294Y156020957D01*
X-234288473Y156037433D01*
X-234304949Y156055612D01*
X-234319563Y156075317D01*
X-234332176Y156096361D01*
X-234342666Y156118539D01*
X-234350931Y156141639D01*
X-234356892Y156165437D01*
X-234360492Y156189706D01*
X-234361696Y156214210D01*
X-234361696Y157139210D01*
X-234360492Y157163714D01*
X-234356892Y157187983D01*
X-234350931Y157211781D01*
X-234342666Y157234881D01*
X-234332176Y157257059D01*
X-234319563Y157278103D01*
X-234304949Y157297808D01*
X-234288473Y157315987D01*
X-234270294Y157332463D01*
X-234250589Y157347077D01*
X-234229545Y157359690D01*
X-234207367Y157370180D01*
X-234184267Y157378445D01*
X-234160469Y157384406D01*
X-234136200Y157388006D01*
X-234111696Y157389210D01*
X-232861696Y157389210D01*
X-232837192Y157388006D01*
X-232837192Y157388006D01*
G37*
D13*
G04 #@! TD*
G04 #@! TO.P,C1,1*
G04 #@! TO.N,Net-(C1-Pad1)*
X-233486696Y156676710D03*
D12*
G04 #@! TO.N,Net-(C2-Pad2)*
G04 #@! TO.C,C2*
G36*
X-232837192Y169940506D02*
X-232812923Y169936906D01*
X-232789125Y169930945D01*
X-232766025Y169922680D01*
X-232743847Y169912190D01*
X-232722803Y169899577D01*
X-232703098Y169884963D01*
X-232684919Y169868487D01*
X-232668443Y169850308D01*
X-232653829Y169830603D01*
X-232641216Y169809559D01*
X-232630726Y169787381D01*
X-232622461Y169764281D01*
X-232616500Y169740483D01*
X-232612900Y169716214D01*
X-232611696Y169691710D01*
X-232611696Y168766710D01*
X-232612900Y168742206D01*
X-232616500Y168717937D01*
X-232622461Y168694139D01*
X-232630726Y168671039D01*
X-232641216Y168648861D01*
X-232653829Y168627817D01*
X-232668443Y168608112D01*
X-232684919Y168589933D01*
X-232703098Y168573457D01*
X-232722803Y168558843D01*
X-232743847Y168546230D01*
X-232766025Y168535740D01*
X-232789125Y168527475D01*
X-232812923Y168521514D01*
X-232837192Y168517914D01*
X-232861696Y168516710D01*
X-234111696Y168516710D01*
X-234136200Y168517914D01*
X-234160469Y168521514D01*
X-234184267Y168527475D01*
X-234207367Y168535740D01*
X-234229545Y168546230D01*
X-234250589Y168558843D01*
X-234270294Y168573457D01*
X-234288473Y168589933D01*
X-234304949Y168608112D01*
X-234319563Y168627817D01*
X-234332176Y168648861D01*
X-234342666Y168671039D01*
X-234350931Y168694139D01*
X-234356892Y168717937D01*
X-234360492Y168742206D01*
X-234361696Y168766710D01*
X-234361696Y169691710D01*
X-234360492Y169716214D01*
X-234356892Y169740483D01*
X-234350931Y169764281D01*
X-234342666Y169787381D01*
X-234332176Y169809559D01*
X-234319563Y169830603D01*
X-234304949Y169850308D01*
X-234288473Y169868487D01*
X-234270294Y169884963D01*
X-234250589Y169899577D01*
X-234229545Y169912190D01*
X-234207367Y169922680D01*
X-234184267Y169930945D01*
X-234160469Y169936906D01*
X-234136200Y169940506D01*
X-234111696Y169941710D01*
X-232861696Y169941710D01*
X-232837192Y169940506D01*
X-232837192Y169940506D01*
G37*
D13*
G04 #@! TD*
G04 #@! TO.P,C2,2*
G04 #@! TO.N,Net-(C2-Pad2)*
X-233486696Y169229210D03*
D12*
G04 #@! TO.N,GNDPWR*
G04 #@! TO.C,C2*
G36*
X-232837192Y166965506D02*
X-232812923Y166961906D01*
X-232789125Y166955945D01*
X-232766025Y166947680D01*
X-232743847Y166937190D01*
X-232722803Y166924577D01*
X-232703098Y166909963D01*
X-232684919Y166893487D01*
X-232668443Y166875308D01*
X-232653829Y166855603D01*
X-232641216Y166834559D01*
X-232630726Y166812381D01*
X-232622461Y166789281D01*
X-232616500Y166765483D01*
X-232612900Y166741214D01*
X-232611696Y166716710D01*
X-232611696Y165791710D01*
X-232612900Y165767206D01*
X-232616500Y165742937D01*
X-232622461Y165719139D01*
X-232630726Y165696039D01*
X-232641216Y165673861D01*
X-232653829Y165652817D01*
X-232668443Y165633112D01*
X-232684919Y165614933D01*
X-232703098Y165598457D01*
X-232722803Y165583843D01*
X-232743847Y165571230D01*
X-232766025Y165560740D01*
X-232789125Y165552475D01*
X-232812923Y165546514D01*
X-232837192Y165542914D01*
X-232861696Y165541710D01*
X-234111696Y165541710D01*
X-234136200Y165542914D01*
X-234160469Y165546514D01*
X-234184267Y165552475D01*
X-234207367Y165560740D01*
X-234229545Y165571230D01*
X-234250589Y165583843D01*
X-234270294Y165598457D01*
X-234288473Y165614933D01*
X-234304949Y165633112D01*
X-234319563Y165652817D01*
X-234332176Y165673861D01*
X-234342666Y165696039D01*
X-234350931Y165719139D01*
X-234356892Y165742937D01*
X-234360492Y165767206D01*
X-234361696Y165791710D01*
X-234361696Y166716710D01*
X-234360492Y166741214D01*
X-234356892Y166765483D01*
X-234350931Y166789281D01*
X-234342666Y166812381D01*
X-234332176Y166834559D01*
X-234319563Y166855603D01*
X-234304949Y166875308D01*
X-234288473Y166893487D01*
X-234270294Y166909963D01*
X-234250589Y166924577D01*
X-234229545Y166937190D01*
X-234207367Y166947680D01*
X-234184267Y166955945D01*
X-234160469Y166961906D01*
X-234136200Y166965506D01*
X-234111696Y166966710D01*
X-232861696Y166966710D01*
X-232837192Y166965506D01*
X-232837192Y166965506D01*
G37*
D13*
G04 #@! TD*
G04 #@! TO.P,C2,1*
G04 #@! TO.N,GNDPWR*
X-233486696Y166254210D03*
D12*
G04 #@! TO.N,Net-(C3-Pad2)*
G04 #@! TO.C,C3*
G36*
X-227837192Y160363006D02*
X-227812923Y160359406D01*
X-227789125Y160353445D01*
X-227766025Y160345180D01*
X-227743847Y160334690D01*
X-227722803Y160322077D01*
X-227703098Y160307463D01*
X-227684919Y160290987D01*
X-227668443Y160272808D01*
X-227653829Y160253103D01*
X-227641216Y160232059D01*
X-227630726Y160209881D01*
X-227622461Y160186781D01*
X-227616500Y160162983D01*
X-227612900Y160138714D01*
X-227611696Y160114210D01*
X-227611696Y159189210D01*
X-227612900Y159164706D01*
X-227616500Y159140437D01*
X-227622461Y159116639D01*
X-227630726Y159093539D01*
X-227641216Y159071361D01*
X-227653829Y159050317D01*
X-227668443Y159030612D01*
X-227684919Y159012433D01*
X-227703098Y158995957D01*
X-227722803Y158981343D01*
X-227743847Y158968730D01*
X-227766025Y158958240D01*
X-227789125Y158949975D01*
X-227812923Y158944014D01*
X-227837192Y158940414D01*
X-227861696Y158939210D01*
X-229111696Y158939210D01*
X-229136200Y158940414D01*
X-229160469Y158944014D01*
X-229184267Y158949975D01*
X-229207367Y158958240D01*
X-229229545Y158968730D01*
X-229250589Y158981343D01*
X-229270294Y158995957D01*
X-229288473Y159012433D01*
X-229304949Y159030612D01*
X-229319563Y159050317D01*
X-229332176Y159071361D01*
X-229342666Y159093539D01*
X-229350931Y159116639D01*
X-229356892Y159140437D01*
X-229360492Y159164706D01*
X-229361696Y159189210D01*
X-229361696Y160114210D01*
X-229360492Y160138714D01*
X-229356892Y160162983D01*
X-229350931Y160186781D01*
X-229342666Y160209881D01*
X-229332176Y160232059D01*
X-229319563Y160253103D01*
X-229304949Y160272808D01*
X-229288473Y160290987D01*
X-229270294Y160307463D01*
X-229250589Y160322077D01*
X-229229545Y160334690D01*
X-229207367Y160345180D01*
X-229184267Y160353445D01*
X-229160469Y160359406D01*
X-229136200Y160363006D01*
X-229111696Y160364210D01*
X-227861696Y160364210D01*
X-227837192Y160363006D01*
X-227837192Y160363006D01*
G37*
D13*
G04 #@! TD*
G04 #@! TO.P,C3,2*
G04 #@! TO.N,Net-(C3-Pad2)*
X-228486696Y159651710D03*
D12*
G04 #@! TO.N,Net-(C1-Pad1)*
G04 #@! TO.C,C3*
G36*
X-227837192Y157388006D02*
X-227812923Y157384406D01*
X-227789125Y157378445D01*
X-227766025Y157370180D01*
X-227743847Y157359690D01*
X-227722803Y157347077D01*
X-227703098Y157332463D01*
X-227684919Y157315987D01*
X-227668443Y157297808D01*
X-227653829Y157278103D01*
X-227641216Y157257059D01*
X-227630726Y157234881D01*
X-227622461Y157211781D01*
X-227616500Y157187983D01*
X-227612900Y157163714D01*
X-227611696Y157139210D01*
X-227611696Y156214210D01*
X-227612900Y156189706D01*
X-227616500Y156165437D01*
X-227622461Y156141639D01*
X-227630726Y156118539D01*
X-227641216Y156096361D01*
X-227653829Y156075317D01*
X-227668443Y156055612D01*
X-227684919Y156037433D01*
X-227703098Y156020957D01*
X-227722803Y156006343D01*
X-227743847Y155993730D01*
X-227766025Y155983240D01*
X-227789125Y155974975D01*
X-227812923Y155969014D01*
X-227837192Y155965414D01*
X-227861696Y155964210D01*
X-229111696Y155964210D01*
X-229136200Y155965414D01*
X-229160469Y155969014D01*
X-229184267Y155974975D01*
X-229207367Y155983240D01*
X-229229545Y155993730D01*
X-229250589Y156006343D01*
X-229270294Y156020957D01*
X-229288473Y156037433D01*
X-229304949Y156055612D01*
X-229319563Y156075317D01*
X-229332176Y156096361D01*
X-229342666Y156118539D01*
X-229350931Y156141639D01*
X-229356892Y156165437D01*
X-229360492Y156189706D01*
X-229361696Y156214210D01*
X-229361696Y157139210D01*
X-229360492Y157163714D01*
X-229356892Y157187983D01*
X-229350931Y157211781D01*
X-229342666Y157234881D01*
X-229332176Y157257059D01*
X-229319563Y157278103D01*
X-229304949Y157297808D01*
X-229288473Y157315987D01*
X-229270294Y157332463D01*
X-229250589Y157347077D01*
X-229229545Y157359690D01*
X-229207367Y157370180D01*
X-229184267Y157378445D01*
X-229160469Y157384406D01*
X-229136200Y157388006D01*
X-229111696Y157389210D01*
X-227861696Y157389210D01*
X-227837192Y157388006D01*
X-227837192Y157388006D01*
G37*
D13*
G04 #@! TD*
G04 #@! TO.P,C3,1*
G04 #@! TO.N,Net-(C1-Pad1)*
X-228486696Y156676710D03*
D12*
G04 #@! TO.N,Net-(C2-Pad2)*
G04 #@! TO.C,C4*
G36*
X-227837192Y169940506D02*
X-227812923Y169936906D01*
X-227789125Y169930945D01*
X-227766025Y169922680D01*
X-227743847Y169912190D01*
X-227722803Y169899577D01*
X-227703098Y169884963D01*
X-227684919Y169868487D01*
X-227668443Y169850308D01*
X-227653829Y169830603D01*
X-227641216Y169809559D01*
X-227630726Y169787381D01*
X-227622461Y169764281D01*
X-227616500Y169740483D01*
X-227612900Y169716214D01*
X-227611696Y169691710D01*
X-227611696Y168766710D01*
X-227612900Y168742206D01*
X-227616500Y168717937D01*
X-227622461Y168694139D01*
X-227630726Y168671039D01*
X-227641216Y168648861D01*
X-227653829Y168627817D01*
X-227668443Y168608112D01*
X-227684919Y168589933D01*
X-227703098Y168573457D01*
X-227722803Y168558843D01*
X-227743847Y168546230D01*
X-227766025Y168535740D01*
X-227789125Y168527475D01*
X-227812923Y168521514D01*
X-227837192Y168517914D01*
X-227861696Y168516710D01*
X-229111696Y168516710D01*
X-229136200Y168517914D01*
X-229160469Y168521514D01*
X-229184267Y168527475D01*
X-229207367Y168535740D01*
X-229229545Y168546230D01*
X-229250589Y168558843D01*
X-229270294Y168573457D01*
X-229288473Y168589933D01*
X-229304949Y168608112D01*
X-229319563Y168627817D01*
X-229332176Y168648861D01*
X-229342666Y168671039D01*
X-229350931Y168694139D01*
X-229356892Y168717937D01*
X-229360492Y168742206D01*
X-229361696Y168766710D01*
X-229361696Y169691710D01*
X-229360492Y169716214D01*
X-229356892Y169740483D01*
X-229350931Y169764281D01*
X-229342666Y169787381D01*
X-229332176Y169809559D01*
X-229319563Y169830603D01*
X-229304949Y169850308D01*
X-229288473Y169868487D01*
X-229270294Y169884963D01*
X-229250589Y169899577D01*
X-229229545Y169912190D01*
X-229207367Y169922680D01*
X-229184267Y169930945D01*
X-229160469Y169936906D01*
X-229136200Y169940506D01*
X-229111696Y169941710D01*
X-227861696Y169941710D01*
X-227837192Y169940506D01*
X-227837192Y169940506D01*
G37*
D13*
G04 #@! TD*
G04 #@! TO.P,C4,2*
G04 #@! TO.N,Net-(C2-Pad2)*
X-228486696Y169229210D03*
D12*
G04 #@! TO.N,Net-(C3-Pad2)*
G04 #@! TO.C,C4*
G36*
X-227837192Y166965506D02*
X-227812923Y166961906D01*
X-227789125Y166955945D01*
X-227766025Y166947680D01*
X-227743847Y166937190D01*
X-227722803Y166924577D01*
X-227703098Y166909963D01*
X-227684919Y166893487D01*
X-227668443Y166875308D01*
X-227653829Y166855603D01*
X-227641216Y166834559D01*
X-227630726Y166812381D01*
X-227622461Y166789281D01*
X-227616500Y166765483D01*
X-227612900Y166741214D01*
X-227611696Y166716710D01*
X-227611696Y165791710D01*
X-227612900Y165767206D01*
X-227616500Y165742937D01*
X-227622461Y165719139D01*
X-227630726Y165696039D01*
X-227641216Y165673861D01*
X-227653829Y165652817D01*
X-227668443Y165633112D01*
X-227684919Y165614933D01*
X-227703098Y165598457D01*
X-227722803Y165583843D01*
X-227743847Y165571230D01*
X-227766025Y165560740D01*
X-227789125Y165552475D01*
X-227812923Y165546514D01*
X-227837192Y165542914D01*
X-227861696Y165541710D01*
X-229111696Y165541710D01*
X-229136200Y165542914D01*
X-229160469Y165546514D01*
X-229184267Y165552475D01*
X-229207367Y165560740D01*
X-229229545Y165571230D01*
X-229250589Y165583843D01*
X-229270294Y165598457D01*
X-229288473Y165614933D01*
X-229304949Y165633112D01*
X-229319563Y165652817D01*
X-229332176Y165673861D01*
X-229342666Y165696039D01*
X-229350931Y165719139D01*
X-229356892Y165742937D01*
X-229360492Y165767206D01*
X-229361696Y165791710D01*
X-229361696Y166716710D01*
X-229360492Y166741214D01*
X-229356892Y166765483D01*
X-229350931Y166789281D01*
X-229342666Y166812381D01*
X-229332176Y166834559D01*
X-229319563Y166855603D01*
X-229304949Y166875308D01*
X-229288473Y166893487D01*
X-229270294Y166909963D01*
X-229250589Y166924577D01*
X-229229545Y166937190D01*
X-229207367Y166947680D01*
X-229184267Y166955945D01*
X-229160469Y166961906D01*
X-229136200Y166965506D01*
X-229111696Y166966710D01*
X-227861696Y166966710D01*
X-227837192Y166965506D01*
X-227837192Y166965506D01*
G37*
D13*
G04 #@! TD*
G04 #@! TO.P,C4,1*
G04 #@! TO.N,Net-(C3-Pad2)*
X-228486696Y166254210D03*
D14*
G04 #@! TO.P,C5,2*
G04 #@! TO.N,-6.3*
X-259250000Y179410000D03*
G04 #@! TO.P,C5,1*
G04 #@! TO.N,+6.3_no_filtr*
X-259250000Y186910000D03*
G04 #@! TD*
G04 #@! TO.P,C6,2*
G04 #@! TO.N,GNDPWR*
X-237750000Y182910000D03*
G04 #@! TO.P,C6,1*
G04 #@! TO.N,Net-(C3-Pad2)*
X-230250000Y182910000D03*
G04 #@! TD*
D11*
G04 #@! TO.P,C7,2*
G04 #@! TO.N,GNDPWR*
X-244000000Y201910000D03*
D15*
G04 #@! TO.P,C7,1*
G04 #@! TO.N,PWR_2*
X-244000000Y211910000D03*
G04 #@! TD*
D14*
G04 #@! TO.P,C8,2*
G04 #@! TO.N,-6.3*
X-282000000Y183410000D03*
G04 #@! TO.P,C8,1*
G04 #@! TO.N,+6.3*
X-289500000Y183410000D03*
G04 #@! TD*
G04 #@! TO.P,C9,2*
G04 #@! TO.N,Net-(C9-Pad2)*
X-301000000Y217000000D03*
G04 #@! TO.P,C9,1*
G04 #@! TO.N,Net-(C9-Pad1)*
X-301000000Y227000000D03*
G04 #@! TD*
G04 #@! TO.P,C10,2*
G04 #@! TO.N,Net-(C10-Pad2)*
X-326000000Y217000000D03*
G04 #@! TO.P,C10,1*
G04 #@! TO.N,Net-(C10-Pad1)*
X-326000000Y227000000D03*
G04 #@! TD*
G04 #@! TO.P,C11,2*
G04 #@! TO.N,GND*
X-279000000Y201410000D03*
G04 #@! TO.P,C11,1*
G04 #@! TO.N,PWR_1*
X-279000000Y208910000D03*
G04 #@! TD*
G04 #@! TO.P,C12,2*
G04 #@! TO.N,GND*
X-290000000Y201910000D03*
G04 #@! TO.P,C12,1*
G04 #@! TO.N,PWR_1*
X-290000000Y211910000D03*
G04 #@! TD*
G04 #@! TO.P,C15,2*
G04 #@! TO.N,Net-(C15-Pad2)*
X-280500000Y231410000D03*
G04 #@! TO.P,C15,1*
G04 #@! TO.N,Net-(C15-Pad1)*
X-288000000Y231410000D03*
G04 #@! TD*
G04 #@! TO.P,C16,2*
G04 #@! TO.N,Net-(C16-Pad2)*
X-253320000Y227860000D03*
G04 #@! TO.P,C16,1*
G04 #@! TO.N,Net-(C16-Pad1)*
X-253320000Y235360000D03*
G04 #@! TD*
D16*
G04 #@! TO.P,D1,4*
G04 #@! TO.N,+6.3_no_filtr*
X-269130000Y183360000D03*
G04 #@! TO.P,D1,3*
G04 #@! TO.N,Net-(D1-Pad3)*
X-269130000Y188460000D03*
G04 #@! TO.P,D1,2*
G04 #@! TO.N,Net-(D1-Pad2)*
X-277870000Y188460000D03*
G04 #@! TO.P,D1,1*
G04 #@! TO.N,-6.3*
X-277870000Y183360000D03*
G04 #@! TD*
D17*
G04 #@! TO.P,D6,2*
G04 #@! TO.N,-6.3*
X-234920000Y236000000D03*
D18*
G04 #@! TO.P,D6,1*
G04 #@! TO.N,Net-(D6-Pad1)*
X-240000000Y236000000D03*
G04 #@! TD*
D17*
G04 #@! TO.P,L1,2*
G04 #@! TO.N,PWR_2*
X-246500000Y183740000D03*
D18*
G04 #@! TO.P,L1,1*
G04 #@! TO.N,Net-(C3-Pad2)*
X-246500000Y178660000D03*
G04 #@! TD*
D19*
G04 #@! TO.P,R1,2*
G04 #@! TO.N,+6.3_no_filtr*
X-258760000Y194000000D03*
D20*
G04 #@! TO.P,R1,1*
G04 #@! TO.N,Net-(R1-Pad1)*
X-274000000Y194000000D03*
G04 #@! TD*
D19*
G04 #@! TO.P,R2,2*
G04 #@! TO.N,Net-(R1-Pad1)*
X-276760000Y194000000D03*
D20*
G04 #@! TO.P,R2,1*
G04 #@! TO.N,+6.3*
X-292000000Y194000000D03*
G04 #@! TD*
D12*
G04 #@! TO.N,PWR_2*
G04 #@! TO.C,R6*
G36*
X-266555736Y212549052D02*
X-266531467Y212545452D01*
X-266507669Y212539491D01*
X-266484569Y212531226D01*
X-266462391Y212520736D01*
X-266441347Y212508123D01*
X-266421642Y212493509D01*
X-266403463Y212477033D01*
X-266386987Y212458854D01*
X-266372373Y212439149D01*
X-266359760Y212418105D01*
X-266349270Y212395927D01*
X-266341005Y212372827D01*
X-266335044Y212349029D01*
X-266331444Y212324760D01*
X-266330240Y212300256D01*
X-266330240Y211375256D01*
X-266331444Y211350752D01*
X-266335044Y211326483D01*
X-266341005Y211302685D01*
X-266349270Y211279585D01*
X-266359760Y211257407D01*
X-266372373Y211236363D01*
X-266386987Y211216658D01*
X-266403463Y211198479D01*
X-266421642Y211182003D01*
X-266441347Y211167389D01*
X-266462391Y211154776D01*
X-266484569Y211144286D01*
X-266507669Y211136021D01*
X-266531467Y211130060D01*
X-266555736Y211126460D01*
X-266580240Y211125256D01*
X-267830240Y211125256D01*
X-267854744Y211126460D01*
X-267879013Y211130060D01*
X-267902811Y211136021D01*
X-267925911Y211144286D01*
X-267948089Y211154776D01*
X-267969133Y211167389D01*
X-267988838Y211182003D01*
X-268007017Y211198479D01*
X-268023493Y211216658D01*
X-268038107Y211236363D01*
X-268050720Y211257407D01*
X-268061210Y211279585D01*
X-268069475Y211302685D01*
X-268075436Y211326483D01*
X-268079036Y211350752D01*
X-268080240Y211375256D01*
X-268080240Y212300256D01*
X-268079036Y212324760D01*
X-268075436Y212349029D01*
X-268069475Y212372827D01*
X-268061210Y212395927D01*
X-268050720Y212418105D01*
X-268038107Y212439149D01*
X-268023493Y212458854D01*
X-268007017Y212477033D01*
X-267988838Y212493509D01*
X-267969133Y212508123D01*
X-267948089Y212520736D01*
X-267925911Y212531226D01*
X-267902811Y212539491D01*
X-267879013Y212545452D01*
X-267854744Y212549052D01*
X-267830240Y212550256D01*
X-266580240Y212550256D01*
X-266555736Y212549052D01*
X-266555736Y212549052D01*
G37*
D13*
G04 #@! TD*
G04 #@! TO.P,R6,2*
G04 #@! TO.N,PWR_2*
X-267205240Y211837756D03*
D12*
G04 #@! TO.N,PWR_1*
G04 #@! TO.C,R6*
G36*
X-266555736Y209574052D02*
X-266531467Y209570452D01*
X-266507669Y209564491D01*
X-266484569Y209556226D01*
X-266462391Y209545736D01*
X-266441347Y209533123D01*
X-266421642Y209518509D01*
X-266403463Y209502033D01*
X-266386987Y209483854D01*
X-266372373Y209464149D01*
X-266359760Y209443105D01*
X-266349270Y209420927D01*
X-266341005Y209397827D01*
X-266335044Y209374029D01*
X-266331444Y209349760D01*
X-266330240Y209325256D01*
X-266330240Y208400256D01*
X-266331444Y208375752D01*
X-266335044Y208351483D01*
X-266341005Y208327685D01*
X-266349270Y208304585D01*
X-266359760Y208282407D01*
X-266372373Y208261363D01*
X-266386987Y208241658D01*
X-266403463Y208223479D01*
X-266421642Y208207003D01*
X-266441347Y208192389D01*
X-266462391Y208179776D01*
X-266484569Y208169286D01*
X-266507669Y208161021D01*
X-266531467Y208155060D01*
X-266555736Y208151460D01*
X-266580240Y208150256D01*
X-267830240Y208150256D01*
X-267854744Y208151460D01*
X-267879013Y208155060D01*
X-267902811Y208161021D01*
X-267925911Y208169286D01*
X-267948089Y208179776D01*
X-267969133Y208192389D01*
X-267988838Y208207003D01*
X-268007017Y208223479D01*
X-268023493Y208241658D01*
X-268038107Y208261363D01*
X-268050720Y208282407D01*
X-268061210Y208304585D01*
X-268069475Y208327685D01*
X-268075436Y208351483D01*
X-268079036Y208375752D01*
X-268080240Y208400256D01*
X-268080240Y209325256D01*
X-268079036Y209349760D01*
X-268075436Y209374029D01*
X-268069475Y209397827D01*
X-268061210Y209420927D01*
X-268050720Y209443105D01*
X-268038107Y209464149D01*
X-268023493Y209483854D01*
X-268007017Y209502033D01*
X-267988838Y209518509D01*
X-267969133Y209533123D01*
X-267948089Y209545736D01*
X-267925911Y209556226D01*
X-267902811Y209564491D01*
X-267879013Y209570452D01*
X-267854744Y209574052D01*
X-267830240Y209575256D01*
X-266580240Y209575256D01*
X-266555736Y209574052D01*
X-266555736Y209574052D01*
G37*
D13*
G04 #@! TD*
G04 #@! TO.P,R6,1*
G04 #@! TO.N,PWR_1*
X-267205240Y208862756D03*
D12*
G04 #@! TO.N,PWR_2*
G04 #@! TO.C,R7*
G36*
X-264555736Y212549052D02*
X-264531467Y212545452D01*
X-264507669Y212539491D01*
X-264484569Y212531226D01*
X-264462391Y212520736D01*
X-264441347Y212508123D01*
X-264421642Y212493509D01*
X-264403463Y212477033D01*
X-264386987Y212458854D01*
X-264372373Y212439149D01*
X-264359760Y212418105D01*
X-264349270Y212395927D01*
X-264341005Y212372827D01*
X-264335044Y212349029D01*
X-264331444Y212324760D01*
X-264330240Y212300256D01*
X-264330240Y211375256D01*
X-264331444Y211350752D01*
X-264335044Y211326483D01*
X-264341005Y211302685D01*
X-264349270Y211279585D01*
X-264359760Y211257407D01*
X-264372373Y211236363D01*
X-264386987Y211216658D01*
X-264403463Y211198479D01*
X-264421642Y211182003D01*
X-264441347Y211167389D01*
X-264462391Y211154776D01*
X-264484569Y211144286D01*
X-264507669Y211136021D01*
X-264531467Y211130060D01*
X-264555736Y211126460D01*
X-264580240Y211125256D01*
X-265830240Y211125256D01*
X-265854744Y211126460D01*
X-265879013Y211130060D01*
X-265902811Y211136021D01*
X-265925911Y211144286D01*
X-265948089Y211154776D01*
X-265969133Y211167389D01*
X-265988838Y211182003D01*
X-266007017Y211198479D01*
X-266023493Y211216658D01*
X-266038107Y211236363D01*
X-266050720Y211257407D01*
X-266061210Y211279585D01*
X-266069475Y211302685D01*
X-266075436Y211326483D01*
X-266079036Y211350752D01*
X-266080240Y211375256D01*
X-266080240Y212300256D01*
X-266079036Y212324760D01*
X-266075436Y212349029D01*
X-266069475Y212372827D01*
X-266061210Y212395927D01*
X-266050720Y212418105D01*
X-266038107Y212439149D01*
X-266023493Y212458854D01*
X-266007017Y212477033D01*
X-265988838Y212493509D01*
X-265969133Y212508123D01*
X-265948089Y212520736D01*
X-265925911Y212531226D01*
X-265902811Y212539491D01*
X-265879013Y212545452D01*
X-265854744Y212549052D01*
X-265830240Y212550256D01*
X-264580240Y212550256D01*
X-264555736Y212549052D01*
X-264555736Y212549052D01*
G37*
D13*
G04 #@! TD*
G04 #@! TO.P,R7,2*
G04 #@! TO.N,PWR_2*
X-265205240Y211837756D03*
D12*
G04 #@! TO.N,PWR_1*
G04 #@! TO.C,R7*
G36*
X-264555736Y209574052D02*
X-264531467Y209570452D01*
X-264507669Y209564491D01*
X-264484569Y209556226D01*
X-264462391Y209545736D01*
X-264441347Y209533123D01*
X-264421642Y209518509D01*
X-264403463Y209502033D01*
X-264386987Y209483854D01*
X-264372373Y209464149D01*
X-264359760Y209443105D01*
X-264349270Y209420927D01*
X-264341005Y209397827D01*
X-264335044Y209374029D01*
X-264331444Y209349760D01*
X-264330240Y209325256D01*
X-264330240Y208400256D01*
X-264331444Y208375752D01*
X-264335044Y208351483D01*
X-264341005Y208327685D01*
X-264349270Y208304585D01*
X-264359760Y208282407D01*
X-264372373Y208261363D01*
X-264386987Y208241658D01*
X-264403463Y208223479D01*
X-264421642Y208207003D01*
X-264441347Y208192389D01*
X-264462391Y208179776D01*
X-264484569Y208169286D01*
X-264507669Y208161021D01*
X-264531467Y208155060D01*
X-264555736Y208151460D01*
X-264580240Y208150256D01*
X-265830240Y208150256D01*
X-265854744Y208151460D01*
X-265879013Y208155060D01*
X-265902811Y208161021D01*
X-265925911Y208169286D01*
X-265948089Y208179776D01*
X-265969133Y208192389D01*
X-265988838Y208207003D01*
X-266007017Y208223479D01*
X-266023493Y208241658D01*
X-266038107Y208261363D01*
X-266050720Y208282407D01*
X-266061210Y208304585D01*
X-266069475Y208327685D01*
X-266075436Y208351483D01*
X-266079036Y208375752D01*
X-266080240Y208400256D01*
X-266080240Y209325256D01*
X-266079036Y209349760D01*
X-266075436Y209374029D01*
X-266069475Y209397827D01*
X-266061210Y209420927D01*
X-266050720Y209443105D01*
X-266038107Y209464149D01*
X-266023493Y209483854D01*
X-266007017Y209502033D01*
X-265988838Y209518509D01*
X-265969133Y209533123D01*
X-265948089Y209545736D01*
X-265925911Y209556226D01*
X-265902811Y209564491D01*
X-265879013Y209570452D01*
X-265854744Y209574052D01*
X-265830240Y209575256D01*
X-264580240Y209575256D01*
X-264555736Y209574052D01*
X-264555736Y209574052D01*
G37*
D13*
G04 #@! TD*
G04 #@! TO.P,R7,1*
G04 #@! TO.N,PWR_1*
X-265205240Y208862756D03*
D12*
G04 #@! TO.N,GNDPWR*
G04 #@! TO.C,R23*
G36*
X-264845496Y202243796D02*
X-264821227Y202240196D01*
X-264797429Y202234235D01*
X-264774329Y202225970D01*
X-264752151Y202215480D01*
X-264731107Y202202867D01*
X-264711402Y202188253D01*
X-264693223Y202171777D01*
X-264676747Y202153598D01*
X-264662133Y202133893D01*
X-264649520Y202112849D01*
X-264639030Y202090671D01*
X-264630765Y202067571D01*
X-264624804Y202043773D01*
X-264621204Y202019504D01*
X-264620000Y201995000D01*
X-264620000Y200745000D01*
X-264621204Y200720496D01*
X-264624804Y200696227D01*
X-264630765Y200672429D01*
X-264639030Y200649329D01*
X-264649520Y200627151D01*
X-264662133Y200606107D01*
X-264676747Y200586402D01*
X-264693223Y200568223D01*
X-264711402Y200551747D01*
X-264731107Y200537133D01*
X-264752151Y200524520D01*
X-264774329Y200514030D01*
X-264797429Y200505765D01*
X-264821227Y200499804D01*
X-264845496Y200496204D01*
X-264870000Y200495000D01*
X-265795000Y200495000D01*
X-265819504Y200496204D01*
X-265843773Y200499804D01*
X-265867571Y200505765D01*
X-265890671Y200514030D01*
X-265912849Y200524520D01*
X-265933893Y200537133D01*
X-265953598Y200551747D01*
X-265971777Y200568223D01*
X-265988253Y200586402D01*
X-266002867Y200606107D01*
X-266015480Y200627151D01*
X-266025970Y200649329D01*
X-266034235Y200672429D01*
X-266040196Y200696227D01*
X-266043796Y200720496D01*
X-266045000Y200745000D01*
X-266045000Y201995000D01*
X-266043796Y202019504D01*
X-266040196Y202043773D01*
X-266034235Y202067571D01*
X-266025970Y202090671D01*
X-266015480Y202112849D01*
X-266002867Y202133893D01*
X-265988253Y202153598D01*
X-265971777Y202171777D01*
X-265953598Y202188253D01*
X-265933893Y202202867D01*
X-265912849Y202215480D01*
X-265890671Y202225970D01*
X-265867571Y202234235D01*
X-265843773Y202240196D01*
X-265819504Y202243796D01*
X-265795000Y202245000D01*
X-264870000Y202245000D01*
X-264845496Y202243796D01*
X-264845496Y202243796D01*
G37*
D13*
G04 #@! TD*
G04 #@! TO.P,R23,2*
G04 #@! TO.N,GNDPWR*
X-265332500Y201370000D03*
D12*
G04 #@! TO.N,GND*
G04 #@! TO.C,R23*
G36*
X-267820496Y202243796D02*
X-267796227Y202240196D01*
X-267772429Y202234235D01*
X-267749329Y202225970D01*
X-267727151Y202215480D01*
X-267706107Y202202867D01*
X-267686402Y202188253D01*
X-267668223Y202171777D01*
X-267651747Y202153598D01*
X-267637133Y202133893D01*
X-267624520Y202112849D01*
X-267614030Y202090671D01*
X-267605765Y202067571D01*
X-267599804Y202043773D01*
X-267596204Y202019504D01*
X-267595000Y201995000D01*
X-267595000Y200745000D01*
X-267596204Y200720496D01*
X-267599804Y200696227D01*
X-267605765Y200672429D01*
X-267614030Y200649329D01*
X-267624520Y200627151D01*
X-267637133Y200606107D01*
X-267651747Y200586402D01*
X-267668223Y200568223D01*
X-267686402Y200551747D01*
X-267706107Y200537133D01*
X-267727151Y200524520D01*
X-267749329Y200514030D01*
X-267772429Y200505765D01*
X-267796227Y200499804D01*
X-267820496Y200496204D01*
X-267845000Y200495000D01*
X-268770000Y200495000D01*
X-268794504Y200496204D01*
X-268818773Y200499804D01*
X-268842571Y200505765D01*
X-268865671Y200514030D01*
X-268887849Y200524520D01*
X-268908893Y200537133D01*
X-268928598Y200551747D01*
X-268946777Y200568223D01*
X-268963253Y200586402D01*
X-268977867Y200606107D01*
X-268990480Y200627151D01*
X-269000970Y200649329D01*
X-269009235Y200672429D01*
X-269015196Y200696227D01*
X-269018796Y200720496D01*
X-269020000Y200745000D01*
X-269020000Y201995000D01*
X-269018796Y202019504D01*
X-269015196Y202043773D01*
X-269009235Y202067571D01*
X-269000970Y202090671D01*
X-268990480Y202112849D01*
X-268977867Y202133893D01*
X-268963253Y202153598D01*
X-268946777Y202171777D01*
X-268928598Y202188253D01*
X-268908893Y202202867D01*
X-268887849Y202215480D01*
X-268865671Y202225970D01*
X-268842571Y202234235D01*
X-268818773Y202240196D01*
X-268794504Y202243796D01*
X-268770000Y202245000D01*
X-267845000Y202245000D01*
X-267820496Y202243796D01*
X-267820496Y202243796D01*
G37*
D13*
G04 #@! TD*
G04 #@! TO.P,R23,1*
G04 #@! TO.N,GND*
X-268307500Y201370000D03*
D12*
G04 #@! TO.N,Net-(C16-Pad2)*
G04 #@! TO.C,R24*
G36*
X-265350496Y223223796D02*
X-265326227Y223220196D01*
X-265302429Y223214235D01*
X-265279329Y223205970D01*
X-265257151Y223195480D01*
X-265236107Y223182867D01*
X-265216402Y223168253D01*
X-265198223Y223151777D01*
X-265181747Y223133598D01*
X-265167133Y223113893D01*
X-265154520Y223092849D01*
X-265144030Y223070671D01*
X-265135765Y223047571D01*
X-265129804Y223023773D01*
X-265126204Y222999504D01*
X-265125000Y222975000D01*
X-265125000Y222050000D01*
X-265126204Y222025496D01*
X-265129804Y222001227D01*
X-265135765Y221977429D01*
X-265144030Y221954329D01*
X-265154520Y221932151D01*
X-265167133Y221911107D01*
X-265181747Y221891402D01*
X-265198223Y221873223D01*
X-265216402Y221856747D01*
X-265236107Y221842133D01*
X-265257151Y221829520D01*
X-265279329Y221819030D01*
X-265302429Y221810765D01*
X-265326227Y221804804D01*
X-265350496Y221801204D01*
X-265375000Y221800000D01*
X-266625000Y221800000D01*
X-266649504Y221801204D01*
X-266673773Y221804804D01*
X-266697571Y221810765D01*
X-266720671Y221819030D01*
X-266742849Y221829520D01*
X-266763893Y221842133D01*
X-266783598Y221856747D01*
X-266801777Y221873223D01*
X-266818253Y221891402D01*
X-266832867Y221911107D01*
X-266845480Y221932151D01*
X-266855970Y221954329D01*
X-266864235Y221977429D01*
X-266870196Y222001227D01*
X-266873796Y222025496D01*
X-266875000Y222050000D01*
X-266875000Y222975000D01*
X-266873796Y222999504D01*
X-266870196Y223023773D01*
X-266864235Y223047571D01*
X-266855970Y223070671D01*
X-266845480Y223092849D01*
X-266832867Y223113893D01*
X-266818253Y223133598D01*
X-266801777Y223151777D01*
X-266783598Y223168253D01*
X-266763893Y223182867D01*
X-266742849Y223195480D01*
X-266720671Y223205970D01*
X-266697571Y223214235D01*
X-266673773Y223220196D01*
X-266649504Y223223796D01*
X-266625000Y223225000D01*
X-265375000Y223225000D01*
X-265350496Y223223796D01*
X-265350496Y223223796D01*
G37*
D13*
G04 #@! TD*
G04 #@! TO.P,R24,2*
G04 #@! TO.N,Net-(C16-Pad2)*
X-266000000Y222512500D03*
D12*
G04 #@! TO.N,GNDPWR*
G04 #@! TO.C,R24*
G36*
X-265350496Y226198796D02*
X-265326227Y226195196D01*
X-265302429Y226189235D01*
X-265279329Y226180970D01*
X-265257151Y226170480D01*
X-265236107Y226157867D01*
X-265216402Y226143253D01*
X-265198223Y226126777D01*
X-265181747Y226108598D01*
X-265167133Y226088893D01*
X-265154520Y226067849D01*
X-265144030Y226045671D01*
X-265135765Y226022571D01*
X-265129804Y225998773D01*
X-265126204Y225974504D01*
X-265125000Y225950000D01*
X-265125000Y225025000D01*
X-265126204Y225000496D01*
X-265129804Y224976227D01*
X-265135765Y224952429D01*
X-265144030Y224929329D01*
X-265154520Y224907151D01*
X-265167133Y224886107D01*
X-265181747Y224866402D01*
X-265198223Y224848223D01*
X-265216402Y224831747D01*
X-265236107Y224817133D01*
X-265257151Y224804520D01*
X-265279329Y224794030D01*
X-265302429Y224785765D01*
X-265326227Y224779804D01*
X-265350496Y224776204D01*
X-265375000Y224775000D01*
X-266625000Y224775000D01*
X-266649504Y224776204D01*
X-266673773Y224779804D01*
X-266697571Y224785765D01*
X-266720671Y224794030D01*
X-266742849Y224804520D01*
X-266763893Y224817133D01*
X-266783598Y224831747D01*
X-266801777Y224848223D01*
X-266818253Y224866402D01*
X-266832867Y224886107D01*
X-266845480Y224907151D01*
X-266855970Y224929329D01*
X-266864235Y224952429D01*
X-266870196Y224976227D01*
X-266873796Y225000496D01*
X-266875000Y225025000D01*
X-266875000Y225950000D01*
X-266873796Y225974504D01*
X-266870196Y225998773D01*
X-266864235Y226022571D01*
X-266855970Y226045671D01*
X-266845480Y226067849D01*
X-266832867Y226088893D01*
X-266818253Y226108598D01*
X-266801777Y226126777D01*
X-266783598Y226143253D01*
X-266763893Y226157867D01*
X-266742849Y226170480D01*
X-266720671Y226180970D01*
X-266697571Y226189235D01*
X-266673773Y226195196D01*
X-266649504Y226198796D01*
X-266625000Y226200000D01*
X-265375000Y226200000D01*
X-265350496Y226198796D01*
X-265350496Y226198796D01*
G37*
D13*
G04 #@! TD*
G04 #@! TO.P,R24,1*
G04 #@! TO.N,GNDPWR*
X-266000000Y225487500D03*
D12*
G04 #@! TO.N,Net-(C15-Pad2)*
G04 #@! TO.C,R25*
G36*
X-270350496Y223223796D02*
X-270326227Y223220196D01*
X-270302429Y223214235D01*
X-270279329Y223205970D01*
X-270257151Y223195480D01*
X-270236107Y223182867D01*
X-270216402Y223168253D01*
X-270198223Y223151777D01*
X-270181747Y223133598D01*
X-270167133Y223113893D01*
X-270154520Y223092849D01*
X-270144030Y223070671D01*
X-270135765Y223047571D01*
X-270129804Y223023773D01*
X-270126204Y222999504D01*
X-270125000Y222975000D01*
X-270125000Y222050000D01*
X-270126204Y222025496D01*
X-270129804Y222001227D01*
X-270135765Y221977429D01*
X-270144030Y221954329D01*
X-270154520Y221932151D01*
X-270167133Y221911107D01*
X-270181747Y221891402D01*
X-270198223Y221873223D01*
X-270216402Y221856747D01*
X-270236107Y221842133D01*
X-270257151Y221829520D01*
X-270279329Y221819030D01*
X-270302429Y221810765D01*
X-270326227Y221804804D01*
X-270350496Y221801204D01*
X-270375000Y221800000D01*
X-271625000Y221800000D01*
X-271649504Y221801204D01*
X-271673773Y221804804D01*
X-271697571Y221810765D01*
X-271720671Y221819030D01*
X-271742849Y221829520D01*
X-271763893Y221842133D01*
X-271783598Y221856747D01*
X-271801777Y221873223D01*
X-271818253Y221891402D01*
X-271832867Y221911107D01*
X-271845480Y221932151D01*
X-271855970Y221954329D01*
X-271864235Y221977429D01*
X-271870196Y222001227D01*
X-271873796Y222025496D01*
X-271875000Y222050000D01*
X-271875000Y222975000D01*
X-271873796Y222999504D01*
X-271870196Y223023773D01*
X-271864235Y223047571D01*
X-271855970Y223070671D01*
X-271845480Y223092849D01*
X-271832867Y223113893D01*
X-271818253Y223133598D01*
X-271801777Y223151777D01*
X-271783598Y223168253D01*
X-271763893Y223182867D01*
X-271742849Y223195480D01*
X-271720671Y223205970D01*
X-271697571Y223214235D01*
X-271673773Y223220196D01*
X-271649504Y223223796D01*
X-271625000Y223225000D01*
X-270375000Y223225000D01*
X-270350496Y223223796D01*
X-270350496Y223223796D01*
G37*
D13*
G04 #@! TD*
G04 #@! TO.P,R25,2*
G04 #@! TO.N,Net-(C15-Pad2)*
X-271000000Y222512500D03*
D12*
G04 #@! TO.N,GNDPWR*
G04 #@! TO.C,R25*
G36*
X-270350496Y226198796D02*
X-270326227Y226195196D01*
X-270302429Y226189235D01*
X-270279329Y226180970D01*
X-270257151Y226170480D01*
X-270236107Y226157867D01*
X-270216402Y226143253D01*
X-270198223Y226126777D01*
X-270181747Y226108598D01*
X-270167133Y226088893D01*
X-270154520Y226067849D01*
X-270144030Y226045671D01*
X-270135765Y226022571D01*
X-270129804Y225998773D01*
X-270126204Y225974504D01*
X-270125000Y225950000D01*
X-270125000Y225025000D01*
X-270126204Y225000496D01*
X-270129804Y224976227D01*
X-270135765Y224952429D01*
X-270144030Y224929329D01*
X-270154520Y224907151D01*
X-270167133Y224886107D01*
X-270181747Y224866402D01*
X-270198223Y224848223D01*
X-270216402Y224831747D01*
X-270236107Y224817133D01*
X-270257151Y224804520D01*
X-270279329Y224794030D01*
X-270302429Y224785765D01*
X-270326227Y224779804D01*
X-270350496Y224776204D01*
X-270375000Y224775000D01*
X-271625000Y224775000D01*
X-271649504Y224776204D01*
X-271673773Y224779804D01*
X-271697571Y224785765D01*
X-271720671Y224794030D01*
X-271742849Y224804520D01*
X-271763893Y224817133D01*
X-271783598Y224831747D01*
X-271801777Y224848223D01*
X-271818253Y224866402D01*
X-271832867Y224886107D01*
X-271845480Y224907151D01*
X-271855970Y224929329D01*
X-271864235Y224952429D01*
X-271870196Y224976227D01*
X-271873796Y225000496D01*
X-271875000Y225025000D01*
X-271875000Y225950000D01*
X-271873796Y225974504D01*
X-271870196Y225998773D01*
X-271864235Y226022571D01*
X-271855970Y226045671D01*
X-271845480Y226067849D01*
X-271832867Y226088893D01*
X-271818253Y226108598D01*
X-271801777Y226126777D01*
X-271783598Y226143253D01*
X-271763893Y226157867D01*
X-271742849Y226170480D01*
X-271720671Y226180970D01*
X-271697571Y226189235D01*
X-271673773Y226195196D01*
X-271649504Y226198796D01*
X-271625000Y226200000D01*
X-270375000Y226200000D01*
X-270350496Y226198796D01*
X-270350496Y226198796D01*
G37*
D13*
G04 #@! TD*
G04 #@! TO.P,R25,1*
G04 #@! TO.N,GNDPWR*
X-271000000Y225487500D03*
D21*
G04 #@! TO.P,VL1,8*
G04 #@! TO.N,-6.3*
X-309236644Y212427051D03*
D22*
G04 #@! TO.P,VL1,7*
G04 #@! TO.N,Net-(C13-Pad1)*
X-308146830Y210927051D03*
D21*
G04 #@! TO.P,VL1,6*
G04 #@! TO.N,Net-(R18-Pad2)*
X-308146830Y209072949D03*
G04 #@! TO.P,VL1,5*
G04 #@! TO.N,GND*
X-309236644Y207572949D03*
G04 #@! TO.P,VL1,4*
G04 #@! TO.N,Net-(R15-Pad1)*
X-311000000Y207000000D03*
G04 #@! TO.P,VL1,3*
G04 #@! TO.N,+6.3*
X-312763356Y207572949D03*
G04 #@! TO.P,VL1,2*
G04 #@! TO.N,Net-(C14-Pad1)*
X-313853170Y209072949D03*
G04 #@! TO.P,VL1,1*
G04 #@! TO.N,Net-(R17-Pad2)*
X-313853170Y210927051D03*
G04 #@! TO.P,VL1,9*
G04 #@! TO.N,Net-(R13-Pad1)*
X-311000000Y213000000D03*
G04 #@! TD*
D23*
G04 #@! TO.P,XS1,2*
G04 #@! TO.N,Net-(C2-Pad2)*
X-229190000Y149000000D03*
D24*
G04 #@! TO.P,XS1,1*
G04 #@! TO.N,Net-(C1-Pad1)*
X-233000000Y149000000D03*
G04 #@! TD*
D23*
G04 #@! TO.P,XS2,2*
G04 #@! TO.N,Net-(D1-Pad3)*
X-270690000Y178660000D03*
D24*
G04 #@! TO.P,XS2,1*
G04 #@! TO.N,Net-(D1-Pad2)*
X-274500000Y178660000D03*
G04 #@! TD*
D17*
G04 #@! TO.P,XS3,2*
G04 #@! TO.N,GND*
X-326000000Y230920000D03*
D18*
G04 #@! TO.P,XS3,1*
G04 #@! TO.N,Net-(R5-Pad2)*
X-326000000Y236000000D03*
G04 #@! TD*
D17*
G04 #@! TO.P,XS4,2*
G04 #@! TO.N,GND*
X-301000000Y230920000D03*
D18*
G04 #@! TO.P,XS4,1*
G04 #@! TO.N,Net-(R4-Pad2)*
X-301000000Y236000000D03*
G04 #@! TD*
D25*
G04 #@! TO.N,GNDPWR*
X-234986696Y159754210D03*
X-234986696Y166254210D03*
D26*
X-265360000Y205210000D03*
D25*
X-259550000Y221820000D03*
X-251000000Y177910000D03*
X-246000000Y187910000D03*
X-253000000Y189910000D03*
G04 #@! TO.N,Net-(C1-Pad1)*
X-226986696Y156754210D03*
X-234986696Y156504210D03*
G04 #@! TO.N,Net-(C2-Pad2)*
X-234986696Y169254210D03*
X-227011696Y169229210D03*
G04 #@! TO.N,Net-(C3-Pad2)*
X-226986696Y159504210D03*
X-226986696Y166254210D03*
X-230940000Y168910000D03*
X-228750000Y191410000D03*
G04 #@! TO.N,-6.3*
X-249750000Y188410000D03*
G04 #@! TO.N,PWR_2*
X-231000000Y193410000D03*
X-273490000Y212800000D03*
X-285040000Y212600000D03*
G04 #@! TO.N,GND*
X-293000000Y203910000D03*
X-322000000Y199910000D03*
X-304000000Y214910000D03*
X-305000000Y218910000D03*
X-322000000Y218910000D03*
G04 #@! TO.N,Net-(C14-Pad1)*
X-319000000Y211910000D03*
G04 #@! TO.N,Net-(C15-Pad1)*
X-294320000Y226140000D03*
G04 #@! TO.N,Net-(C16-Pad1)*
X-261520000Y235860000D03*
G04 #@! TO.N,Net-(R13-Pad1)*
X-315000000Y214910000D03*
G04 #@! TO.N,Net-(R17-Pad2)*
X-303540495Y217246493D03*
X-296000000Y218910000D03*
G04 #@! TO.N,Net-(R18-Pad2)*
X-296680000Y213220000D03*
X-284500000Y218410000D03*
X-296640000Y216660000D03*
X-304180000Y208860000D03*
G04 #@! TD*
D27*
G04 #@! TO.N,GNDPWR*
X-234461696Y159651710D02*
X-234564196Y159754210D01*
X-233486696Y159651710D02*
X-234461696Y159651710D01*
X-234564196Y159754210D02*
X-234986696Y159754210D01*
X-233486696Y166254210D02*
X-234461696Y166254210D01*
X-234461696Y166254210D02*
X-234986696Y166254210D01*
D28*
X-237000000Y169017514D02*
X-237000000Y182910000D01*
X-237000000Y168267514D02*
X-237000000Y169017514D01*
X-234986696Y166254210D02*
X-237000000Y168267514D01*
X-237750000Y195660000D02*
X-244000000Y201910000D01*
X-237750000Y182910000D02*
X-237750000Y195660000D01*
X-268500000Y232500000D02*
X-268500000Y225487500D01*
X-271000000Y225487500D02*
X-268500000Y225487500D01*
X-268500000Y225487500D02*
X-266000000Y225487500D01*
D27*
X-244540000Y201370000D02*
X-244000000Y201910000D01*
D29*
X-265332500Y201910000D02*
X-244540000Y201910000D01*
D27*
X-265360000Y201397500D02*
X-265332500Y201370000D01*
D29*
X-265360000Y205210000D02*
X-265360000Y201397500D01*
D28*
X-266000000Y225487500D02*
X-263207500Y225487500D01*
X-263207500Y225487500D02*
X-259550000Y221830000D01*
D27*
X-259550000Y221830000D02*
X-259550000Y221820000D01*
G04 #@! TO.N,Net-(C1-Pad1)*
X-228486696Y156676710D02*
X-227064196Y156676710D01*
X-227064196Y156676710D02*
X-226986696Y156754210D01*
X-234461696Y156676710D02*
X-234634196Y156504210D01*
X-233486696Y156676710D02*
X-234461696Y156676710D01*
X-234634196Y156504210D02*
X-234986696Y156504210D01*
X-233000000Y156190014D02*
X-233486696Y156676710D01*
D28*
X-233000000Y149000000D02*
X-233000000Y156190014D01*
D27*
G04 #@! TO.N,Net-(C2-Pad2)*
X-234461696Y169229210D02*
X-234486696Y169254210D01*
X-233486696Y169229210D02*
X-234461696Y169229210D01*
X-234486696Y169254210D02*
X-234986696Y169254210D01*
X-228486696Y169229210D02*
X-228072356Y169229210D01*
X-228072356Y169229210D02*
X-227011696Y169229210D01*
D28*
X-231000000Y166742514D02*
X-233486696Y169229210D01*
X-231000000Y163910000D02*
X-231000000Y166742514D01*
X-229190000Y151850000D02*
X-231000000Y153660000D01*
X-229190000Y149000000D02*
X-229190000Y151850000D01*
X-231000000Y163910000D02*
X-231000000Y153660000D01*
D27*
G04 #@! TO.N,Net-(C3-Pad2)*
X-227511696Y159651710D02*
X-227364196Y159504210D01*
X-228486696Y159651710D02*
X-227511696Y159651710D01*
X-227364196Y159504210D02*
X-226986696Y159504210D01*
X-228486696Y166254210D02*
X-227511696Y166254210D01*
X-227511696Y166254210D02*
X-226986696Y166254210D01*
D28*
X-231000000Y182160000D02*
X-230250000Y182910000D01*
X-231000000Y169160000D02*
X-231000000Y182160000D01*
X-230250000Y182910000D02*
X-230250000Y189660000D01*
X-230250000Y189660000D02*
X-228750000Y191160000D01*
D27*
X-228750000Y191160000D02*
X-228750000Y191410000D01*
G04 #@! TO.N,-6.3*
X-306017051Y212427051D02*
X-306000000Y212410000D01*
X-308536645Y213127050D02*
X-308536645Y213373355D01*
D30*
X-309199999Y212427051D02*
X-308500000Y213127050D01*
D27*
X-308536645Y213127050D02*
X-308532950Y213127050D01*
X-306250000Y212410000D02*
X-306000000Y212410000D01*
X-306282950Y213127050D02*
X-306250000Y213160000D01*
D30*
X-308536645Y213127050D02*
X-306282950Y213127050D01*
X-292250000Y200160000D02*
X-284000000Y191910000D01*
X-284000000Y185410000D02*
X-282000000Y183410000D01*
X-284000000Y191910000D02*
X-284000000Y185410000D01*
D27*
X-277920000Y183410000D02*
X-277870000Y183360000D01*
D30*
X-279000000Y180910000D02*
X-279000000Y183410000D01*
X-279000000Y183410000D02*
X-277920000Y183410000D01*
X-282000000Y183410000D02*
X-279000000Y183410000D01*
X-266000000Y175910000D02*
X-279000000Y175910000D01*
X-259250000Y179410000D02*
X-261750000Y179410000D01*
X-279000000Y175910000D02*
X-279000000Y181660000D01*
D27*
X-304750000Y203160000D02*
X-304500000Y202910000D01*
D30*
X-295000000Y202910000D02*
X-292250000Y200160000D01*
X-304500000Y202910000D02*
X-295000000Y202910000D01*
X-265250000Y175910000D02*
X-261750000Y179410000D01*
X-266000000Y175910000D02*
X-265250000Y175910000D01*
D27*
X-258750000Y179410000D02*
X-259250000Y179410000D01*
D28*
X-249750000Y188410000D02*
X-258750000Y179410000D01*
D30*
X-304500000Y202910000D02*
X-304500000Y205880000D01*
X-306282950Y207662950D02*
X-306282950Y213127050D01*
X-304500000Y205880000D02*
X-306282950Y207662950D01*
D28*
G04 #@! TO.N,PWR_2*
X-241500000Y211910000D02*
X-244000000Y211910000D01*
D27*
X-231000000Y201410000D02*
X-231250000Y201660000D01*
D28*
X-231000000Y193410000D02*
X-231000000Y201410000D01*
X-231250000Y201660000D02*
X-241500000Y211910000D01*
D27*
X-265132996Y211910000D02*
X-265205240Y211837756D01*
D28*
X-244000000Y211910000D02*
X-265132996Y211910000D01*
D27*
X-267207484Y211840000D02*
X-267205240Y211837756D01*
D28*
X-270440000Y211840000D02*
X-267207484Y211840000D01*
D27*
X-274080000Y211919340D02*
X-274080000Y211840000D01*
X-274100000Y211939340D02*
X-274080000Y211919340D01*
X-273490000Y212830000D02*
X-273490000Y211769340D01*
D28*
X-270440000Y211840000D02*
X-274080000Y211840000D01*
X-274080000Y211840000D02*
X-284170000Y211840000D01*
X-283450000Y211860000D02*
X-284650000Y211860000D01*
X-284650000Y211910000D02*
X-285040000Y212600000D01*
X-267205240Y211837756D02*
X-265205240Y211837756D01*
D30*
G04 #@! TO.N,+6.3*
X-292000000Y193500000D02*
X-292000000Y196410000D01*
D27*
X-313712950Y206872950D02*
X-313463355Y206872950D01*
D30*
X-313463355Y206872950D02*
X-312763356Y207572949D01*
D27*
X-313750000Y206910000D02*
X-313712950Y206872950D01*
D30*
X-290499999Y184409999D02*
X-289500000Y183410000D01*
X-292000000Y185910000D02*
X-290499999Y184409999D01*
X-292000000Y194000000D02*
X-292000000Y185910000D01*
D27*
X-313537050Y206872950D02*
X-313463355Y206872950D01*
D30*
X-313750000Y206660000D02*
X-313750000Y204410000D01*
D27*
X-313500000Y204160000D02*
X-313750000Y204410000D01*
D30*
X-307000000Y204160000D02*
X-313500000Y204160000D01*
X-307000000Y200910000D02*
X-307000000Y204160000D01*
X-296000000Y200910000D02*
X-307000000Y200910000D01*
D27*
X-292000000Y196410000D02*
X-292000000Y196910000D01*
D30*
X-292000000Y196910000D02*
X-296000000Y200910000D01*
D28*
G04 #@! TO.N,Net-(C10-Pad1)*
X-314000000Y224000000D02*
X-316890000Y221110000D01*
D27*
X-324184002Y221110000D02*
X-324194002Y221100000D01*
D28*
X-316890000Y221110000D02*
X-324184002Y221110000D01*
X-324194002Y221100000D02*
X-325940000Y221100000D01*
X-326000000Y221160000D02*
X-326000000Y227000000D01*
D27*
X-325940000Y221100000D02*
X-326000000Y221160000D01*
G04 #@! TO.N,PWR_1*
X-267252484Y208910000D02*
X-267205240Y208862756D01*
D28*
X-279000000Y208910000D02*
X-267252484Y208910000D01*
X-287000000Y208910000D02*
X-290000000Y211910000D01*
X-279000000Y208910000D02*
X-287000000Y208910000D01*
X-265205240Y208862756D02*
X-267205240Y208862756D01*
G04 #@! TO.N,GND*
X-302750059Y232670059D02*
X-301000000Y230920000D01*
X-326000000Y230920000D02*
X-324249941Y232670059D01*
X-309000000Y224000000D02*
X-309000000Y229000000D01*
X-309000000Y229000000D02*
X-309000000Y232670059D01*
X-324249941Y232670059D02*
X-309000000Y232670059D01*
X-309000000Y232670059D02*
X-302750059Y232670059D01*
X-305000000Y218910000D02*
X-306881829Y218910000D01*
X-322000000Y218910000D02*
X-320000000Y216910000D01*
X-309000000Y218910000D02*
X-309000000Y219910000D01*
X-309000000Y219910000D02*
X-309000000Y224000000D01*
X-309000000Y218910000D02*
X-306000000Y218910000D01*
D27*
X-306000000Y218910000D02*
X-305000000Y218910000D01*
D28*
X-304000000Y214910000D02*
X-305000000Y215910000D01*
X-319890000Y216790000D02*
X-317770000Y218910000D01*
X-309000000Y218910000D02*
X-317760000Y218910000D01*
D29*
X-290000000Y201910000D02*
X-282720000Y201910000D01*
X-282220000Y201410000D02*
X-279000000Y201410000D01*
D28*
X-282720000Y201910000D02*
X-282220000Y201410000D01*
X-290000000Y203324213D02*
X-289990000Y203334213D01*
X-290010000Y201910000D02*
X-290010000Y203324213D01*
X-290565787Y203910000D02*
X-293000000Y203910000D01*
X-289990000Y203334213D02*
X-290565787Y203910000D01*
X-316000000Y212910000D02*
X-318000000Y214910000D01*
X-309936643Y209476643D02*
X-313370000Y212910000D01*
X-309236644Y207572949D02*
X-309936643Y208272948D01*
X-313370000Y212910000D02*
X-316000000Y212910000D01*
X-306000000Y215910000D02*
X-309000000Y218910000D01*
X-305000000Y215910000D02*
X-306000000Y215910000D01*
X-322000000Y212960000D02*
X-319150000Y215810000D01*
X-322000000Y199910000D02*
X-322000000Y212960000D01*
D27*
X-319150000Y215810000D02*
X-318900000Y215810000D01*
D28*
X-320000000Y216910000D02*
X-318900000Y215810000D01*
X-318000000Y214910000D02*
X-318900000Y215810000D01*
X-309936643Y208272948D02*
X-309936643Y209476643D01*
X-304000000Y214910000D02*
X-293040000Y214910000D01*
D27*
X-293000000Y214870000D02*
X-293040000Y214910000D01*
D28*
X-293000000Y203910000D02*
X-293000000Y214870000D01*
D27*
X-268347500Y201410000D02*
X-268307500Y201370000D01*
D29*
X-279000000Y201410000D02*
X-268347500Y201410000D01*
D28*
G04 #@! TO.N,Net-(C14-Pad1)*
X-313853170Y209072949D02*
X-316162949Y209072949D01*
X-316162949Y209072949D02*
X-319000000Y211910000D01*
G04 #@! TO.N,Net-(C15-Pad1)*
X-288000000Y231410000D02*
X-293390000Y231410000D01*
X-293390000Y231410000D02*
X-294320000Y230480000D01*
X-294320000Y230480000D02*
X-294320000Y226140000D01*
G04 #@! TO.N,Net-(C15-Pad2)*
X-280500000Y231410000D02*
X-280500000Y227000000D01*
X-271000000Y217500000D02*
X-280220000Y217500000D01*
X-280500000Y217780000D02*
X-280500000Y227000000D01*
D27*
X-280220000Y217500000D02*
X-280500000Y217780000D01*
D28*
X-271000000Y220328427D02*
X-271000000Y222512500D01*
X-271000000Y217500000D02*
X-271000000Y220328427D01*
G04 #@! TO.N,Net-(C16-Pad2)*
X-266000000Y217500000D02*
X-253620000Y217500000D01*
X-253320000Y217800000D02*
X-253320000Y227860000D01*
D27*
X-253620000Y217500000D02*
X-253320000Y217800000D01*
D28*
X-266000000Y221700000D02*
X-266000000Y217500000D01*
D27*
X-266000000Y222512500D02*
X-266000000Y221700000D01*
D28*
G04 #@! TO.N,Net-(C16-Pad1)*
X-261660000Y235360000D02*
X-253320000Y235360000D01*
D27*
X-262130000Y235830000D02*
X-261660000Y235360000D01*
G04 #@! TO.N,Net-(D1-Pad2)*
X-277620000Y188460000D02*
X-277870000Y188460000D01*
D30*
X-274500000Y185340000D02*
X-277620000Y188460000D01*
X-274500000Y178660000D02*
X-274500000Y185340000D01*
G04 #@! TO.N,Net-(D1-Pad3)*
X-272200000Y188460000D02*
X-269130000Y188460000D01*
D27*
X-272250000Y188410000D02*
X-272200000Y188460000D01*
D30*
X-272250000Y181987314D02*
X-272250000Y188410000D01*
X-270690000Y178660000D02*
X-270690000Y180427314D01*
X-270690000Y180427314D02*
X-272250000Y181987314D01*
G04 #@! TO.N,Net-(R1-Pad1)*
X-276760000Y194000000D02*
X-274000000Y194000000D01*
D28*
G04 #@! TO.N,Net-(R13-Pad1)*
X-312910000Y214910000D02*
X-315000000Y214910000D01*
X-311000000Y213000000D02*
X-312910000Y214910000D01*
G04 #@! TO.N,Net-(R17-Pad2)*
X-303540495Y217246493D02*
X-301876988Y218910000D01*
X-301876988Y218910000D02*
X-300615998Y218910000D01*
X-300615998Y218910000D02*
X-296000000Y218910000D01*
G04 #@! TO.N,Net-(R18-Pad2)*
X-284500000Y218410000D02*
X-286930000Y218410000D01*
X-286930000Y218410000D02*
X-288680000Y216660000D01*
X-288680000Y216660000D02*
X-296640000Y216660000D01*
X-301040000Y208860000D02*
X-296680000Y213220000D01*
X-304180000Y208860000D02*
X-301040000Y208860000D01*
D30*
G04 #@! TO.N,+6.3_no_filtr*
X-262800000Y183360000D02*
X-259250000Y186910000D01*
X-269130000Y183360000D02*
X-262800000Y183360000D01*
D27*
X-259250000Y193510000D02*
X-258760000Y194000000D01*
D30*
X-259250000Y186910000D02*
X-259250000Y193510000D01*
G04 #@! TD*
D31*
G04 #@! TO.N,GND*
G36*
X-288079336Y202810830D02*
X-288035346Y202788018D01*
X-288000000Y202783000D01*
X-279891414Y202783000D01*
X-279972927Y202562532D01*
X-279000000Y201589605D01*
X-278027073Y202562532D01*
X-278108586Y202783000D01*
X-276127000Y202783000D01*
X-276127000Y199037000D01*
X-289168315Y199037000D01*
X-290388783Y200257468D01*
X-279972927Y200257468D01*
X-279874264Y199990613D01*
X-279264539Y199764092D01*
X-278614540Y199788144D01*
X-278125736Y199990613D01*
X-278027073Y200257468D01*
X-279000000Y201230395D01*
X-279972927Y200257468D01*
X-290388783Y200257468D01*
X-290472766Y200341451D01*
X-290264539Y200264092D01*
X-289614540Y200288144D01*
X-289125736Y200490613D01*
X-289027073Y200757468D01*
X-290000000Y201730395D01*
X-290014143Y201716253D01*
X-290193748Y201895858D01*
X-290179605Y201910000D01*
X-289820395Y201910000D01*
X-288847468Y200937073D01*
X-288580613Y201035736D01*
X-288354092Y201645461D01*
X-288355167Y201674539D01*
X-280645908Y201674539D01*
X-280621856Y201024540D01*
X-280419387Y200535736D01*
X-280152532Y200437073D01*
X-279179605Y201410000D01*
X-278820395Y201410000D01*
X-277847468Y200437073D01*
X-277580613Y200535736D01*
X-277354092Y201145461D01*
X-277378144Y201795460D01*
X-277580613Y202284264D01*
X-277847468Y202382927D01*
X-278820395Y201410000D01*
X-279179605Y201410000D01*
X-280152532Y202382927D01*
X-280419387Y202284264D01*
X-280645908Y201674539D01*
X-288355167Y201674539D01*
X-288378144Y202295460D01*
X-288580613Y202784264D01*
X-288847468Y202882927D01*
X-289820395Y201910000D01*
X-290179605Y201910000D01*
X-291152532Y202882927D01*
X-291419387Y202784264D01*
X-291645908Y202174539D01*
X-291621856Y201524540D01*
X-291597815Y201466500D01*
X-293193847Y203062532D01*
X-290972927Y203062532D01*
X-290000000Y202089605D01*
X-289027073Y203062532D01*
X-289125736Y203329387D01*
X-289735461Y203555908D01*
X-290385460Y203531856D01*
X-290874264Y203329387D01*
X-290972927Y203062532D01*
X-293193847Y203062532D01*
X-293924200Y203792885D01*
X-294001471Y203908529D01*
X-294459600Y204214641D01*
X-294863593Y204295000D01*
X-295000000Y204322133D01*
X-295136407Y204295000D01*
X-303115000Y204295000D01*
X-303115000Y205743595D01*
X-303087867Y205880001D01*
X-303148640Y206185526D01*
X-303195359Y206420400D01*
X-303501471Y206878529D01*
X-303617112Y206955798D01*
X-304136314Y207475000D01*
X-303904506Y207475000D01*
X-303395460Y207685853D01*
X-303356313Y207725000D01*
X-301151783Y207725000D01*
X-301040000Y207702765D01*
X-300928217Y207725000D01*
X-300597145Y207790854D01*
X-300221711Y208041711D01*
X-300158387Y208136482D01*
X-297748615Y210546253D01*
X-288079336Y202810830D01*
X-288079336Y202810830D01*
G37*
X-288079336Y202810830D02*
X-288035346Y202788018D01*
X-288000000Y202783000D01*
X-279891414Y202783000D01*
X-279972927Y202562532D01*
X-279000000Y201589605D01*
X-278027073Y202562532D01*
X-278108586Y202783000D01*
X-276127000Y202783000D01*
X-276127000Y199037000D01*
X-289168315Y199037000D01*
X-290388783Y200257468D01*
X-279972927Y200257468D01*
X-279874264Y199990613D01*
X-279264539Y199764092D01*
X-278614540Y199788144D01*
X-278125736Y199990613D01*
X-278027073Y200257468D01*
X-279000000Y201230395D01*
X-279972927Y200257468D01*
X-290388783Y200257468D01*
X-290472766Y200341451D01*
X-290264539Y200264092D01*
X-289614540Y200288144D01*
X-289125736Y200490613D01*
X-289027073Y200757468D01*
X-290000000Y201730395D01*
X-290014143Y201716253D01*
X-290193748Y201895858D01*
X-290179605Y201910000D01*
X-289820395Y201910000D01*
X-288847468Y200937073D01*
X-288580613Y201035736D01*
X-288354092Y201645461D01*
X-288355167Y201674539D01*
X-280645908Y201674539D01*
X-280621856Y201024540D01*
X-280419387Y200535736D01*
X-280152532Y200437073D01*
X-279179605Y201410000D01*
X-278820395Y201410000D01*
X-277847468Y200437073D01*
X-277580613Y200535736D01*
X-277354092Y201145461D01*
X-277378144Y201795460D01*
X-277580613Y202284264D01*
X-277847468Y202382927D01*
X-278820395Y201410000D01*
X-279179605Y201410000D01*
X-280152532Y202382927D01*
X-280419387Y202284264D01*
X-280645908Y201674539D01*
X-288355167Y201674539D01*
X-288378144Y202295460D01*
X-288580613Y202784264D01*
X-288847468Y202882927D01*
X-289820395Y201910000D01*
X-290179605Y201910000D01*
X-291152532Y202882927D01*
X-291419387Y202784264D01*
X-291645908Y202174539D01*
X-291621856Y201524540D01*
X-291597815Y201466500D01*
X-293193847Y203062532D01*
X-290972927Y203062532D01*
X-290000000Y202089605D01*
X-289027073Y203062532D01*
X-289125736Y203329387D01*
X-289735461Y203555908D01*
X-290385460Y203531856D01*
X-290874264Y203329387D01*
X-290972927Y203062532D01*
X-293193847Y203062532D01*
X-293924200Y203792885D01*
X-294001471Y203908529D01*
X-294459600Y204214641D01*
X-294863593Y204295000D01*
X-295000000Y204322133D01*
X-295136407Y204295000D01*
X-303115000Y204295000D01*
X-303115000Y205743595D01*
X-303087867Y205880001D01*
X-303148640Y206185526D01*
X-303195359Y206420400D01*
X-303501471Y206878529D01*
X-303617112Y206955798D01*
X-304136314Y207475000D01*
X-303904506Y207475000D01*
X-303395460Y207685853D01*
X-303356313Y207725000D01*
X-301151783Y207725000D01*
X-301040000Y207702765D01*
X-300928217Y207725000D01*
X-300597145Y207790854D01*
X-300221711Y208041711D01*
X-300158387Y208136482D01*
X-297748615Y210546253D01*
X-288079336Y202810830D01*
G36*
X-298127000Y220045000D02*
X-301765206Y220045000D01*
X-301876989Y220067235D01*
X-302201102Y220002765D01*
X-302319843Y219979146D01*
X-302695277Y219728289D01*
X-302758599Y219633521D01*
X-303760626Y218631493D01*
X-303815989Y218631493D01*
X-304325035Y218420640D01*
X-304714642Y218031033D01*
X-304925495Y217521987D01*
X-304925495Y216970999D01*
X-304714642Y216461953D01*
X-304325035Y216072346D01*
X-303815989Y215861493D01*
X-303265001Y215861493D01*
X-302755955Y216072346D01*
X-302493979Y216334322D01*
X-302386086Y216073847D01*
X-301926153Y215613914D01*
X-301325222Y215365000D01*
X-300674778Y215365000D01*
X-300073847Y215613914D01*
X-299613914Y216073847D01*
X-299365000Y216674778D01*
X-299365000Y217325222D01*
X-299551304Y217775000D01*
X-298127000Y217775000D01*
X-298127000Y213378132D01*
X-301510131Y209995000D01*
X-303356313Y209995000D01*
X-303395460Y210034147D01*
X-303904506Y210245000D01*
X-304455494Y210245000D01*
X-304897950Y210061729D01*
X-304897950Y212990643D01*
X-304870817Y213127050D01*
X-304978309Y213667450D01*
X-305284421Y214125579D01*
X-305742550Y214431691D01*
X-306146543Y214512050D01*
X-306282950Y214539183D01*
X-306419357Y214512050D01*
X-308363595Y214512050D01*
X-308500001Y214539183D01*
X-308636407Y214512050D01*
X-308673052Y214512050D01*
X-309077045Y214431691D01*
X-309535174Y214125579D01*
X-309686235Y213899500D01*
X-309856900Y213728835D01*
X-309868242Y213756217D01*
X-310243783Y214131758D01*
X-310726627Y214331759D01*
X-312028387Y215633518D01*
X-312091711Y215728289D01*
X-312467145Y215979146D01*
X-312798217Y216045000D01*
X-312910000Y216067235D01*
X-313021783Y216045000D01*
X-314176313Y216045000D01*
X-314215460Y216084147D01*
X-314724506Y216295000D01*
X-315275494Y216295000D01*
X-315784540Y216084147D01*
X-316174147Y215694540D01*
X-316385000Y215185494D01*
X-316385000Y214634506D01*
X-316174147Y214125460D01*
X-315784540Y213735853D01*
X-315275494Y213525000D01*
X-314724506Y213525000D01*
X-314215460Y213735853D01*
X-314176313Y213775000D01*
X-313380131Y213775000D01*
X-312331759Y212726627D01*
X-312131758Y212243783D01*
X-311756217Y211868242D01*
X-311265548Y211665000D01*
X-310734452Y211665000D01*
X-310438458Y211787605D01*
X-310381397Y211702206D01*
X-310368402Y211670834D01*
X-310344391Y211646823D01*
X-310198527Y211428523D01*
X-309740398Y211122410D01*
X-309496830Y211073961D01*
X-309496830Y210658519D01*
X-309291305Y210162337D01*
X-309118361Y209989393D01*
X-309278588Y209829166D01*
X-309481830Y209338497D01*
X-309481830Y208892924D01*
X-309872596Y208776404D01*
X-310284730Y208441428D01*
X-310427789Y208207976D01*
X-310734452Y208335000D01*
X-311265548Y208335000D01*
X-311532841Y208224284D01*
X-311764828Y208571477D01*
X-312222957Y208877589D01*
X-312518170Y208936311D01*
X-312518170Y209338497D01*
X-312721412Y209829166D01*
X-312892246Y210000000D01*
X-312721412Y210170834D01*
X-312518170Y210661503D01*
X-312518170Y211192599D01*
X-312721412Y211683268D01*
X-313096953Y212058809D01*
X-313587622Y212262051D01*
X-314118718Y212262051D01*
X-314609387Y212058809D01*
X-314984928Y211683268D01*
X-315188170Y211192599D01*
X-315188170Y210661503D01*
X-315000302Y210207949D01*
X-315692817Y210207949D01*
X-317615000Y212130131D01*
X-317615000Y212185494D01*
X-317825853Y212694540D01*
X-318215460Y213084147D01*
X-318724506Y213295000D01*
X-319275494Y213295000D01*
X-319784540Y213084147D01*
X-320174147Y212694540D01*
X-320385000Y212185494D01*
X-320385000Y211634506D01*
X-320174147Y211125460D01*
X-319784540Y210735853D01*
X-319275494Y210525000D01*
X-319220131Y210525000D01*
X-317044560Y208349428D01*
X-316981238Y208254660D01*
X-316713046Y208075460D01*
X-316605804Y208003803D01*
X-316162950Y207915714D01*
X-316051167Y207937949D01*
X-314601560Y207937949D01*
X-314434136Y207868599D01*
X-314748529Y207658528D01*
X-315054641Y207200399D01*
X-315135000Y206796406D01*
X-315134999Y204273593D01*
X-315054640Y203869600D01*
X-314748528Y203411471D01*
X-314598666Y203311336D01*
X-314498529Y203161471D01*
X-314040400Y202855359D01*
X-313636407Y202775000D01*
X-308384999Y202775000D01*
X-308385000Y201046408D01*
X-308412133Y200910000D01*
X-308304641Y200369600D01*
X-307998529Y199911471D01*
X-307561715Y199619601D01*
X-307540400Y199605359D01*
X-307000000Y199497867D01*
X-306863593Y199525000D01*
X-296573685Y199525000D01*
X-296085685Y199037000D01*
X-327873000Y199037000D01*
X-327873000Y217325222D01*
X-327635000Y217325222D01*
X-327635000Y216674778D01*
X-327386086Y216073847D01*
X-326926153Y215613914D01*
X-326325222Y215365000D01*
X-325674778Y215365000D01*
X-325073847Y215613914D01*
X-324613914Y216073847D01*
X-324365000Y216674778D01*
X-324365000Y217325222D01*
X-324613914Y217926153D01*
X-325073847Y218386086D01*
X-325674778Y218635000D01*
X-326325222Y218635000D01*
X-326926153Y218386086D01*
X-327386086Y217926153D01*
X-327635000Y217325222D01*
X-327873000Y217325222D01*
X-327873000Y227325222D01*
X-327635000Y227325222D01*
X-327635000Y226674778D01*
X-327386086Y226073847D01*
X-327134999Y225822760D01*
X-327135000Y221048218D01*
X-327069146Y220717146D01*
X-326818289Y220341711D01*
X-326782322Y220317678D01*
X-326758289Y220281711D01*
X-326382855Y220030854D01*
X-326051783Y219965000D01*
X-324082219Y219965000D01*
X-324031945Y219975000D01*
X-317001783Y219975000D01*
X-316890000Y219952765D01*
X-316778217Y219975000D01*
X-316447145Y220040854D01*
X-316071711Y220291711D01*
X-316008387Y220386482D01*
X-314199868Y222195000D01*
X-313640963Y222195000D01*
X-312977550Y222469795D01*
X-312722831Y222724514D01*
X-310095880Y222724514D01*
X-309976414Y222440016D01*
X-309305110Y222185106D01*
X-308587354Y222206496D01*
X-308023586Y222440016D01*
X-307904120Y222724514D01*
X-309000000Y223820395D01*
X-310095880Y222724514D01*
X-312722831Y222724514D01*
X-312469795Y222977550D01*
X-312195000Y223640963D01*
X-312195000Y224305110D01*
X-310814894Y224305110D01*
X-310793504Y223587354D01*
X-310559984Y223023586D01*
X-310275486Y222904120D01*
X-309179605Y224000000D01*
X-308820395Y224000000D01*
X-307724514Y222904120D01*
X-307440016Y223023586D01*
X-307185106Y223694890D01*
X-307206496Y224412646D01*
X-307440016Y224976414D01*
X-307724514Y225095880D01*
X-308820395Y224000000D01*
X-309179605Y224000000D01*
X-310275486Y225095880D01*
X-310559984Y224976414D01*
X-310814894Y224305110D01*
X-312195000Y224305110D01*
X-312195000Y224359037D01*
X-312469795Y225022450D01*
X-312722831Y225275486D01*
X-310095880Y225275486D01*
X-309000000Y224179605D01*
X-307904120Y225275486D01*
X-308023586Y225559984D01*
X-308694890Y225814894D01*
X-309412646Y225793504D01*
X-309976414Y225559984D01*
X-310095880Y225275486D01*
X-312722831Y225275486D01*
X-312977550Y225530205D01*
X-313640963Y225805000D01*
X-314359037Y225805000D01*
X-315022450Y225530205D01*
X-315530205Y225022450D01*
X-315805000Y224359037D01*
X-315805000Y223800132D01*
X-317360131Y222245000D01*
X-318520252Y222245000D01*
X-317977550Y222469795D01*
X-317469795Y222977550D01*
X-317195000Y223640963D01*
X-317195000Y224359037D01*
X-317469795Y225022450D01*
X-317977550Y225530205D01*
X-318640963Y225805000D01*
X-319359037Y225805000D01*
X-320022450Y225530205D01*
X-320530205Y225022450D01*
X-320805000Y224359037D01*
X-320805000Y223640963D01*
X-320530205Y222977550D01*
X-320022450Y222469795D01*
X-319479748Y222245000D01*
X-324295785Y222245000D01*
X-324346059Y222235000D01*
X-324865000Y222235000D01*
X-324865000Y225822761D01*
X-324613914Y226073847D01*
X-324365000Y226674778D01*
X-324365000Y227325222D01*
X-324613914Y227926153D01*
X-325073847Y228386086D01*
X-325471616Y228550847D01*
X-324675328Y228880681D01*
X-324485034Y229225429D01*
X-324618642Y229359037D01*
X-320805000Y229359037D01*
X-320805000Y228640963D01*
X-320530205Y227977550D01*
X-320022450Y227469795D01*
X-319359037Y227195000D01*
X-318640963Y227195000D01*
X-317977550Y227469795D01*
X-317469795Y227977550D01*
X-317195000Y228640963D01*
X-317195000Y229359037D01*
X-315805000Y229359037D01*
X-315805000Y228640963D01*
X-315530205Y227977550D01*
X-315022450Y227469795D01*
X-314359037Y227195000D01*
X-313640963Y227195000D01*
X-312977550Y227469795D01*
X-312722831Y227724514D01*
X-310095880Y227724514D01*
X-309976414Y227440016D01*
X-309305110Y227185106D01*
X-308587354Y227206496D01*
X-308300724Y227325222D01*
X-302635000Y227325222D01*
X-302635000Y226674778D01*
X-302386086Y226073847D01*
X-301926153Y225613914D01*
X-301325222Y225365000D01*
X-300674778Y225365000D01*
X-300073847Y225613914D01*
X-299613914Y226073847D01*
X-299365000Y226674778D01*
X-299365000Y227325222D01*
X-299613914Y227926153D01*
X-300073847Y228386086D01*
X-300471616Y228550847D01*
X-299675328Y228880681D01*
X-299485034Y229225429D01*
X-301000000Y230740395D01*
X-302514966Y229225429D01*
X-302324672Y228880681D01*
X-301513575Y228556982D01*
X-301926153Y228386086D01*
X-302386086Y227926153D01*
X-302635000Y227325222D01*
X-308300724Y227325222D01*
X-308023586Y227440016D01*
X-307904120Y227724514D01*
X-309000000Y228820395D01*
X-310095880Y227724514D01*
X-312722831Y227724514D01*
X-312469795Y227977550D01*
X-312195000Y228640963D01*
X-312195000Y229305110D01*
X-310814894Y229305110D01*
X-310793504Y228587354D01*
X-310559984Y228023586D01*
X-310275486Y227904120D01*
X-309179605Y229000000D01*
X-308820395Y229000000D01*
X-307724514Y227904120D01*
X-307440016Y228023586D01*
X-307185106Y228694890D01*
X-307206496Y229412646D01*
X-307440016Y229976414D01*
X-307724514Y230095880D01*
X-308820395Y229000000D01*
X-309179605Y229000000D01*
X-310275486Y230095880D01*
X-310559984Y229976414D01*
X-310814894Y229305110D01*
X-312195000Y229305110D01*
X-312195000Y229359037D01*
X-312469795Y230022450D01*
X-312722831Y230275486D01*
X-310095880Y230275486D01*
X-309000000Y229179605D01*
X-307904120Y230275486D01*
X-308023586Y230559984D01*
X-308694890Y230814894D01*
X-309412646Y230793504D01*
X-309976414Y230559984D01*
X-310095880Y230275486D01*
X-312722831Y230275486D01*
X-312977550Y230530205D01*
X-313640963Y230805000D01*
X-314359037Y230805000D01*
X-315022450Y230530205D01*
X-315530205Y230022450D01*
X-315805000Y229359037D01*
X-317195000Y229359037D01*
X-317469795Y230022450D01*
X-317977550Y230530205D01*
X-318640963Y230805000D01*
X-319359037Y230805000D01*
X-320022450Y230530205D01*
X-320530205Y230022450D01*
X-320805000Y229359037D01*
X-324618642Y229359037D01*
X-326000000Y230740395D01*
X-327514966Y229225429D01*
X-327324672Y228880681D01*
X-326513575Y228556982D01*
X-326926153Y228386086D01*
X-327386086Y227926153D01*
X-327635000Y227325222D01*
X-327873000Y227325222D01*
X-327873000Y229503523D01*
X-327694571Y229405034D01*
X-326179605Y230920000D01*
X-325820395Y230920000D01*
X-324305429Y229405034D01*
X-323960681Y229595328D01*
X-323608985Y230476576D01*
X-323620495Y231363424D01*
X-303391015Y231363424D01*
X-303378701Y230414668D01*
X-303039319Y229595328D01*
X-302694571Y229405034D01*
X-301179605Y230920000D01*
X-300820395Y230920000D01*
X-299305429Y229405034D01*
X-298960681Y229595328D01*
X-298608985Y230476576D01*
X-298621299Y231425332D01*
X-298960681Y232244672D01*
X-299305429Y232434966D01*
X-300820395Y230920000D01*
X-301179605Y230920000D01*
X-302694571Y232434966D01*
X-303039319Y232244672D01*
X-303391015Y231363424D01*
X-323620495Y231363424D01*
X-323621299Y231425332D01*
X-323960681Y232244672D01*
X-324305429Y232434966D01*
X-325820395Y230920000D01*
X-326179605Y230920000D01*
X-327694571Y232434966D01*
X-327873000Y232336477D01*
X-327873000Y232614571D01*
X-327514966Y232614571D01*
X-326000000Y231099605D01*
X-324485034Y232614571D01*
X-302514966Y232614571D01*
X-301000000Y231099605D01*
X-299485034Y232614571D01*
X-299675328Y232959319D01*
X-300556576Y233311015D01*
X-301505332Y233298701D01*
X-302324672Y232959319D01*
X-302514966Y232614571D01*
X-324485034Y232614571D01*
X-324675328Y232959319D01*
X-325556576Y233311015D01*
X-326505332Y233298701D01*
X-327324672Y232959319D01*
X-327514966Y232614571D01*
X-327873000Y232614571D01*
X-327873000Y233626954D01*
X-327750060Y233602500D01*
X-324249940Y233602500D01*
X-324002175Y233651783D01*
X-323792131Y233792131D01*
X-323651783Y234002175D01*
X-323602500Y234249940D01*
X-323602500Y237750060D01*
X-303397500Y237750060D01*
X-303397500Y234249940D01*
X-303348217Y234002175D01*
X-303207869Y233792131D01*
X-302997825Y233651783D01*
X-302750060Y233602500D01*
X-299249940Y233602500D01*
X-299002175Y233651783D01*
X-298792131Y233792131D01*
X-298651783Y234002175D01*
X-298602500Y234249940D01*
X-298602500Y237750060D01*
X-298651783Y237997825D01*
X-298792131Y238207869D01*
X-299002175Y238348217D01*
X-299249940Y238397500D01*
X-302750060Y238397500D01*
X-302997825Y238348217D01*
X-303207869Y238207869D01*
X-303348217Y237997825D01*
X-303397500Y237750060D01*
X-323602500Y237750060D01*
X-323651783Y237997825D01*
X-323792131Y238207869D01*
X-324002175Y238348217D01*
X-324249940Y238397500D01*
X-327750060Y238397500D01*
X-327873000Y238373046D01*
X-327873000Y238783000D01*
X-298127000Y238783000D01*
X-298127000Y220045000D01*
X-298127000Y220045000D01*
G37*
X-298127000Y220045000D02*
X-301765206Y220045000D01*
X-301876989Y220067235D01*
X-302201102Y220002765D01*
X-302319843Y219979146D01*
X-302695277Y219728289D01*
X-302758599Y219633521D01*
X-303760626Y218631493D01*
X-303815989Y218631493D01*
X-304325035Y218420640D01*
X-304714642Y218031033D01*
X-304925495Y217521987D01*
X-304925495Y216970999D01*
X-304714642Y216461953D01*
X-304325035Y216072346D01*
X-303815989Y215861493D01*
X-303265001Y215861493D01*
X-302755955Y216072346D01*
X-302493979Y216334322D01*
X-302386086Y216073847D01*
X-301926153Y215613914D01*
X-301325222Y215365000D01*
X-300674778Y215365000D01*
X-300073847Y215613914D01*
X-299613914Y216073847D01*
X-299365000Y216674778D01*
X-299365000Y217325222D01*
X-299551304Y217775000D01*
X-298127000Y217775000D01*
X-298127000Y213378132D01*
X-301510131Y209995000D01*
X-303356313Y209995000D01*
X-303395460Y210034147D01*
X-303904506Y210245000D01*
X-304455494Y210245000D01*
X-304897950Y210061729D01*
X-304897950Y212990643D01*
X-304870817Y213127050D01*
X-304978309Y213667450D01*
X-305284421Y214125579D01*
X-305742550Y214431691D01*
X-306146543Y214512050D01*
X-306282950Y214539183D01*
X-306419357Y214512050D01*
X-308363595Y214512050D01*
X-308500001Y214539183D01*
X-308636407Y214512050D01*
X-308673052Y214512050D01*
X-309077045Y214431691D01*
X-309535174Y214125579D01*
X-309686235Y213899500D01*
X-309856900Y213728835D01*
X-309868242Y213756217D01*
X-310243783Y214131758D01*
X-310726627Y214331759D01*
X-312028387Y215633518D01*
X-312091711Y215728289D01*
X-312467145Y215979146D01*
X-312798217Y216045000D01*
X-312910000Y216067235D01*
X-313021783Y216045000D01*
X-314176313Y216045000D01*
X-314215460Y216084147D01*
X-314724506Y216295000D01*
X-315275494Y216295000D01*
X-315784540Y216084147D01*
X-316174147Y215694540D01*
X-316385000Y215185494D01*
X-316385000Y214634506D01*
X-316174147Y214125460D01*
X-315784540Y213735853D01*
X-315275494Y213525000D01*
X-314724506Y213525000D01*
X-314215460Y213735853D01*
X-314176313Y213775000D01*
X-313380131Y213775000D01*
X-312331759Y212726627D01*
X-312131758Y212243783D01*
X-311756217Y211868242D01*
X-311265548Y211665000D01*
X-310734452Y211665000D01*
X-310438458Y211787605D01*
X-310381397Y211702206D01*
X-310368402Y211670834D01*
X-310344391Y211646823D01*
X-310198527Y211428523D01*
X-309740398Y211122410D01*
X-309496830Y211073961D01*
X-309496830Y210658519D01*
X-309291305Y210162337D01*
X-309118361Y209989393D01*
X-309278588Y209829166D01*
X-309481830Y209338497D01*
X-309481830Y208892924D01*
X-309872596Y208776404D01*
X-310284730Y208441428D01*
X-310427789Y208207976D01*
X-310734452Y208335000D01*
X-311265548Y208335000D01*
X-311532841Y208224284D01*
X-311764828Y208571477D01*
X-312222957Y208877589D01*
X-312518170Y208936311D01*
X-312518170Y209338497D01*
X-312721412Y209829166D01*
X-312892246Y210000000D01*
X-312721412Y210170834D01*
X-312518170Y210661503D01*
X-312518170Y211192599D01*
X-312721412Y211683268D01*
X-313096953Y212058809D01*
X-313587622Y212262051D01*
X-314118718Y212262051D01*
X-314609387Y212058809D01*
X-314984928Y211683268D01*
X-315188170Y211192599D01*
X-315188170Y210661503D01*
X-315000302Y210207949D01*
X-315692817Y210207949D01*
X-317615000Y212130131D01*
X-317615000Y212185494D01*
X-317825853Y212694540D01*
X-318215460Y213084147D01*
X-318724506Y213295000D01*
X-319275494Y213295000D01*
X-319784540Y213084147D01*
X-320174147Y212694540D01*
X-320385000Y212185494D01*
X-320385000Y211634506D01*
X-320174147Y211125460D01*
X-319784540Y210735853D01*
X-319275494Y210525000D01*
X-319220131Y210525000D01*
X-317044560Y208349428D01*
X-316981238Y208254660D01*
X-316713046Y208075460D01*
X-316605804Y208003803D01*
X-316162950Y207915714D01*
X-316051167Y207937949D01*
X-314601560Y207937949D01*
X-314434136Y207868599D01*
X-314748529Y207658528D01*
X-315054641Y207200399D01*
X-315135000Y206796406D01*
X-315134999Y204273593D01*
X-315054640Y203869600D01*
X-314748528Y203411471D01*
X-314598666Y203311336D01*
X-314498529Y203161471D01*
X-314040400Y202855359D01*
X-313636407Y202775000D01*
X-308384999Y202775000D01*
X-308385000Y201046408D01*
X-308412133Y200910000D01*
X-308304641Y200369600D01*
X-307998529Y199911471D01*
X-307561715Y199619601D01*
X-307540400Y199605359D01*
X-307000000Y199497867D01*
X-306863593Y199525000D01*
X-296573685Y199525000D01*
X-296085685Y199037000D01*
X-327873000Y199037000D01*
X-327873000Y217325222D01*
X-327635000Y217325222D01*
X-327635000Y216674778D01*
X-327386086Y216073847D01*
X-326926153Y215613914D01*
X-326325222Y215365000D01*
X-325674778Y215365000D01*
X-325073847Y215613914D01*
X-324613914Y216073847D01*
X-324365000Y216674778D01*
X-324365000Y217325222D01*
X-324613914Y217926153D01*
X-325073847Y218386086D01*
X-325674778Y218635000D01*
X-326325222Y218635000D01*
X-326926153Y218386086D01*
X-327386086Y217926153D01*
X-327635000Y217325222D01*
X-327873000Y217325222D01*
X-327873000Y227325222D01*
X-327635000Y227325222D01*
X-327635000Y226674778D01*
X-327386086Y226073847D01*
X-327134999Y225822760D01*
X-327135000Y221048218D01*
X-327069146Y220717146D01*
X-326818289Y220341711D01*
X-326782322Y220317678D01*
X-326758289Y220281711D01*
X-326382855Y220030854D01*
X-326051783Y219965000D01*
X-324082219Y219965000D01*
X-324031945Y219975000D01*
X-317001783Y219975000D01*
X-316890000Y219952765D01*
X-316778217Y219975000D01*
X-316447145Y220040854D01*
X-316071711Y220291711D01*
X-316008387Y220386482D01*
X-314199868Y222195000D01*
X-313640963Y222195000D01*
X-312977550Y222469795D01*
X-312722831Y222724514D01*
X-310095880Y222724514D01*
X-309976414Y222440016D01*
X-309305110Y222185106D01*
X-308587354Y222206496D01*
X-308023586Y222440016D01*
X-307904120Y222724514D01*
X-309000000Y223820395D01*
X-310095880Y222724514D01*
X-312722831Y222724514D01*
X-312469795Y222977550D01*
X-312195000Y223640963D01*
X-312195000Y224305110D01*
X-310814894Y224305110D01*
X-310793504Y223587354D01*
X-310559984Y223023586D01*
X-310275486Y222904120D01*
X-309179605Y224000000D01*
X-308820395Y224000000D01*
X-307724514Y222904120D01*
X-307440016Y223023586D01*
X-307185106Y223694890D01*
X-307206496Y224412646D01*
X-307440016Y224976414D01*
X-307724514Y225095880D01*
X-308820395Y224000000D01*
X-309179605Y224000000D01*
X-310275486Y225095880D01*
X-310559984Y224976414D01*
X-310814894Y224305110D01*
X-312195000Y224305110D01*
X-312195000Y224359037D01*
X-312469795Y225022450D01*
X-312722831Y225275486D01*
X-310095880Y225275486D01*
X-309000000Y224179605D01*
X-307904120Y225275486D01*
X-308023586Y225559984D01*
X-308694890Y225814894D01*
X-309412646Y225793504D01*
X-309976414Y225559984D01*
X-310095880Y225275486D01*
X-312722831Y225275486D01*
X-312977550Y225530205D01*
X-313640963Y225805000D01*
X-314359037Y225805000D01*
X-315022450Y225530205D01*
X-315530205Y225022450D01*
X-315805000Y224359037D01*
X-315805000Y223800132D01*
X-317360131Y222245000D01*
X-318520252Y222245000D01*
X-317977550Y222469795D01*
X-317469795Y222977550D01*
X-317195000Y223640963D01*
X-317195000Y224359037D01*
X-317469795Y225022450D01*
X-317977550Y225530205D01*
X-318640963Y225805000D01*
X-319359037Y225805000D01*
X-320022450Y225530205D01*
X-320530205Y225022450D01*
X-320805000Y224359037D01*
X-320805000Y223640963D01*
X-320530205Y222977550D01*
X-320022450Y222469795D01*
X-319479748Y222245000D01*
X-324295785Y222245000D01*
X-324346059Y222235000D01*
X-324865000Y222235000D01*
X-324865000Y225822761D01*
X-324613914Y226073847D01*
X-324365000Y226674778D01*
X-324365000Y227325222D01*
X-324613914Y227926153D01*
X-325073847Y228386086D01*
X-325471616Y228550847D01*
X-324675328Y228880681D01*
X-324485034Y229225429D01*
X-324618642Y229359037D01*
X-320805000Y229359037D01*
X-320805000Y228640963D01*
X-320530205Y227977550D01*
X-320022450Y227469795D01*
X-319359037Y227195000D01*
X-318640963Y227195000D01*
X-317977550Y227469795D01*
X-317469795Y227977550D01*
X-317195000Y228640963D01*
X-317195000Y229359037D01*
X-315805000Y229359037D01*
X-315805000Y228640963D01*
X-315530205Y227977550D01*
X-315022450Y227469795D01*
X-314359037Y227195000D01*
X-313640963Y227195000D01*
X-312977550Y227469795D01*
X-312722831Y227724514D01*
X-310095880Y227724514D01*
X-309976414Y227440016D01*
X-309305110Y227185106D01*
X-308587354Y227206496D01*
X-308300724Y227325222D01*
X-302635000Y227325222D01*
X-302635000Y226674778D01*
X-302386086Y226073847D01*
X-301926153Y225613914D01*
X-301325222Y225365000D01*
X-300674778Y225365000D01*
X-300073847Y225613914D01*
X-299613914Y226073847D01*
X-299365000Y226674778D01*
X-299365000Y227325222D01*
X-299613914Y227926153D01*
X-300073847Y228386086D01*
X-300471616Y228550847D01*
X-299675328Y228880681D01*
X-299485034Y229225429D01*
X-301000000Y230740395D01*
X-302514966Y229225429D01*
X-302324672Y228880681D01*
X-301513575Y228556982D01*
X-301926153Y228386086D01*
X-302386086Y227926153D01*
X-302635000Y227325222D01*
X-308300724Y227325222D01*
X-308023586Y227440016D01*
X-307904120Y227724514D01*
X-309000000Y228820395D01*
X-310095880Y227724514D01*
X-312722831Y227724514D01*
X-312469795Y227977550D01*
X-312195000Y228640963D01*
X-312195000Y229305110D01*
X-310814894Y229305110D01*
X-310793504Y228587354D01*
X-310559984Y228023586D01*
X-310275486Y227904120D01*
X-309179605Y229000000D01*
X-308820395Y229000000D01*
X-307724514Y227904120D01*
X-307440016Y228023586D01*
X-307185106Y228694890D01*
X-307206496Y229412646D01*
X-307440016Y229976414D01*
X-307724514Y230095880D01*
X-308820395Y229000000D01*
X-309179605Y229000000D01*
X-310275486Y230095880D01*
X-310559984Y229976414D01*
X-310814894Y229305110D01*
X-312195000Y229305110D01*
X-312195000Y229359037D01*
X-312469795Y230022450D01*
X-312722831Y230275486D01*
X-310095880Y230275486D01*
X-309000000Y229179605D01*
X-307904120Y230275486D01*
X-308023586Y230559984D01*
X-308694890Y230814894D01*
X-309412646Y230793504D01*
X-309976414Y230559984D01*
X-310095880Y230275486D01*
X-312722831Y230275486D01*
X-312977550Y230530205D01*
X-313640963Y230805000D01*
X-314359037Y230805000D01*
X-315022450Y230530205D01*
X-315530205Y230022450D01*
X-315805000Y229359037D01*
X-317195000Y229359037D01*
X-317469795Y230022450D01*
X-317977550Y230530205D01*
X-318640963Y230805000D01*
X-319359037Y230805000D01*
X-320022450Y230530205D01*
X-320530205Y230022450D01*
X-320805000Y229359037D01*
X-324618642Y229359037D01*
X-326000000Y230740395D01*
X-327514966Y229225429D01*
X-327324672Y228880681D01*
X-326513575Y228556982D01*
X-326926153Y228386086D01*
X-327386086Y227926153D01*
X-327635000Y227325222D01*
X-327873000Y227325222D01*
X-327873000Y229503523D01*
X-327694571Y229405034D01*
X-326179605Y230920000D01*
X-325820395Y230920000D01*
X-324305429Y229405034D01*
X-323960681Y229595328D01*
X-323608985Y230476576D01*
X-323620495Y231363424D01*
X-303391015Y231363424D01*
X-303378701Y230414668D01*
X-303039319Y229595328D01*
X-302694571Y229405034D01*
X-301179605Y230920000D01*
X-300820395Y230920000D01*
X-299305429Y229405034D01*
X-298960681Y229595328D01*
X-298608985Y230476576D01*
X-298621299Y231425332D01*
X-298960681Y232244672D01*
X-299305429Y232434966D01*
X-300820395Y230920000D01*
X-301179605Y230920000D01*
X-302694571Y232434966D01*
X-303039319Y232244672D01*
X-303391015Y231363424D01*
X-323620495Y231363424D01*
X-323621299Y231425332D01*
X-323960681Y232244672D01*
X-324305429Y232434966D01*
X-325820395Y230920000D01*
X-326179605Y230920000D01*
X-327694571Y232434966D01*
X-327873000Y232336477D01*
X-327873000Y232614571D01*
X-327514966Y232614571D01*
X-326000000Y231099605D01*
X-324485034Y232614571D01*
X-302514966Y232614571D01*
X-301000000Y231099605D01*
X-299485034Y232614571D01*
X-299675328Y232959319D01*
X-300556576Y233311015D01*
X-301505332Y233298701D01*
X-302324672Y232959319D01*
X-302514966Y232614571D01*
X-324485034Y232614571D01*
X-324675328Y232959319D01*
X-325556576Y233311015D01*
X-326505332Y233298701D01*
X-327324672Y232959319D01*
X-327514966Y232614571D01*
X-327873000Y232614571D01*
X-327873000Y233626954D01*
X-327750060Y233602500D01*
X-324249940Y233602500D01*
X-324002175Y233651783D01*
X-323792131Y233792131D01*
X-323651783Y234002175D01*
X-323602500Y234249940D01*
X-323602500Y237750060D01*
X-303397500Y237750060D01*
X-303397500Y234249940D01*
X-303348217Y234002175D01*
X-303207869Y233792131D01*
X-302997825Y233651783D01*
X-302750060Y233602500D01*
X-299249940Y233602500D01*
X-299002175Y233651783D01*
X-298792131Y233792131D01*
X-298651783Y234002175D01*
X-298602500Y234249940D01*
X-298602500Y237750060D01*
X-298651783Y237997825D01*
X-298792131Y238207869D01*
X-299002175Y238348217D01*
X-299249940Y238397500D01*
X-302750060Y238397500D01*
X-302997825Y238348217D01*
X-303207869Y238207869D01*
X-303348217Y237997825D01*
X-303397500Y237750060D01*
X-323602500Y237750060D01*
X-323651783Y237997825D01*
X-323792131Y238207869D01*
X-324002175Y238348217D01*
X-324249940Y238397500D01*
X-327750060Y238397500D01*
X-327873000Y238373046D01*
X-327873000Y238783000D01*
X-298127000Y238783000D01*
X-298127000Y220045000D01*
G36*
X-309029680Y208067824D02*
X-309050062Y207939139D01*
X-309222503Y207766698D01*
X-309042895Y207587090D01*
X-308970592Y207659393D01*
X-308035820Y207511340D01*
X-307881428Y207699949D01*
X-307892759Y207737949D01*
X-307881282Y207737949D01*
X-307667950Y207826314D01*
X-307667950Y207799357D01*
X-307695083Y207662950D01*
X-307667950Y207526544D01*
X-307587591Y207122551D01*
X-307281479Y206664422D01*
X-307165838Y206587153D01*
X-305884999Y205306313D01*
X-305884999Y204984217D01*
X-306001471Y205158529D01*
X-306459600Y205464641D01*
X-306863593Y205545000D01*
X-307000000Y205572133D01*
X-307136407Y205545000D01*
X-312365000Y205545000D01*
X-312365000Y206012620D01*
X-312132367Y206245253D01*
X-312131758Y206243783D01*
X-311756217Y205868242D01*
X-311265548Y205665000D01*
X-310734452Y205665000D01*
X-310243783Y205868242D01*
X-309868242Y206243783D01*
X-309823340Y206352186D01*
X-309776213Y206323307D01*
X-309651022Y206372125D01*
X-309298253Y206372125D01*
X-309109644Y206217733D01*
X-308600692Y206369494D01*
X-308188558Y206704470D01*
X-307987002Y207033380D01*
X-308075554Y207260467D01*
X-309131075Y207427645D01*
X-309298253Y206372125D01*
X-309651022Y206372125D01*
X-309549126Y206411859D01*
X-309423226Y207206759D01*
X-309250785Y207379200D01*
X-309430393Y207558808D01*
X-309502696Y207486505D01*
X-309774345Y207529530D01*
X-309868242Y207756217D01*
X-309922127Y207810102D01*
X-309342213Y207718253D01*
X-309251684Y208289828D01*
X-309029680Y208067824D01*
X-309029680Y208067824D01*
G37*
X-309029680Y208067824D02*
X-309050062Y207939139D01*
X-309222503Y207766698D01*
X-309042895Y207587090D01*
X-308970592Y207659393D01*
X-308035820Y207511340D01*
X-307881428Y207699949D01*
X-307892759Y207737949D01*
X-307881282Y207737949D01*
X-307667950Y207826314D01*
X-307667950Y207799357D01*
X-307695083Y207662950D01*
X-307667950Y207526544D01*
X-307587591Y207122551D01*
X-307281479Y206664422D01*
X-307165838Y206587153D01*
X-305884999Y205306313D01*
X-305884999Y204984217D01*
X-306001471Y205158529D01*
X-306459600Y205464641D01*
X-306863593Y205545000D01*
X-307000000Y205572133D01*
X-307136407Y205545000D01*
X-312365000Y205545000D01*
X-312365000Y206012620D01*
X-312132367Y206245253D01*
X-312131758Y206243783D01*
X-311756217Y205868242D01*
X-311265548Y205665000D01*
X-310734452Y205665000D01*
X-310243783Y205868242D01*
X-309868242Y206243783D01*
X-309823340Y206352186D01*
X-309776213Y206323307D01*
X-309651022Y206372125D01*
X-309298253Y206372125D01*
X-309109644Y206217733D01*
X-308600692Y206369494D01*
X-308188558Y206704470D01*
X-307987002Y207033380D01*
X-308075554Y207260467D01*
X-309131075Y207427645D01*
X-309298253Y206372125D01*
X-309651022Y206372125D01*
X-309549126Y206411859D01*
X-309423226Y207206759D01*
X-309250785Y207379200D01*
X-309430393Y207558808D01*
X-309502696Y207486505D01*
X-309774345Y207529530D01*
X-309868242Y207756217D01*
X-309922127Y207810102D01*
X-309342213Y207718253D01*
X-309251684Y208289828D01*
X-309029680Y208067824D01*
G04 #@! TO.N,GNDPWR*
G36*
X-228127000Y192651059D02*
X-228474506Y192795000D01*
X-229025494Y192795000D01*
X-229534540Y192584147D01*
X-229924147Y192194540D01*
X-230135000Y191685494D01*
X-230135000Y191380132D01*
X-230973520Y190541611D01*
X-231068288Y190478289D01*
X-231253915Y190200478D01*
X-231319146Y190102854D01*
X-231407235Y189660000D01*
X-231384999Y189548212D01*
X-231385000Y184087239D01*
X-231636086Y183836153D01*
X-231885000Y183235222D01*
X-231885000Y182878447D01*
X-231938608Y182798217D01*
X-232069146Y182602854D01*
X-232157235Y182160000D01*
X-232134999Y182048212D01*
X-232135000Y170188443D01*
X-232227110Y170326296D01*
X-232518261Y170520836D01*
X-232861696Y170589150D01*
X-234111696Y170589150D01*
X-234435060Y170524828D01*
X-234711202Y170639210D01*
X-235262190Y170639210D01*
X-235771236Y170428357D01*
X-236160843Y170038750D01*
X-236371696Y169529704D01*
X-236371696Y168978716D01*
X-236160843Y168469670D01*
X-235771236Y168080063D01*
X-235262190Y167869210D01*
X-234711202Y167869210D01*
X-234489956Y167960853D01*
X-234455131Y167937584D01*
X-234111696Y167869270D01*
X-233731887Y167869270D01*
X-233332637Y167470019D01*
X-233359696Y167442960D01*
X-233359696Y166381210D01*
X-233339696Y166381210D01*
X-233339696Y166127210D01*
X-233359696Y166127210D01*
X-233359696Y165065460D01*
X-233200946Y164906710D01*
X-232485386Y164906710D01*
X-232251997Y165003383D01*
X-232135000Y165120381D01*
X-232135000Y160785539D01*
X-232251997Y160902537D01*
X-232485386Y160999210D01*
X-233200946Y160999210D01*
X-233359696Y160840460D01*
X-233359696Y159778710D01*
X-233339696Y159778710D01*
X-233339696Y159524710D01*
X-233359696Y159524710D01*
X-233359696Y158462960D01*
X-233200946Y158304210D01*
X-232485386Y158304210D01*
X-232251997Y158400883D01*
X-232134999Y158517881D01*
X-232134999Y157635942D01*
X-232227110Y157773796D01*
X-232518261Y157968336D01*
X-232861696Y158036650D01*
X-234111696Y158036650D01*
X-234455131Y157968336D01*
X-234626228Y157854013D01*
X-234711202Y157889210D01*
X-235262190Y157889210D01*
X-235771236Y157678357D01*
X-236160843Y157288750D01*
X-236371696Y156779704D01*
X-236371696Y156228716D01*
X-236160843Y155719670D01*
X-235771236Y155330063D01*
X-235262190Y155119210D01*
X-234711202Y155119210D01*
X-234202156Y155330063D01*
X-234198235Y155333984D01*
X-234134999Y155321405D01*
X-234135000Y150897120D01*
X-234249680Y150897120D01*
X-234497445Y150847837D01*
X-234707489Y150707489D01*
X-234847837Y150497445D01*
X-234897120Y150249680D01*
X-234897120Y147750320D01*
X-234847837Y147502555D01*
X-234707489Y147292511D01*
X-234497445Y147152163D01*
X-234249680Y147102880D01*
X-231750320Y147102880D01*
X-231502555Y147152163D01*
X-231292511Y147292511D01*
X-231152163Y147502555D01*
X-231102880Y147750320D01*
X-231102880Y150249680D01*
X-231152163Y150497445D01*
X-231292511Y150707489D01*
X-231502555Y150847837D01*
X-231750320Y150897120D01*
X-231865000Y150897120D01*
X-231865000Y152911620D01*
X-231818288Y152841711D01*
X-231723521Y152778389D01*
X-230324999Y151379867D01*
X-230324999Y150530341D01*
X-230787755Y150067585D01*
X-231074680Y149374886D01*
X-231074680Y148625114D01*
X-230787755Y147932415D01*
X-230257585Y147402245D01*
X-229564886Y147115320D01*
X-228815114Y147115320D01*
X-228127000Y147400346D01*
X-228127000Y146037000D01*
X-236873000Y146037000D01*
X-236873000Y159365960D01*
X-234996696Y159365960D01*
X-234996696Y158812901D01*
X-234900023Y158579512D01*
X-234721395Y158400883D01*
X-234488006Y158304210D01*
X-233772446Y158304210D01*
X-233613696Y158462960D01*
X-233613696Y159524710D01*
X-234837946Y159524710D01*
X-234996696Y159365960D01*
X-236873000Y159365960D01*
X-236873000Y160490519D01*
X-234996696Y160490519D01*
X-234996696Y159937460D01*
X-234837946Y159778710D01*
X-233613696Y159778710D01*
X-233613696Y160840460D01*
X-233772446Y160999210D01*
X-234488006Y160999210D01*
X-234721395Y160902537D01*
X-234900023Y160723908D01*
X-234996696Y160490519D01*
X-236873000Y160490519D01*
X-236873000Y165968460D01*
X-234996696Y165968460D01*
X-234996696Y165415401D01*
X-234900023Y165182012D01*
X-234721395Y165003383D01*
X-234488006Y164906710D01*
X-233772446Y164906710D01*
X-233613696Y165065460D01*
X-233613696Y166127210D01*
X-234837946Y166127210D01*
X-234996696Y165968460D01*
X-236873000Y165968460D01*
X-236873000Y167093019D01*
X-234996696Y167093019D01*
X-234996696Y166539960D01*
X-234837946Y166381210D01*
X-233613696Y166381210D01*
X-233613696Y167442960D01*
X-233772446Y167601710D01*
X-234488006Y167601710D01*
X-234721395Y167505037D01*
X-234900023Y167326408D01*
X-234996696Y167093019D01*
X-236873000Y167093019D01*
X-236873000Y176910000D01*
X-236882667Y176958601D01*
X-236910197Y176999803D01*
X-236951399Y177027333D01*
X-237000000Y177037000D01*
X-244102500Y177037000D01*
X-244102500Y180410060D01*
X-244151783Y180657825D01*
X-244292131Y180867869D01*
X-244502175Y181008217D01*
X-244749940Y181057500D01*
X-248250060Y181057500D01*
X-248497825Y181008217D01*
X-248707869Y180867869D01*
X-248848217Y180657825D01*
X-248897500Y180410060D01*
X-248897500Y177037000D01*
X-255873000Y177037000D01*
X-255873000Y180681869D01*
X-252340451Y184214418D01*
X-248885060Y184214418D01*
X-248885060Y183265582D01*
X-248521956Y182388972D01*
X-247851028Y181718044D01*
X-246974418Y181354940D01*
X-246025582Y181354940D01*
X-245148972Y181718044D01*
X-245109548Y181757468D01*
X-238722927Y181757468D01*
X-238624264Y181490613D01*
X-238014539Y181264092D01*
X-237364540Y181288144D01*
X-236875736Y181490613D01*
X-236777073Y181757468D01*
X-237750000Y182730395D01*
X-238722927Y181757468D01*
X-245109548Y181757468D01*
X-244478044Y182388972D01*
X-244152652Y183174539D01*
X-239395908Y183174539D01*
X-239371856Y182524540D01*
X-239169387Y182035736D01*
X-238902532Y181937073D01*
X-237929605Y182910000D01*
X-237570395Y182910000D01*
X-236597468Y181937073D01*
X-236330613Y182035736D01*
X-236104092Y182645461D01*
X-236128144Y183295460D01*
X-236330613Y183784264D01*
X-236597468Y183882927D01*
X-237570395Y182910000D01*
X-237929605Y182910000D01*
X-238902532Y183882927D01*
X-239169387Y183784264D01*
X-239395908Y183174539D01*
X-244152652Y183174539D01*
X-244114940Y183265582D01*
X-244114940Y184062532D01*
X-238722927Y184062532D01*
X-237750000Y183089605D01*
X-236777073Y184062532D01*
X-236875736Y184329387D01*
X-237485461Y184555908D01*
X-238135460Y184531856D01*
X-238624264Y184329387D01*
X-238722927Y184062532D01*
X-244114940Y184062532D01*
X-244114940Y184214418D01*
X-244478044Y185091028D01*
X-245148972Y185761956D01*
X-246025582Y186125060D01*
X-246974418Y186125060D01*
X-247851028Y185761956D01*
X-248521956Y185091028D01*
X-248885060Y184214418D01*
X-252340451Y184214418D01*
X-249529868Y187025000D01*
X-249474506Y187025000D01*
X-248965460Y187235853D01*
X-248575853Y187625460D01*
X-248365000Y188134506D01*
X-248365000Y188685494D01*
X-248575853Y189194540D01*
X-248965460Y189584147D01*
X-249474506Y189795000D01*
X-250025494Y189795000D01*
X-250534540Y189584147D01*
X-250924147Y189194540D01*
X-251135000Y188685494D01*
X-251135000Y188630132D01*
X-255873000Y183892131D01*
X-255873000Y200034978D01*
X-245695416Y200034978D01*
X-245474647Y199664257D01*
X-244502988Y199270881D01*
X-243454753Y199279287D01*
X-242525353Y199664257D01*
X-242304584Y200034978D01*
X-244000000Y201730395D01*
X-245695416Y200034978D01*
X-255873000Y200034978D01*
X-255873000Y202412988D01*
X-246639119Y202412988D01*
X-246630713Y201364753D01*
X-246245743Y200435353D01*
X-245875022Y200214584D01*
X-244179605Y201910000D01*
X-243820395Y201910000D01*
X-242124978Y200214584D01*
X-241754257Y200435353D01*
X-241360881Y201407012D01*
X-241369287Y202455247D01*
X-241754257Y203384647D01*
X-242124978Y203605416D01*
X-243820395Y201910000D01*
X-244179605Y201910000D01*
X-245875022Y203605416D01*
X-246245743Y203384647D01*
X-246639119Y202412988D01*
X-255873000Y202412988D01*
X-255873000Y203785022D01*
X-245695416Y203785022D01*
X-244000000Y202089605D01*
X-242304584Y203785022D01*
X-242525353Y204155743D01*
X-243497012Y204549119D01*
X-244545247Y204540713D01*
X-245474647Y204155743D01*
X-245695416Y203785022D01*
X-255873000Y203785022D01*
X-255873000Y203910000D01*
X-255882667Y203958601D01*
X-255910197Y203999803D01*
X-255951399Y204027333D01*
X-256000000Y204037000D01*
X-287956425Y204037000D01*
X-291865000Y207077003D01*
X-291865000Y212235222D01*
X-291635000Y212235222D01*
X-291635000Y211584778D01*
X-291386086Y210983847D01*
X-290926153Y210523914D01*
X-290325222Y210275000D01*
X-289970131Y210275000D01*
X-287881611Y208186479D01*
X-287818289Y208091711D01*
X-287442855Y207840854D01*
X-287000000Y207752765D01*
X-286888217Y207775000D01*
X-280177239Y207775000D01*
X-279926153Y207523914D01*
X-279325222Y207275000D01*
X-278674778Y207275000D01*
X-278073847Y207523914D01*
X-277822761Y207775000D01*
X-268471060Y207775000D01*
X-268464826Y207765670D01*
X-268173675Y207571130D01*
X-267830240Y207502816D01*
X-266580240Y207502816D01*
X-266236805Y207571130D01*
X-266205240Y207592221D01*
X-266173675Y207571130D01*
X-265830240Y207502816D01*
X-264580240Y207502816D01*
X-264236805Y207571130D01*
X-263945654Y207765670D01*
X-263751114Y208056821D01*
X-263682800Y208400256D01*
X-263682800Y209325256D01*
X-263751114Y209668691D01*
X-263945654Y209959842D01*
X-264236805Y210154382D01*
X-264580240Y210222696D01*
X-265830240Y210222696D01*
X-266173675Y210154382D01*
X-266205240Y210133291D01*
X-266236805Y210154382D01*
X-266580240Y210222696D01*
X-267830240Y210222696D01*
X-268173675Y210154382D01*
X-268337377Y210045000D01*
X-277822761Y210045000D01*
X-278073847Y210296086D01*
X-278674778Y210545000D01*
X-279325222Y210545000D01*
X-279926153Y210296086D01*
X-280177239Y210045000D01*
X-286529868Y210045000D01*
X-288365000Y211880131D01*
X-288365000Y212235222D01*
X-288613914Y212836153D01*
X-288653255Y212875494D01*
X-286425000Y212875494D01*
X-286425000Y212324506D01*
X-286214147Y211815460D01*
X-285824540Y211425853D01*
X-285686859Y211368824D01*
X-285468289Y211041711D01*
X-285092855Y210790854D01*
X-284761783Y210725000D01*
X-284382330Y210725000D01*
X-284281783Y210705000D01*
X-268411442Y210705000D01*
X-268173675Y210546130D01*
X-267830240Y210477816D01*
X-266580240Y210477816D01*
X-266236805Y210546130D01*
X-266205240Y210567221D01*
X-266173675Y210546130D01*
X-265830240Y210477816D01*
X-264580240Y210477816D01*
X-264236805Y210546130D01*
X-263945654Y210740670D01*
X-263922716Y210775000D01*
X-246647440Y210775000D01*
X-246647440Y209910000D01*
X-246598157Y209662235D01*
X-246457809Y209452191D01*
X-246247765Y209311843D01*
X-246000000Y209262560D01*
X-242000000Y209262560D01*
X-241752235Y209311843D01*
X-241542191Y209452191D01*
X-241401843Y209662235D01*
X-241352560Y209910000D01*
X-241352560Y210157429D01*
X-232134999Y200939867D01*
X-232135000Y194233687D01*
X-232174147Y194194540D01*
X-232385000Y193685494D01*
X-232385000Y193134506D01*
X-232174147Y192625460D01*
X-231784540Y192235853D01*
X-231275494Y192025000D01*
X-230724506Y192025000D01*
X-230215460Y192235853D01*
X-229825853Y192625460D01*
X-229615000Y193134506D01*
X-229615000Y193685494D01*
X-229825853Y194194540D01*
X-229865000Y194233687D01*
X-229865000Y201521783D01*
X-229930854Y201852855D01*
X-230181711Y202228289D01*
X-230331576Y202328426D01*
X-230368392Y202383524D01*
X-240618387Y212633518D01*
X-240681711Y212728289D01*
X-241057145Y212979146D01*
X-241352560Y213037907D01*
X-241352560Y213910000D01*
X-241401843Y214157765D01*
X-241542191Y214367809D01*
X-241752235Y214508157D01*
X-242000000Y214557440D01*
X-246000000Y214557440D01*
X-246247765Y214508157D01*
X-246457809Y214367809D01*
X-246598157Y214157765D01*
X-246647440Y213910000D01*
X-246647440Y213045000D01*
X-264110518Y213045000D01*
X-264236805Y213129382D01*
X-264580240Y213197696D01*
X-265830240Y213197696D01*
X-266173675Y213129382D01*
X-266205240Y213108291D01*
X-266236805Y213129382D01*
X-266580240Y213197696D01*
X-267830240Y213197696D01*
X-268173675Y213129382D01*
X-268404725Y212975000D01*
X-272105000Y212975000D01*
X-272105000Y213075494D01*
X-272315853Y213584540D01*
X-272705460Y213974147D01*
X-273214506Y214185000D01*
X-273765494Y214185000D01*
X-274274540Y213974147D01*
X-274664147Y213584540D01*
X-274875000Y213075494D01*
X-274875000Y212975000D01*
X-283237670Y212975000D01*
X-283338217Y212995000D01*
X-283704501Y212995000D01*
X-283865853Y213384540D01*
X-284255460Y213774147D01*
X-284764506Y213985000D01*
X-285315494Y213985000D01*
X-285824540Y213774147D01*
X-286214147Y213384540D01*
X-286425000Y212875494D01*
X-288653255Y212875494D01*
X-289073847Y213296086D01*
X-289674778Y213545000D01*
X-290325222Y213545000D01*
X-290926153Y213296086D01*
X-291386086Y212836153D01*
X-291635000Y212235222D01*
X-291865000Y212235222D01*
X-291865000Y214981783D01*
X-291930854Y215312855D01*
X-292072605Y215525000D01*
X-288791783Y215525000D01*
X-288680000Y215502765D01*
X-288568217Y215525000D01*
X-288237145Y215590854D01*
X-287861711Y215841711D01*
X-287798387Y215936482D01*
X-286459868Y217275000D01*
X-285323687Y217275000D01*
X-285284540Y217235853D01*
X-284775494Y217025000D01*
X-284224506Y217025000D01*
X-283715460Y217235853D01*
X-283325853Y217625460D01*
X-283115000Y218134506D01*
X-283115000Y218685494D01*
X-283325853Y219194540D01*
X-283715460Y219584147D01*
X-284224506Y219795000D01*
X-284775494Y219795000D01*
X-285284540Y219584147D01*
X-285323687Y219545000D01*
X-286818217Y219545000D01*
X-286930000Y219567235D01*
X-287041783Y219545000D01*
X-287372855Y219479146D01*
X-287748289Y219228289D01*
X-287811611Y219133521D01*
X-289150131Y217795000D01*
X-295156313Y217795000D01*
X-294825853Y218125460D01*
X-294615000Y218634506D01*
X-294615000Y219185494D01*
X-294825853Y219694540D01*
X-295215460Y220084147D01*
X-295724506Y220295000D01*
X-296275494Y220295000D01*
X-296784540Y220084147D01*
X-296823687Y220045000D01*
X-296873000Y220045000D01*
X-296873000Y226415494D01*
X-295705000Y226415494D01*
X-295705000Y225864506D01*
X-295494147Y225355460D01*
X-295104540Y224965853D01*
X-294595494Y224755000D01*
X-294044506Y224755000D01*
X-293535460Y224965853D01*
X-293145853Y225355460D01*
X-292935000Y225864506D01*
X-292935000Y226415494D01*
X-293145853Y226924540D01*
X-293185000Y226963687D01*
X-293185000Y230009869D01*
X-292919868Y230275000D01*
X-289177239Y230275000D01*
X-288926153Y230023914D01*
X-288325222Y229775000D01*
X-287674778Y229775000D01*
X-287073847Y230023914D01*
X-286613914Y230483847D01*
X-286365000Y231084778D01*
X-286365000Y231735222D01*
X-282135000Y231735222D01*
X-282135000Y231084778D01*
X-281886086Y230483847D01*
X-281635000Y230232761D01*
X-281634999Y227111783D01*
X-281635000Y217668218D01*
X-281569146Y217337146D01*
X-281318289Y216961711D01*
X-281150441Y216849559D01*
X-281038289Y216681711D01*
X-280662855Y216430854D01*
X-280331783Y216365000D01*
X-273381971Y216365000D01*
X-273233845Y216007392D01*
X-272492608Y215266155D01*
X-271524134Y214865000D01*
X-270475866Y214865000D01*
X-269507392Y215266155D01*
X-268766155Y216007392D01*
X-268500000Y216649947D01*
X-268233845Y216007392D01*
X-267492608Y215266155D01*
X-266524134Y214865000D01*
X-265475866Y214865000D01*
X-264507392Y215266155D01*
X-263766155Y216007392D01*
X-263618029Y216365000D01*
X-253508217Y216365000D01*
X-253177145Y216430854D01*
X-252801711Y216681711D01*
X-252681547Y216861548D01*
X-252501711Y216981711D01*
X-252250854Y217357145D01*
X-252185000Y217688217D01*
X-252185000Y226682761D01*
X-251933914Y226933847D01*
X-251685000Y227534778D01*
X-251685000Y228185222D01*
X-251933914Y228786153D01*
X-252393847Y229246086D01*
X-252994778Y229495000D01*
X-253645222Y229495000D01*
X-254246153Y229246086D01*
X-254706086Y228786153D01*
X-254955000Y228185222D01*
X-254955000Y227534778D01*
X-254706086Y226933847D01*
X-254454999Y226682760D01*
X-254455000Y218635000D01*
X-263618029Y218635000D01*
X-263766155Y218992608D01*
X-264507392Y219733845D01*
X-264865000Y219881971D01*
X-264865000Y221332169D01*
X-264740414Y221415414D01*
X-264545874Y221706565D01*
X-264477560Y222050000D01*
X-264477560Y222975000D01*
X-264545874Y223318435D01*
X-264740414Y223609586D01*
X-265031565Y223804126D01*
X-265375000Y223872440D01*
X-266625000Y223872440D01*
X-266968435Y223804126D01*
X-267259586Y223609586D01*
X-267454126Y223318435D01*
X-267522440Y222975000D01*
X-267522440Y222050000D01*
X-267454126Y221706565D01*
X-267259586Y221415414D01*
X-267135000Y221332169D01*
X-267135000Y219881971D01*
X-267492608Y219733845D01*
X-268233845Y218992608D01*
X-268500000Y218350053D01*
X-268766155Y218992608D01*
X-269507392Y219733845D01*
X-269865000Y219881971D01*
X-269865000Y221332169D01*
X-269740414Y221415414D01*
X-269545874Y221706565D01*
X-269477560Y222050000D01*
X-269477560Y222975000D01*
X-269545874Y223318435D01*
X-269740414Y223609586D01*
X-270031565Y223804126D01*
X-270375000Y223872440D01*
X-271625000Y223872440D01*
X-271968435Y223804126D01*
X-272259586Y223609586D01*
X-272454126Y223318435D01*
X-272522440Y222975000D01*
X-272522440Y222050000D01*
X-272454126Y221706565D01*
X-272259586Y221415414D01*
X-272135000Y221332168D01*
X-272135000Y220216645D01*
X-272134999Y220216640D01*
X-272134999Y219881971D01*
X-272492608Y219733845D01*
X-273233845Y218992608D01*
X-273381971Y218635000D01*
X-279365000Y218635000D01*
X-279365000Y225201750D01*
X-272510000Y225201750D01*
X-272510000Y224648691D01*
X-272413327Y224415302D01*
X-272234699Y224236673D01*
X-272001310Y224140000D01*
X-271285750Y224140000D01*
X-271127000Y224298750D01*
X-271127000Y225360500D01*
X-270873000Y225360500D01*
X-270873000Y224298750D01*
X-270714250Y224140000D01*
X-269998690Y224140000D01*
X-269765301Y224236673D01*
X-269586673Y224415302D01*
X-269490000Y224648691D01*
X-269490000Y225201750D01*
X-267510000Y225201750D01*
X-267510000Y224648691D01*
X-267413327Y224415302D01*
X-267234699Y224236673D01*
X-267001310Y224140000D01*
X-266285750Y224140000D01*
X-266127000Y224298750D01*
X-266127000Y225360500D01*
X-265873000Y225360500D01*
X-265873000Y224298750D01*
X-265714250Y224140000D01*
X-264998690Y224140000D01*
X-264765301Y224236673D01*
X-264586673Y224415302D01*
X-264490000Y224648691D01*
X-264490000Y225201750D01*
X-264648750Y225360500D01*
X-265873000Y225360500D01*
X-266127000Y225360500D01*
X-267351250Y225360500D01*
X-267510000Y225201750D01*
X-269490000Y225201750D01*
X-269648750Y225360500D01*
X-270873000Y225360500D01*
X-271127000Y225360500D01*
X-272351250Y225360500D01*
X-272510000Y225201750D01*
X-279365000Y225201750D01*
X-279365000Y226326309D01*
X-272510000Y226326309D01*
X-272510000Y225773250D01*
X-272351250Y225614500D01*
X-271127000Y225614500D01*
X-271127000Y226676250D01*
X-270873000Y226676250D01*
X-270873000Y225614500D01*
X-269648750Y225614500D01*
X-269490000Y225773250D01*
X-269490000Y226326309D01*
X-267510000Y226326309D01*
X-267510000Y225773250D01*
X-267351250Y225614500D01*
X-266127000Y225614500D01*
X-266127000Y226676250D01*
X-265873000Y226676250D01*
X-265873000Y225614500D01*
X-264648750Y225614500D01*
X-264490000Y225773250D01*
X-264490000Y226326309D01*
X-264586673Y226559698D01*
X-264765301Y226738327D01*
X-264998690Y226835000D01*
X-265714250Y226835000D01*
X-265873000Y226676250D01*
X-266127000Y226676250D01*
X-266285750Y226835000D01*
X-267001310Y226835000D01*
X-267234699Y226738327D01*
X-267413327Y226559698D01*
X-267510000Y226326309D01*
X-269490000Y226326309D01*
X-269586673Y226559698D01*
X-269765301Y226738327D01*
X-269998690Y226835000D01*
X-270714250Y226835000D01*
X-270873000Y226676250D01*
X-271127000Y226676250D01*
X-271285750Y226835000D01*
X-272001310Y226835000D01*
X-272234699Y226738327D01*
X-272413327Y226559698D01*
X-272510000Y226326309D01*
X-279365000Y226326309D01*
X-279365000Y230232761D01*
X-279113914Y230483847D01*
X-279055456Y230624978D01*
X-270195416Y230624978D01*
X-269974647Y230254257D01*
X-269002988Y229860881D01*
X-267954753Y229869287D01*
X-267025353Y230254257D01*
X-266804584Y230624978D01*
X-268500000Y232320395D01*
X-270195416Y230624978D01*
X-279055456Y230624978D01*
X-278865000Y231084778D01*
X-278865000Y231735222D01*
X-279113914Y232336153D01*
X-279573847Y232796086D01*
X-280073352Y233002988D01*
X-271139119Y233002988D01*
X-271130713Y231954753D01*
X-270745743Y231025353D01*
X-270375022Y230804584D01*
X-268679605Y232500000D01*
X-268320395Y232500000D01*
X-266624978Y230804584D01*
X-266254257Y231025353D01*
X-265860881Y231997012D01*
X-265869287Y233045247D01*
X-266254257Y233974647D01*
X-266624978Y234195416D01*
X-268320395Y232500000D01*
X-268679605Y232500000D01*
X-270375022Y234195416D01*
X-270745743Y233974647D01*
X-271139119Y233002988D01*
X-280073352Y233002988D01*
X-280174778Y233045000D01*
X-280825222Y233045000D01*
X-281426153Y232796086D01*
X-281886086Y232336153D01*
X-282135000Y231735222D01*
X-286365000Y231735222D01*
X-286613914Y232336153D01*
X-287073847Y232796086D01*
X-287674778Y233045000D01*
X-288325222Y233045000D01*
X-288926153Y232796086D01*
X-289177239Y232545000D01*
X-293278217Y232545000D01*
X-293390000Y232567235D01*
X-293501783Y232545000D01*
X-293832855Y232479146D01*
X-294208289Y232228289D01*
X-294271611Y232133521D01*
X-295043519Y231361613D01*
X-295138289Y231298289D01*
X-295359552Y230967145D01*
X-295389146Y230922854D01*
X-295477235Y230480000D01*
X-295455000Y230368217D01*
X-295454999Y226963688D01*
X-295494147Y226924540D01*
X-295705000Y226415494D01*
X-296873000Y226415494D01*
X-296873000Y234375022D01*
X-270195416Y234375022D01*
X-268500000Y232679605D01*
X-266804584Y234375022D01*
X-267025353Y234745743D01*
X-267997012Y235139119D01*
X-269045247Y235130713D01*
X-269974647Y234745743D01*
X-270195416Y234375022D01*
X-296873000Y234375022D01*
X-296873000Y235830000D01*
X-263032337Y235830000D01*
X-262963652Y235484691D01*
X-262817424Y235265846D01*
X-262793809Y235242231D01*
X-262729146Y234917145D01*
X-262478289Y234541711D01*
X-262102855Y234290854D01*
X-261771783Y234225000D01*
X-254497239Y234225000D01*
X-254246153Y233973914D01*
X-253645222Y233725000D01*
X-252994778Y233725000D01*
X-252393847Y233973914D01*
X-251933914Y234433847D01*
X-251685000Y235034778D01*
X-251685000Y235685222D01*
X-251933914Y236286153D01*
X-252393847Y236746086D01*
X-252994778Y236995000D01*
X-253645222Y236995000D01*
X-254246153Y236746086D01*
X-254497239Y236495000D01*
X-260283912Y236495000D01*
X-260345853Y236644540D01*
X-260735460Y237034147D01*
X-261244506Y237245000D01*
X-261795494Y237245000D01*
X-262304540Y237034147D01*
X-262694147Y236644540D01*
X-262766947Y236468786D01*
X-262768049Y236468049D01*
X-262963652Y236175309D01*
X-263032337Y235830000D01*
X-296873000Y235830000D01*
X-296873000Y237750060D01*
X-242397500Y237750060D01*
X-242397500Y234249940D01*
X-242348217Y234002175D01*
X-242207869Y233792131D01*
X-241997825Y233651783D01*
X-241750060Y233602500D01*
X-238249940Y233602500D01*
X-238002175Y233651783D01*
X-237792131Y233792131D01*
X-237651783Y234002175D01*
X-237602500Y234249940D01*
X-237602500Y236474418D01*
X-237305060Y236474418D01*
X-237305060Y235525582D01*
X-236941956Y234648972D01*
X-236271028Y233978044D01*
X-235394418Y233614940D01*
X-234445582Y233614940D01*
X-233568972Y233978044D01*
X-232898044Y234648972D01*
X-232534940Y235525582D01*
X-232534940Y236474418D01*
X-232898044Y237351028D01*
X-233568972Y238021956D01*
X-234445582Y238385060D01*
X-235394418Y238385060D01*
X-236271028Y238021956D01*
X-236941956Y237351028D01*
X-237305060Y236474418D01*
X-237602500Y236474418D01*
X-237602500Y237750060D01*
X-237651783Y237997825D01*
X-237792131Y238207869D01*
X-238002175Y238348217D01*
X-238249940Y238397500D01*
X-241750060Y238397500D01*
X-241997825Y238348217D01*
X-242207869Y238207869D01*
X-242348217Y237997825D01*
X-242397500Y237750060D01*
X-296873000Y237750060D01*
X-296873000Y238783000D01*
X-228127000Y238783000D01*
X-228127000Y192651059D01*
X-228127000Y192651059D01*
G37*
X-228127000Y192651059D02*
X-228474506Y192795000D01*
X-229025494Y192795000D01*
X-229534540Y192584147D01*
X-229924147Y192194540D01*
X-230135000Y191685494D01*
X-230135000Y191380132D01*
X-230973520Y190541611D01*
X-231068288Y190478289D01*
X-231253915Y190200478D01*
X-231319146Y190102854D01*
X-231407235Y189660000D01*
X-231384999Y189548212D01*
X-231385000Y184087239D01*
X-231636086Y183836153D01*
X-231885000Y183235222D01*
X-231885000Y182878447D01*
X-231938608Y182798217D01*
X-232069146Y182602854D01*
X-232157235Y182160000D01*
X-232134999Y182048212D01*
X-232135000Y170188443D01*
X-232227110Y170326296D01*
X-232518261Y170520836D01*
X-232861696Y170589150D01*
X-234111696Y170589150D01*
X-234435060Y170524828D01*
X-234711202Y170639210D01*
X-235262190Y170639210D01*
X-235771236Y170428357D01*
X-236160843Y170038750D01*
X-236371696Y169529704D01*
X-236371696Y168978716D01*
X-236160843Y168469670D01*
X-235771236Y168080063D01*
X-235262190Y167869210D01*
X-234711202Y167869210D01*
X-234489956Y167960853D01*
X-234455131Y167937584D01*
X-234111696Y167869270D01*
X-233731887Y167869270D01*
X-233332637Y167470019D01*
X-233359696Y167442960D01*
X-233359696Y166381210D01*
X-233339696Y166381210D01*
X-233339696Y166127210D01*
X-233359696Y166127210D01*
X-233359696Y165065460D01*
X-233200946Y164906710D01*
X-232485386Y164906710D01*
X-232251997Y165003383D01*
X-232135000Y165120381D01*
X-232135000Y160785539D01*
X-232251997Y160902537D01*
X-232485386Y160999210D01*
X-233200946Y160999210D01*
X-233359696Y160840460D01*
X-233359696Y159778710D01*
X-233339696Y159778710D01*
X-233339696Y159524710D01*
X-233359696Y159524710D01*
X-233359696Y158462960D01*
X-233200946Y158304210D01*
X-232485386Y158304210D01*
X-232251997Y158400883D01*
X-232134999Y158517881D01*
X-232134999Y157635942D01*
X-232227110Y157773796D01*
X-232518261Y157968336D01*
X-232861696Y158036650D01*
X-234111696Y158036650D01*
X-234455131Y157968336D01*
X-234626228Y157854013D01*
X-234711202Y157889210D01*
X-235262190Y157889210D01*
X-235771236Y157678357D01*
X-236160843Y157288750D01*
X-236371696Y156779704D01*
X-236371696Y156228716D01*
X-236160843Y155719670D01*
X-235771236Y155330063D01*
X-235262190Y155119210D01*
X-234711202Y155119210D01*
X-234202156Y155330063D01*
X-234198235Y155333984D01*
X-234134999Y155321405D01*
X-234135000Y150897120D01*
X-234249680Y150897120D01*
X-234497445Y150847837D01*
X-234707489Y150707489D01*
X-234847837Y150497445D01*
X-234897120Y150249680D01*
X-234897120Y147750320D01*
X-234847837Y147502555D01*
X-234707489Y147292511D01*
X-234497445Y147152163D01*
X-234249680Y147102880D01*
X-231750320Y147102880D01*
X-231502555Y147152163D01*
X-231292511Y147292511D01*
X-231152163Y147502555D01*
X-231102880Y147750320D01*
X-231102880Y150249680D01*
X-231152163Y150497445D01*
X-231292511Y150707489D01*
X-231502555Y150847837D01*
X-231750320Y150897120D01*
X-231865000Y150897120D01*
X-231865000Y152911620D01*
X-231818288Y152841711D01*
X-231723521Y152778389D01*
X-230324999Y151379867D01*
X-230324999Y150530341D01*
X-230787755Y150067585D01*
X-231074680Y149374886D01*
X-231074680Y148625114D01*
X-230787755Y147932415D01*
X-230257585Y147402245D01*
X-229564886Y147115320D01*
X-228815114Y147115320D01*
X-228127000Y147400346D01*
X-228127000Y146037000D01*
X-236873000Y146037000D01*
X-236873000Y159365960D01*
X-234996696Y159365960D01*
X-234996696Y158812901D01*
X-234900023Y158579512D01*
X-234721395Y158400883D01*
X-234488006Y158304210D01*
X-233772446Y158304210D01*
X-233613696Y158462960D01*
X-233613696Y159524710D01*
X-234837946Y159524710D01*
X-234996696Y159365960D01*
X-236873000Y159365960D01*
X-236873000Y160490519D01*
X-234996696Y160490519D01*
X-234996696Y159937460D01*
X-234837946Y159778710D01*
X-233613696Y159778710D01*
X-233613696Y160840460D01*
X-233772446Y160999210D01*
X-234488006Y160999210D01*
X-234721395Y160902537D01*
X-234900023Y160723908D01*
X-234996696Y160490519D01*
X-236873000Y160490519D01*
X-236873000Y165968460D01*
X-234996696Y165968460D01*
X-234996696Y165415401D01*
X-234900023Y165182012D01*
X-234721395Y165003383D01*
X-234488006Y164906710D01*
X-233772446Y164906710D01*
X-233613696Y165065460D01*
X-233613696Y166127210D01*
X-234837946Y166127210D01*
X-234996696Y165968460D01*
X-236873000Y165968460D01*
X-236873000Y167093019D01*
X-234996696Y167093019D01*
X-234996696Y166539960D01*
X-234837946Y166381210D01*
X-233613696Y166381210D01*
X-233613696Y167442960D01*
X-233772446Y167601710D01*
X-234488006Y167601710D01*
X-234721395Y167505037D01*
X-234900023Y167326408D01*
X-234996696Y167093019D01*
X-236873000Y167093019D01*
X-236873000Y176910000D01*
X-236882667Y176958601D01*
X-236910197Y176999803D01*
X-236951399Y177027333D01*
X-237000000Y177037000D01*
X-244102500Y177037000D01*
X-244102500Y180410060D01*
X-244151783Y180657825D01*
X-244292131Y180867869D01*
X-244502175Y181008217D01*
X-244749940Y181057500D01*
X-248250060Y181057500D01*
X-248497825Y181008217D01*
X-248707869Y180867869D01*
X-248848217Y180657825D01*
X-248897500Y180410060D01*
X-248897500Y177037000D01*
X-255873000Y177037000D01*
X-255873000Y180681869D01*
X-252340451Y184214418D01*
X-248885060Y184214418D01*
X-248885060Y183265582D01*
X-248521956Y182388972D01*
X-247851028Y181718044D01*
X-246974418Y181354940D01*
X-246025582Y181354940D01*
X-245148972Y181718044D01*
X-245109548Y181757468D01*
X-238722927Y181757468D01*
X-238624264Y181490613D01*
X-238014539Y181264092D01*
X-237364540Y181288144D01*
X-236875736Y181490613D01*
X-236777073Y181757468D01*
X-237750000Y182730395D01*
X-238722927Y181757468D01*
X-245109548Y181757468D01*
X-244478044Y182388972D01*
X-244152652Y183174539D01*
X-239395908Y183174539D01*
X-239371856Y182524540D01*
X-239169387Y182035736D01*
X-238902532Y181937073D01*
X-237929605Y182910000D01*
X-237570395Y182910000D01*
X-236597468Y181937073D01*
X-236330613Y182035736D01*
X-236104092Y182645461D01*
X-236128144Y183295460D01*
X-236330613Y183784264D01*
X-236597468Y183882927D01*
X-237570395Y182910000D01*
X-237929605Y182910000D01*
X-238902532Y183882927D01*
X-239169387Y183784264D01*
X-239395908Y183174539D01*
X-244152652Y183174539D01*
X-244114940Y183265582D01*
X-244114940Y184062532D01*
X-238722927Y184062532D01*
X-237750000Y183089605D01*
X-236777073Y184062532D01*
X-236875736Y184329387D01*
X-237485461Y184555908D01*
X-238135460Y184531856D01*
X-238624264Y184329387D01*
X-238722927Y184062532D01*
X-244114940Y184062532D01*
X-244114940Y184214418D01*
X-244478044Y185091028D01*
X-245148972Y185761956D01*
X-246025582Y186125060D01*
X-246974418Y186125060D01*
X-247851028Y185761956D01*
X-248521956Y185091028D01*
X-248885060Y184214418D01*
X-252340451Y184214418D01*
X-249529868Y187025000D01*
X-249474506Y187025000D01*
X-248965460Y187235853D01*
X-248575853Y187625460D01*
X-248365000Y188134506D01*
X-248365000Y188685494D01*
X-248575853Y189194540D01*
X-248965460Y189584147D01*
X-249474506Y189795000D01*
X-250025494Y189795000D01*
X-250534540Y189584147D01*
X-250924147Y189194540D01*
X-251135000Y188685494D01*
X-251135000Y188630132D01*
X-255873000Y183892131D01*
X-255873000Y200034978D01*
X-245695416Y200034978D01*
X-245474647Y199664257D01*
X-244502988Y199270881D01*
X-243454753Y199279287D01*
X-242525353Y199664257D01*
X-242304584Y200034978D01*
X-244000000Y201730395D01*
X-245695416Y200034978D01*
X-255873000Y200034978D01*
X-255873000Y202412988D01*
X-246639119Y202412988D01*
X-246630713Y201364753D01*
X-246245743Y200435353D01*
X-245875022Y200214584D01*
X-244179605Y201910000D01*
X-243820395Y201910000D01*
X-242124978Y200214584D01*
X-241754257Y200435353D01*
X-241360881Y201407012D01*
X-241369287Y202455247D01*
X-241754257Y203384647D01*
X-242124978Y203605416D01*
X-243820395Y201910000D01*
X-244179605Y201910000D01*
X-245875022Y203605416D01*
X-246245743Y203384647D01*
X-246639119Y202412988D01*
X-255873000Y202412988D01*
X-255873000Y203785022D01*
X-245695416Y203785022D01*
X-244000000Y202089605D01*
X-242304584Y203785022D01*
X-242525353Y204155743D01*
X-243497012Y204549119D01*
X-244545247Y204540713D01*
X-245474647Y204155743D01*
X-245695416Y203785022D01*
X-255873000Y203785022D01*
X-255873000Y203910000D01*
X-255882667Y203958601D01*
X-255910197Y203999803D01*
X-255951399Y204027333D01*
X-256000000Y204037000D01*
X-287956425Y204037000D01*
X-291865000Y207077003D01*
X-291865000Y212235222D01*
X-291635000Y212235222D01*
X-291635000Y211584778D01*
X-291386086Y210983847D01*
X-290926153Y210523914D01*
X-290325222Y210275000D01*
X-289970131Y210275000D01*
X-287881611Y208186479D01*
X-287818289Y208091711D01*
X-287442855Y207840854D01*
X-287000000Y207752765D01*
X-286888217Y207775000D01*
X-280177239Y207775000D01*
X-279926153Y207523914D01*
X-279325222Y207275000D01*
X-278674778Y207275000D01*
X-278073847Y207523914D01*
X-277822761Y207775000D01*
X-268471060Y207775000D01*
X-268464826Y207765670D01*
X-268173675Y207571130D01*
X-267830240Y207502816D01*
X-266580240Y207502816D01*
X-266236805Y207571130D01*
X-266205240Y207592221D01*
X-266173675Y207571130D01*
X-265830240Y207502816D01*
X-264580240Y207502816D01*
X-264236805Y207571130D01*
X-263945654Y207765670D01*
X-263751114Y208056821D01*
X-263682800Y208400256D01*
X-263682800Y209325256D01*
X-263751114Y209668691D01*
X-263945654Y209959842D01*
X-264236805Y210154382D01*
X-264580240Y210222696D01*
X-265830240Y210222696D01*
X-266173675Y210154382D01*
X-266205240Y210133291D01*
X-266236805Y210154382D01*
X-266580240Y210222696D01*
X-267830240Y210222696D01*
X-268173675Y210154382D01*
X-268337377Y210045000D01*
X-277822761Y210045000D01*
X-278073847Y210296086D01*
X-278674778Y210545000D01*
X-279325222Y210545000D01*
X-279926153Y210296086D01*
X-280177239Y210045000D01*
X-286529868Y210045000D01*
X-288365000Y211880131D01*
X-288365000Y212235222D01*
X-288613914Y212836153D01*
X-288653255Y212875494D01*
X-286425000Y212875494D01*
X-286425000Y212324506D01*
X-286214147Y211815460D01*
X-285824540Y211425853D01*
X-285686859Y211368824D01*
X-285468289Y211041711D01*
X-285092855Y210790854D01*
X-284761783Y210725000D01*
X-284382330Y210725000D01*
X-284281783Y210705000D01*
X-268411442Y210705000D01*
X-268173675Y210546130D01*
X-267830240Y210477816D01*
X-266580240Y210477816D01*
X-266236805Y210546130D01*
X-266205240Y210567221D01*
X-266173675Y210546130D01*
X-265830240Y210477816D01*
X-264580240Y210477816D01*
X-264236805Y210546130D01*
X-263945654Y210740670D01*
X-263922716Y210775000D01*
X-246647440Y210775000D01*
X-246647440Y209910000D01*
X-246598157Y209662235D01*
X-246457809Y209452191D01*
X-246247765Y209311843D01*
X-246000000Y209262560D01*
X-242000000Y209262560D01*
X-241752235Y209311843D01*
X-241542191Y209452191D01*
X-241401843Y209662235D01*
X-241352560Y209910000D01*
X-241352560Y210157429D01*
X-232134999Y200939867D01*
X-232135000Y194233687D01*
X-232174147Y194194540D01*
X-232385000Y193685494D01*
X-232385000Y193134506D01*
X-232174147Y192625460D01*
X-231784540Y192235853D01*
X-231275494Y192025000D01*
X-230724506Y192025000D01*
X-230215460Y192235853D01*
X-229825853Y192625460D01*
X-229615000Y193134506D01*
X-229615000Y193685494D01*
X-229825853Y194194540D01*
X-229865000Y194233687D01*
X-229865000Y201521783D01*
X-229930854Y201852855D01*
X-230181711Y202228289D01*
X-230331576Y202328426D01*
X-230368392Y202383524D01*
X-240618387Y212633518D01*
X-240681711Y212728289D01*
X-241057145Y212979146D01*
X-241352560Y213037907D01*
X-241352560Y213910000D01*
X-241401843Y214157765D01*
X-241542191Y214367809D01*
X-241752235Y214508157D01*
X-242000000Y214557440D01*
X-246000000Y214557440D01*
X-246247765Y214508157D01*
X-246457809Y214367809D01*
X-246598157Y214157765D01*
X-246647440Y213910000D01*
X-246647440Y213045000D01*
X-264110518Y213045000D01*
X-264236805Y213129382D01*
X-264580240Y213197696D01*
X-265830240Y213197696D01*
X-266173675Y213129382D01*
X-266205240Y213108291D01*
X-266236805Y213129382D01*
X-266580240Y213197696D01*
X-267830240Y213197696D01*
X-268173675Y213129382D01*
X-268404725Y212975000D01*
X-272105000Y212975000D01*
X-272105000Y213075494D01*
X-272315853Y213584540D01*
X-272705460Y213974147D01*
X-273214506Y214185000D01*
X-273765494Y214185000D01*
X-274274540Y213974147D01*
X-274664147Y213584540D01*
X-274875000Y213075494D01*
X-274875000Y212975000D01*
X-283237670Y212975000D01*
X-283338217Y212995000D01*
X-283704501Y212995000D01*
X-283865853Y213384540D01*
X-284255460Y213774147D01*
X-284764506Y213985000D01*
X-285315494Y213985000D01*
X-285824540Y213774147D01*
X-286214147Y213384540D01*
X-286425000Y212875494D01*
X-288653255Y212875494D01*
X-289073847Y213296086D01*
X-289674778Y213545000D01*
X-290325222Y213545000D01*
X-290926153Y213296086D01*
X-291386086Y212836153D01*
X-291635000Y212235222D01*
X-291865000Y212235222D01*
X-291865000Y214981783D01*
X-291930854Y215312855D01*
X-292072605Y215525000D01*
X-288791783Y215525000D01*
X-288680000Y215502765D01*
X-288568217Y215525000D01*
X-288237145Y215590854D01*
X-287861711Y215841711D01*
X-287798387Y215936482D01*
X-286459868Y217275000D01*
X-285323687Y217275000D01*
X-285284540Y217235853D01*
X-284775494Y217025000D01*
X-284224506Y217025000D01*
X-283715460Y217235853D01*
X-283325853Y217625460D01*
X-283115000Y218134506D01*
X-283115000Y218685494D01*
X-283325853Y219194540D01*
X-283715460Y219584147D01*
X-284224506Y219795000D01*
X-284775494Y219795000D01*
X-285284540Y219584147D01*
X-285323687Y219545000D01*
X-286818217Y219545000D01*
X-286930000Y219567235D01*
X-287041783Y219545000D01*
X-287372855Y219479146D01*
X-287748289Y219228289D01*
X-287811611Y219133521D01*
X-289150131Y217795000D01*
X-295156313Y217795000D01*
X-294825853Y218125460D01*
X-294615000Y218634506D01*
X-294615000Y219185494D01*
X-294825853Y219694540D01*
X-295215460Y220084147D01*
X-295724506Y220295000D01*
X-296275494Y220295000D01*
X-296784540Y220084147D01*
X-296823687Y220045000D01*
X-296873000Y220045000D01*
X-296873000Y226415494D01*
X-295705000Y226415494D01*
X-295705000Y225864506D01*
X-295494147Y225355460D01*
X-295104540Y224965853D01*
X-294595494Y224755000D01*
X-294044506Y224755000D01*
X-293535460Y224965853D01*
X-293145853Y225355460D01*
X-292935000Y225864506D01*
X-292935000Y226415494D01*
X-293145853Y226924540D01*
X-293185000Y226963687D01*
X-293185000Y230009869D01*
X-292919868Y230275000D01*
X-289177239Y230275000D01*
X-288926153Y230023914D01*
X-288325222Y229775000D01*
X-287674778Y229775000D01*
X-287073847Y230023914D01*
X-286613914Y230483847D01*
X-286365000Y231084778D01*
X-286365000Y231735222D01*
X-282135000Y231735222D01*
X-282135000Y231084778D01*
X-281886086Y230483847D01*
X-281635000Y230232761D01*
X-281634999Y227111783D01*
X-281635000Y217668218D01*
X-281569146Y217337146D01*
X-281318289Y216961711D01*
X-281150441Y216849559D01*
X-281038289Y216681711D01*
X-280662855Y216430854D01*
X-280331783Y216365000D01*
X-273381971Y216365000D01*
X-273233845Y216007392D01*
X-272492608Y215266155D01*
X-271524134Y214865000D01*
X-270475866Y214865000D01*
X-269507392Y215266155D01*
X-268766155Y216007392D01*
X-268500000Y216649947D01*
X-268233845Y216007392D01*
X-267492608Y215266155D01*
X-266524134Y214865000D01*
X-265475866Y214865000D01*
X-264507392Y215266155D01*
X-263766155Y216007392D01*
X-263618029Y216365000D01*
X-253508217Y216365000D01*
X-253177145Y216430854D01*
X-252801711Y216681711D01*
X-252681547Y216861548D01*
X-252501711Y216981711D01*
X-252250854Y217357145D01*
X-252185000Y217688217D01*
X-252185000Y226682761D01*
X-251933914Y226933847D01*
X-251685000Y227534778D01*
X-251685000Y228185222D01*
X-251933914Y228786153D01*
X-252393847Y229246086D01*
X-252994778Y229495000D01*
X-253645222Y229495000D01*
X-254246153Y229246086D01*
X-254706086Y228786153D01*
X-254955000Y228185222D01*
X-254955000Y227534778D01*
X-254706086Y226933847D01*
X-254454999Y226682760D01*
X-254455000Y218635000D01*
X-263618029Y218635000D01*
X-263766155Y218992608D01*
X-264507392Y219733845D01*
X-264865000Y219881971D01*
X-264865000Y221332169D01*
X-264740414Y221415414D01*
X-264545874Y221706565D01*
X-264477560Y222050000D01*
X-264477560Y222975000D01*
X-264545874Y223318435D01*
X-264740414Y223609586D01*
X-265031565Y223804126D01*
X-265375000Y223872440D01*
X-266625000Y223872440D01*
X-266968435Y223804126D01*
X-267259586Y223609586D01*
X-267454126Y223318435D01*
X-267522440Y222975000D01*
X-267522440Y222050000D01*
X-267454126Y221706565D01*
X-267259586Y221415414D01*
X-267135000Y221332169D01*
X-267135000Y219881971D01*
X-267492608Y219733845D01*
X-268233845Y218992608D01*
X-268500000Y218350053D01*
X-268766155Y218992608D01*
X-269507392Y219733845D01*
X-269865000Y219881971D01*
X-269865000Y221332169D01*
X-269740414Y221415414D01*
X-269545874Y221706565D01*
X-269477560Y222050000D01*
X-269477560Y222975000D01*
X-269545874Y223318435D01*
X-269740414Y223609586D01*
X-270031565Y223804126D01*
X-270375000Y223872440D01*
X-271625000Y223872440D01*
X-271968435Y223804126D01*
X-272259586Y223609586D01*
X-272454126Y223318435D01*
X-272522440Y222975000D01*
X-272522440Y222050000D01*
X-272454126Y221706565D01*
X-272259586Y221415414D01*
X-272135000Y221332168D01*
X-272135000Y220216645D01*
X-272134999Y220216640D01*
X-272134999Y219881971D01*
X-272492608Y219733845D01*
X-273233845Y218992608D01*
X-273381971Y218635000D01*
X-279365000Y218635000D01*
X-279365000Y225201750D01*
X-272510000Y225201750D01*
X-272510000Y224648691D01*
X-272413327Y224415302D01*
X-272234699Y224236673D01*
X-272001310Y224140000D01*
X-271285750Y224140000D01*
X-271127000Y224298750D01*
X-271127000Y225360500D01*
X-270873000Y225360500D01*
X-270873000Y224298750D01*
X-270714250Y224140000D01*
X-269998690Y224140000D01*
X-269765301Y224236673D01*
X-269586673Y224415302D01*
X-269490000Y224648691D01*
X-269490000Y225201750D01*
X-267510000Y225201750D01*
X-267510000Y224648691D01*
X-267413327Y224415302D01*
X-267234699Y224236673D01*
X-267001310Y224140000D01*
X-266285750Y224140000D01*
X-266127000Y224298750D01*
X-266127000Y225360500D01*
X-265873000Y225360500D01*
X-265873000Y224298750D01*
X-265714250Y224140000D01*
X-264998690Y224140000D01*
X-264765301Y224236673D01*
X-264586673Y224415302D01*
X-264490000Y224648691D01*
X-264490000Y225201750D01*
X-264648750Y225360500D01*
X-265873000Y225360500D01*
X-266127000Y225360500D01*
X-267351250Y225360500D01*
X-267510000Y225201750D01*
X-269490000Y225201750D01*
X-269648750Y225360500D01*
X-270873000Y225360500D01*
X-271127000Y225360500D01*
X-272351250Y225360500D01*
X-272510000Y225201750D01*
X-279365000Y225201750D01*
X-279365000Y226326309D01*
X-272510000Y226326309D01*
X-272510000Y225773250D01*
X-272351250Y225614500D01*
X-271127000Y225614500D01*
X-271127000Y226676250D01*
X-270873000Y226676250D01*
X-270873000Y225614500D01*
X-269648750Y225614500D01*
X-269490000Y225773250D01*
X-269490000Y226326309D01*
X-267510000Y226326309D01*
X-267510000Y225773250D01*
X-267351250Y225614500D01*
X-266127000Y225614500D01*
X-266127000Y226676250D01*
X-265873000Y226676250D01*
X-265873000Y225614500D01*
X-264648750Y225614500D01*
X-264490000Y225773250D01*
X-264490000Y226326309D01*
X-264586673Y226559698D01*
X-264765301Y226738327D01*
X-264998690Y226835000D01*
X-265714250Y226835000D01*
X-265873000Y226676250D01*
X-266127000Y226676250D01*
X-266285750Y226835000D01*
X-267001310Y226835000D01*
X-267234699Y226738327D01*
X-267413327Y226559698D01*
X-267510000Y226326309D01*
X-269490000Y226326309D01*
X-269586673Y226559698D01*
X-269765301Y226738327D01*
X-269998690Y226835000D01*
X-270714250Y226835000D01*
X-270873000Y226676250D01*
X-271127000Y226676250D01*
X-271285750Y226835000D01*
X-272001310Y226835000D01*
X-272234699Y226738327D01*
X-272413327Y226559698D01*
X-272510000Y226326309D01*
X-279365000Y226326309D01*
X-279365000Y230232761D01*
X-279113914Y230483847D01*
X-279055456Y230624978D01*
X-270195416Y230624978D01*
X-269974647Y230254257D01*
X-269002988Y229860881D01*
X-267954753Y229869287D01*
X-267025353Y230254257D01*
X-266804584Y230624978D01*
X-268500000Y232320395D01*
X-270195416Y230624978D01*
X-279055456Y230624978D01*
X-278865000Y231084778D01*
X-278865000Y231735222D01*
X-279113914Y232336153D01*
X-279573847Y232796086D01*
X-280073352Y233002988D01*
X-271139119Y233002988D01*
X-271130713Y231954753D01*
X-270745743Y231025353D01*
X-270375022Y230804584D01*
X-268679605Y232500000D01*
X-268320395Y232500000D01*
X-266624978Y230804584D01*
X-266254257Y231025353D01*
X-265860881Y231997012D01*
X-265869287Y233045247D01*
X-266254257Y233974647D01*
X-266624978Y234195416D01*
X-268320395Y232500000D01*
X-268679605Y232500000D01*
X-270375022Y234195416D01*
X-270745743Y233974647D01*
X-271139119Y233002988D01*
X-280073352Y233002988D01*
X-280174778Y233045000D01*
X-280825222Y233045000D01*
X-281426153Y232796086D01*
X-281886086Y232336153D01*
X-282135000Y231735222D01*
X-286365000Y231735222D01*
X-286613914Y232336153D01*
X-287073847Y232796086D01*
X-287674778Y233045000D01*
X-288325222Y233045000D01*
X-288926153Y232796086D01*
X-289177239Y232545000D01*
X-293278217Y232545000D01*
X-293390000Y232567235D01*
X-293501783Y232545000D01*
X-293832855Y232479146D01*
X-294208289Y232228289D01*
X-294271611Y232133521D01*
X-295043519Y231361613D01*
X-295138289Y231298289D01*
X-295359552Y230967145D01*
X-295389146Y230922854D01*
X-295477235Y230480000D01*
X-295455000Y230368217D01*
X-295454999Y226963688D01*
X-295494147Y226924540D01*
X-295705000Y226415494D01*
X-296873000Y226415494D01*
X-296873000Y234375022D01*
X-270195416Y234375022D01*
X-268500000Y232679605D01*
X-266804584Y234375022D01*
X-267025353Y234745743D01*
X-267997012Y235139119D01*
X-269045247Y235130713D01*
X-269974647Y234745743D01*
X-270195416Y234375022D01*
X-296873000Y234375022D01*
X-296873000Y235830000D01*
X-263032337Y235830000D01*
X-262963652Y235484691D01*
X-262817424Y235265846D01*
X-262793809Y235242231D01*
X-262729146Y234917145D01*
X-262478289Y234541711D01*
X-262102855Y234290854D01*
X-261771783Y234225000D01*
X-254497239Y234225000D01*
X-254246153Y233973914D01*
X-253645222Y233725000D01*
X-252994778Y233725000D01*
X-252393847Y233973914D01*
X-251933914Y234433847D01*
X-251685000Y235034778D01*
X-251685000Y235685222D01*
X-251933914Y236286153D01*
X-252393847Y236746086D01*
X-252994778Y236995000D01*
X-253645222Y236995000D01*
X-254246153Y236746086D01*
X-254497239Y236495000D01*
X-260283912Y236495000D01*
X-260345853Y236644540D01*
X-260735460Y237034147D01*
X-261244506Y237245000D01*
X-261795494Y237245000D01*
X-262304540Y237034147D01*
X-262694147Y236644540D01*
X-262766947Y236468786D01*
X-262768049Y236468049D01*
X-262963652Y236175309D01*
X-263032337Y235830000D01*
X-296873000Y235830000D01*
X-296873000Y237750060D01*
X-242397500Y237750060D01*
X-242397500Y234249940D01*
X-242348217Y234002175D01*
X-242207869Y233792131D01*
X-241997825Y233651783D01*
X-241750060Y233602500D01*
X-238249940Y233602500D01*
X-238002175Y233651783D01*
X-237792131Y233792131D01*
X-237651783Y234002175D01*
X-237602500Y234249940D01*
X-237602500Y236474418D01*
X-237305060Y236474418D01*
X-237305060Y235525582D01*
X-236941956Y234648972D01*
X-236271028Y233978044D01*
X-235394418Y233614940D01*
X-234445582Y233614940D01*
X-233568972Y233978044D01*
X-232898044Y234648972D01*
X-232534940Y235525582D01*
X-232534940Y236474418D01*
X-232898044Y237351028D01*
X-233568972Y238021956D01*
X-234445582Y238385060D01*
X-235394418Y238385060D01*
X-236271028Y238021956D01*
X-236941956Y237351028D01*
X-237305060Y236474418D01*
X-237602500Y236474418D01*
X-237602500Y237750060D01*
X-237651783Y237997825D01*
X-237792131Y238207869D01*
X-238002175Y238348217D01*
X-238249940Y238397500D01*
X-241750060Y238397500D01*
X-241997825Y238348217D01*
X-242207869Y238207869D01*
X-242348217Y237997825D01*
X-242397500Y237750060D01*
X-296873000Y237750060D01*
X-296873000Y238783000D01*
X-228127000Y238783000D01*
X-228127000Y192651059D01*
G36*
X-253081673Y205789366D02*
X-251213268Y202052557D01*
X-264873000Y203028252D01*
X-264873000Y206771977D01*
X-253081673Y205789366D01*
X-253081673Y205789366D01*
G37*
X-253081673Y205789366D02*
X-251213268Y202052557D01*
X-264873000Y203028252D01*
X-264873000Y206771977D01*
X-253081673Y205789366D01*
G04 #@! TD*
M02*
