M48
;DRILL file {KiCad 5.0.2-bee76a0~70~ubuntu18.04.1} date Вт 07 янв 2020 12:15:50
;FORMAT={3:3/ absolute / metric / suppress leading zeros}
FMAT,2
METRIC,TZ
T1C0.500
T2C1.000
T3C1.001
T4C1.200
T5C1.300
T6C1.501
T7C2.000
%
G90
G05
T1
X-322000Y218910
X-322000Y199910
X-319000Y211910
X-315000Y214910
X-305000Y218910
X-304180Y208860
X-304000Y214910
X-303540Y217246
X-296680Y213220
X-296640Y216660
X-296000Y218910
X-294320Y226140
X-293000Y203910
X-285040Y212600
X-284500Y218410
X-273490Y212800
X-265360Y205210
X-261520Y235860
X-259550Y221820
X-253000Y189910
X-251000Y177910
X-249750Y188410
X-246000Y187910
X-234987Y169254
X-234987Y166254
X-234987Y159754
X-234987Y156504
X-231000Y193410
X-230940Y168910
X-228750Y191410
X-227012Y169229
X-226987Y166254
X-226987Y159504
X-226987Y156754
X-268500Y232500
X-266000Y217500
X-313853Y210927
X-313853Y209073
X-312763Y207573
X-311000Y213000
X-311000Y207000
X-309237Y212427
X-309237Y207573
X-308147Y210927
X-308147Y209073
T2
X-301000Y227000
X-301000Y217000
X-326000Y227000
X-326000Y217000
X-271000Y217500
X-237750Y182910
X-230250Y182910
X-259250Y186910
X-259250Y179410
X-288000Y231410
X-280500Y231410
X-253320Y235360
X-253320Y227860
X-290000Y211910
X-290000Y201910
X-289500Y183410
X-282000Y183410
X-279000Y208910
X-279000Y201410
T3
X-233000Y149000
X-229190Y149000
X-274500Y178660
X-270690Y178660
T4
X-292000Y194000
X-276760Y194000
X-274000Y194000
X-258760Y194000
T5
X-319000Y229000
X-319000Y224000
X-314000Y229000
X-314000Y224000
X-309000Y229000
X-309000Y224000
T6
X-246500Y183740
X-246500Y178660
X-240000Y236000
X-234920Y236000
X-301000Y236000
X-301000Y230920
X-326000Y236000
X-326000Y230920
T7
X-244000Y211910
X-244000Y201910
T0
M30
