G04 #@! TF.GenerationSoftware,KiCad,Pcbnew,5.0.2-bee76a0~70~ubuntu18.04.1*
G04 #@! TF.CreationDate,2020-01-07T12:16:07+05:00*
G04 #@! TF.ProjectId,headamp,68656164-616d-4702-9e6b-696361645f70,rev?*
G04 #@! TF.SameCoordinates,Original*
G04 #@! TF.FileFunction,Legend,Bot*
G04 #@! TF.FilePolarity,Positive*
%FSLAX46Y46*%
G04 Gerber Fmt 4.6, Leading zero omitted, Abs format (unit mm)*
G04 Created by KiCad (PCBNEW 5.0.2-bee76a0~70~ubuntu18.04.1) date Вт 07 янв 2020 12:16:07*
%MOMM*%
%LPD*%
G01*
G04 APERTURE LIST*
%ADD10C,0.120000*%
%ADD11C,0.150000*%
G04 APERTURE END LIST*
D10*
G04 #@! TO.C,C1*
X-234396696Y157562146D02*
X-234396696Y158766274D01*
X-232576696Y157562146D02*
X-232576696Y158766274D01*
G04 #@! TO.C,C2*
X-234396696Y167139646D02*
X-234396696Y168343774D01*
X-232576696Y167139646D02*
X-232576696Y168343774D01*
G04 #@! TO.C,C3*
X-229396696Y157562146D02*
X-229396696Y158766274D01*
X-227576696Y157562146D02*
X-227576696Y158766274D01*
G04 #@! TO.C,C4*
X-229396696Y167139646D02*
X-229396696Y168343774D01*
X-227576696Y167139646D02*
X-227576696Y168343774D01*
G04 #@! TO.C,D1*
X-276800000Y181610000D02*
X-270200000Y181610000D01*
X-270200000Y184310000D02*
X-270200000Y187510000D01*
X-276800000Y184310000D02*
X-276800000Y187510000D01*
X-270200000Y190210000D02*
X-270200000Y189410000D01*
X-276800000Y190210000D02*
X-270200000Y190210000D01*
X-276800000Y189410000D02*
X-276800000Y190210000D01*
X-276802000Y181592000D02*
X-276802000Y182354000D01*
X-276802000Y182354000D02*
X-278834000Y182354000D01*
X-278834000Y182354000D02*
X-278834000Y182354000D01*
X-270198000Y182354000D02*
X-270198000Y181592000D01*
X-270198000Y181592000D02*
X-270198000Y181592000D01*
G04 #@! TO.C,R6*
X-268115240Y209748192D02*
X-268115240Y210952320D01*
X-266295240Y209748192D02*
X-266295240Y210952320D01*
G04 #@! TO.C,R7*
X-266115240Y209748192D02*
X-266115240Y210952320D01*
X-264295240Y209748192D02*
X-264295240Y210952320D01*
G04 #@! TO.C,R23*
X-267422064Y202280000D02*
X-266217936Y202280000D01*
X-267422064Y200460000D02*
X-266217936Y200460000D01*
G04 #@! TO.C,R24*
X-265090000Y224602064D02*
X-265090000Y223397936D01*
X-266910000Y224602064D02*
X-266910000Y223397936D01*
G04 #@! TO.C,R25*
X-270090000Y224602064D02*
X-270090000Y223397936D01*
X-271910000Y224602064D02*
X-271910000Y223397936D01*
G04 #@! TO.C,C1*
D11*
X-231309553Y158330876D02*
X-231261934Y158378495D01*
X-231214315Y158521352D01*
X-231214315Y158616590D01*
X-231261934Y158759448D01*
X-231357172Y158854686D01*
X-231452410Y158902305D01*
X-231642886Y158949924D01*
X-231785743Y158949924D01*
X-231976219Y158902305D01*
X-232071457Y158854686D01*
X-232166696Y158759448D01*
X-232214315Y158616590D01*
X-232214315Y158521352D01*
X-232166696Y158378495D01*
X-232119076Y158330876D01*
X-231214315Y157378495D02*
X-231214315Y157949924D01*
X-231214315Y157664210D02*
X-232214315Y157664210D01*
X-232071457Y157759448D01*
X-231976219Y157854686D01*
X-231928600Y157949924D01*
G04 #@! TO.C,C2*
X-231309553Y167908376D02*
X-231261934Y167955995D01*
X-231214315Y168098852D01*
X-231214315Y168194090D01*
X-231261934Y168336948D01*
X-231357172Y168432186D01*
X-231452410Y168479805D01*
X-231642886Y168527424D01*
X-231785743Y168527424D01*
X-231976219Y168479805D01*
X-232071457Y168432186D01*
X-232166696Y168336948D01*
X-232214315Y168194090D01*
X-232214315Y168098852D01*
X-232166696Y167955995D01*
X-232119076Y167908376D01*
X-232119076Y167527424D02*
X-232166696Y167479805D01*
X-232214315Y167384567D01*
X-232214315Y167146471D01*
X-232166696Y167051233D01*
X-232119076Y167003614D01*
X-232023838Y166955995D01*
X-231928600Y166955995D01*
X-231785743Y167003614D01*
X-231214315Y167575043D01*
X-231214315Y166955995D01*
G04 #@! TO.C,C3*
X-226309553Y158330876D02*
X-226261934Y158378495D01*
X-226214315Y158521352D01*
X-226214315Y158616590D01*
X-226261934Y158759448D01*
X-226357172Y158854686D01*
X-226452410Y158902305D01*
X-226642886Y158949924D01*
X-226785743Y158949924D01*
X-226976219Y158902305D01*
X-227071457Y158854686D01*
X-227166696Y158759448D01*
X-227214315Y158616590D01*
X-227214315Y158521352D01*
X-227166696Y158378495D01*
X-227119076Y158330876D01*
X-227214315Y157997543D02*
X-227214315Y157378495D01*
X-226833362Y157711829D01*
X-226833362Y157568971D01*
X-226785743Y157473733D01*
X-226738124Y157426114D01*
X-226642886Y157378495D01*
X-226404791Y157378495D01*
X-226309553Y157426114D01*
X-226261934Y157473733D01*
X-226214315Y157568971D01*
X-226214315Y157854686D01*
X-226261934Y157949924D01*
X-226309553Y157997543D01*
G04 #@! TO.C,C4*
X-226309553Y167908376D02*
X-226261934Y167955995D01*
X-226214315Y168098852D01*
X-226214315Y168194090D01*
X-226261934Y168336948D01*
X-226357172Y168432186D01*
X-226452410Y168479805D01*
X-226642886Y168527424D01*
X-226785743Y168527424D01*
X-226976219Y168479805D01*
X-227071457Y168432186D01*
X-227166696Y168336948D01*
X-227214315Y168194090D01*
X-227214315Y168098852D01*
X-227166696Y167955995D01*
X-227119076Y167908376D01*
X-226880981Y167051233D02*
X-226214315Y167051233D01*
X-227261934Y167289329D02*
X-226547648Y167527424D01*
X-226547648Y166908376D01*
G04 #@! TO.C,D1*
X-272761904Y180357619D02*
X-272761904Y181357619D01*
X-273000000Y181357619D01*
X-273142857Y181310000D01*
X-273238095Y181214761D01*
X-273285714Y181119523D01*
X-273333333Y180929047D01*
X-273333333Y180786190D01*
X-273285714Y180595714D01*
X-273238095Y180500476D01*
X-273142857Y180405238D01*
X-273000000Y180357619D01*
X-272761904Y180357619D01*
X-274285714Y180357619D02*
X-273714285Y180357619D01*
X-274000000Y180357619D02*
X-274000000Y181357619D01*
X-273904761Y181214761D01*
X-273809523Y181119523D01*
X-273714285Y181071904D01*
G04 #@! TO.C,R6*
X-264932859Y210516922D02*
X-265409049Y210850256D01*
X-264932859Y211088351D02*
X-265932859Y211088351D01*
X-265932859Y210707398D01*
X-265885240Y210612160D01*
X-265837620Y210564541D01*
X-265742382Y210516922D01*
X-265599525Y210516922D01*
X-265504287Y210564541D01*
X-265456668Y210612160D01*
X-265409049Y210707398D01*
X-265409049Y211088351D01*
X-265932859Y209659779D02*
X-265932859Y209850256D01*
X-265885240Y209945494D01*
X-265837620Y209993113D01*
X-265694763Y210088351D01*
X-265504287Y210135970D01*
X-265123335Y210135970D01*
X-265028097Y210088351D01*
X-264980478Y210040732D01*
X-264932859Y209945494D01*
X-264932859Y209755017D01*
X-264980478Y209659779D01*
X-265028097Y209612160D01*
X-265123335Y209564541D01*
X-265361430Y209564541D01*
X-265456668Y209612160D01*
X-265504287Y209659779D01*
X-265551906Y209755017D01*
X-265551906Y209945494D01*
X-265504287Y210040732D01*
X-265456668Y210088351D01*
X-265361430Y210135970D01*
G04 #@! TO.C,R7*
X-262932859Y210516922D02*
X-263409049Y210850256D01*
X-262932859Y211088351D02*
X-263932859Y211088351D01*
X-263932859Y210707398D01*
X-263885240Y210612160D01*
X-263837620Y210564541D01*
X-263742382Y210516922D01*
X-263599525Y210516922D01*
X-263504287Y210564541D01*
X-263456668Y210612160D01*
X-263409049Y210707398D01*
X-263409049Y211088351D01*
X-263932859Y210183589D02*
X-263932859Y209516922D01*
X-262932859Y209945494D01*
G04 #@! TO.C,R23*
X-266177142Y199097619D02*
X-265843809Y199573809D01*
X-265605714Y199097619D02*
X-265605714Y200097619D01*
X-265986666Y200097619D01*
X-266081904Y200050000D01*
X-266129523Y200002380D01*
X-266177142Y199907142D01*
X-266177142Y199764285D01*
X-266129523Y199669047D01*
X-266081904Y199621428D01*
X-265986666Y199573809D01*
X-265605714Y199573809D01*
X-266558095Y200002380D02*
X-266605714Y200050000D01*
X-266700952Y200097619D01*
X-266939047Y200097619D01*
X-267034285Y200050000D01*
X-267081904Y200002380D01*
X-267129523Y199907142D01*
X-267129523Y199811904D01*
X-267081904Y199669047D01*
X-266510476Y199097619D01*
X-267129523Y199097619D01*
X-267462857Y200097619D02*
X-268081904Y200097619D01*
X-267748571Y199716666D01*
X-267891428Y199716666D01*
X-267986666Y199669047D01*
X-268034285Y199621428D01*
X-268081904Y199526190D01*
X-268081904Y199288095D01*
X-268034285Y199192857D01*
X-267986666Y199145238D01*
X-267891428Y199097619D01*
X-267605714Y199097619D01*
X-267510476Y199145238D01*
X-267462857Y199192857D01*
G04 #@! TO.C,R24*
X-267367619Y224642857D02*
X-267843809Y224976190D01*
X-267367619Y225214285D02*
X-268367619Y225214285D01*
X-268367619Y224833333D01*
X-268320000Y224738095D01*
X-268272380Y224690476D01*
X-268177142Y224642857D01*
X-268034285Y224642857D01*
X-267939047Y224690476D01*
X-267891428Y224738095D01*
X-267843809Y224833333D01*
X-267843809Y225214285D01*
X-268272380Y224261904D02*
X-268320000Y224214285D01*
X-268367619Y224119047D01*
X-268367619Y223880952D01*
X-268320000Y223785714D01*
X-268272380Y223738095D01*
X-268177142Y223690476D01*
X-268081904Y223690476D01*
X-267939047Y223738095D01*
X-267367619Y224309523D01*
X-267367619Y223690476D01*
X-268034285Y222833333D02*
X-267367619Y222833333D01*
X-268415238Y223071428D02*
X-267700952Y223309523D01*
X-267700952Y222690476D01*
G04 #@! TO.C,R25*
X-272367619Y224642857D02*
X-272843809Y224976190D01*
X-272367619Y225214285D02*
X-273367619Y225214285D01*
X-273367619Y224833333D01*
X-273320000Y224738095D01*
X-273272380Y224690476D01*
X-273177142Y224642857D01*
X-273034285Y224642857D01*
X-272939047Y224690476D01*
X-272891428Y224738095D01*
X-272843809Y224833333D01*
X-272843809Y225214285D01*
X-273272380Y224261904D02*
X-273320000Y224214285D01*
X-273367619Y224119047D01*
X-273367619Y223880952D01*
X-273320000Y223785714D01*
X-273272380Y223738095D01*
X-273177142Y223690476D01*
X-273081904Y223690476D01*
X-272939047Y223738095D01*
X-272367619Y224309523D01*
X-272367619Y223690476D01*
X-273367619Y222785714D02*
X-273367619Y223261904D01*
X-272891428Y223309523D01*
X-272939047Y223261904D01*
X-272986666Y223166666D01*
X-272986666Y222928571D01*
X-272939047Y222833333D01*
X-272891428Y222785714D01*
X-272796190Y222738095D01*
X-272558095Y222738095D01*
X-272462857Y222785714D01*
X-272415238Y222833333D01*
X-272367619Y222928571D01*
X-272367619Y223166666D01*
X-272415238Y223261904D01*
X-272462857Y223309523D01*
G04 #@! TD*
M02*
